<svg width="188" height="51" viewBox="0 0 188 51" fill="none" xmlns="http://www.w3.org/2000/svg">
<path d="M5.41 24.01L17.125 8.995H15.915L4.915 23.075V8.995H3.1V47.055H4.915V26.87L16.63 47.055H18.775L5.41 24.01ZM42.4895 8.39C41.9945 8.995 41.5545 9.6 41.0595 10.205C37.7595 22.47 34.4595 34.735 31.2145 47.055H32.1495C35.2845 35.34 38.4195 23.68 41.5545 12.02C44.6895 23.68 47.8245 35.34 50.9045 47.055H52.8295C49.4195 34.185 45.9545 21.26 42.4895 8.39ZM79.9221 8.995L79.0421 11.25L73.9821 24.395L67.0521 42.215V8.995H65.2371V47.055H66.2271L67.0521 44.8L79.0421 13.835V47.055H80.9121V8.995H79.9221ZM114.142 8.39C113.647 8.995 113.152 9.6 112.657 10.205C111.447 14.88 110.182 19.61 108.917 24.285C107.487 19.005 106.057 13.725 104.627 8.39C104.187 8.995 103.692 9.6 103.197 10.205C99.8966 22.47 96.5966 34.735 93.3516 47.055H94.2866C97.4216 35.34 100.557 23.68 103.692 12.02C105.122 17.3 106.497 22.58 107.927 27.915C108.422 27.31 108.917 26.705 109.412 26.1C110.622 21.425 111.887 16.695 113.152 12.02C116.287 23.68 119.422 35.34 122.557 47.055H124.482C121.017 34.185 117.552 21.26 114.142 8.39ZM148.21 8.39C147.715 8.995 147.275 9.6 146.78 10.205C143.48 22.47 140.18 34.735 136.935 47.055H137.87C139.135 42.325 140.4 37.65 141.665 32.975H152.885C154.15 37.65 155.415 42.325 156.625 47.055H158.55C155.14 34.185 151.675 21.26 148.21 8.39ZM141.885 32.04L147.275 12.02L152.61 32.04H141.885ZM166.141 8.995C165.866 9.325 165.591 9.6 165.371 9.93H172.301V47.055H174.171V9.93H180.276C180.496 9.6 180.771 9.325 181.046 8.995H166.141Z" fill="white"/>
<path d="M5.41 24.01L3.04475 22.1646L1.79827 23.7622L2.81485 25.5151L5.41 24.01ZM17.125 8.995L19.4903 10.8404L23.2707 5.995H17.125V8.995ZM15.915 8.995V5.995H14.4518L13.5509 7.14807L15.915 8.995ZM4.915 23.075H1.915V31.7879L7.27907 24.9219L4.915 23.075ZM4.915 8.995H7.915V5.995H4.915V8.995ZM3.1 8.995V5.995H0.1V8.995H3.1ZM3.1 47.055H0.1V50.055H3.1V47.055ZM4.915 47.055V50.055H7.915V47.055H4.915ZM4.915 26.87L7.50966 25.3641L1.915 15.7245V26.87H4.915ZM16.63 47.055L14.0353 48.5609L14.9025 50.055H16.63V47.055ZM18.775 47.055V50.055H23.9829L21.3701 45.5499L18.775 47.055ZM7.77526 25.8554L19.4903 10.8404L14.7597 7.14958L3.04475 22.1646L7.77526 25.8554ZM17.125 5.995H15.915V11.995H17.125V5.995ZM13.5509 7.14807L2.55093 21.2281L7.27907 24.9219L18.2791 10.8419L13.5509 7.14807ZM7.915 23.075V8.995H1.915V23.075H7.915ZM4.915 5.995H3.1V11.995H4.915V5.995ZM0.1 8.995V47.055H6.1V8.995H0.1ZM3.1 50.055H4.915V44.055H3.1V50.055ZM7.915 47.055V26.87H1.915V47.055H7.915ZM2.32034 28.3759L14.0353 48.5609L19.2247 45.5491L7.50966 25.3641L2.32034 28.3759ZM16.63 50.055H18.775V44.055H16.63V50.055ZM21.3701 45.5499L8.00515 22.5049L2.81485 25.5151L16.1799 48.5601L21.3701 45.5499ZM42.4895 8.39L45.3863 7.61008L43.8674 1.96833L40.1676 6.49028L42.4895 8.39ZM41.0595 10.205L38.7376 8.30528L38.3298 8.80369L38.1625 9.42554L41.0595 10.205ZM31.2145 47.055L28.3134 46.2909L27.322 50.055H31.2145V47.055ZM32.1495 47.055V50.055H34.4522L35.0475 47.8305L32.1495 47.055ZM41.5545 12.02L44.4516 11.2411L41.5545 0.465838L38.6573 11.2411L41.5545 12.02ZM50.9045 47.055L48.0031 47.8178L48.5912 50.055H50.9045V47.055ZM52.8295 47.055V50.055H56.7278L55.7294 46.2866L52.8295 47.055ZM40.1676 6.49028C39.8894 6.83031 39.6305 7.16562 39.4006 7.46316C39.163 7.77062 38.9544 8.04032 38.7376 8.30528L43.3813 12.1047C43.6595 11.7647 43.9184 11.4294 44.1483 11.1318C44.3859 10.8244 44.5945 10.5547 44.8113 10.2897L40.1676 6.49028ZM38.1625 9.42554C34.8628 21.6893 31.5608 33.9619 28.3134 46.2909L34.1155 47.8191C37.3582 35.5081 40.6561 23.2507 43.9564 10.9845L38.1625 9.42554ZM31.2145 50.055H32.1495V44.055H31.2145V50.055ZM35.0475 47.8305C38.1819 36.1175 41.3165 24.4592 44.4516 12.7989L38.6573 11.2411C35.5224 22.9008 32.387 34.5625 29.2514 46.2795L35.0475 47.8305ZM38.6573 12.7989C41.7927 24.4603 44.9255 36.1122 48.0031 47.8178L53.8059 46.2922C50.7234 34.5678 47.5862 22.8997 44.4516 11.2411L38.6573 12.7989ZM50.9045 50.055H52.8295V44.055H50.9045V50.055ZM55.7294 46.2866C52.3179 33.4112 48.8518 20.4819 45.3863 7.61008L39.5926 9.16992C43.0571 22.0381 46.521 34.9588 49.9295 47.8234L55.7294 46.2866ZM79.9221 8.995V5.995H77.8725L77.1274 7.90437L79.9221 8.995ZM79.0421 11.25L76.2473 10.1594L76.2424 10.1723L79.0421 11.25ZM73.9821 24.395L76.7781 25.4823L76.7818 25.4727L73.9821 24.395ZM67.0521 42.215H64.0521L69.8481 43.3023L67.0521 42.215ZM67.0521 8.995H70.0521V5.995H67.0521V8.995ZM65.2371 8.995V5.995H62.2371V8.995H65.2371ZM65.2371 47.055H62.2371V50.055H65.2371V47.055ZM66.2271 47.055V50.055H68.324L69.0445 48.0857L66.2271 47.055ZM67.0521 44.8L64.2545 43.7167L64.2444 43.7429L64.2347 43.7693L67.0521 44.8ZM79.0421 13.835H82.0421L76.2445 12.7517L79.0421 13.835ZM79.0421 47.055H76.0421V50.055H79.0421V47.055ZM80.9121 47.055V50.055H83.9121V47.055H80.9121ZM80.9121 8.995H83.9121V5.995H80.9121V8.995ZM77.1274 7.90437L76.2474 10.1594L81.8368 12.3406L82.7168 10.0856L77.1274 7.90437ZM76.2424 10.1723L71.1824 23.3173L76.7818 25.4727L81.8418 12.3277L76.2424 10.1723ZM71.1861 23.3077L64.2561 41.1277L69.8481 43.3023L76.7781 25.4823L71.1861 23.3077ZM70.0521 42.215V8.995H64.0521V42.215H70.0521ZM67.0521 5.995H65.2371V11.995H67.0521V5.995ZM62.2371 8.995V47.055H68.2371V8.995H62.2371ZM65.2371 50.055H66.2271V44.055H65.2371V50.055ZM69.0445 48.0857L69.8695 45.8307L64.2347 43.7693L63.4097 46.0243L69.0445 48.0857ZM69.8497 45.8833L81.8397 14.9183L76.2445 12.7517L64.2545 43.7167L69.8497 45.8833ZM76.0421 13.835V47.055H82.0421V13.835H76.0421ZM79.0421 50.055H80.9121V44.055H79.0421V50.055ZM83.9121 47.055V8.995H77.9121V47.055H83.9121ZM80.9121 5.995H79.9221V11.995H80.9121V5.995ZM114.142 8.39L117.042 7.62164L115.538 1.94605L111.82 6.49028L114.142 8.39ZM112.657 10.205L110.335 8.30528L109.917 8.81532L109.752 9.4533L112.657 10.205ZM108.917 24.285L106.021 25.0692L108.918 35.7658L111.812 25.0686L108.917 24.285ZM104.627 8.39L107.524 7.61329L105.897 1.54253L102.2 6.62548L104.627 8.39ZM103.197 10.205L100.875 8.30528L100.467 8.80369L100.3 9.42554L103.197 10.205ZM93.3516 47.055L90.4505 46.2909L89.4591 50.055H93.3516V47.055ZM94.2866 47.055V50.055H96.5893L97.1846 47.8305L94.2866 47.055ZM103.692 12.02L106.587 11.2358L103.681 0.505068L100.794 11.2411L103.692 12.02ZM107.927 27.915L105.029 28.6917L106.544 34.3429L110.248 29.8147L107.927 27.915ZM109.412 26.1L111.733 27.9997L112.151 27.4897L112.316 26.8517L109.412 26.1ZM113.152 12.02L116.049 11.2411L113.161 0.500188L110.256 11.2364L113.152 12.02ZM122.557 47.055L119.659 47.8305L120.254 50.055H122.557V47.055ZM124.482 47.055V50.055H128.396L127.378 46.2751L124.482 47.055ZM111.82 6.49028C111.572 6.79278 111.325 7.09529 111.077 7.39779C110.83 7.70029 110.582 8.00278 110.335 8.30528L114.978 12.1047C115.226 11.8022 115.473 11.4997 115.721 11.1972C115.968 10.8947 116.216 10.5922 116.463 10.2897L111.82 6.49028ZM109.752 9.4533C108.546 14.1132 107.284 18.8314 106.021 23.5014L111.812 25.0686C113.079 20.3886 114.347 15.6468 115.561 10.9567L109.752 9.4533ZM111.812 23.5008C110.382 18.2202 108.953 12.9439 107.524 7.61329L101.729 9.1667C103.16 14.5061 104.591 19.7898 106.021 25.0692L111.812 23.5008ZM102.2 6.62548C101.82 7.14914 101.38 7.68708 100.875 8.30528L105.518 12.1047C106.003 11.5129 106.554 10.8409 107.053 10.1545L102.2 6.62548ZM100.3 9.42554C96.9999 21.6893 93.6979 33.9619 90.4505 46.2909L96.2526 47.8191C99.4953 35.5081 102.793 23.2507 106.094 10.9845L100.3 9.42554ZM93.3516 50.055H94.2866V44.055H93.3516V50.055ZM97.1846 47.8305C100.319 36.1175 103.454 24.4592 106.589 12.7989L100.794 11.2411C97.6595 22.9008 94.5241 34.5625 91.3885 46.2795L97.1846 47.8305ZM100.796 12.8042C102.228 18.0917 103.588 23.3168 105.029 28.6917L110.824 27.1383C109.405 21.8432 108.015 16.5083 106.587 11.2358L100.796 12.8042ZM110.248 29.8147C110.743 29.2097 111.238 28.6047 111.733 27.9997L107.09 24.2003C106.595 24.8053 106.1 25.4103 105.605 26.0153L110.248 29.8147ZM112.316 26.8517C113.522 22.1918 114.784 17.4736 116.047 12.8036L110.256 11.2364C108.989 15.9164 107.721 20.6582 106.507 25.3483L112.316 26.8517ZM110.254 12.7989C113.39 24.4592 116.524 36.1175 119.659 47.8305L125.455 46.2795C122.319 34.5625 119.184 22.9008 116.049 11.2411L110.254 12.7989ZM122.557 50.055H124.482V44.055H122.557V50.055ZM127.378 46.2751C123.914 33.4069 120.45 20.4862 117.042 7.62164L111.242 9.15836C114.653 22.0338 118.119 34.9631 121.585 47.8349L127.378 46.2751ZM148.21 8.39L151.107 7.61008L149.588 1.96833L145.888 6.49028L148.21 8.39ZM146.78 10.205L144.458 8.30528L144.05 8.80369L143.883 9.42554L146.78 10.205ZM136.935 47.055L134.034 46.2909L133.042 50.055H136.935V47.055ZM137.87 47.055V50.055H140.173L140.768 47.8301L137.87 47.055ZM141.665 32.975V29.975H139.369L138.769 32.1914L141.665 32.975ZM152.885 32.975L155.781 32.1914L155.181 29.975H152.885V32.975ZM156.625 47.055L153.718 47.7985L154.296 50.055H156.625V47.055ZM158.55 47.055V50.055H162.448L161.45 46.2866L158.55 47.055ZM141.885 32.04L138.988 31.2601L137.97 35.04H141.885V32.04ZM147.275 12.02L150.174 11.2475L147.29 0.425161L144.378 11.2401L147.275 12.02ZM152.61 32.04V35.04H156.514L155.509 31.2675L152.61 32.04ZM145.888 6.49028C145.61 6.83031 145.351 7.16562 145.121 7.46316C144.883 7.77062 144.675 8.04032 144.458 8.30528L149.102 12.1047C149.38 11.7647 149.639 11.4294 149.869 11.1318C150.106 10.8244 150.315 10.5547 150.532 10.2897L145.888 6.49028ZM143.883 9.42554C140.583 21.6893 137.281 33.9619 134.034 46.2909L139.836 47.8191C143.078 35.5081 146.376 23.2507 149.677 10.9845L143.883 9.42554ZM136.935 50.055H137.87V44.055H136.935V50.055ZM140.768 47.8301C142.032 43.105 143.295 38.4343 144.561 33.7586L138.769 32.1914C137.504 36.8657 136.238 41.545 134.972 46.2799L140.768 47.8301ZM141.665 35.975H152.885V29.975H141.665V35.975ZM149.989 33.7586C151.255 38.4368 152.514 43.0919 153.718 47.7985L159.531 46.3115C158.315 41.5581 157.045 36.8632 155.781 32.1914L149.989 33.7586ZM156.625 50.055H158.55V44.055H156.625V50.055ZM161.45 46.2866C158.038 33.4112 154.572 20.4819 151.107 7.61008L145.313 9.16992C148.777 22.0381 152.241 34.9588 155.65 47.8234L161.45 46.2866ZM144.782 32.8199L150.172 12.7999L144.378 11.2401L138.988 31.2601L144.782 32.8199ZM144.376 12.7925L149.711 32.8125L155.509 31.2675L150.174 11.2475L144.376 12.7925ZM152.61 29.04H141.885V35.04H152.61V29.04ZM166.141 8.995V5.995H164.736L163.837 7.07444L166.141 8.995ZM165.371 9.93L162.875 8.2659L159.766 12.93H165.371V9.93ZM172.301 9.93H175.301V6.93H172.301V9.93ZM172.301 47.055H169.301V50.055H172.301V47.055ZM174.171 47.055V50.055H177.171V47.055H174.171ZM174.171 9.93V6.93H171.171V9.93H174.171ZM180.276 9.93V12.93H181.882L182.773 11.5941L180.276 9.93ZM181.046 8.995L183.351 10.9156L187.452 5.995H181.046V8.995ZM163.837 7.07444C163.796 7.12313 163.207 7.7678 162.875 8.2659L167.868 11.5941C167.875 11.5833 167.904 11.542 168.006 11.4234C168.061 11.3598 168.11 11.305 168.191 11.213C168.264 11.13 168.352 11.028 168.446 10.9156L163.837 7.07444ZM165.371 12.93H172.301V6.93H165.371V12.93ZM169.301 9.93V47.055H175.301V9.93H169.301ZM172.301 50.055H174.171V44.055H172.301V50.055ZM177.171 47.055V9.93H171.171V47.055H177.171ZM174.171 12.93H180.276V6.93H174.171V12.93ZM182.773 11.5941C182.78 11.5833 182.809 11.542 182.911 11.4234C182.966 11.3598 183.015 11.305 183.096 11.213C183.169 11.13 183.257 11.028 183.351 10.9156L178.742 7.07444C178.701 7.12313 178.112 7.7678 177.78 8.26589L182.773 11.5941ZM181.046 5.995H166.141V11.995H181.046V5.995Z" fill="white"/>
</svg>
