<svg width="310" height="260" viewBox="0 0 310 260" fill="none" xmlns="http://www.w3.org/2000/svg">
<circle cx="5" cy="5" r="5" fill="#DF4141"/>
<circle cx="55" cy="5" r="5" fill="#DF4141"/>
<circle cx="155" cy="5" r="5" fill="#DF4141"/>
<circle cx="205" cy="5" r="5" fill="#DF4141"/>
<circle cx="255" cy="5" r="5" fill="#DF4141"/>
<circle cx="305" cy="5" r="5" fill="#DF4141"/>
<circle cx="305" cy="55" r="5" fill="#DF4141"/>
<circle cx="305" cy="105" r="5" fill="#DF4141"/>
<circle cx="305" cy="155" r="5" fill="#DF4141"/>
<circle cx="305" cy="205" r="5" fill="#DF4141"/>
<circle cx="305" cy="255" r="5" fill="#DF4141"/>
<circle cx="255" cy="205" r="5" fill="#DF4141"/>
<circle cx="205" cy="205" r="5" fill="#DF4141"/>
<circle cx="155" cy="205" r="5" fill="#DF4141"/>
<circle cx="55" cy="105" r="5" fill="#DF4141"/>
<circle cx="5" cy="255" r="5" fill="#DF4141"/>
<circle cx="55" cy="255" r="5" fill="#DF4141"/>
<circle cx="55" cy="205" r="5" fill="#DF4141"/>
<circle cx="55" cy="155" r="5" fill="#DF4141"/>
<circle cx="105" cy="155" r="5" fill="#DF4141"/>
<circle cx="105" cy="205" r="5" fill="#DF4141"/>
<circle cx="105" cy="255" r="5" fill="#DF4141"/>
<circle cx="155" cy="255" r="5" fill="#DF4141"/>
<circle cx="205" cy="255" r="5" fill="#DF4141"/>
<circle cx="255" cy="255" r="5" fill="#DF4141"/>
<circle cx="105" cy="105" r="5" fill="#DF4141"/>
<circle cx="5" cy="205" r="5" fill="#DF4141"/>
<circle cx="5" cy="155" r="5" fill="#DF4141"/>
<circle cx="5" cy="105" r="5" fill="#DF4141"/>
<circle cx="5" cy="55" r="5" fill="#DF4141"/>
<circle cx="55" cy="55" r="5" fill="#DF4141"/>
<circle cx="155" cy="55" r="5" fill="#DF4141"/>
<circle cx="205" cy="55" r="5" fill="#DF4141"/>
<circle cx="255" cy="55" r="5" fill="#DF4141"/>
<circle cx="255" cy="105" r="5" fill="#DF4141"/>
<circle cx="255" cy="155" r="5" fill="#DF4141"/>
<circle cx="205" cy="155" r="5" fill="#DF4141"/>
<circle cx="205" cy="105" r="5" fill="#DF4141"/>
<circle cx="155" cy="105" r="5" fill="#DF4141"/>
<circle cx="155" cy="155" r="5" fill="#DF4141"/>
<circle cx="105" cy="55" r="5" fill="#DF4141"/>
<circle cx="105" cy="5" r="5" fill="#DF4141"/>
</svg>
