<svg width="253" height="51" viewBox="0 0 253 51" fill="none" xmlns="http://www.w3.org/2000/svg">
<path d="M22.68 8.39C11.845 8.39 3.1 17.19 3.1 28.025C3.1 38.86 11.845 47.605 22.68 47.605C33.515 47.605 42.315 38.86 42.315 28.025C42.315 17.19 33.515 8.39 22.68 8.39ZM35.88 41.225C28.95 48.155 17.455 47.88 10.14 40.565C2.825 33.25 2.55 21.755 9.48 14.825C16.41 7.895 27.96 8.17 35.22 15.485C42.535 22.745 42.81 34.295 35.88 41.225ZM105.916 44.415C99.1506 47.77 90.5156 46.45 84.6306 40.565C77.3156 33.25 77.0406 21.755 83.9706 14.825C90.5706 8.225 101.296 8.17 108.611 14.44C109.051 14 109.436 13.505 109.821 13.065C106.411 10.15 102.011 8.39 97.1706 8.39C86.3356 8.39 77.5906 17.19 77.5906 28.025C77.5906 38.86 86.3356 47.605 97.1706 47.605C99.9756 47.605 102.671 47.055 105.091 45.955C106.796 45.185 108.391 44.195 109.821 42.985L109.546 41.995C108.446 42.985 107.236 43.81 105.916 44.415ZM123.018 8.995C122.743 9.325 122.468 9.6 122.248 9.93H129.178V47.055H131.048V9.93H137.153C137.373 9.6 137.648 9.325 137.923 8.995H123.018ZM166.092 20.435C166.092 13.78 160.702 8.39 154.047 8.39C152.782 8.39 151.517 8.61 150.362 8.995V47.055H152.177V32.26C152.837 32.37 153.442 32.425 154.047 32.425C160.702 32.425 166.092 27.035 166.092 20.435ZM164.222 20.435C164.222 26.54 159.657 31.49 154.047 31.49C153.442 31.49 152.782 31.435 152.177 31.325V9.545C152.782 9.38 153.442 9.325 154.047 9.325C159.657 9.325 164.222 14.33 164.222 20.435ZM184.327 8.39C183.832 8.995 183.392 9.6 182.897 10.205C179.597 22.47 176.297 34.735 173.052 47.055H173.987C175.252 42.325 176.517 37.65 177.782 32.975H189.002C190.267 37.65 191.532 42.325 192.742 47.055H194.667C191.257 34.185 187.792 21.26 184.327 8.39ZM178.002 32.04L183.392 12.02L188.727 32.04H178.002ZM208.89 47.055V32.37H220.88V47.055H222.75V8.995H220.88V31.435H208.89V8.995H207.075V47.055H208.89ZM237.004 46.12V24.01H243.824C244.044 23.68 244.264 23.35 244.484 23.075H237.004V9.93H245.529C245.804 9.6 246.079 9.325 246.354 8.995H235.189V47.055H246.354C246.079 46.725 245.804 46.395 245.529 46.12H237.004Z" fill="white"/>
<path d="M35.88 41.225L38.0013 43.3463L38.0013 43.3463L35.88 41.225ZM10.14 40.565L8.01868 42.6863L10.14 40.565ZM9.48 14.825L7.35868 12.7037L7.35868 12.7037L9.48 14.825ZM35.22 15.485L33.0907 17.5983L33.0987 17.6063L33.1067 17.6143L35.22 15.485ZM22.68 5.39C10.1772 5.39 0.1 15.5441 0.1 28.025H6.1C6.1 18.8359 13.5128 11.39 22.68 11.39V5.39ZM0.1 28.025C0.1 40.5169 10.1881 50.605 22.68 50.605V44.605C13.5019 44.605 6.1 37.2031 6.1 28.025H0.1ZM22.68 50.605C35.1609 50.605 45.315 40.5278 45.315 28.025H39.315C39.315 37.1922 31.8691 44.605 22.68 44.605V50.605ZM45.315 28.025C45.315 15.5331 35.1719 5.39 22.68 5.39V11.39C31.8581 11.39 39.315 18.8469 39.315 28.025H45.315ZM33.7587 39.1037C28.0994 44.763 18.5064 44.6888 12.2613 38.4437L8.01868 42.6863C16.4036 51.0712 29.8006 51.547 38.0013 43.3463L33.7587 39.1037ZM12.2613 38.4437C6.01622 32.1986 5.94204 22.6056 11.6013 16.9463L7.35868 12.7037C-0.842044 20.9044 -0.366221 34.3014 8.01868 42.6863L12.2613 38.4437ZM11.6013 16.9463C17.2648 11.2828 26.9073 11.3681 33.0907 17.5983L37.3493 13.3717C29.0127 4.97189 15.5552 4.50716 7.35868 12.7037L11.6013 16.9463ZM33.1067 17.6143C39.3369 23.7977 39.4222 33.4402 33.7587 39.1037L38.0013 43.3463C46.1978 35.1498 45.7331 21.6923 37.3333 13.3557L33.1067 17.6143ZM105.916 44.415L104.666 41.6878L104.624 41.7069L104.583 41.7274L105.916 44.415ZM84.6306 40.565L82.5093 42.6863L82.5093 42.6863L84.6306 40.565ZM83.9706 14.825L81.8493 12.7037L81.8493 12.7037L83.9706 14.825ZM108.611 14.44L106.658 16.7178L108.768 18.5257L110.732 16.5613L108.611 14.44ZM109.821 13.065L112.078 15.0405L114.077 12.7566L111.77 10.7846L109.821 13.065ZM105.091 45.955L103.856 43.2209L103.849 43.2239L105.091 45.955ZM109.821 42.985L111.758 45.2752L113.226 44.0338L112.711 42.1821L109.821 42.985ZM109.546 41.995L112.436 41.1921L111.14 36.5243L107.539 39.7651L109.546 41.995ZM104.583 41.7274C99.0091 44.4915 91.7565 43.4483 86.7519 38.4437L82.5093 42.6863C89.2747 49.4517 99.2922 51.0485 107.249 47.1026L104.583 41.7274ZM86.7519 38.4437C80.5068 32.1986 80.4327 22.6056 86.0919 16.9463L81.8493 12.7037C73.6486 20.9044 74.1244 34.3014 82.5093 42.6863L86.7519 38.4437ZM86.0919 16.9463C91.4849 11.5534 100.425 11.3746 106.658 16.7178L110.563 12.1622C102.167 4.96537 89.6564 4.89661 81.8493 12.7037L86.0919 16.9463ZM110.732 16.5613C111.259 16.0339 111.854 15.297 112.078 15.0405L107.563 11.0895C107.017 11.713 106.842 11.9661 106.489 12.3187L110.732 16.5613ZM111.77 10.7846C107.84 7.42546 102.756 5.39 97.1706 5.39V11.39C101.265 11.39 104.981 12.8745 107.871 15.3454L111.77 10.7846ZM97.1706 5.39C84.6678 5.39 74.5906 15.5441 74.5906 28.025H80.5906C80.5906 18.8359 88.0034 11.39 97.1706 11.39V5.39ZM74.5906 28.025C74.5906 40.5169 84.6788 50.605 97.1706 50.605V44.605C87.9925 44.605 80.5906 37.2031 80.5906 28.025H74.5906ZM97.1706 50.605C100.366 50.605 103.489 49.9782 106.332 48.6861L103.849 43.2239C101.852 44.1318 99.5848 44.605 97.1706 44.605V50.605ZM106.325 48.6891C108.27 47.811 110.104 46.675 111.758 45.2752L107.883 40.6948C106.677 41.715 105.321 42.559 103.856 43.2209L106.325 48.6891ZM112.711 42.1821L112.436 41.1921L106.655 42.7979L106.93 43.7879L112.711 42.1821ZM107.539 39.7651C106.635 40.578 105.676 41.2246 104.666 41.6878L107.166 47.1422C108.795 46.3954 110.256 45.392 111.553 44.2249L107.539 39.7651ZM123.018 8.995V5.995H121.613L120.713 7.07444L123.018 8.995ZM122.248 9.93L119.752 8.2659L116.642 12.93H122.248V9.93ZM129.178 9.93H132.178V6.93H129.178V9.93ZM129.178 47.055H126.178V50.055H129.178V47.055ZM131.048 47.055V50.055H134.048V47.055H131.048ZM131.048 9.93V6.93H128.048V9.93H131.048ZM137.153 9.93V12.93H138.759L139.649 11.5941L137.153 9.93ZM137.923 8.995L140.228 10.9156L144.328 5.995H137.923V8.995ZM120.713 7.07444C120.673 7.12313 120.084 7.7678 119.752 8.2659L124.744 11.5941C124.751 11.5833 124.78 11.542 124.883 11.4234C124.938 11.3598 124.986 11.305 125.067 11.213C125.14 11.13 125.229 11.028 125.323 10.9156L120.713 7.07444ZM122.248 12.93H129.178V6.93H122.248V12.93ZM126.178 9.93V47.055H132.178V9.93H126.178ZM129.178 50.055H131.048V44.055H129.178V50.055ZM134.048 47.055V9.93H128.048V47.055H134.048ZM131.048 12.93H137.153V6.93H131.048V12.93ZM139.649 11.5941C139.656 11.5833 139.685 11.542 139.788 11.4234C139.843 11.3598 139.891 11.305 139.972 11.213C140.045 11.13 140.134 11.028 140.228 10.9156L135.618 7.07444C135.578 7.12313 134.989 7.7678 134.657 8.26589L139.649 11.5941ZM137.923 5.995H123.018V11.995H137.923V5.995ZM150.362 8.995L149.414 6.14895L147.362 6.83272V8.995H150.362ZM150.362 47.055H147.362V50.055H150.362V47.055ZM152.177 47.055V50.055H155.177V47.055H152.177ZM152.177 32.26L152.671 29.3008L149.177 28.7186V32.26H152.177ZM152.177 31.325H149.177V33.8287L151.641 34.2766L152.177 31.325ZM152.177 9.545L151.388 6.6507L149.177 7.2536V9.545H152.177ZM169.092 20.435C169.092 12.1231 162.359 5.39 154.047 5.39V11.39C159.046 11.39 163.092 15.4369 163.092 20.435H169.092ZM154.047 5.39C152.443 5.39 150.858 5.66753 149.414 6.14895L151.311 11.841C152.177 11.5525 153.122 11.39 154.047 11.39V5.39ZM147.362 8.995V47.055H153.362V8.995H147.362ZM150.362 50.055H152.177V44.055H150.362V50.055ZM155.177 47.055V32.26H149.177V47.055H155.177ZM151.684 35.2192C152.482 35.3522 153.254 35.425 154.047 35.425V29.425C153.631 29.425 153.193 29.3878 152.671 29.3008L151.684 35.2192ZM154.047 35.425C162.35 35.425 169.092 28.7008 169.092 20.435H163.092C163.092 25.3692 159.055 29.425 154.047 29.425V35.425ZM161.222 20.435C161.222 25.1205 157.773 28.49 154.047 28.49V34.49C161.542 34.49 167.222 27.9595 167.222 20.435H161.222ZM154.047 28.49C153.609 28.49 153.13 28.4489 152.714 28.3734L151.641 34.2766C152.435 34.4211 153.276 34.49 154.047 34.49V28.49ZM155.177 31.325V9.545H149.177V31.325H155.177ZM152.967 12.4393C153.227 12.3684 153.6 12.325 154.047 12.325V6.325C153.285 6.325 152.338 6.39161 151.388 6.6507L152.967 12.4393ZM154.047 12.325C157.754 12.325 161.222 15.7294 161.222 20.435H167.222C167.222 12.9306 161.561 6.325 154.047 6.325V12.325ZM184.327 8.39L187.224 7.61008L185.705 1.96833L182.005 6.49028L184.327 8.39ZM182.897 10.205L180.575 8.30528L180.167 8.80369L180 9.42554L182.897 10.205ZM173.052 47.055L170.151 46.2909L169.16 50.055H173.052V47.055ZM173.987 47.055V50.055H176.29L176.885 47.8301L173.987 47.055ZM177.782 32.975V29.975H175.486L174.886 32.1914L177.782 32.975ZM189.002 32.975L191.898 32.1914L191.298 29.975H189.002V32.975ZM192.742 47.055L189.836 47.7985L190.413 50.055H192.742V47.055ZM194.667 47.055V50.055H198.566L197.567 46.2866L194.667 47.055ZM178.002 32.04L175.105 31.2601L174.088 35.04H178.002V32.04ZM183.392 12.02L186.291 11.2475L183.407 0.425161L180.495 11.2401L183.392 12.02ZM188.727 32.04V35.04H192.631L191.626 31.2675L188.727 32.04ZM182.005 6.49028C181.727 6.83031 181.468 7.16562 181.238 7.46316C181.001 7.77062 180.792 8.04032 180.575 8.30528L185.219 12.1047C185.497 11.7647 185.756 11.4294 185.986 11.1318C186.224 10.8244 186.432 10.5547 186.649 10.2897L182.005 6.49028ZM180 9.42554C176.701 21.6893 173.398 33.9619 170.151 46.2909L175.953 47.8191C179.196 35.5081 182.494 23.2507 185.794 10.9845L180 9.42554ZM173.052 50.055H173.987V44.055H173.052V50.055ZM176.885 47.8301C178.149 43.105 179.413 38.4343 180.678 33.7586L174.886 32.1914C173.621 36.8657 172.355 41.545 171.089 46.2799L176.885 47.8301ZM177.782 35.975H189.002V29.975H177.782V35.975ZM186.106 33.7586C187.372 38.4368 188.632 43.0919 189.836 47.7985L195.649 46.3115C194.433 41.5581 193.162 36.8632 191.898 32.1914L186.106 33.7586ZM192.742 50.055H194.667V44.055H192.742V50.055ZM197.567 46.2866C194.156 33.4112 190.689 20.4819 187.224 7.61008L181.43 9.16992C184.895 22.0381 188.359 34.9588 191.767 47.8234L197.567 46.2866ZM180.899 32.8199L186.289 12.7999L180.495 11.2401L175.105 31.2601L180.899 32.8199ZM180.493 12.7925L185.828 32.8125L191.626 31.2675L186.291 11.2475L180.493 12.7925ZM188.727 29.04H178.002V35.04H188.727V29.04ZM208.89 47.055V50.055H211.89V47.055H208.89ZM208.89 32.37V29.37H205.89V32.37H208.89ZM220.88 32.37H223.88V29.37H220.88V32.37ZM220.88 47.055H217.88V50.055H220.88V47.055ZM222.75 47.055V50.055H225.75V47.055H222.75ZM222.75 8.995H225.75V5.995H222.75V8.995ZM220.88 8.995V5.995H217.88V8.995H220.88ZM220.88 31.435V34.435H223.88V31.435H220.88ZM208.89 31.435H205.89V34.435H208.89V31.435ZM208.89 8.995H211.89V5.995H208.89V8.995ZM207.075 8.995V5.995H204.075V8.995H207.075ZM207.075 47.055H204.075V50.055H207.075V47.055ZM211.89 47.055V32.37H205.89V47.055H211.89ZM208.89 35.37H220.88V29.37H208.89V35.37ZM217.88 32.37V47.055H223.88V32.37H217.88ZM220.88 50.055H222.75V44.055H220.88V50.055ZM225.75 47.055V8.995H219.75V47.055H225.75ZM222.75 5.995H220.88V11.995H222.75V5.995ZM217.88 8.995V31.435H223.88V8.995H217.88ZM220.88 28.435H208.89V34.435H220.88V28.435ZM211.89 31.435V8.995H205.89V31.435H211.89ZM208.89 5.995H207.075V11.995H208.89V5.995ZM204.075 8.995V47.055H210.075V8.995H204.075ZM207.075 50.055H208.89V44.055H207.075V50.055ZM237.004 46.12H234.004V49.12H237.004V46.12ZM237.004 24.01V21.01H234.004V24.01H237.004ZM243.824 24.01V27.01H245.43L246.32 25.6741L243.824 24.01ZM244.484 23.075L246.827 24.9491L250.726 20.075H244.484V23.075ZM237.004 23.075H234.004V26.075H237.004V23.075ZM237.004 9.93V6.93H234.004V9.93H237.004ZM245.529 9.93V12.93H246.934L247.834 11.8506L245.529 9.93ZM246.354 8.995L248.659 10.9156L252.759 5.995H246.354V8.995ZM235.189 8.995V5.995H232.189V8.995H235.189ZM235.189 47.055H232.189V50.055H235.189V47.055ZM246.354 47.055V50.055H252.759L248.659 45.1344L246.354 47.055ZM245.529 46.12L247.651 43.9987L246.772 43.12H245.529V46.12ZM240.004 46.12V24.01H234.004V46.12H240.004ZM237.004 27.01H243.824V21.01H237.004V27.01ZM246.32 25.6741C246.559 25.3165 246.704 25.1027 246.827 24.9491L242.142 21.2009C241.825 21.5973 241.53 22.0435 241.328 22.3459L246.32 25.6741ZM244.484 20.075H237.004V26.075H244.484V20.075ZM240.004 23.075V9.93H234.004V23.075H240.004ZM237.004 12.93H245.529V6.93H237.004V12.93ZM247.834 11.8506C247.924 11.7428 248.018 11.638 248.162 11.4805C248.293 11.3355 248.474 11.1378 248.659 10.9156L244.05 7.07444C243.96 7.18216 243.865 7.28704 243.722 7.44448C243.59 7.58954 243.41 7.78716 243.225 8.00944L247.834 11.8506ZM246.354 5.995H235.189V11.995H246.354V5.995ZM232.189 8.995V47.055H238.189V8.995H232.189ZM235.189 50.055H246.354V44.055H235.189V50.055ZM248.659 45.1344C248.405 44.8297 248.04 44.3882 247.651 43.9987L243.408 48.2413C243.568 48.4018 243.754 48.6203 244.05 48.9756L248.659 45.1344ZM245.529 43.12H237.004V49.12H245.529V43.12Z" fill="white"/>
</svg>
