<svg width="43" height="42" viewBox="0 0 43 42" fill="none" xmlns="http://www.w3.org/2000/svg">
<path d="M31.0092 0H12.1902C5.79936 0 0.599976 5.19963 0.599976 11.5905V30.4095C0.599976 36.8006 5.79936 42 12.1902 42H31.0092C37.4006 42 42.6 36.8004 42.6 30.4095V11.5905C42.6002 5.19963 37.4006 0 31.0092 0ZM38.8738 30.4095C38.8738 34.7459 35.3458 38.2736 31.0095 38.2736H12.1902C7.85412 38.2738 4.32642 34.7459 4.32642 30.4095V11.5905C4.32642 7.25439 7.85412 3.72644 12.1902 3.72644H31.0092C35.3456 3.72644 38.8735 7.25439 38.8735 11.5905V30.4095H38.8738Z" fill="#AFAFAF"/>
<path d="M21.5998 10.1782C15.6323 10.1782 10.7775 15.033 10.7775 21.0006C10.7775 26.9678 15.6323 31.8224 21.5998 31.8224C27.5673 31.8224 32.4221 26.9678 32.4221 21.0006C32.4221 15.033 27.5673 10.1782 21.5998 10.1782ZM21.5998 28.0957C17.6873 28.0957 14.5039 24.9128 14.5039 21.0003C14.5039 17.0875 17.687 13.9044 21.5998 13.9044C25.5126 13.9044 28.6957 17.0875 28.6957 21.0003C28.6957 24.9128 25.5123 28.0957 21.5998 28.0957Z" fill="#AFAFAF"/>
<path d="M32.876 7.01843C32.1581 7.01843 31.4528 7.3091 30.9457 7.81838C30.4362 8.32517 30.1433 9.03071 30.1433 9.75116C30.1433 10.4694 30.4365 11.1747 30.9457 11.6839C31.4525 12.1907 32.1581 12.4839 32.876 12.4839C33.5965 12.4839 34.2995 12.1907 34.8088 11.6839C35.3181 11.1747 35.6088 10.4691 35.6088 9.75116C35.6088 9.03071 35.3181 8.32517 34.8088 7.81838C34.302 7.3091 33.5965 7.01843 32.876 7.01843Z" fill="#AFAFAF"/>
</svg>
