<svg width="45" height="37" viewBox="0 0 45 37" fill="none" xmlns="http://www.w3.org/2000/svg">
<path d="M43.9205 1.01297C43.3831 0.359677 42.5781 0 41.6536 0C41.151 0 40.6186 0.1051 40.0714 0.312965L2.82636 14.4441C0.8498 15.1938 0.583596 16.3189 0.600716 16.9228C0.617836 17.5267 0.947822 18.6351 2.96399 19.2727C2.97608 19.2764 2.98816 19.2801 3.00025 19.2834L10.7259 21.4808L14.9039 33.3555C15.4736 34.9744 16.7522 35.98 18.2414 35.98C19.1803 35.98 20.1038 35.589 20.9121 34.8496L25.6907 30.4764L32.6218 36.0234C32.6224 36.0241 32.6234 36.0244 32.6241 36.0251L32.6899 36.0778C32.6959 36.0825 32.7023 36.0875 32.7084 36.0921C33.4788 36.686 34.3197 36.9997 35.1411 37C36.7461 37 38.0244 35.8192 38.3967 33.9921L44.4992 4.04219C44.7443 2.84005 44.5388 1.76435 43.9205 1.01297ZM13.3104 21.0634L28.2155 13.4952L18.9346 23.2969C18.7825 23.4574 18.6747 23.6539 18.6217 23.8678L16.8321 31.0727L13.3104 21.0634ZM19.1655 32.9645C19.1038 33.0209 19.0417 33.0712 18.9795 33.1176L20.6399 26.4339L23.6601 28.8512L19.1655 32.9645ZM41.9725 3.53337L35.8699 33.4836C35.8112 33.7702 35.6235 34.4372 35.1411 34.4372C34.9028 34.4372 34.6034 34.3081 34.2969 34.0735L26.443 27.7882C26.442 27.7872 26.4407 27.7862 26.4393 27.7855L21.7661 24.0453L35.1875 9.87076C35.6171 9.41699 35.6561 8.722 35.2798 8.22352C34.9031 7.72504 34.2207 7.56823 33.6624 7.85183L11.5879 19.0605L3.75723 16.8337L40.9909 2.70692C41.3055 2.58747 41.525 2.56245 41.6536 2.56245C41.7325 2.56245 41.8728 2.57179 41.9248 2.63552C41.9933 2.7186 42.0806 3.00187 41.9725 3.53337Z" fill="#AFAFAF"/>
</svg>
