<svg width="42" height="42" viewBox="0 0 42 42" fill="none" xmlns="http://www.w3.org/2000/svg">
<path d="M35.6913 5.90872C31.8808 2.09822 26.8157 0 21.4265 0C21.4262 0 21.4249 0 21.4246 0C18.7592 0.000317383 16.1618 0.516382 13.7049 1.53423C11.2477 2.55208 9.04637 4.02378 7.16143 5.90872C3.35125 9.7189 1.25303 14.785 1.25303 20.1735C1.25303 23.387 2.0284 26.5805 3.49756 29.4258L0.106645 39.113C-0.132344 39.7963 0.0368212 40.539 0.549077 41.0509C0.907402 41.4096 1.37903 41.6 1.86399 41.6C2.07188 41.6 2.28199 41.5651 2.48702 41.4934L12.1742 38.1028C15.0195 39.5719 18.213 40.3473 21.4265 40.3473C26.815 40.3473 31.8808 38.2488 35.6913 34.4386C39.5015 30.6284 41.6 25.5623 41.6 20.1738C41.6 14.785 39.5018 9.7189 35.6913 5.90872ZM33.966 32.7133C30.6167 36.0629 26.1631 37.9072 21.4265 37.9072C18.5288 37.9072 15.6502 37.1906 13.1016 35.8341C12.6395 35.5885 12.0932 35.5462 11.6029 35.7179L2.80186 38.7981L5.88238 29.9971C6.05408 29.5061 6.01155 28.9599 5.7659 28.4981C4.40972 25.9502 3.69275 23.0715 3.69275 20.1735C3.69275 15.4369 5.53738 10.9833 8.88672 7.63401C12.2357 4.28499 16.6886 2.44036 21.4249 2.43972H21.4265C26.1635 2.43972 30.6167 4.28435 33.966 7.63401C37.3157 10.9833 39.1603 15.4365 39.1603 20.1735C39.1603 24.9104 37.3157 29.3639 33.966 32.7133Z" fill="#AFAFAF"/>
<path d="M28.9237 21.9755C27.9957 21.0475 26.4856 21.0475 25.5576 21.9755L24.5426 22.9905C22.0222 21.6172 19.9827 19.5777 18.6091 17.0574L19.6241 16.0424C20.5524 15.1144 20.5524 13.6042 19.6241 12.6762L16.8889 9.94102C15.9609 9.01299 14.4508 9.01299 13.5227 9.94102L11.3347 12.1291C10.0813 13.3824 10.0188 15.5371 11.1585 18.1965C12.1481 20.5054 13.9591 23.0432 16.2579 25.342C18.5567 27.6408 21.0945 29.4518 23.4035 30.4414C24.667 30.9829 25.8162 31.253 26.8093 31.253C27.9065 31.253 28.813 30.9232 29.4709 30.2653L31.6589 28.0769V28.0772C32.1087 27.6275 32.3562 27.0299 32.3562 26.3941C32.3562 25.7581 32.1087 25.1605 31.6589 24.7111L28.9237 21.9755ZM27.7456 28.54C27.3879 28.8977 26.2879 29.023 24.3648 28.1991C22.3342 27.3288 20.0678 25.7013 17.9832 23.6167C15.8987 21.5322 14.2714 19.266 13.4012 17.2354C12.5769 15.3124 12.7023 14.212 13.06 13.8543L15.2061 11.7082L17.8569 14.3593L16.5864 15.6301C16.012 16.2046 15.8733 17.0758 16.2417 17.7981C17.9121 21.0735 20.5264 23.6878 23.8018 25.3582C24.5245 25.7267 25.3957 25.5883 25.9702 25.0135L27.2406 23.743L29.8917 26.3941L27.7456 28.54Z" fill="#AFAFAF"/>
</svg>
