<svg width="709" height="51" viewBox="0 0 709 51" fill="none" xmlns="http://www.w3.org/2000/svg">
<path d="M30.135 46.12C26.78 33.525 23.37 20.985 20.015 8.39C19.52 8.995 19.08 9.6 18.585 10.205C15.395 22.14 12.15 34.13 8.96 46.12H6.87C6.595 46.45 6.32 46.725 6.1 47.055H32.005C32.28 46.725 32.555 46.45 32.83 46.12H30.135ZM9.895 46.12C12.975 34.735 16 23.35 19.08 12.02C22.105 23.35 25.13 34.735 28.21 46.12H9.895ZM63.1939 8.39C52.3589 8.39 43.6139 17.19 43.6139 28.025C43.6139 38.86 52.3589 47.605 63.1939 47.605C74.0289 47.605 82.8289 38.86 82.8289 28.025C82.8289 17.19 74.0289 8.39 63.1939 8.39ZM76.3939 41.225C69.4639 48.155 57.9689 47.88 50.6539 40.565C43.3389 33.25 43.0639 21.755 49.9939 14.825C56.9239 7.895 68.4739 8.17 75.7339 15.485C83.0489 22.745 83.3239 34.295 76.3939 41.225ZM123.579 44.415C116.814 47.77 108.179 46.45 102.294 40.565C94.9787 33.25 94.7037 21.755 101.634 14.825C108.234 8.225 118.959 8.17 126.274 14.44C126.714 14 127.099 13.505 127.484 13.065C124.074 10.15 119.674 8.39 114.834 8.39C103.999 8.39 95.2537 17.19 95.2537 28.025C95.2537 38.86 103.999 47.605 114.834 47.605C117.639 47.605 120.334 47.055 122.754 45.955C124.459 45.185 126.054 44.195 127.484 42.985L127.209 41.995C126.109 42.985 124.899 43.81 123.579 44.415ZM140.681 8.995C140.406 9.325 140.131 9.6 139.911 9.93H146.841V47.055H148.711V9.93H154.816C155.036 9.6 155.311 9.325 155.586 8.995H140.681ZM183.201 8.39C172.366 8.39 163.621 17.19 163.621 28.025C163.621 38.86 172.366 47.605 183.201 47.605C194.036 47.605 202.836 38.86 202.836 28.025C202.836 17.19 194.036 8.39 183.201 8.39ZM196.401 41.225C189.471 48.155 177.976 47.88 170.661 40.565C163.346 33.25 163.071 21.755 170.001 14.825C176.931 7.895 188.481 8.17 195.741 15.485C203.056 22.745 203.331 34.295 196.401 41.225ZM217.076 47.055V9.93H229.066V47.055H230.936V8.995C225.711 8.995 220.486 8.995 215.261 8.995V47.055H217.076ZM259.106 20.435C259.106 13.78 253.716 8.39 247.061 8.39C245.796 8.39 244.531 8.61 243.376 8.995V47.055H245.191V32.26C245.851 32.37 246.456 32.425 247.061 32.425C253.716 32.425 259.106 27.035 259.106 20.435ZM257.236 20.435C257.236 26.54 252.671 31.49 247.061 31.49C246.456 31.49 245.796 31.435 245.191 31.325V9.545C245.796 9.38 246.456 9.325 247.061 9.325C252.671 9.325 257.236 14.33 257.236 20.435ZM286.229 8.995L285.349 11.25L280.289 24.395L273.359 42.215V8.995H271.544V47.055H272.534L273.359 44.8L285.349 13.835V47.055H287.219V8.995H286.229ZM320.448 8.39C319.953 8.995 319.458 9.6 318.963 10.205C317.753 14.88 316.488 19.61 315.223 24.285C313.793 19.005 312.363 13.725 310.933 8.39C310.493 8.995 309.998 9.6 309.503 10.205C306.203 22.47 302.903 34.735 299.658 47.055H300.593C303.728 35.34 306.863 23.68 309.998 12.02C311.428 17.3 312.803 22.58 314.233 27.915C314.728 27.31 315.223 26.705 315.718 26.1C316.928 21.425 318.193 16.695 319.458 12.02C322.593 23.68 325.728 35.34 328.863 47.055H330.788C327.323 34.185 323.858 21.26 320.448 8.39ZM345.056 46.12V24.01H351.876C352.096 23.68 352.316 23.35 352.536 23.075H345.056V9.93H353.581C353.856 9.6 354.131 9.325 354.406 8.995H343.241V47.055H354.406C354.131 46.725 353.856 46.395 353.581 46.12H345.056ZM380.649 8.995V28.41C379.549 30.39 377.514 31.71 375.149 31.71C371.574 31.71 368.659 28.63 368.659 24.78V8.995H366.844V24.78C366.844 29.125 370.364 32.645 374.709 32.645C377.074 32.645 379.219 31.6 380.649 29.895V47.055H382.519V8.995H380.649ZM406.234 8.39C405.739 8.995 405.299 9.6 404.804 10.205C401.504 22.47 398.204 34.735 394.959 47.055H395.894C397.159 42.325 398.424 37.65 399.689 32.975H410.909C412.174 37.65 413.439 42.325 414.649 47.055H416.574C413.164 34.185 409.699 21.26 406.234 8.39ZM399.909 32.04L405.299 12.02L410.634 32.04H399.909ZM424.165 8.995C423.89 9.325 423.615 9.6 423.395 9.93H430.325V47.055H432.195V9.93H438.3C438.52 9.6 438.795 9.325 439.07 8.995H424.165ZM453.325 46.12V24.01H460.145C460.365 23.68 460.585 23.35 460.805 23.075H453.325V9.93H461.85C462.125 9.6 462.4 9.325 462.675 8.995H451.51V47.055H462.675C462.4 46.725 462.125 46.395 461.85 46.12H453.325ZM486.388 8.39C485.893 8.995 485.453 9.6 484.958 10.205C481.658 22.47 478.358 34.735 475.113 47.055H476.048C479.183 35.34 482.318 23.68 485.453 12.02C488.588 23.68 491.723 35.34 494.803 47.055H496.728C493.318 34.185 489.853 21.26 486.388 8.39ZM512.82 23.625C512.215 23.625 511.61 23.625 510.95 23.735V8.995H509.135V47.055C510.29 47.44 511.555 47.605 512.82 47.605C519.475 47.605 524.865 42.27 524.865 35.615C524.865 28.96 519.475 23.625 512.82 23.625ZM512.82 46.725C512.215 46.725 511.555 46.615 510.95 46.505V24.725C511.555 24.615 512.215 24.505 512.82 24.505C518.43 24.505 522.995 29.51 522.995 35.615C522.995 41.72 518.43 46.725 512.82 46.725ZM539.118 47.055V32.37H551.108V47.055H552.978V8.995H551.108V31.435H539.118V8.995H537.303V47.055H539.118ZM584.998 8.39C574.163 8.39 565.418 17.19 565.418 28.025C565.418 38.86 574.163 47.605 584.998 47.605C595.833 47.605 604.633 38.86 604.633 28.025C604.633 17.19 595.833 8.39 584.998 8.39ZM598.198 41.225C591.268 48.155 579.773 47.88 572.458 40.565C565.143 33.25 564.868 21.755 571.798 14.825C578.728 7.895 590.278 8.17 597.538 15.485C604.853 22.745 605.128 34.295 598.198 41.225ZM645.383 44.415C638.618 47.77 629.983 46.45 624.098 40.565C616.783 33.25 616.508 21.755 623.438 14.825C630.038 8.225 640.763 8.17 648.078 14.44C648.518 14 648.903 13.505 649.288 13.065C645.878 10.15 641.478 8.39 636.638 8.39C625.803 8.39 617.058 17.19 617.058 28.025C617.058 38.86 625.803 47.605 636.638 47.605C639.443 47.605 642.138 47.055 644.558 45.955C646.263 45.185 647.858 44.195 649.288 42.985L649.013 41.995C647.913 42.985 646.703 43.81 645.383 44.415ZM662.485 8.995C662.21 9.325 661.935 9.6 661.715 9.93H668.645V47.055H670.515V9.93H676.62C676.84 9.6 677.115 9.325 677.39 8.995H662.485ZM704.514 8.995L703.634 11.25L698.574 24.395L691.644 42.215V8.995H689.829V47.055H690.819L691.644 44.8L703.634 13.835V47.055H705.504V8.995H704.514Z" fill="white"/>
<path d="M30.135 46.12L27.2361 46.8922L27.8295 49.12H30.135V46.12ZM20.015 8.39L22.9139 7.6178L21.4051 1.95347L17.6931 6.49028L20.015 8.39ZM18.585 10.205L16.2631 8.30528L15.8537 8.8057L15.6867 9.43035L18.585 10.205ZM8.96 46.12V49.12H11.2662L11.8591 46.8913L8.96 46.12ZM6.87 46.12V43.12H5.46488L4.56534 44.1994L6.87 46.12ZM6.1 47.055L3.60385 45.3909L0.49445 50.055H6.1V47.055ZM32.005 47.055V50.055H33.4101L34.3097 48.9756L32.005 47.055ZM32.83 46.12L35.1347 48.0406L39.2351 43.12H32.83V46.12ZM9.895 46.12L6.9991 45.3366L5.97556 49.12H9.895V46.12ZM19.08 12.02L21.9785 11.2461L19.1061 0.487786L16.1851 11.233L19.08 12.02ZM28.21 46.12V49.12H32.1294L31.1059 45.3366L28.21 46.12ZM33.0339 45.3478C31.3553 39.0459 29.663 32.7584 27.9719 26.4753C26.2805 20.1909 24.5903 13.9109 22.9139 7.6178L17.1161 9.1622C18.7948 15.4641 20.487 21.7516 22.1781 28.0347C23.8695 34.3191 25.5598 40.5991 27.2361 46.8922L33.0339 45.3478ZM17.6931 6.49028C17.4149 6.83031 17.1561 7.16562 16.9261 7.46316C16.6886 7.77062 16.4799 8.04031 16.2631 8.30528L20.9069 12.1047C21.1851 11.7647 21.4439 11.4294 21.6739 11.1318C21.9114 10.8244 22.1201 10.5547 22.3369 10.2897L17.6931 6.49028ZM15.6867 9.43035C12.5015 21.3477 9.24996 33.362 6.06085 45.3487L11.8591 46.8913C15.05 34.898 18.2885 22.9323 21.4833 10.9796L15.6867 9.43035ZM8.96 43.12H6.87V49.12H8.96V43.12ZM4.56534 44.1994C4.52478 44.2481 3.93591 44.8928 3.60385 45.3909L8.59615 48.7191C8.60332 48.7084 8.63241 48.667 8.73484 48.5484C8.7897 48.4848 8.83843 48.43 8.91923 48.338C8.99205 48.255 9.08094 48.153 9.17466 48.0406L4.56534 44.1994ZM6.1 50.055H32.005V44.055H6.1V50.055ZM34.3097 48.9756C34.3994 48.8678 34.4942 48.763 34.6373 48.6055C34.7692 48.4605 34.9494 48.2628 35.1347 48.0406L30.5253 44.1994C30.4356 44.3072 30.3408 44.412 30.1977 44.5695C30.0658 44.7145 29.8856 44.9122 29.7003 45.1344L34.3097 48.9756ZM32.83 43.12H30.135V49.12H32.83V43.12ZM12.7909 46.9034C15.8789 35.489 18.8923 24.1466 21.9749 12.807L16.1851 11.233C13.1077 22.5534 10.0711 33.981 6.9991 45.3366L12.7909 46.9034ZM16.1815 12.7939C19.2053 24.1192 22.2324 35.5121 25.3141 46.9034L31.1059 45.3366C28.0276 33.9579 25.0047 22.5808 21.9785 11.2461L16.1815 12.7939ZM28.21 43.12H9.895V49.12H28.21V43.12ZM76.3939 41.225L78.5152 43.3463L76.3939 41.225ZM50.6539 40.565L48.5325 42.6863L50.6539 40.565ZM49.9939 14.825L47.8725 12.7037V12.7037L49.9939 14.825ZM75.7339 15.485L73.6046 17.5983L73.6125 17.6063L73.6206 17.6143L75.7339 15.485ZM63.1939 5.39C50.6911 5.39 40.6139 15.5441 40.6139 28.025H46.6139C46.6139 18.8359 54.0267 11.39 63.1939 11.39V5.39ZM40.6139 28.025C40.6139 40.5169 50.702 50.605 63.1939 50.605V44.605C54.0157 44.605 46.6139 37.2031 46.6139 28.025H40.6139ZM63.1939 50.605C75.6748 50.605 85.8289 40.5278 85.8289 28.025H79.8289C79.8289 37.1922 72.383 44.605 63.1939 44.605V50.605ZM85.8289 28.025C85.8289 15.5331 75.6857 5.39 63.1939 5.39V11.39C72.372 11.39 79.8289 18.8469 79.8289 28.025H85.8289ZM74.2726 39.1037C68.6133 44.763 59.0203 44.6888 52.7752 38.4437L48.5325 42.6863C56.9174 51.0712 70.3145 51.547 78.5152 43.3463L74.2726 39.1037ZM52.7752 38.4437C46.5301 32.1986 46.4559 22.6056 52.1152 16.9463L47.8725 12.7037C39.6718 20.9044 40.1476 34.3014 48.5325 42.6863L52.7752 38.4437ZM52.1152 16.9463C57.7787 11.2828 67.4212 11.3681 73.6046 17.5983L77.8632 13.3717C69.5265 4.97189 56.0691 4.50716 47.8725 12.7037L52.1152 16.9463ZM73.6206 17.6143C79.8508 23.7977 79.936 33.4402 74.2726 39.1037L78.5152 43.3463C86.7117 35.1498 86.247 21.6923 77.8472 13.3557L73.6206 17.6143ZM123.579 44.415L122.329 41.6878L122.287 41.7069L122.246 41.7274L123.579 44.415ZM102.294 40.565L100.172 42.6863L102.294 40.565ZM101.634 14.825L99.5124 12.7037L101.634 14.825ZM126.274 14.44L124.321 16.7178L126.431 18.5257L128.395 16.5613L126.274 14.44ZM127.484 13.065L129.741 15.0405L131.74 12.7566L129.433 10.7846L127.484 13.065ZM122.754 45.955L121.519 43.2209L121.512 43.2239L122.754 45.955ZM127.484 42.985L129.422 45.2752L130.889 44.0338L130.374 42.1821L127.484 42.985ZM127.209 41.995L130.099 41.1921L128.803 36.5243L125.202 39.7651L127.209 41.995ZM122.246 41.7274C116.672 44.4915 109.42 43.4483 104.415 38.4437L100.172 42.6863C106.938 49.4517 116.955 51.0485 124.912 47.1026L122.246 41.7274ZM104.415 38.4437C98.1699 32.1986 98.0958 22.6056 103.755 16.9463L99.5124 12.7037C91.3117 20.9044 91.7875 34.3014 100.172 42.6863L104.415 38.4437ZM103.755 16.9463C109.148 11.5534 118.088 11.3746 124.321 16.7178L128.226 12.1622C119.83 4.96537 107.319 4.89661 99.5124 12.7037L103.755 16.9463ZM128.395 16.5613C128.922 16.0339 129.517 15.297 129.741 15.0405L125.226 11.0895C124.68 11.713 124.505 11.9661 124.152 12.3187L128.395 16.5613ZM129.433 10.7846C125.503 7.42546 120.419 5.39 114.834 5.39V11.39C118.928 11.39 122.644 12.8745 125.534 15.3454L129.433 10.7846ZM114.834 5.39C102.331 5.39 92.2537 15.5441 92.2537 28.025H98.2537C98.2537 18.8359 105.667 11.39 114.834 11.39V5.39ZM92.2537 28.025C92.2537 40.5169 102.342 50.605 114.834 50.605V44.605C105.656 44.605 98.2537 37.2031 98.2537 28.025H92.2537ZM114.834 50.605C118.03 50.605 121.153 49.9782 123.995 48.6861L121.512 43.2239C119.515 44.1318 117.248 44.605 114.834 44.605V50.605ZM123.988 48.6891C125.933 47.811 127.767 46.675 129.422 45.2752L125.546 40.6948C124.34 41.715 122.984 42.559 121.519 43.2209L123.988 48.6891ZM130.374 42.1821L130.099 41.1921L124.318 42.7979L124.593 43.7879L130.374 42.1821ZM125.202 39.7651C124.299 40.578 123.339 41.2246 122.329 41.6878L124.829 47.1422C126.458 46.3954 127.919 45.392 129.216 44.2249L125.202 39.7651ZM140.681 8.995V5.995H139.276L138.376 7.07444L140.681 8.995ZM139.911 9.93L137.415 8.2659L134.306 12.93H139.911V9.93ZM146.841 9.93H149.841V6.93H146.841V9.93ZM146.841 47.055H143.841V50.055H146.841V47.055ZM148.711 47.055V50.055H151.711V47.055H148.711ZM148.711 9.93V6.93H145.711V9.93H148.711ZM154.816 9.93V12.93H156.422L157.312 11.5941L154.816 9.93ZM155.586 8.995L157.891 10.9156L161.991 5.995H155.586V8.995ZM138.376 7.07444C138.336 7.12313 137.747 7.7678 137.415 8.2659L142.407 11.5941C142.414 11.5833 142.444 11.542 142.546 11.4234C142.601 11.3598 142.65 11.305 142.73 11.213C142.803 11.13 142.892 11.028 142.986 10.9156L138.376 7.07444ZM139.911 12.93H146.841V6.93H139.911V12.93ZM143.841 9.93V47.055H149.841V9.93H143.841ZM146.841 50.055H148.711V44.055H146.841V50.055ZM151.711 47.055V9.93H145.711V47.055H151.711ZM148.711 12.93H154.816V6.93H148.711V12.93ZM157.312 11.5941C157.319 11.5833 157.349 11.542 157.451 11.4234C157.506 11.3598 157.555 11.305 157.635 11.213C157.708 11.13 157.797 11.028 157.891 10.9156L153.281 7.07444C153.241 7.12313 152.652 7.7678 152.32 8.26589L157.312 11.5941ZM155.586 5.995H140.681V11.995H155.586V5.995ZM196.401 41.225L198.523 43.3463L196.401 41.225ZM170.661 40.565L168.54 42.6863L170.661 40.565ZM170.001 14.825L167.88 12.7037V12.7037L170.001 14.825ZM195.741 15.485L193.612 17.5983L193.62 17.6063L193.628 17.6143L195.741 15.485ZM183.201 5.39C170.698 5.39 160.621 15.5441 160.621 28.025H166.621C166.621 18.8359 174.034 11.39 183.201 11.39V5.39ZM160.621 28.025C160.621 40.5169 170.709 50.605 183.201 50.605V44.605C174.023 44.605 166.621 37.2031 166.621 28.025H160.621ZM183.201 50.605C195.682 50.605 205.836 40.5278 205.836 28.025H199.836C199.836 37.1922 192.39 44.605 183.201 44.605V50.605ZM205.836 28.025C205.836 15.5331 195.693 5.39 183.201 5.39V11.39C192.379 11.39 199.836 18.8469 199.836 28.025H205.836ZM194.28 39.1037C188.621 44.763 179.028 44.6888 172.783 38.4437L168.54 42.6863C176.925 51.0712 190.322 51.547 198.523 43.3463L194.28 39.1037ZM172.783 38.4437C166.538 32.1986 166.463 22.6056 172.123 16.9463L167.88 12.7037C159.679 20.9044 160.155 34.3014 168.54 42.6863L172.783 38.4437ZM172.123 16.9463C177.786 11.2828 187.429 11.3681 193.612 17.5983L197.871 13.3717C189.534 4.97189 176.076 4.50716 167.88 12.7037L172.123 16.9463ZM193.628 17.6143C199.858 23.7977 199.943 33.4402 194.28 39.1037L198.523 43.3463C206.719 35.1498 206.254 21.6923 197.855 13.3557L193.628 17.6143ZM217.076 47.055V50.055H220.076V47.055H217.076ZM217.076 9.93V6.93H214.076V9.93H217.076ZM229.066 9.93H232.066V6.93H229.066V9.93ZM229.066 47.055H226.066V50.055H229.066V47.055ZM230.936 47.055V50.055H233.936V47.055H230.936ZM230.936 8.995H233.936V5.995H230.936V8.995ZM215.261 8.995V5.995H212.261V8.995H215.261ZM215.261 47.055H212.261V50.055H215.261V47.055ZM220.076 47.055V9.93H214.076V47.055H220.076ZM217.076 12.93H229.066V6.93H217.076V12.93ZM226.066 9.93V47.055H232.066V9.93H226.066ZM229.066 50.055H230.936V44.055H229.066V50.055ZM233.936 47.055V8.995H227.936V47.055H233.936ZM230.936 5.995C230.926 5.995 230.916 5.995 230.906 5.995C230.895 5.995 230.885 5.995 230.875 5.995C230.865 5.995 230.854 5.995 230.844 5.995C230.834 5.995 230.824 5.995 230.814 5.995C230.803 5.995 230.793 5.995 230.783 5.995C230.773 5.995 230.763 5.995 230.752 5.995C230.742 5.995 230.732 5.995 230.722 5.995C230.712 5.995 230.701 5.995 230.691 5.995C230.681 5.995 230.671 5.995 230.661 5.995C230.65 5.995 230.64 5.995 230.63 5.995C230.62 5.995 230.61 5.995 230.599 5.995C230.589 5.995 230.579 5.995 230.569 5.995C230.559 5.995 230.548 5.995 230.538 5.995C230.528 5.995 230.518 5.995 230.508 5.995C230.497 5.995 230.487 5.995 230.477 5.995C230.467 5.995 230.456 5.995 230.446 5.995C230.436 5.995 230.426 5.995 230.416 5.995C230.405 5.995 230.395 5.995 230.385 5.995C230.375 5.995 230.365 5.995 230.354 5.995C230.344 5.995 230.334 5.995 230.324 5.995C230.314 5.995 230.303 5.995 230.293 5.995C230.283 5.995 230.273 5.995 230.263 5.995C230.252 5.995 230.242 5.995 230.232 5.995C230.222 5.995 230.212 5.995 230.201 5.995C230.191 5.995 230.181 5.995 230.171 5.995C230.161 5.995 230.15 5.995 230.14 5.995C230.13 5.995 230.12 5.995 230.11 5.995C230.099 5.995 230.089 5.995 230.079 5.995C230.069 5.995 230.059 5.995 230.048 5.995C230.038 5.995 230.028 5.995 230.018 5.995C230.007 5.995 229.997 5.995 229.987 5.995C229.977 5.995 229.967 5.995 229.956 5.995C229.946 5.995 229.936 5.995 229.926 5.995C229.916 5.995 229.905 5.995 229.895 5.995C229.885 5.995 229.875 5.995 229.865 5.995C229.854 5.995 229.844 5.995 229.834 5.995C229.824 5.995 229.814 5.995 229.803 5.995C229.793 5.995 229.783 5.995 229.773 5.995C229.763 5.995 229.752 5.995 229.742 5.995C229.732 5.995 229.722 5.995 229.712 5.995C229.701 5.995 229.691 5.995 229.681 5.995C229.671 5.995 229.66 5.995 229.65 5.995C229.64 5.995 229.63 5.995 229.62 5.995C229.609 5.995 229.599 5.995 229.589 5.995C229.579 5.995 229.569 5.995 229.558 5.995C229.548 5.995 229.538 5.995 229.528 5.995C229.518 5.995 229.507 5.995 229.497 5.995C229.487 5.995 229.477 5.995 229.467 5.995C229.456 5.995 229.446 5.995 229.436 5.995C229.426 5.995 229.416 5.995 229.405 5.995C229.395 5.995 229.385 5.995 229.375 5.995C229.365 5.995 229.354 5.995 229.344 5.995C229.334 5.995 229.324 5.995 229.314 5.995C229.303 5.995 229.293 5.995 229.283 5.995C229.273 5.995 229.262 5.995 229.252 5.995C229.242 5.995 229.232 5.995 229.222 5.995C229.211 5.995 229.201 5.995 229.191 5.995C229.181 5.995 229.171 5.995 229.16 5.995C229.15 5.995 229.14 5.995 229.13 5.995C229.12 5.995 229.109 5.995 229.099 5.995C229.089 5.995 229.079 5.995 229.069 5.995C229.058 5.995 229.048 5.995 229.038 5.995C229.028 5.995 229.018 5.995 229.007 5.995C228.997 5.995 228.987 5.995 228.977 5.995C228.967 5.995 228.956 5.995 228.946 5.995C228.936 5.995 228.926 5.995 228.916 5.995C228.905 5.995 228.895 5.995 228.885 5.995C228.875 5.995 228.865 5.995 228.854 5.995C228.844 5.995 228.834 5.995 228.824 5.995C228.813 5.995 228.803 5.995 228.793 5.995C228.783 5.995 228.773 5.995 228.762 5.995C228.752 5.995 228.742 5.995 228.732 5.995C228.722 5.995 228.711 5.995 228.701 5.995C228.691 5.995 228.681 5.995 228.671 5.995C228.66 5.995 228.65 5.995 228.64 5.995C228.63 5.995 228.62 5.995 228.609 5.995C228.599 5.995 228.589 5.995 228.579 5.995C228.569 5.995 228.558 5.995 228.548 5.995C228.538 5.995 228.528 5.995 228.518 5.995C228.507 5.995 228.497 5.995 228.487 5.995C228.477 5.995 228.467 5.995 228.456 5.995C228.446 5.995 228.436 5.995 228.426 5.995C228.415 5.995 228.405 5.995 228.395 5.995C228.385 5.995 228.375 5.995 228.364 5.995C228.354 5.995 228.344 5.995 228.334 5.995C228.324 5.995 228.313 5.995 228.303 5.995C228.293 5.995 228.283 5.995 228.273 5.995C228.262 5.995 228.252 5.995 228.242 5.995C228.232 5.995 228.222 5.995 228.211 5.995C228.201 5.995 228.191 5.995 228.181 5.995C228.171 5.995 228.16 5.995 228.15 5.995C228.14 5.995 228.13 5.995 228.12 5.995C228.109 5.995 228.099 5.995 228.089 5.995C228.079 5.995 228.069 5.995 228.058 5.995C228.048 5.995 228.038 5.995 228.028 5.995C228.017 5.995 228.007 5.995 227.997 5.995C227.987 5.995 227.977 5.995 227.966 5.995C227.956 5.995 227.946 5.995 227.936 5.995C227.926 5.995 227.915 5.995 227.905 5.995C227.895 5.995 227.885 5.995 227.875 5.995C227.864 5.995 227.854 5.995 227.844 5.995C227.834 5.995 227.824 5.995 227.813 5.995C227.803 5.995 227.793 5.995 227.783 5.995C227.773 5.995 227.762 5.995 227.752 5.995C227.742 5.995 227.732 5.995 227.722 5.995C227.711 5.995 227.701 5.995 227.691 5.995C227.681 5.995 227.671 5.995 227.66 5.995C227.65 5.995 227.64 5.995 227.63 5.995C227.619 5.995 227.609 5.995 227.599 5.995C227.589 5.995 227.579 5.995 227.568 5.995C227.558 5.995 227.548 5.995 227.538 5.995C227.528 5.995 227.517 5.995 227.507 5.995C227.497 5.995 227.487 5.995 227.477 5.995C227.466 5.995 227.456 5.995 227.446 5.995C227.436 5.995 227.426 5.995 227.415 5.995C227.405 5.995 227.395 5.995 227.385 5.995C227.375 5.995 227.364 5.995 227.354 5.995C227.344 5.995 227.334 5.995 227.324 5.995C227.313 5.995 227.303 5.995 227.293 5.995C227.283 5.995 227.273 5.995 227.262 5.995C227.252 5.995 227.242 5.995 227.232 5.995C227.221 5.995 227.211 5.995 227.201 5.995C227.191 5.995 227.181 5.995 227.17 5.995C227.16 5.995 227.15 5.995 227.14 5.995C227.13 5.995 227.119 5.995 227.109 5.995C227.099 5.995 227.089 5.995 227.079 5.995C227.068 5.995 227.058 5.995 227.048 5.995C227.038 5.995 227.028 5.995 227.017 5.995C227.007 5.995 226.997 5.995 226.987 5.995C226.977 5.995 226.966 5.995 226.956 5.995C226.946 5.995 226.936 5.995 226.926 5.995C226.915 5.995 226.905 5.995 226.895 5.995C226.885 5.995 226.875 5.995 226.864 5.995C226.854 5.995 226.844 5.995 226.834 5.995C226.823 5.995 226.813 5.995 226.803 5.995C226.793 5.995 226.783 5.995 226.772 5.995C226.762 5.995 226.752 5.995 226.742 5.995C226.732 5.995 226.721 5.995 226.711 5.995C226.701 5.995 226.691 5.995 226.681 5.995C226.67 5.995 226.66 5.995 226.65 5.995C226.64 5.995 226.63 5.995 226.619 5.995C226.609 5.995 226.599 5.995 226.589 5.995C226.579 5.995 226.568 5.995 226.558 5.995C226.548 5.995 226.538 5.995 226.528 5.995C226.517 5.995 226.507 5.995 226.497 5.995C226.487 5.995 226.477 5.995 226.466 5.995C226.456 5.995 226.446 5.995 226.436 5.995C226.425 5.995 226.415 5.995 226.405 5.995C226.395 5.995 226.385 5.995 226.374 5.995C226.364 5.995 226.354 5.995 226.344 5.995C226.334 5.995 226.323 5.995 226.313 5.995C226.303 5.995 226.293 5.995 226.283 5.995C226.272 5.995 226.262 5.995 226.252 5.995C226.242 5.995 226.232 5.995 226.221 5.995C226.211 5.995 226.201 5.995 226.191 5.995C226.181 5.995 226.17 5.995 226.16 5.995C226.15 5.995 226.14 5.995 226.13 5.995C226.119 5.995 226.109 5.995 226.099 5.995C226.089 5.995 226.079 5.995 226.068 5.995C226.058 5.995 226.048 5.995 226.038 5.995C226.027 5.995 226.017 5.995 226.007 5.995C225.997 5.995 225.987 5.995 225.976 5.995C225.966 5.995 225.956 5.995 225.946 5.995C225.936 5.995 225.925 5.995 225.915 5.995C225.905 5.995 225.895 5.995 225.885 5.995C225.874 5.995 225.864 5.995 225.854 5.995C225.844 5.995 225.834 5.995 225.823 5.995C225.813 5.995 225.803 5.995 225.793 5.995C225.783 5.995 225.772 5.995 225.762 5.995C225.752 5.995 225.742 5.995 225.732 5.995C225.721 5.995 225.711 5.995 225.701 5.995C225.691 5.995 225.681 5.995 225.67 5.995C225.66 5.995 225.65 5.995 225.64 5.995C225.629 5.995 225.619 5.995 225.609 5.995C225.599 5.995 225.589 5.995 225.578 5.995C225.568 5.995 225.558 5.995 225.548 5.995C225.538 5.995 225.527 5.995 225.517 5.995C225.507 5.995 225.497 5.995 225.487 5.995C225.476 5.995 225.466 5.995 225.456 5.995C225.446 5.995 225.436 5.995 225.425 5.995C225.415 5.995 225.405 5.995 225.395 5.995C225.385 5.995 225.374 5.995 225.364 5.995C225.354 5.995 225.344 5.995 225.334 5.995C225.323 5.995 225.313 5.995 225.303 5.995C225.293 5.995 225.283 5.995 225.272 5.995C225.262 5.995 225.252 5.995 225.242 5.995C225.231 5.995 225.221 5.995 225.211 5.995C225.201 5.995 225.191 5.995 225.18 5.995C225.17 5.995 225.16 5.995 225.15 5.995C225.14 5.995 225.129 5.995 225.119 5.995C225.109 5.995 225.099 5.995 225.089 5.995C225.078 5.995 225.068 5.995 225.058 5.995C225.048 5.995 225.038 5.995 225.027 5.995C225.017 5.995 225.007 5.995 224.997 5.995C224.987 5.995 224.976 5.995 224.966 5.995C224.956 5.995 224.946 5.995 224.936 5.995C224.925 5.995 224.915 5.995 224.905 5.995C224.895 5.995 224.885 5.995 224.874 5.995C224.864 5.995 224.854 5.995 224.844 5.995C224.833 5.995 224.823 5.995 224.813 5.995C224.803 5.995 224.793 5.995 224.782 5.995C224.772 5.995 224.762 5.995 224.752 5.995C224.742 5.995 224.731 5.995 224.721 5.995C224.711 5.995 224.701 5.995 224.691 5.995C224.68 5.995 224.67 5.995 224.66 5.995C224.65 5.995 224.64 5.995 224.629 5.995C224.619 5.995 224.609 5.995 224.599 5.995C224.589 5.995 224.578 5.995 224.568 5.995C224.558 5.995 224.548 5.995 224.538 5.995C224.527 5.995 224.517 5.995 224.507 5.995C224.497 5.995 224.487 5.995 224.476 5.995C224.466 5.995 224.456 5.995 224.446 5.995C224.436 5.995 224.425 5.995 224.415 5.995C224.405 5.995 224.395 5.995 224.384 5.995C224.374 5.995 224.364 5.995 224.354 5.995C224.344 5.995 224.333 5.995 224.323 5.995C224.313 5.995 224.303 5.995 224.293 5.995C224.282 5.995 224.272 5.995 224.262 5.995C224.252 5.995 224.242 5.995 224.231 5.995C224.221 5.995 224.211 5.995 224.201 5.995C224.191 5.995 224.18 5.995 224.17 5.995C224.16 5.995 224.15 5.995 224.14 5.995C224.129 5.995 224.119 5.995 224.109 5.995C224.099 5.995 224.089 5.995 224.078 5.995C224.068 5.995 224.058 5.995 224.048 5.995C224.038 5.995 224.027 5.995 224.017 5.995C224.007 5.995 223.997 5.995 223.986 5.995C223.976 5.995 223.966 5.995 223.956 5.995C223.946 5.995 223.935 5.995 223.925 5.995C223.915 5.995 223.905 5.995 223.895 5.995C223.884 5.995 223.874 5.995 223.864 5.995C223.854 5.995 223.844 5.995 223.833 5.995C223.823 5.995 223.813 5.995 223.803 5.995C223.793 5.995 223.782 5.995 223.772 5.995C223.762 5.995 223.752 5.995 223.742 5.995C223.731 5.995 223.721 5.995 223.711 5.995C223.701 5.995 223.691 5.995 223.68 5.995C223.67 5.995 223.66 5.995 223.65 5.995C223.639 5.995 223.629 5.995 223.619 5.995C223.609 5.995 223.599 5.995 223.588 5.995C223.578 5.995 223.568 5.995 223.558 5.995C223.548 5.995 223.537 5.995 223.527 5.995C223.517 5.995 223.507 5.995 223.497 5.995C223.486 5.995 223.476 5.995 223.466 5.995C223.456 5.995 223.446 5.995 223.435 5.995C223.425 5.995 223.415 5.995 223.405 5.995C223.395 5.995 223.384 5.995 223.374 5.995C223.364 5.995 223.354 5.995 223.344 5.995C223.333 5.995 223.323 5.995 223.313 5.995C223.303 5.995 223.293 5.995 223.282 5.995C223.272 5.995 223.262 5.995 223.252 5.995C223.242 5.995 223.231 5.995 223.221 5.995C223.211 5.995 223.201 5.995 223.19 5.995C223.18 5.995 223.17 5.995 223.16 5.995C223.15 5.995 223.139 5.995 223.129 5.995C223.119 5.995 223.109 5.995 223.099 5.995C223.088 5.995 223.078 5.995 223.068 5.995C223.058 5.995 223.048 5.995 223.037 5.995C223.027 5.995 223.017 5.995 223.007 5.995C222.997 5.995 222.986 5.995 222.976 5.995C222.966 5.995 222.956 5.995 222.946 5.995C222.935 5.995 222.925 5.995 222.915 5.995C222.905 5.995 222.895 5.995 222.884 5.995C222.874 5.995 222.864 5.995 222.854 5.995C222.844 5.995 222.833 5.995 222.823 5.995C222.813 5.995 222.803 5.995 222.792 5.995C222.782 5.995 222.772 5.995 222.762 5.995C222.752 5.995 222.741 5.995 222.731 5.995C222.721 5.995 222.711 5.995 222.701 5.995C222.69 5.995 222.68 5.995 222.67 5.995C222.66 5.995 222.65 5.995 222.639 5.995C222.629 5.995 222.619 5.995 222.609 5.995C222.599 5.995 222.588 5.995 222.578 5.995C222.568 5.995 222.558 5.995 222.548 5.995C222.537 5.995 222.527 5.995 222.517 5.995C222.507 5.995 222.497 5.995 222.486 5.995C222.476 5.995 222.466 5.995 222.456 5.995C222.446 5.995 222.435 5.995 222.425 5.995C222.415 5.995 222.405 5.995 222.394 5.995C222.384 5.995 222.374 5.995 222.364 5.995C222.354 5.995 222.343 5.995 222.333 5.995C222.323 5.995 222.313 5.995 222.303 5.995C222.292 5.995 222.282 5.995 222.272 5.995C222.262 5.995 222.252 5.995 222.241 5.995C222.231 5.995 222.221 5.995 222.211 5.995C222.201 5.995 222.19 5.995 222.18 5.995C222.17 5.995 222.16 5.995 222.15 5.995C222.139 5.995 222.129 5.995 222.119 5.995C222.109 5.995 222.099 5.995 222.088 5.995C222.078 5.995 222.068 5.995 222.058 5.995C222.048 5.995 222.037 5.995 222.027 5.995C222.017 5.995 222.007 5.995 221.996 5.995C221.986 5.995 221.976 5.995 221.966 5.995C221.956 5.995 221.945 5.995 221.935 5.995C221.925 5.995 221.915 5.995 221.905 5.995C221.894 5.995 221.884 5.995 221.874 5.995C221.864 5.995 221.854 5.995 221.843 5.995C221.833 5.995 221.823 5.995 221.813 5.995C221.803 5.995 221.792 5.995 221.782 5.995C221.772 5.995 221.762 5.995 221.752 5.995C221.741 5.995 221.731 5.995 221.721 5.995C221.711 5.995 221.701 5.995 221.69 5.995C221.68 5.995 221.67 5.995 221.66 5.995C221.65 5.995 221.639 5.995 221.629 5.995C221.619 5.995 221.609 5.995 221.598 5.995C221.588 5.995 221.578 5.995 221.568 5.995C221.558 5.995 221.547 5.995 221.537 5.995C221.527 5.995 221.517 5.995 221.507 5.995C221.496 5.995 221.486 5.995 221.476 5.995C221.466 5.995 221.456 5.995 221.445 5.995C221.435 5.995 221.425 5.995 221.415 5.995C221.405 5.995 221.394 5.995 221.384 5.995C221.374 5.995 221.364 5.995 221.354 5.995C221.343 5.995 221.333 5.995 221.323 5.995C221.313 5.995 221.303 5.995 221.292 5.995C221.282 5.995 221.272 5.995 221.262 5.995C221.252 5.995 221.241 5.995 221.231 5.995C221.221 5.995 221.211 5.995 221.2 5.995C221.19 5.995 221.18 5.995 221.17 5.995C221.16 5.995 221.149 5.995 221.139 5.995C221.129 5.995 221.119 5.995 221.109 5.995C221.098 5.995 221.088 5.995 221.078 5.995C221.068 5.995 221.058 5.995 221.047 5.995C221.037 5.995 221.027 5.995 221.017 5.995C221.007 5.995 220.996 5.995 220.986 5.995C220.976 5.995 220.966 5.995 220.956 5.995C220.945 5.995 220.935 5.995 220.925 5.995C220.915 5.995 220.905 5.995 220.894 5.995C220.884 5.995 220.874 5.995 220.864 5.995C220.854 5.995 220.843 5.995 220.833 5.995C220.823 5.995 220.813 5.995 220.802 5.995C220.792 5.995 220.782 5.995 220.772 5.995C220.762 5.995 220.751 5.995 220.741 5.995C220.731 5.995 220.721 5.995 220.711 5.995C220.7 5.995 220.69 5.995 220.68 5.995C220.67 5.995 220.66 5.995 220.649 5.995C220.639 5.995 220.629 5.995 220.619 5.995C220.609 5.995 220.598 5.995 220.588 5.995C220.578 5.995 220.568 5.995 220.558 5.995C220.547 5.995 220.537 5.995 220.527 5.995C220.517 5.995 220.507 5.995 220.496 5.995C220.486 5.995 220.476 5.995 220.466 5.995C220.456 5.995 220.445 5.995 220.435 5.995C220.425 5.995 220.415 5.995 220.404 5.995C220.394 5.995 220.384 5.995 220.374 5.995C220.364 5.995 220.353 5.995 220.343 5.995C220.333 5.995 220.323 5.995 220.313 5.995C220.302 5.995 220.292 5.995 220.282 5.995C220.272 5.995 220.262 5.995 220.251 5.995C220.241 5.995 220.231 5.995 220.221 5.995C220.211 5.995 220.2 5.995 220.19 5.995C220.18 5.995 220.17 5.995 220.16 5.995C220.149 5.995 220.139 5.995 220.129 5.995C220.119 5.995 220.109 5.995 220.098 5.995C220.088 5.995 220.078 5.995 220.068 5.995C220.058 5.995 220.047 5.995 220.037 5.995C220.027 5.995 220.017 5.995 220.007 5.995C219.996 5.995 219.986 5.995 219.976 5.995C219.966 5.995 219.955 5.995 219.945 5.995C219.935 5.995 219.925 5.995 219.915 5.995C219.904 5.995 219.894 5.995 219.884 5.995C219.874 5.995 219.864 5.995 219.853 5.995C219.843 5.995 219.833 5.995 219.823 5.995C219.813 5.995 219.802 5.995 219.792 5.995C219.782 5.995 219.772 5.995 219.762 5.995C219.751 5.995 219.741 5.995 219.731 5.995C219.721 5.995 219.711 5.995 219.7 5.995C219.69 5.995 219.68 5.995 219.67 5.995C219.66 5.995 219.649 5.995 219.639 5.995C219.629 5.995 219.619 5.995 219.608 5.995C219.598 5.995 219.588 5.995 219.578 5.995C219.568 5.995 219.557 5.995 219.547 5.995C219.537 5.995 219.527 5.995 219.517 5.995C219.506 5.995 219.496 5.995 219.486 5.995C219.476 5.995 219.466 5.995 219.455 5.995C219.445 5.995 219.435 5.995 219.425 5.995C219.415 5.995 219.404 5.995 219.394 5.995C219.384 5.995 219.374 5.995 219.364 5.995C219.353 5.995 219.343 5.995 219.333 5.995C219.323 5.995 219.313 5.995 219.302 5.995C219.292 5.995 219.282 5.995 219.272 5.995C219.262 5.995 219.251 5.995 219.241 5.995C219.231 5.995 219.221 5.995 219.21 5.995C219.2 5.995 219.19 5.995 219.18 5.995C219.17 5.995 219.159 5.995 219.149 5.995C219.139 5.995 219.129 5.995 219.119 5.995C219.108 5.995 219.098 5.995 219.088 5.995C219.078 5.995 219.068 5.995 219.057 5.995C219.047 5.995 219.037 5.995 219.027 5.995C219.017 5.995 219.006 5.995 218.996 5.995C218.986 5.995 218.976 5.995 218.966 5.995C218.955 5.995 218.945 5.995 218.935 5.995C218.925 5.995 218.915 5.995 218.904 5.995C218.894 5.995 218.884 5.995 218.874 5.995C218.864 5.995 218.853 5.995 218.843 5.995C218.833 5.995 218.823 5.995 218.812 5.995C218.802 5.995 218.792 5.995 218.782 5.995C218.772 5.995 218.761 5.995 218.751 5.995C218.741 5.995 218.731 5.995 218.721 5.995C218.71 5.995 218.7 5.995 218.69 5.995C218.68 5.995 218.67 5.995 218.659 5.995C218.649 5.995 218.639 5.995 218.629 5.995C218.619 5.995 218.608 5.995 218.598 5.995C218.588 5.995 218.578 5.995 218.568 5.995C218.557 5.995 218.547 5.995 218.537 5.995C218.527 5.995 218.517 5.995 218.506 5.995C218.496 5.995 218.486 5.995 218.476 5.995C218.466 5.995 218.455 5.995 218.445 5.995C218.435 5.995 218.425 5.995 218.415 5.995C218.404 5.995 218.394 5.995 218.384 5.995C218.374 5.995 218.363 5.995 218.353 5.995C218.343 5.995 218.333 5.995 218.323 5.995C218.312 5.995 218.302 5.995 218.292 5.995C218.282 5.995 218.272 5.995 218.261 5.995C218.251 5.995 218.241 5.995 218.231 5.995C218.221 5.995 218.21 5.995 218.2 5.995C218.19 5.995 218.18 5.995 218.17 5.995C218.159 5.995 218.149 5.995 218.139 5.995C218.129 5.995 218.119 5.995 218.108 5.995C218.098 5.995 218.088 5.995 218.078 5.995C218.068 5.995 218.057 5.995 218.047 5.995C218.037 5.995 218.027 5.995 218.017 5.995C218.006 5.995 217.996 5.995 217.986 5.995C217.976 5.995 217.965 5.995 217.955 5.995C217.945 5.995 217.935 5.995 217.925 5.995C217.914 5.995 217.904 5.995 217.894 5.995C217.884 5.995 217.874 5.995 217.863 5.995C217.853 5.995 217.843 5.995 217.833 5.995C217.823 5.995 217.812 5.995 217.802 5.995C217.792 5.995 217.782 5.995 217.772 5.995C217.761 5.995 217.751 5.995 217.741 5.995C217.731 5.995 217.721 5.995 217.71 5.995C217.7 5.995 217.69 5.995 217.68 5.995C217.67 5.995 217.659 5.995 217.649 5.995C217.639 5.995 217.629 5.995 217.618 5.995C217.608 5.995 217.598 5.995 217.588 5.995C217.578 5.995 217.567 5.995 217.557 5.995C217.547 5.995 217.537 5.995 217.527 5.995C217.516 5.995 217.506 5.995 217.496 5.995C217.486 5.995 217.476 5.995 217.465 5.995C217.455 5.995 217.445 5.995 217.435 5.995C217.425 5.995 217.414 5.995 217.404 5.995C217.394 5.995 217.384 5.995 217.374 5.995C217.363 5.995 217.353 5.995 217.343 5.995C217.333 5.995 217.323 5.995 217.312 5.995C217.302 5.995 217.292 5.995 217.282 5.995C217.272 5.995 217.261 5.995 217.251 5.995C217.241 5.995 217.231 5.995 217.221 5.995C217.21 5.995 217.2 5.995 217.19 5.995C217.18 5.995 217.169 5.995 217.159 5.995C217.149 5.995 217.139 5.995 217.129 5.995C217.118 5.995 217.108 5.995 217.098 5.995C217.088 5.995 217.078 5.995 217.067 5.995C217.057 5.995 217.047 5.995 217.037 5.995C217.027 5.995 217.016 5.995 217.006 5.995C216.996 5.995 216.986 5.995 216.976 5.995C216.965 5.995 216.955 5.995 216.945 5.995C216.935 5.995 216.925 5.995 216.914 5.995C216.904 5.995 216.894 5.995 216.884 5.995C216.874 5.995 216.863 5.995 216.853 5.995C216.843 5.995 216.833 5.995 216.823 5.995C216.812 5.995 216.802 5.995 216.792 5.995C216.782 5.995 216.771 5.995 216.761 5.995C216.751 5.995 216.741 5.995 216.731 5.995C216.72 5.995 216.71 5.995 216.7 5.995C216.69 5.995 216.68 5.995 216.669 5.995C216.659 5.995 216.649 5.995 216.639 5.995C216.629 5.995 216.618 5.995 216.608 5.995C216.598 5.995 216.588 5.995 216.578 5.995C216.567 5.995 216.557 5.995 216.547 5.995C216.537 5.995 216.527 5.995 216.516 5.995C216.506 5.995 216.496 5.995 216.486 5.995C216.476 5.995 216.465 5.995 216.455 5.995C216.445 5.995 216.435 5.995 216.425 5.995C216.414 5.995 216.404 5.995 216.394 5.995C216.384 5.995 216.373 5.995 216.363 5.995C216.353 5.995 216.343 5.995 216.333 5.995C216.322 5.995 216.312 5.995 216.302 5.995C216.292 5.995 216.282 5.995 216.271 5.995C216.261 5.995 216.251 5.995 216.241 5.995C216.231 5.995 216.22 5.995 216.21 5.995C216.2 5.995 216.19 5.995 216.18 5.995C216.169 5.995 216.159 5.995 216.149 5.995C216.139 5.995 216.129 5.995 216.118 5.995C216.108 5.995 216.098 5.995 216.088 5.995C216.078 5.995 216.067 5.995 216.057 5.995C216.047 5.995 216.037 5.995 216.027 5.995C216.016 5.995 216.006 5.995 215.996 5.995C215.986 5.995 215.975 5.995 215.965 5.995C215.955 5.995 215.945 5.995 215.935 5.995C215.924 5.995 215.914 5.995 215.904 5.995C215.894 5.995 215.884 5.995 215.873 5.995C215.863 5.995 215.853 5.995 215.843 5.995C215.833 5.995 215.822 5.995 215.812 5.995C215.802 5.995 215.792 5.995 215.782 5.995C215.771 5.995 215.761 5.995 215.751 5.995C215.741 5.995 215.731 5.995 215.72 5.995C215.71 5.995 215.7 5.995 215.69 5.995C215.68 5.995 215.669 5.995 215.659 5.995C215.649 5.995 215.639 5.995 215.629 5.995C215.618 5.995 215.608 5.995 215.598 5.995C215.588 5.995 215.577 5.995 215.567 5.995C215.557 5.995 215.547 5.995 215.537 5.995C215.526 5.995 215.516 5.995 215.506 5.995C215.496 5.995 215.486 5.995 215.475 5.995C215.465 5.995 215.455 5.995 215.445 5.995C215.435 5.995 215.424 5.995 215.414 5.995C215.404 5.995 215.394 5.995 215.384 5.995C215.373 5.995 215.363 5.995 215.353 5.995C215.343 5.995 215.333 5.995 215.322 5.995C215.312 5.995 215.302 5.995 215.292 5.995C215.282 5.995 215.271 5.995 215.261 5.995V11.995C215.271 11.995 215.282 11.995 215.292 11.995C215.302 11.995 215.312 11.995 215.322 11.995C215.333 11.995 215.343 11.995 215.353 11.995C215.363 11.995 215.373 11.995 215.384 11.995C215.394 11.995 215.404 11.995 215.414 11.995C215.424 11.995 215.435 11.995 215.445 11.995C215.455 11.995 215.465 11.995 215.475 11.995C215.486 11.995 215.496 11.995 215.506 11.995C215.516 11.995 215.526 11.995 215.537 11.995C215.547 11.995 215.557 11.995 215.567 11.995C215.577 11.995 215.588 11.995 215.598 11.995C215.608 11.995 215.618 11.995 215.629 11.995C215.639 11.995 215.649 11.995 215.659 11.995C215.669 11.995 215.68 11.995 215.69 11.995C215.7 11.995 215.71 11.995 215.72 11.995C215.731 11.995 215.741 11.995 215.751 11.995C215.761 11.995 215.771 11.995 215.782 11.995C215.792 11.995 215.802 11.995 215.812 11.995C215.822 11.995 215.833 11.995 215.843 11.995C215.853 11.995 215.863 11.995 215.873 11.995C215.884 11.995 215.894 11.995 215.904 11.995C215.914 11.995 215.924 11.995 215.935 11.995C215.945 11.995 215.955 11.995 215.965 11.995C215.975 11.995 215.986 11.995 215.996 11.995C216.006 11.995 216.016 11.995 216.027 11.995C216.037 11.995 216.047 11.995 216.057 11.995C216.067 11.995 216.078 11.995 216.088 11.995C216.098 11.995 216.108 11.995 216.118 11.995C216.129 11.995 216.139 11.995 216.149 11.995C216.159 11.995 216.169 11.995 216.18 11.995C216.19 11.995 216.2 11.995 216.21 11.995C216.22 11.995 216.231 11.995 216.241 11.995C216.251 11.995 216.261 11.995 216.271 11.995C216.282 11.995 216.292 11.995 216.302 11.995C216.312 11.995 216.322 11.995 216.333 11.995C216.343 11.995 216.353 11.995 216.363 11.995C216.373 11.995 216.384 11.995 216.394 11.995C216.404 11.995 216.414 11.995 216.425 11.995C216.435 11.995 216.445 11.995 216.455 11.995C216.465 11.995 216.476 11.995 216.486 11.995C216.496 11.995 216.506 11.995 216.516 11.995C216.527 11.995 216.537 11.995 216.547 11.995C216.557 11.995 216.567 11.995 216.578 11.995C216.588 11.995 216.598 11.995 216.608 11.995C216.618 11.995 216.629 11.995 216.639 11.995C216.649 11.995 216.659 11.995 216.669 11.995C216.68 11.995 216.69 11.995 216.7 11.995C216.71 11.995 216.72 11.995 216.731 11.995C216.741 11.995 216.751 11.995 216.761 11.995C216.771 11.995 216.782 11.995 216.792 11.995C216.802 11.995 216.812 11.995 216.823 11.995C216.833 11.995 216.843 11.995 216.853 11.995C216.863 11.995 216.874 11.995 216.884 11.995C216.894 11.995 216.904 11.995 216.914 11.995C216.925 11.995 216.935 11.995 216.945 11.995C216.955 11.995 216.965 11.995 216.976 11.995C216.986 11.995 216.996 11.995 217.006 11.995C217.016 11.995 217.027 11.995 217.037 11.995C217.047 11.995 217.057 11.995 217.067 11.995C217.078 11.995 217.088 11.995 217.098 11.995C217.108 11.995 217.118 11.995 217.129 11.995C217.139 11.995 217.149 11.995 217.159 11.995C217.169 11.995 217.18 11.995 217.19 11.995C217.2 11.995 217.21 11.995 217.221 11.995C217.231 11.995 217.241 11.995 217.251 11.995C217.261 11.995 217.272 11.995 217.282 11.995C217.292 11.995 217.302 11.995 217.312 11.995C217.323 11.995 217.333 11.995 217.343 11.995C217.353 11.995 217.363 11.995 217.374 11.995C217.384 11.995 217.394 11.995 217.404 11.995C217.414 11.995 217.425 11.995 217.435 11.995C217.445 11.995 217.455 11.995 217.465 11.995C217.476 11.995 217.486 11.995 217.496 11.995C217.506 11.995 217.516 11.995 217.527 11.995C217.537 11.995 217.547 11.995 217.557 11.995C217.567 11.995 217.578 11.995 217.588 11.995C217.598 11.995 217.608 11.995 217.618 11.995C217.629 11.995 217.639 11.995 217.649 11.995C217.659 11.995 217.67 11.995 217.68 11.995C217.69 11.995 217.7 11.995 217.71 11.995C217.721 11.995 217.731 11.995 217.741 11.995C217.751 11.995 217.761 11.995 217.772 11.995C217.782 11.995 217.792 11.995 217.802 11.995C217.812 11.995 217.823 11.995 217.833 11.995C217.843 11.995 217.853 11.995 217.863 11.995C217.874 11.995 217.884 11.995 217.894 11.995C217.904 11.995 217.914 11.995 217.925 11.995C217.935 11.995 217.945 11.995 217.955 11.995C217.965 11.995 217.976 11.995 217.986 11.995C217.996 11.995 218.006 11.995 218.017 11.995C218.027 11.995 218.037 11.995 218.047 11.995C218.057 11.995 218.068 11.995 218.078 11.995C218.088 11.995 218.098 11.995 218.108 11.995C218.119 11.995 218.129 11.995 218.139 11.995C218.149 11.995 218.159 11.995 218.17 11.995C218.18 11.995 218.19 11.995 218.2 11.995C218.21 11.995 218.221 11.995 218.231 11.995C218.241 11.995 218.251 11.995 218.261 11.995C218.272 11.995 218.282 11.995 218.292 11.995C218.302 11.995 218.312 11.995 218.323 11.995C218.333 11.995 218.343 11.995 218.353 11.995C218.363 11.995 218.374 11.995 218.384 11.995C218.394 11.995 218.404 11.995 218.415 11.995C218.425 11.995 218.435 11.995 218.445 11.995C218.455 11.995 218.466 11.995 218.476 11.995C218.486 11.995 218.496 11.995 218.506 11.995C218.517 11.995 218.527 11.995 218.537 11.995C218.547 11.995 218.557 11.995 218.568 11.995C218.578 11.995 218.588 11.995 218.598 11.995C218.608 11.995 218.619 11.995 218.629 11.995C218.639 11.995 218.649 11.995 218.659 11.995C218.67 11.995 218.68 11.995 218.69 11.995C218.7 11.995 218.71 11.995 218.721 11.995C218.731 11.995 218.741 11.995 218.751 11.995C218.761 11.995 218.772 11.995 218.782 11.995C218.792 11.995 218.802 11.995 218.812 11.995C218.823 11.995 218.833 11.995 218.843 11.995C218.853 11.995 218.864 11.995 218.874 11.995C218.884 11.995 218.894 11.995 218.904 11.995C218.915 11.995 218.925 11.995 218.935 11.995C218.945 11.995 218.955 11.995 218.966 11.995C218.976 11.995 218.986 11.995 218.996 11.995C219.006 11.995 219.017 11.995 219.027 11.995C219.037 11.995 219.047 11.995 219.057 11.995C219.068 11.995 219.078 11.995 219.088 11.995C219.098 11.995 219.108 11.995 219.119 11.995C219.129 11.995 219.139 11.995 219.149 11.995C219.159 11.995 219.17 11.995 219.18 11.995C219.19 11.995 219.2 11.995 219.21 11.995C219.221 11.995 219.231 11.995 219.241 11.995C219.251 11.995 219.262 11.995 219.272 11.995C219.282 11.995 219.292 11.995 219.302 11.995C219.313 11.995 219.323 11.995 219.333 11.995C219.343 11.995 219.353 11.995 219.364 11.995C219.374 11.995 219.384 11.995 219.394 11.995C219.404 11.995 219.415 11.995 219.425 11.995C219.435 11.995 219.445 11.995 219.455 11.995C219.466 11.995 219.476 11.995 219.486 11.995C219.496 11.995 219.506 11.995 219.517 11.995C219.527 11.995 219.537 11.995 219.547 11.995C219.557 11.995 219.568 11.995 219.578 11.995C219.588 11.995 219.598 11.995 219.608 11.995C219.619 11.995 219.629 11.995 219.639 11.995C219.649 11.995 219.66 11.995 219.67 11.995C219.68 11.995 219.69 11.995 219.7 11.995C219.711 11.995 219.721 11.995 219.731 11.995C219.741 11.995 219.751 11.995 219.762 11.995C219.772 11.995 219.782 11.995 219.792 11.995C219.802 11.995 219.813 11.995 219.823 11.995C219.833 11.995 219.843 11.995 219.853 11.995C219.864 11.995 219.874 11.995 219.884 11.995C219.894 11.995 219.904 11.995 219.915 11.995C219.925 11.995 219.935 11.995 219.945 11.995C219.955 11.995 219.966 11.995 219.976 11.995C219.986 11.995 219.996 11.995 220.007 11.995C220.017 11.995 220.027 11.995 220.037 11.995C220.047 11.995 220.058 11.995 220.068 11.995C220.078 11.995 220.088 11.995 220.098 11.995C220.109 11.995 220.119 11.995 220.129 11.995C220.139 11.995 220.149 11.995 220.16 11.995C220.17 11.995 220.18 11.995 220.19 11.995C220.2 11.995 220.211 11.995 220.221 11.995C220.231 11.995 220.241 11.995 220.251 11.995C220.262 11.995 220.272 11.995 220.282 11.995C220.292 11.995 220.302 11.995 220.313 11.995C220.323 11.995 220.333 11.995 220.343 11.995C220.353 11.995 220.364 11.995 220.374 11.995C220.384 11.995 220.394 11.995 220.404 11.995C220.415 11.995 220.425 11.995 220.435 11.995C220.445 11.995 220.456 11.995 220.466 11.995C220.476 11.995 220.486 11.995 220.496 11.995C220.507 11.995 220.517 11.995 220.527 11.995C220.537 11.995 220.547 11.995 220.558 11.995C220.568 11.995 220.578 11.995 220.588 11.995C220.598 11.995 220.609 11.995 220.619 11.995C220.629 11.995 220.639 11.995 220.649 11.995C220.66 11.995 220.67 11.995 220.68 11.995C220.69 11.995 220.7 11.995 220.711 11.995C220.721 11.995 220.731 11.995 220.741 11.995C220.751 11.995 220.762 11.995 220.772 11.995C220.782 11.995 220.792 11.995 220.802 11.995C220.813 11.995 220.823 11.995 220.833 11.995C220.843 11.995 220.854 11.995 220.864 11.995C220.874 11.995 220.884 11.995 220.894 11.995C220.905 11.995 220.915 11.995 220.925 11.995C220.935 11.995 220.945 11.995 220.956 11.995C220.966 11.995 220.976 11.995 220.986 11.995C220.996 11.995 221.007 11.995 221.017 11.995C221.027 11.995 221.037 11.995 221.047 11.995C221.058 11.995 221.068 11.995 221.078 11.995C221.088 11.995 221.098 11.995 221.109 11.995C221.119 11.995 221.129 11.995 221.139 11.995C221.149 11.995 221.16 11.995 221.17 11.995C221.18 11.995 221.19 11.995 221.2 11.995C221.211 11.995 221.221 11.995 221.231 11.995C221.241 11.995 221.252 11.995 221.262 11.995C221.272 11.995 221.282 11.995 221.292 11.995C221.303 11.995 221.313 11.995 221.323 11.995C221.333 11.995 221.343 11.995 221.354 11.995C221.364 11.995 221.374 11.995 221.384 11.995C221.394 11.995 221.405 11.995 221.415 11.995C221.425 11.995 221.435 11.995 221.445 11.995C221.456 11.995 221.466 11.995 221.476 11.995C221.486 11.995 221.496 11.995 221.507 11.995C221.517 11.995 221.527 11.995 221.537 11.995C221.547 11.995 221.558 11.995 221.568 11.995C221.578 11.995 221.588 11.995 221.598 11.995C221.609 11.995 221.619 11.995 221.629 11.995C221.639 11.995 221.65 11.995 221.66 11.995C221.67 11.995 221.68 11.995 221.69 11.995C221.701 11.995 221.711 11.995 221.721 11.995C221.731 11.995 221.741 11.995 221.752 11.995C221.762 11.995 221.772 11.995 221.782 11.995C221.792 11.995 221.803 11.995 221.813 11.995C221.823 11.995 221.833 11.995 221.843 11.995C221.854 11.995 221.864 11.995 221.874 11.995C221.884 11.995 221.894 11.995 221.905 11.995C221.915 11.995 221.925 11.995 221.935 11.995C221.945 11.995 221.956 11.995 221.966 11.995C221.976 11.995 221.986 11.995 221.996 11.995C222.007 11.995 222.017 11.995 222.027 11.995C222.037 11.995 222.048 11.995 222.058 11.995C222.068 11.995 222.078 11.995 222.088 11.995C222.099 11.995 222.109 11.995 222.119 11.995C222.129 11.995 222.139 11.995 222.15 11.995C222.16 11.995 222.17 11.995 222.18 11.995C222.19 11.995 222.201 11.995 222.211 11.995C222.221 11.995 222.231 11.995 222.241 11.995C222.252 11.995 222.262 11.995 222.272 11.995C222.282 11.995 222.292 11.995 222.303 11.995C222.313 11.995 222.323 11.995 222.333 11.995C222.343 11.995 222.354 11.995 222.364 11.995C222.374 11.995 222.384 11.995 222.394 11.995C222.405 11.995 222.415 11.995 222.425 11.995C222.435 11.995 222.446 11.995 222.456 11.995C222.466 11.995 222.476 11.995 222.486 11.995C222.497 11.995 222.507 11.995 222.517 11.995C222.527 11.995 222.537 11.995 222.548 11.995C222.558 11.995 222.568 11.995 222.578 11.995C222.588 11.995 222.599 11.995 222.609 11.995C222.619 11.995 222.629 11.995 222.639 11.995C222.65 11.995 222.66 11.995 222.67 11.995C222.68 11.995 222.69 11.995 222.701 11.995C222.711 11.995 222.721 11.995 222.731 11.995C222.741 11.995 222.752 11.995 222.762 11.995C222.772 11.995 222.782 11.995 222.792 11.995C222.803 11.995 222.813 11.995 222.823 11.995C222.833 11.995 222.844 11.995 222.854 11.995C222.864 11.995 222.874 11.995 222.884 11.995C222.895 11.995 222.905 11.995 222.915 11.995C222.925 11.995 222.935 11.995 222.946 11.995C222.956 11.995 222.966 11.995 222.976 11.995C222.986 11.995 222.997 11.995 223.007 11.995C223.017 11.995 223.027 11.995 223.037 11.995C223.048 11.995 223.058 11.995 223.068 11.995C223.078 11.995 223.088 11.995 223.099 11.995C223.109 11.995 223.119 11.995 223.129 11.995C223.139 11.995 223.15 11.995 223.16 11.995C223.17 11.995 223.18 11.995 223.19 11.995C223.201 11.995 223.211 11.995 223.221 11.995C223.231 11.995 223.242 11.995 223.252 11.995C223.262 11.995 223.272 11.995 223.282 11.995C223.293 11.995 223.303 11.995 223.313 11.995C223.323 11.995 223.333 11.995 223.344 11.995C223.354 11.995 223.364 11.995 223.374 11.995C223.384 11.995 223.395 11.995 223.405 11.995C223.415 11.995 223.425 11.995 223.435 11.995C223.446 11.995 223.456 11.995 223.466 11.995C223.476 11.995 223.486 11.995 223.497 11.995C223.507 11.995 223.517 11.995 223.527 11.995C223.537 11.995 223.548 11.995 223.558 11.995C223.568 11.995 223.578 11.995 223.588 11.995C223.599 11.995 223.609 11.995 223.619 11.995C223.629 11.995 223.639 11.995 223.65 11.995C223.66 11.995 223.67 11.995 223.68 11.995C223.691 11.995 223.701 11.995 223.711 11.995C223.721 11.995 223.731 11.995 223.742 11.995C223.752 11.995 223.762 11.995 223.772 11.995C223.782 11.995 223.793 11.995 223.803 11.995C223.813 11.995 223.823 11.995 223.833 11.995C223.844 11.995 223.854 11.995 223.864 11.995C223.874 11.995 223.884 11.995 223.895 11.995C223.905 11.995 223.915 11.995 223.925 11.995C223.935 11.995 223.946 11.995 223.956 11.995C223.966 11.995 223.976 11.995 223.986 11.995C223.997 11.995 224.007 11.995 224.017 11.995C224.027 11.995 224.038 11.995 224.048 11.995C224.058 11.995 224.068 11.995 224.078 11.995C224.089 11.995 224.099 11.995 224.109 11.995C224.119 11.995 224.129 11.995 224.14 11.995C224.15 11.995 224.16 11.995 224.17 11.995C224.18 11.995 224.191 11.995 224.201 11.995C224.211 11.995 224.221 11.995 224.231 11.995C224.242 11.995 224.252 11.995 224.262 11.995C224.272 11.995 224.282 11.995 224.293 11.995C224.303 11.995 224.313 11.995 224.323 11.995C224.333 11.995 224.344 11.995 224.354 11.995C224.364 11.995 224.374 11.995 224.384 11.995C224.395 11.995 224.405 11.995 224.415 11.995C224.425 11.995 224.436 11.995 224.446 11.995C224.456 11.995 224.466 11.995 224.476 11.995C224.487 11.995 224.497 11.995 224.507 11.995C224.517 11.995 224.527 11.995 224.538 11.995C224.548 11.995 224.558 11.995 224.568 11.995C224.578 11.995 224.589 11.995 224.599 11.995C224.609 11.995 224.619 11.995 224.629 11.995C224.64 11.995 224.65 11.995 224.66 11.995C224.67 11.995 224.68 11.995 224.691 11.995C224.701 11.995 224.711 11.995 224.721 11.995C224.731 11.995 224.742 11.995 224.752 11.995C224.762 11.995 224.772 11.995 224.782 11.995C224.793 11.995 224.803 11.995 224.813 11.995C224.823 11.995 224.833 11.995 224.844 11.995C224.854 11.995 224.864 11.995 224.874 11.995C224.885 11.995 224.895 11.995 224.905 11.995C224.915 11.995 224.925 11.995 224.936 11.995C224.946 11.995 224.956 11.995 224.966 11.995C224.976 11.995 224.987 11.995 224.997 11.995C225.007 11.995 225.017 11.995 225.027 11.995C225.038 11.995 225.048 11.995 225.058 11.995C225.068 11.995 225.078 11.995 225.089 11.995C225.099 11.995 225.109 11.995 225.119 11.995C225.129 11.995 225.14 11.995 225.15 11.995C225.16 11.995 225.17 11.995 225.18 11.995C225.191 11.995 225.201 11.995 225.211 11.995C225.221 11.995 225.231 11.995 225.242 11.995C225.252 11.995 225.262 11.995 225.272 11.995C225.283 11.995 225.293 11.995 225.303 11.995C225.313 11.995 225.323 11.995 225.334 11.995C225.344 11.995 225.354 11.995 225.364 11.995C225.374 11.995 225.385 11.995 225.395 11.995C225.405 11.995 225.415 11.995 225.425 11.995C225.436 11.995 225.446 11.995 225.456 11.995C225.466 11.995 225.476 11.995 225.487 11.995C225.497 11.995 225.507 11.995 225.517 11.995C225.527 11.995 225.538 11.995 225.548 11.995C225.558 11.995 225.568 11.995 225.578 11.995C225.589 11.995 225.599 11.995 225.609 11.995C225.619 11.995 225.629 11.995 225.64 11.995C225.65 11.995 225.66 11.995 225.67 11.995C225.681 11.995 225.691 11.995 225.701 11.995C225.711 11.995 225.721 11.995 225.732 11.995C225.742 11.995 225.752 11.995 225.762 11.995C225.772 11.995 225.783 11.995 225.793 11.995C225.803 11.995 225.813 11.995 225.823 11.995C225.834 11.995 225.844 11.995 225.854 11.995C225.864 11.995 225.874 11.995 225.885 11.995C225.895 11.995 225.905 11.995 225.915 11.995C225.925 11.995 225.936 11.995 225.946 11.995C225.956 11.995 225.966 11.995 225.976 11.995C225.987 11.995 225.997 11.995 226.007 11.995C226.017 11.995 226.027 11.995 226.038 11.995C226.048 11.995 226.058 11.995 226.068 11.995C226.079 11.995 226.089 11.995 226.099 11.995C226.109 11.995 226.119 11.995 226.13 11.995C226.14 11.995 226.15 11.995 226.16 11.995C226.17 11.995 226.181 11.995 226.191 11.995C226.201 11.995 226.211 11.995 226.221 11.995C226.232 11.995 226.242 11.995 226.252 11.995C226.262 11.995 226.272 11.995 226.283 11.995C226.293 11.995 226.303 11.995 226.313 11.995C226.323 11.995 226.334 11.995 226.344 11.995C226.354 11.995 226.364 11.995 226.374 11.995C226.385 11.995 226.395 11.995 226.405 11.995C226.415 11.995 226.425 11.995 226.436 11.995C226.446 11.995 226.456 11.995 226.466 11.995C226.477 11.995 226.487 11.995 226.497 11.995C226.507 11.995 226.517 11.995 226.528 11.995C226.538 11.995 226.548 11.995 226.558 11.995C226.568 11.995 226.579 11.995 226.589 11.995C226.599 11.995 226.609 11.995 226.619 11.995C226.63 11.995 226.64 11.995 226.65 11.995C226.66 11.995 226.67 11.995 226.681 11.995C226.691 11.995 226.701 11.995 226.711 11.995C226.721 11.995 226.732 11.995 226.742 11.995C226.752 11.995 226.762 11.995 226.772 11.995C226.783 11.995 226.793 11.995 226.803 11.995C226.813 11.995 226.823 11.995 226.834 11.995C226.844 11.995 226.854 11.995 226.864 11.995C226.875 11.995 226.885 11.995 226.895 11.995C226.905 11.995 226.915 11.995 226.926 11.995C226.936 11.995 226.946 11.995 226.956 11.995C226.966 11.995 226.977 11.995 226.987 11.995C226.997 11.995 227.007 11.995 227.017 11.995C227.028 11.995 227.038 11.995 227.048 11.995C227.058 11.995 227.068 11.995 227.079 11.995C227.089 11.995 227.099 11.995 227.109 11.995C227.119 11.995 227.13 11.995 227.14 11.995C227.15 11.995 227.16 11.995 227.17 11.995C227.181 11.995 227.191 11.995 227.201 11.995C227.211 11.995 227.221 11.995 227.232 11.995C227.242 11.995 227.252 11.995 227.262 11.995C227.273 11.995 227.283 11.995 227.293 11.995C227.303 11.995 227.313 11.995 227.324 11.995C227.334 11.995 227.344 11.995 227.354 11.995C227.364 11.995 227.375 11.995 227.385 11.995C227.395 11.995 227.405 11.995 227.415 11.995C227.426 11.995 227.436 11.995 227.446 11.995C227.456 11.995 227.466 11.995 227.477 11.995C227.487 11.995 227.497 11.995 227.507 11.995C227.517 11.995 227.528 11.995 227.538 11.995C227.548 11.995 227.558 11.995 227.568 11.995C227.579 11.995 227.589 11.995 227.599 11.995C227.609 11.995 227.619 11.995 227.63 11.995C227.64 11.995 227.65 11.995 227.66 11.995C227.671 11.995 227.681 11.995 227.691 11.995C227.701 11.995 227.711 11.995 227.722 11.995C227.732 11.995 227.742 11.995 227.752 11.995C227.762 11.995 227.773 11.995 227.783 11.995C227.793 11.995 227.803 11.995 227.813 11.995C227.824 11.995 227.834 11.995 227.844 11.995C227.854 11.995 227.864 11.995 227.875 11.995C227.885 11.995 227.895 11.995 227.905 11.995C227.915 11.995 227.926 11.995 227.936 11.995C227.946 11.995 227.956 11.995 227.966 11.995C227.977 11.995 227.987 11.995 227.997 11.995C228.007 11.995 228.017 11.995 228.028 11.995C228.038 11.995 228.048 11.995 228.058 11.995C228.069 11.995 228.079 11.995 228.089 11.995C228.099 11.995 228.109 11.995 228.12 11.995C228.13 11.995 228.14 11.995 228.15 11.995C228.16 11.995 228.171 11.995 228.181 11.995C228.191 11.995 228.201 11.995 228.211 11.995C228.222 11.995 228.232 11.995 228.242 11.995C228.252 11.995 228.262 11.995 228.273 11.995C228.283 11.995 228.293 11.995 228.303 11.995C228.313 11.995 228.324 11.995 228.334 11.995C228.344 11.995 228.354 11.995 228.364 11.995C228.375 11.995 228.385 11.995 228.395 11.995C228.405 11.995 228.415 11.995 228.426 11.995C228.436 11.995 228.446 11.995 228.456 11.995C228.467 11.995 228.477 11.995 228.487 11.995C228.497 11.995 228.507 11.995 228.518 11.995C228.528 11.995 228.538 11.995 228.548 11.995C228.558 11.995 228.569 11.995 228.579 11.995C228.589 11.995 228.599 11.995 228.609 11.995C228.62 11.995 228.63 11.995 228.64 11.995C228.65 11.995 228.66 11.995 228.671 11.995C228.681 11.995 228.691 11.995 228.701 11.995C228.711 11.995 228.722 11.995 228.732 11.995C228.742 11.995 228.752 11.995 228.762 11.995C228.773 11.995 228.783 11.995 228.793 11.995C228.803 11.995 228.813 11.995 228.824 11.995C228.834 11.995 228.844 11.995 228.854 11.995C228.865 11.995 228.875 11.995 228.885 11.995C228.895 11.995 228.905 11.995 228.916 11.995C228.926 11.995 228.936 11.995 228.946 11.995C228.956 11.995 228.967 11.995 228.977 11.995C228.987 11.995 228.997 11.995 229.007 11.995C229.018 11.995 229.028 11.995 229.038 11.995C229.048 11.995 229.058 11.995 229.069 11.995C229.079 11.995 229.089 11.995 229.099 11.995C229.109 11.995 229.12 11.995 229.13 11.995C229.14 11.995 229.15 11.995 229.16 11.995C229.171 11.995 229.181 11.995 229.191 11.995C229.201 11.995 229.211 11.995 229.222 11.995C229.232 11.995 229.242 11.995 229.252 11.995C229.262 11.995 229.273 11.995 229.283 11.995C229.293 11.995 229.303 11.995 229.314 11.995C229.324 11.995 229.334 11.995 229.344 11.995C229.354 11.995 229.365 11.995 229.375 11.995C229.385 11.995 229.395 11.995 229.405 11.995C229.416 11.995 229.426 11.995 229.436 11.995C229.446 11.995 229.456 11.995 229.467 11.995C229.477 11.995 229.487 11.995 229.497 11.995C229.507 11.995 229.518 11.995 229.528 11.995C229.538 11.995 229.548 11.995 229.558 11.995C229.569 11.995 229.579 11.995 229.589 11.995C229.599 11.995 229.609 11.995 229.62 11.995C229.63 11.995 229.64 11.995 229.65 11.995C229.66 11.995 229.671 11.995 229.681 11.995C229.691 11.995 229.701 11.995 229.712 11.995C229.722 11.995 229.732 11.995 229.742 11.995C229.752 11.995 229.763 11.995 229.773 11.995C229.783 11.995 229.793 11.995 229.803 11.995C229.814 11.995 229.824 11.995 229.834 11.995C229.844 11.995 229.854 11.995 229.865 11.995C229.875 11.995 229.885 11.995 229.895 11.995C229.905 11.995 229.916 11.995 229.926 11.995C229.936 11.995 229.946 11.995 229.956 11.995C229.967 11.995 229.977 11.995 229.987 11.995C229.997 11.995 230.007 11.995 230.018 11.995C230.028 11.995 230.038 11.995 230.048 11.995C230.059 11.995 230.069 11.995 230.079 11.995C230.089 11.995 230.099 11.995 230.11 11.995C230.12 11.995 230.13 11.995 230.14 11.995C230.15 11.995 230.161 11.995 230.171 11.995C230.181 11.995 230.191 11.995 230.201 11.995C230.212 11.995 230.222 11.995 230.232 11.995C230.242 11.995 230.252 11.995 230.263 11.995C230.273 11.995 230.283 11.995 230.293 11.995C230.303 11.995 230.314 11.995 230.324 11.995C230.334 11.995 230.344 11.995 230.354 11.995C230.365 11.995 230.375 11.995 230.385 11.995C230.395 11.995 230.405 11.995 230.416 11.995C230.426 11.995 230.436 11.995 230.446 11.995C230.456 11.995 230.467 11.995 230.477 11.995C230.487 11.995 230.497 11.995 230.508 11.995C230.518 11.995 230.528 11.995 230.538 11.995C230.548 11.995 230.559 11.995 230.569 11.995C230.579 11.995 230.589 11.995 230.599 11.995C230.61 11.995 230.62 11.995 230.63 11.995C230.64 11.995 230.65 11.995 230.661 11.995C230.671 11.995 230.681 11.995 230.691 11.995C230.701 11.995 230.712 11.995 230.722 11.995C230.732 11.995 230.742 11.995 230.752 11.995C230.763 11.995 230.773 11.995 230.783 11.995C230.793 11.995 230.803 11.995 230.814 11.995C230.824 11.995 230.834 11.995 230.844 11.995C230.854 11.995 230.865 11.995 230.875 11.995C230.885 11.995 230.895 11.995 230.906 11.995C230.916 11.995 230.926 11.995 230.936 11.995V5.995ZM212.261 8.995V47.055H218.261V8.995H212.261ZM215.261 50.055H217.076V44.055H215.261V50.055ZM243.376 8.995L242.427 6.14895L240.376 6.83272V8.995H243.376ZM243.376 47.055H240.376V50.055H243.376V47.055ZM245.191 47.055V50.055H248.191V47.055H245.191ZM245.191 32.26L245.684 29.3008L242.191 28.7186V32.26H245.191ZM245.191 31.325H242.191V33.8287L244.654 34.2766L245.191 31.325ZM245.191 9.545L244.401 6.6507L242.191 7.2536V9.545H245.191ZM262.106 20.435C262.106 12.1231 255.372 5.39 247.061 5.39V11.39C252.059 11.39 256.106 15.4369 256.106 20.435H262.106ZM247.061 5.39C245.456 5.39 243.871 5.66753 242.427 6.14895L244.324 11.841C245.19 11.5525 246.135 11.39 247.061 11.39V5.39ZM240.376 8.995V47.055H246.376V8.995H240.376ZM243.376 50.055H245.191V44.055H243.376V50.055ZM248.191 47.055V32.26H242.191V47.055H248.191ZM244.697 35.2192C245.495 35.3522 246.267 35.425 247.061 35.425V29.425C246.644 29.425 246.206 29.3878 245.684 29.3008L244.697 35.2192ZM247.061 35.425C255.363 35.425 262.106 28.7008 262.106 20.435H256.106C256.106 25.3692 252.068 29.425 247.061 29.425V35.425ZM254.236 20.435C254.236 25.1205 250.786 28.49 247.061 28.49V34.49C254.555 34.49 260.236 27.9595 260.236 20.435H254.236ZM247.061 28.49C246.623 28.49 246.143 28.4489 245.727 28.3734L244.654 34.2766C245.448 34.4211 246.289 34.49 247.061 34.49V28.49ZM248.191 31.325V9.545H242.191V31.325H248.191ZM245.98 12.4393C246.24 12.3684 246.613 12.325 247.061 12.325V6.325C246.299 6.325 245.351 6.39161 244.401 6.6507L245.98 12.4393ZM247.061 12.325C250.768 12.325 254.236 15.7294 254.236 20.435H260.236C260.236 12.9306 254.574 6.325 247.061 6.325V12.325ZM286.229 8.995V5.995H284.179L283.434 7.90437L286.229 8.995ZM285.349 11.25L282.554 10.1594L282.549 10.1723L285.349 11.25ZM280.289 24.395L283.085 25.4823L283.089 25.4727L280.289 24.395ZM273.359 42.215H270.359L276.155 43.3023L273.359 42.215ZM273.359 8.995H276.359V5.995H273.359V8.995ZM271.544 8.995V5.995H268.544V8.995H271.544ZM271.544 47.055H268.544V50.055H271.544V47.055ZM272.534 47.055V50.055H274.631L275.351 48.0857L272.534 47.055ZM273.359 44.8L270.561 43.7167L270.551 43.7429L270.541 43.7693L273.359 44.8ZM285.349 13.835H288.349L282.551 12.7517L285.349 13.835ZM285.349 47.055H282.349V50.055H285.349V47.055ZM287.219 47.055V50.055H290.219V47.055H287.219ZM287.219 8.995H290.219V5.995H287.219V8.995ZM283.434 7.90437L282.554 10.1594L288.143 12.3406L289.023 10.0856L283.434 7.90437ZM282.549 10.1723L277.489 23.3173L283.089 25.4727L288.148 12.3277L282.549 10.1723ZM277.493 23.3077L270.563 41.1277L276.155 43.3023L283.085 25.4823L277.493 23.3077ZM276.359 42.215V8.995H270.359V42.215H276.359ZM273.359 5.995H271.544V11.995H273.359V5.995ZM268.544 8.995V47.055H274.544V8.995H268.544ZM271.544 50.055H272.534V44.055H271.544V50.055ZM275.351 48.0857L276.176 45.8307L270.541 43.7693L269.716 46.0243L275.351 48.0857ZM276.156 45.8833L288.146 14.9183L282.551 12.7517L270.561 43.7167L276.156 45.8833ZM282.349 13.835V47.055H288.349V13.835H282.349ZM285.349 50.055H287.219V44.055H285.349V50.055ZM290.219 47.055V8.995H284.219V47.055H290.219ZM287.219 5.995H286.229V11.995H287.219V5.995ZM320.448 8.39L323.348 7.62164L321.844 1.94605L318.126 6.49028L320.448 8.39ZM318.963 10.205L316.641 8.30528L316.224 8.81532L316.059 9.4533L318.963 10.205ZM315.223 24.285L312.328 25.0692L315.225 35.7658L318.119 25.0686L315.223 24.285ZM310.933 8.39L313.831 7.61329L312.204 1.54253L308.507 6.62548L310.933 8.39ZM309.503 10.205L307.181 8.30528L306.774 8.80369L306.606 9.42554L309.503 10.205ZM299.658 47.055L296.757 46.2909L295.766 50.055H299.658V47.055ZM300.593 47.055V50.055H302.896L303.491 47.8305L300.593 47.055ZM309.998 12.02L312.894 11.2358L309.988 0.505068L307.101 11.2411L309.998 12.02ZM314.233 27.915L311.335 28.6917L312.85 34.3429L316.555 29.8147L314.233 27.915ZM315.718 26.1L318.04 27.9997L318.457 27.4897L318.622 26.8517L315.718 26.1ZM319.458 12.02L322.355 11.2411L319.467 0.500188L316.562 11.2364L319.458 12.02ZM328.863 47.055L325.965 47.8305L326.56 50.055H328.863V47.055ZM330.788 47.055V50.055H334.703L333.685 46.2751L330.788 47.055ZM318.126 6.49028C317.879 6.79278 317.631 7.09529 317.384 7.39779C317.136 7.70029 316.889 8.00278 316.641 8.30528L321.285 12.1047C321.533 11.8022 321.78 11.4997 322.028 11.1972C322.275 10.8947 322.523 10.5922 322.77 10.2897L318.126 6.49028ZM316.059 9.4533C314.853 14.1132 313.591 18.8314 312.327 23.5014L318.119 25.0686C319.385 20.3886 320.654 15.6468 321.867 10.9567L316.059 9.4533ZM318.119 23.5008C316.689 18.2202 315.26 12.9439 313.831 7.61329L308.035 9.1667C309.467 14.5061 310.898 19.7898 312.328 25.0692L318.119 23.5008ZM308.507 6.62548C308.126 7.14914 307.687 7.68708 307.181 8.30528L311.825 12.1047C312.309 11.5129 312.86 10.8409 313.359 10.1545L308.507 6.62548ZM306.606 9.42554C303.307 21.6893 300.004 33.9619 296.757 46.2909L302.559 47.8191C305.802 35.5081 309.1 23.2507 312.4 10.9845L306.606 9.42554ZM299.658 50.055H300.593V44.055H299.658V50.055ZM303.491 47.8305C306.626 36.1175 309.76 24.4592 312.895 12.7989L307.101 11.2411C303.966 22.9008 300.831 34.5625 297.695 46.2795L303.491 47.8305ZM307.103 12.8042C308.535 18.0917 309.895 23.3168 311.335 28.6917L317.131 27.1383C315.712 21.8432 314.322 16.5083 312.894 11.2358L307.103 12.8042ZM316.555 29.8147C317.05 29.2097 317.545 28.6047 318.04 27.9997L313.396 24.2003C312.901 24.8053 312.406 25.4103 311.911 26.0153L316.555 29.8147ZM318.622 26.8517C319.829 22.1918 321.09 17.4736 322.354 12.8036L316.562 11.2364C315.296 15.9164 314.028 20.6582 312.814 25.3483L318.622 26.8517ZM316.561 12.7989C319.696 24.4592 322.831 36.1175 325.965 47.8305L331.761 46.2795C328.626 34.5625 325.49 22.9008 322.355 11.2411L316.561 12.7989ZM328.863 50.055H330.788V44.055H328.863V50.055ZM333.685 46.2751C330.221 33.4069 326.757 20.4862 323.348 7.62164L317.548 9.15836C320.96 22.0338 324.426 34.9631 327.891 47.8349L333.685 46.2751ZM345.056 46.12H342.056V49.12H345.056V46.12ZM345.056 24.01V21.01H342.056V24.01H345.056ZM351.876 24.01V27.01H353.482L354.373 25.6741L351.876 24.01ZM352.536 23.075L354.879 24.9491L358.778 20.075H352.536V23.075ZM345.056 23.075H342.056V26.075H345.056V23.075ZM345.056 9.93V6.93H342.056V9.93H345.056ZM353.581 9.93V12.93H354.987L355.886 11.8506L353.581 9.93ZM354.406 8.995L356.711 10.9156L360.812 5.995H354.406V8.995ZM343.241 8.995V5.995H340.241V8.995H343.241ZM343.241 47.055H340.241V50.055H343.241V47.055ZM354.406 47.055V50.055H360.812L356.711 45.1344L354.406 47.055ZM353.581 46.12L355.703 43.9987L354.824 43.12H353.581V46.12ZM348.056 46.12V24.01H342.056V46.12H348.056ZM345.056 27.01H351.876V21.01H345.056V27.01ZM354.373 25.6741C354.611 25.3165 354.756 25.1027 354.879 24.9491L350.194 21.2009C349.877 21.5973 349.582 22.0435 349.38 22.3459L354.373 25.6741ZM352.536 20.075H345.056V26.075H352.536V20.075ZM348.056 23.075V9.93H342.056V23.075H348.056ZM345.056 12.93H353.581V6.93H345.056V12.93ZM355.886 11.8506C355.976 11.7428 356.071 11.638 356.214 11.4805C356.346 11.3355 356.526 11.1378 356.711 10.9156L352.102 7.07444C352.012 7.18216 351.917 7.28704 351.774 7.44448C351.642 7.58954 351.462 7.78716 351.277 8.00944L355.886 11.8506ZM354.406 5.995H343.241V11.995H354.406V5.995ZM340.241 8.995V47.055H346.241V8.995H340.241ZM343.241 50.055H354.406V44.055H343.241V50.055ZM356.711 45.1344C356.457 44.8297 356.092 44.3882 355.703 43.9987L351.46 48.2413C351.621 48.4018 351.806 48.6203 352.102 48.9756L356.711 45.1344ZM353.581 43.12H345.056V49.12H353.581V43.12ZM380.649 8.995V5.995H377.649V8.995H380.649ZM380.649 28.41L383.272 29.8669L383.649 29.1874V28.41H380.649ZM368.659 8.995H371.659V5.995H368.659V8.995ZM366.844 8.995V5.995H363.844V8.995H366.844ZM380.649 29.895H383.649V21.6496L378.351 27.9672L380.649 29.895ZM380.649 47.055H377.649V50.055H380.649V47.055ZM382.519 47.055V50.055H385.519V47.055H382.519ZM382.519 8.995H385.519V5.995H382.519V8.995ZM377.649 8.995V28.41H383.649V8.995H377.649ZM378.027 26.9531C377.414 28.0555 376.342 28.71 375.149 28.71V34.71C378.687 34.71 381.684 32.7245 383.272 29.8669L378.027 26.9531ZM375.149 28.71C373.404 28.71 371.659 27.1521 371.659 24.78H365.659C365.659 30.1079 369.744 34.71 375.149 34.71V28.71ZM371.659 24.78V8.995H365.659V24.78H371.659ZM368.659 5.995H366.844V11.995H368.659V5.995ZM363.844 8.995V24.78H369.844V8.995H363.844ZM363.844 24.78C363.844 30.7819 368.707 35.645 374.709 35.645V29.645C372.021 29.645 369.844 27.4681 369.844 24.78H363.844ZM374.709 35.645C377.972 35.645 380.955 34.1993 382.948 31.8228L378.351 27.9672C377.484 29.0007 376.177 29.645 374.709 29.645V35.645ZM377.649 29.895V47.055H383.649V29.895H377.649ZM380.649 50.055H382.519V44.055H380.649V50.055ZM385.519 47.055V8.995H379.519V47.055H385.519ZM382.519 5.995H380.649V11.995H382.519V5.995ZM406.234 8.39L409.13 7.61008L407.612 1.96833L403.912 6.49028L406.234 8.39ZM404.804 10.205L402.482 8.30528L402.074 8.80369L401.907 9.42554L404.804 10.205ZM394.959 47.055L392.058 46.2909L391.066 50.055H394.959V47.055ZM395.894 47.055V50.055H398.197L398.792 47.8301L395.894 47.055ZM399.689 32.975V29.975H397.392L396.793 32.1914L399.689 32.975ZM410.909 32.975L413.804 32.1914L413.205 29.975H410.909V32.975ZM414.649 47.055L411.742 47.7985L412.319 50.055H414.649V47.055ZM416.574 47.055V50.055H420.472L419.474 46.2866L416.574 47.055ZM399.909 32.04L397.012 31.2601L395.994 35.04H399.909V32.04ZM405.299 12.02L408.197 11.2475L405.313 0.425161L402.402 11.2401L405.299 12.02ZM410.634 32.04V35.04H414.538L413.532 31.2675L410.634 32.04ZM403.912 6.49028C403.634 6.83031 403.375 7.16562 403.145 7.46316C402.907 7.77062 402.699 8.04032 402.482 8.30528L407.125 12.1047C407.404 11.7647 407.663 11.4294 407.892 11.1318C408.13 10.8244 408.339 10.5547 408.555 10.2897L403.912 6.49028ZM401.907 9.42554C398.607 21.6893 395.305 33.9619 392.058 46.2909L397.86 47.8191C401.102 35.5081 404.4 23.2507 407.701 10.9845L401.907 9.42554ZM394.959 50.055H395.894V44.055H394.959V50.055ZM398.792 47.8301C400.055 43.105 401.319 38.4343 402.584 33.7586L396.793 32.1914C395.528 36.8657 394.262 41.545 392.995 46.2799L398.792 47.8301ZM399.689 35.975H410.909V29.975H399.689V35.975ZM408.013 33.7586C409.279 38.4368 410.538 43.0919 411.742 47.7985L417.555 46.3115C416.339 41.5581 415.069 36.8632 413.804 32.1914L408.013 33.7586ZM414.649 50.055H416.574V44.055H414.649V50.055ZM419.474 46.2866C416.062 33.4112 412.596 20.4819 409.13 7.61008L403.337 9.16992C406.801 22.0381 410.265 34.9588 413.674 47.8234L419.474 46.2866ZM402.805 32.8199L408.195 12.7999L402.402 11.2401L397.012 31.2601L402.805 32.8199ZM402.4 12.7925L407.735 32.8125L413.532 31.2675L408.197 11.2475L402.4 12.7925ZM410.634 29.04H399.909V35.04H410.634V29.04ZM424.165 8.995V5.995H422.76L421.861 7.07444L424.165 8.995ZM423.395 9.93L420.899 8.2659L417.79 12.93H423.395V9.93ZM430.325 9.93H433.325V6.93H430.325V9.93ZM430.325 47.055H427.325V50.055H430.325V47.055ZM432.195 47.055V50.055H435.195V47.055H432.195ZM432.195 9.93V6.93H429.195V9.93H432.195ZM438.3 9.93V12.93H439.906L440.796 11.5941L438.3 9.93ZM439.07 8.995L441.375 10.9156L445.475 5.995H439.07V8.995ZM421.861 7.07444C421.82 7.12313 421.231 7.7678 420.899 8.2659L425.891 11.5941C425.899 11.5833 425.928 11.542 426.03 11.4234C426.085 11.3598 426.134 11.305 426.215 11.213C426.287 11.13 426.376 11.028 426.47 10.9156L421.861 7.07444ZM423.395 12.93H430.325V6.93H423.395V12.93ZM427.325 9.93V47.055H433.325V9.93H427.325ZM430.325 50.055H432.195V44.055H430.325V50.055ZM435.195 47.055V9.93H429.195V47.055H435.195ZM432.195 12.93H438.3V6.93H432.195V12.93ZM440.796 11.5941C440.804 11.5833 440.833 11.542 440.935 11.4234C440.99 11.3598 441.039 11.305 441.12 11.213C441.192 11.13 441.281 11.028 441.375 10.9156L436.766 7.07444C436.725 7.12313 436.136 7.7678 435.804 8.26589L440.796 11.5941ZM439.07 5.995H424.165V11.995H439.07V5.995ZM453.325 46.12H450.325V49.12H453.325V46.12ZM453.325 24.01V21.01H450.325V24.01H453.325ZM460.145 24.01V27.01H461.75L462.641 25.6741L460.145 24.01ZM460.805 23.075L463.147 24.9491L467.047 20.075H460.805V23.075ZM453.325 23.075H450.325V26.075H453.325V23.075ZM453.325 9.93V6.93H450.325V9.93H453.325ZM461.85 9.93V12.93H463.255L464.154 11.8506L461.85 9.93ZM462.675 8.995L464.979 10.9156L469.08 5.995H462.675V8.995ZM451.51 8.995V5.995H448.51V8.995H451.51ZM451.51 47.055H448.51V50.055H451.51V47.055ZM462.675 47.055V50.055H469.08L464.979 45.1344L462.675 47.055ZM461.85 46.12L463.971 43.9987L463.092 43.12H461.85V46.12ZM456.325 46.12V24.01H450.325V46.12H456.325ZM453.325 27.01H460.145V21.01H453.325V27.01ZM462.641 25.6741C462.879 25.3165 463.025 25.1027 463.147 24.9491L458.462 21.2009C458.145 21.5973 457.85 22.0435 457.649 22.3459L462.641 25.6741ZM460.805 20.075H453.325V26.075H460.805V20.075ZM456.325 23.075V9.93H450.325V23.075H456.325ZM453.325 12.93H461.85V6.93H453.325V12.93ZM464.154 11.8506C464.244 11.7428 464.339 11.638 464.482 11.4805C464.614 11.3355 464.794 11.1378 464.979 10.9156L460.37 7.07444C460.28 7.18216 460.186 7.28704 460.042 7.44448C459.911 7.58954 459.73 7.78716 459.545 8.00944L464.154 11.8506ZM462.675 5.995H451.51V11.995H462.675V5.995ZM448.51 8.995V47.055H454.51V8.995H448.51ZM451.51 50.055H462.675V44.055H451.51V50.055ZM464.979 45.1344C464.725 44.8297 464.361 44.3882 463.971 43.9987L459.728 48.2413C459.889 48.4018 460.074 48.6203 460.37 48.9756L464.979 45.1344ZM461.85 43.12H453.325V49.12H461.85V43.12ZM486.388 8.39L489.284 7.61008L487.765 1.96833L484.066 6.49028L486.388 8.39ZM484.958 10.205L482.636 8.30528L482.228 8.80369L482.061 9.42554L484.958 10.205ZM475.113 47.055L472.211 46.2909L471.22 50.055H475.113V47.055ZM476.048 47.055V50.055H478.35L478.946 47.8305L476.048 47.055ZM485.453 12.02L488.35 11.2411L485.453 0.465838L482.555 11.2411L485.453 12.02ZM494.803 47.055L491.901 47.8178L492.489 50.055H494.803V47.055ZM496.728 47.055V50.055H500.626L499.627 46.2866L496.728 47.055ZM484.066 6.49028C483.787 6.83031 483.529 7.16562 483.299 7.46316C483.061 7.77062 482.852 8.04032 482.636 8.30528L487.279 12.1047C487.558 11.7647 487.816 11.4294 488.046 11.1318C488.284 10.8244 488.493 10.5547 488.709 10.2897L484.066 6.49028ZM482.061 9.42554C478.761 21.6893 475.459 33.9619 472.211 46.2909L478.014 47.8191C481.256 35.5081 484.554 23.2507 487.854 10.9845L482.061 9.42554ZM475.113 50.055H476.048V44.055H475.113V50.055ZM478.946 47.8305C482.08 36.1175 485.215 24.4592 488.35 12.7989L482.555 11.2411C479.42 22.9008 476.285 34.5625 473.149 46.2795L478.946 47.8305ZM482.555 12.7989C485.691 24.4603 488.824 36.1122 491.901 47.8178L497.704 46.2922C494.621 34.5678 491.484 22.8997 488.35 11.2411L482.555 12.7989ZM494.803 50.055H496.728V44.055H494.803V50.055ZM499.627 46.2866C496.216 33.4112 492.75 20.4819 489.284 7.61008L483.491 9.16992C486.955 22.0381 490.419 34.9588 493.828 47.8234L499.627 46.2866ZM510.95 23.735H507.95V27.2764L511.443 26.6942L510.95 23.735ZM510.95 8.995H513.95V5.995H510.95V8.995ZM509.135 8.995V5.995H506.135V8.995H509.135ZM509.135 47.055H506.135V49.2173L508.186 49.9011L509.135 47.055ZM510.95 46.505H507.95V49.0087L510.414 49.4566L510.95 46.505ZM510.95 24.725L510.414 21.7734L507.95 22.2213V24.725H510.95ZM512.82 20.625C512.238 20.625 511.396 20.6193 510.457 20.7758L511.443 26.6942C511.824 26.6307 512.192 26.625 512.82 26.625V20.625ZM513.95 23.735V8.995H507.95V23.735H513.95ZM510.95 5.995H509.135V11.995H510.95V5.995ZM506.135 8.995V47.055H512.135V8.995H506.135ZM508.186 49.9011C509.711 50.4091 511.307 50.605 512.82 50.605V44.605C511.803 44.605 510.87 44.4709 510.084 44.209L508.186 49.9011ZM512.82 50.605C521.114 50.605 527.865 43.9447 527.865 35.615H521.865C521.865 40.5953 517.836 44.605 512.82 44.605V50.605ZM527.865 35.615C527.865 27.2853 521.114 20.625 512.82 20.625V26.625C517.836 26.625 521.865 30.6347 521.865 35.615H527.865ZM512.82 43.725C512.52 43.725 512.107 43.6661 511.487 43.5534L510.414 49.4566C511.004 49.5639 511.911 49.725 512.82 49.725V43.725ZM513.95 46.505V24.725H507.95V46.505H513.95ZM511.487 27.6766C512.107 27.5639 512.52 27.505 512.82 27.505V21.505C511.911 21.505 511.004 21.6661 510.414 21.7734L511.487 27.6766ZM512.82 27.505C516.527 27.505 519.995 30.9094 519.995 35.615H525.995C525.995 28.1106 520.333 21.505 512.82 21.505V27.505ZM519.995 35.615C519.995 40.3206 516.527 43.725 512.82 43.725V49.725C520.333 49.725 525.995 43.1194 525.995 35.615H519.995ZM539.118 47.055V50.055H542.118V47.055H539.118ZM539.118 32.37V29.37H536.118V32.37H539.118ZM551.108 32.37H554.108V29.37H551.108V32.37ZM551.108 47.055H548.108V50.055H551.108V47.055ZM552.978 47.055V50.055H555.978V47.055H552.978ZM552.978 8.995H555.978V5.995H552.978V8.995ZM551.108 8.995V5.995H548.108V8.995H551.108ZM551.108 31.435V34.435H554.108V31.435H551.108ZM539.118 31.435H536.118V34.435H539.118V31.435ZM539.118 8.995H542.118V5.995H539.118V8.995ZM537.303 8.995V5.995H534.303V8.995H537.303ZM537.303 47.055H534.303V50.055H537.303V47.055ZM542.118 47.055V32.37H536.118V47.055H542.118ZM539.118 35.37H551.108V29.37H539.118V35.37ZM548.108 32.37V47.055H554.108V32.37H548.108ZM551.108 50.055H552.978V44.055H551.108V50.055ZM555.978 47.055V8.995H549.978V47.055H555.978ZM552.978 5.995H551.108V11.995H552.978V5.995ZM548.108 8.995V31.435H554.108V8.995H548.108ZM551.108 28.435H539.118V34.435H551.108V28.435ZM542.118 31.435V8.995H536.118V31.435H542.118ZM539.118 5.995H537.303V11.995H539.118V5.995ZM534.303 8.995V47.055H540.303V8.995H534.303ZM537.303 50.055H539.118V44.055H537.303V50.055ZM598.198 41.225L600.319 43.3463L598.198 41.225ZM572.458 40.565L570.336 42.6863L572.458 40.565ZM571.798 14.825L569.676 12.7037V12.7037L571.798 14.825ZM597.538 15.485L595.408 17.5983L595.416 17.6063L595.424 17.6143L597.538 15.485ZM584.998 5.39C572.495 5.39 562.418 15.5441 562.418 28.025H568.418C568.418 18.8359 575.831 11.39 584.998 11.39V5.39ZM562.418 28.025C562.418 40.5169 572.506 50.605 584.998 50.605V44.605C575.82 44.605 568.418 37.2031 568.418 28.025H562.418ZM584.998 50.605C597.479 50.605 607.633 40.5278 607.633 28.025H601.633C601.633 37.1922 594.187 44.605 584.998 44.605V50.605ZM607.633 28.025C607.633 15.5331 597.49 5.39 584.998 5.39V11.39C594.176 11.39 601.633 18.8469 601.633 28.025H607.633ZM596.076 39.1037C590.417 44.763 580.824 44.6888 574.579 38.4437L570.336 42.6863C578.721 51.0712 592.118 51.547 600.319 43.3463L596.076 39.1037ZM574.579 38.4437C568.334 32.1986 568.26 22.6056 573.919 16.9463L569.676 12.7037C561.476 20.9044 561.952 34.3014 570.336 42.6863L574.579 38.4437ZM573.919 16.9463C579.583 11.2828 589.225 11.3681 595.408 17.5983L599.667 13.3717C591.33 4.97189 577.873 4.50716 569.676 12.7037L573.919 16.9463ZM595.424 17.6143C601.655 23.7977 601.74 33.4402 596.076 39.1037L600.319 43.3463C608.516 35.1498 608.051 21.6923 599.651 13.3557L595.424 17.6143ZM645.383 44.415L644.133 41.6878L644.091 41.7069L644.05 41.7274L645.383 44.415ZM624.098 40.565L621.976 42.6863L624.098 40.565ZM623.438 14.825L621.316 12.7037L623.438 14.825ZM648.078 14.44L646.125 16.7178L648.235 18.5257L650.199 16.5613L648.078 14.44ZM649.288 13.065L651.545 15.0405L653.544 12.7566L651.237 10.7846L649.288 13.065ZM644.558 45.955L643.323 43.2209L643.316 43.2239L644.558 45.955ZM649.288 42.985L651.225 45.2752L652.693 44.0338L652.178 42.1821L649.288 42.985ZM649.013 41.995L651.903 41.1921L650.607 36.5243L647.006 39.7651L649.013 41.995ZM644.05 41.7274C638.476 44.4915 631.224 43.4483 626.219 38.4437L621.976 42.6863C628.742 49.4517 638.759 51.0485 646.716 47.1026L644.05 41.7274ZM626.219 38.4437C619.974 32.1986 619.9 22.6056 625.559 16.9463L621.316 12.7037C613.116 20.9044 613.591 34.3014 621.976 42.6863L626.219 38.4437ZM625.559 16.9463C630.952 11.5534 639.892 11.3746 646.125 16.7178L650.03 12.1622C641.634 4.96537 629.123 4.89661 621.316 12.7037L625.559 16.9463ZM650.199 16.5613C650.726 16.0339 651.321 15.297 651.545 15.0405L647.03 11.0895C646.484 11.713 646.309 11.9661 645.956 12.3187L650.199 16.5613ZM651.237 10.7846C647.307 7.42546 642.223 5.39 636.638 5.39V11.39C640.732 11.39 644.448 12.8745 647.338 15.3454L651.237 10.7846ZM636.638 5.39C624.135 5.39 614.058 15.5441 614.058 28.025H620.058C620.058 18.8359 627.47 11.39 636.638 11.39V5.39ZM614.058 28.025C614.058 40.5169 624.146 50.605 636.638 50.605V44.605C627.459 44.605 620.058 37.2031 620.058 28.025H614.058ZM636.638 50.605C639.833 50.605 642.957 49.9782 645.799 48.6861L643.316 43.2239C641.319 44.1318 639.052 44.605 636.638 44.605V50.605ZM645.792 48.6891C647.737 47.811 649.571 46.675 651.225 45.2752L647.35 40.6948C646.144 41.715 644.788 42.559 643.323 43.2209L645.792 48.6891ZM652.178 42.1821L651.903 41.1921L646.122 42.7979L646.397 43.7879L652.178 42.1821ZM647.006 39.7651C646.103 40.578 645.143 41.2246 644.133 41.6878L646.633 47.1422C648.262 46.3954 649.723 45.392 651.02 44.2249L647.006 39.7651ZM662.485 8.995V5.995H661.08L660.18 7.07444L662.485 8.995ZM661.715 9.93L659.219 8.2659L656.109 12.93H661.715V9.93ZM668.645 9.93H671.645V6.93H668.645V9.93ZM668.645 47.055H665.645V50.055H668.645V47.055ZM670.515 47.055V50.055H673.515V47.055H670.515ZM670.515 9.93V6.93H667.515V9.93H670.515ZM676.62 9.93V12.93H678.226L679.116 11.5941L676.62 9.93ZM677.39 8.995L679.695 10.9156L683.795 5.995H677.39V8.995ZM660.18 7.07444C660.14 7.12313 659.551 7.7678 659.219 8.2659L664.211 11.5941C664.218 11.5833 664.247 11.542 664.35 11.4234C664.405 11.3598 664.453 11.305 664.534 11.213C664.607 11.13 664.696 11.028 664.79 10.9156L660.18 7.07444ZM661.715 12.93H668.645V6.93H661.715V12.93ZM665.645 9.93V47.055H671.645V9.93H665.645ZM668.645 50.055H670.515V44.055H668.645V50.055ZM673.515 47.055V9.93H667.515V47.055H673.515ZM670.515 12.93H676.62V6.93H670.515V12.93ZM679.116 11.5941C679.123 11.5833 679.152 11.542 679.255 11.4234C679.31 11.3598 679.358 11.305 679.439 11.213C679.512 11.13 679.601 11.028 679.695 10.9156L675.085 7.07444C675.045 7.12313 674.456 7.7678 674.124 8.26589L679.116 11.5941ZM677.39 5.995H662.485V11.995H677.39V5.995ZM704.514 8.995V5.995H702.465L701.72 7.90437L704.514 8.995ZM703.635 11.25L700.84 10.1594L700.835 10.1723L703.635 11.25ZM698.574 24.395L701.371 25.4823L701.374 25.4727L698.574 24.395ZM691.644 42.215H688.644L694.44 43.3023L691.644 42.215ZM691.644 8.995H694.644V5.995H691.644V8.995ZM689.829 8.995V5.995H686.829V8.995H689.829ZM689.829 47.055H686.829V50.055H689.829V47.055ZM690.82 47.055V50.055H692.916L693.637 48.0857L690.82 47.055ZM691.644 44.8L688.847 43.7167L688.837 43.7429L688.827 43.7693L691.644 44.8ZM703.635 13.835H706.635L700.837 12.7517L703.635 13.835ZM703.635 47.055H700.635V50.055H703.635V47.055ZM705.505 47.055V50.055H708.505V47.055H705.505ZM705.505 8.995H708.505V5.995H705.505V8.995ZM701.72 7.90437L700.84 10.1594L706.429 12.3406L707.309 10.0856L701.72 7.90437ZM700.835 10.1723L695.775 23.3173L701.374 25.4727L706.434 12.3277L700.835 10.1723ZM695.779 23.3077L688.848 41.1277L694.44 43.3023L701.37 25.4823L695.779 23.3077ZM694.644 42.215V8.995H688.644V42.215H694.644ZM691.644 5.995H689.829V11.995H691.644V5.995ZM686.829 8.995V47.055H692.829V8.995H686.829ZM689.829 50.055H690.82V44.055H689.829V50.055ZM693.637 48.0857L694.462 45.8307L688.827 43.7693L688.002 46.0243L693.637 48.0857ZM694.442 45.8833L706.432 14.9183L700.837 12.7517L688.847 43.7167L694.442 45.8833ZM700.635 13.835V47.055H706.635V13.835H700.635ZM703.635 50.055H705.505V44.055H703.635V50.055ZM708.505 47.055V8.995H702.505V47.055H708.505ZM705.505 5.995H704.514V11.995H705.505V5.995Z" fill="white"/>
</svg>
