<svg width="430" height="51" viewBox="0 0 430 51" fill="none" xmlns="http://www.w3.org/2000/svg">
<path d="M22.68 8.39C11.845 8.39 3.1 17.19 3.1 28.025C3.1 38.86 11.845 47.605 22.68 47.605C33.515 47.605 42.315 38.86 42.315 28.025C42.315 17.19 33.515 8.39 22.68 8.39ZM35.88 41.225C28.95 48.155 17.455 47.88 10.14 40.565C2.825 33.25 2.55 21.755 9.48 14.825C16.41 7.895 27.96 8.17 35.22 15.485C42.535 22.745 42.81 34.295 35.88 41.225ZM58.4248 23.625C57.8198 23.625 57.2148 23.68 56.5548 23.735V9.765H65.0798C65.3548 9.545 65.6298 9.27 65.9048 8.995H54.7398V47.055C55.8948 47.44 57.1598 47.605 58.4248 47.605C65.0798 47.605 70.4698 42.27 70.4698 35.615C70.4698 28.96 65.0798 23.625 58.4248 23.625ZM58.4248 46.725C57.8198 46.725 57.1598 46.615 56.5548 46.505V24.725C57.1598 24.615 57.8198 24.505 58.4248 24.505C64.0348 24.505 68.5998 29.51 68.5998 35.615C68.5998 41.72 64.0348 46.725 58.4248 46.725ZM102.928 46.12V8.995H101.058V46.12H93.853V8.995H91.983V46.12H84.723V8.995H82.908V47.055H105.128C105.403 46.725 105.623 46.45 105.898 46.12H102.928ZM132.475 8.995L131.595 11.25L126.535 24.395L119.605 42.215V8.995H117.79V47.055H118.78L119.605 44.8L131.595 13.835V47.055H133.465V8.995H132.475ZM147.719 46.12V24.01H154.539C154.759 23.68 154.979 23.35 155.199 23.075H147.719V9.93H156.244C156.519 9.6 156.794 9.325 157.069 8.995H145.904V47.055H157.069C156.794 46.725 156.519 46.395 156.244 46.12H147.719ZM220.683 44.415C213.918 47.77 205.283 46.45 199.398 40.565C192.083 33.25 191.808 21.755 198.738 14.825C205.338 8.225 216.063 8.17 223.378 14.44C223.818 14 224.203 13.505 224.588 13.065C221.178 10.15 216.778 8.39 211.938 8.39C201.103 8.39 192.358 17.19 192.358 28.025C192.358 38.86 201.103 47.605 211.938 47.605C214.743 47.605 217.438 47.055 219.858 45.955C221.563 45.185 223.158 44.195 224.588 42.985L224.313 41.995C223.213 42.985 222.003 43.81 220.683 44.415ZM245.375 24.505C244.825 24.285 244.275 24.12 243.67 23.955C243.945 23.845 244.22 23.735 244.495 23.625C247.025 22.25 248.785 19.555 248.785 16.475C248.785 12.02 245.155 8.39 240.7 8.39C239.655 8.39 238.665 8.61 237.73 8.995C237.455 9.105 237.235 9.215 237.015 9.325V47.055C238.17 47.44 239.435 47.605 240.7 47.605C247.355 47.605 252.745 42.27 252.745 35.615C252.745 30.61 249.665 26.32 245.375 24.505ZM238.83 9.655C239.435 9.435 240.095 9.325 240.7 9.325C244.165 9.325 246.915 12.515 246.915 16.475C246.915 20.38 244.165 23.625 240.7 23.625H238.83V9.655ZM240.7 46.725C240.095 46.725 239.49 46.615 238.83 46.505V24.505H240.7C246.31 24.505 250.875 29.51 250.875 35.615C250.875 41.72 246.31 46.725 240.7 46.725ZM266.999 46.12V24.01H273.819C274.039 23.68 274.259 23.35 274.479 23.075H266.999V9.93H275.524C275.799 9.6 276.074 9.325 276.349 8.995H265.184V47.055H276.349C276.074 46.725 275.799 46.395 275.524 46.12H266.999ZM312.821 46.12C309.466 33.525 306.056 20.985 302.701 8.39C302.206 8.995 301.766 9.6 301.271 10.205C298.081 22.14 294.836 34.13 291.646 46.12H289.556C289.281 46.45 289.006 46.725 288.786 47.055H314.691C314.966 46.725 315.241 46.45 315.516 46.12H312.821ZM292.581 46.12C295.661 34.735 298.686 23.35 301.766 12.02C304.791 23.35 307.816 34.735 310.896 46.12H292.581ZM329.78 46.12V24.01H336.6C336.82 23.68 337.04 23.35 337.26 23.075H329.78V9.93H338.305C338.58 9.6 338.855 9.325 339.13 8.995H327.965V47.055H339.13C338.855 46.725 338.58 46.395 338.305 46.12H329.78ZM353.383 47.055V32.37H365.373V47.055H367.243V8.995H365.373V31.435H353.383V8.995H351.568V47.055H353.383ZM394.367 8.995L393.487 11.25L388.427 24.395L381.497 42.215V8.995H379.682V47.055H380.672L381.497 44.8L393.487 13.835V47.055H395.357V8.995H394.367ZM423.252 8.39C416.597 8.39 411.207 13.78 411.207 20.435C411.207 25.44 414.287 29.785 418.742 31.545L407.797 47.055H409.612L420.227 32.04C421.162 32.315 422.207 32.425 423.252 32.425C423.857 32.425 424.462 32.37 425.067 32.26V47.055H426.937V8.995C425.782 8.61 424.517 8.39 423.252 8.39ZM423.252 31.49C417.642 31.49 413.077 26.54 413.077 20.435C413.077 14.33 417.642 9.325 423.252 9.325C423.857 9.325 424.462 9.38 425.067 9.545V31.325C424.462 31.435 423.857 31.49 423.252 31.49Z" fill="white"/>
<path d="M35.88 41.225L38.0013 43.3463L38.0013 43.3463L35.88 41.225ZM10.14 40.565L8.01868 42.6863L10.14 40.565ZM9.48 14.825L7.35868 12.7037L7.35868 12.7037L9.48 14.825ZM35.22 15.485L33.0907 17.5983L33.0987 17.6063L33.1067 17.6143L35.22 15.485ZM22.68 5.39C10.1772 5.39 0.1 15.5441 0.1 28.025H6.1C6.1 18.8359 13.5128 11.39 22.68 11.39V5.39ZM0.1 28.025C0.1 40.5169 10.1881 50.605 22.68 50.605V44.605C13.5019 44.605 6.1 37.2031 6.1 28.025H0.1ZM22.68 50.605C35.1609 50.605 45.315 40.5278 45.315 28.025H39.315C39.315 37.1922 31.8691 44.605 22.68 44.605V50.605ZM45.315 28.025C45.315 15.5331 35.1719 5.39 22.68 5.39V11.39C31.8581 11.39 39.315 18.8469 39.315 28.025H45.315ZM33.7587 39.1037C28.0994 44.763 18.5064 44.6888 12.2613 38.4437L8.01868 42.6863C16.4036 51.0712 29.8006 51.547 38.0013 43.3463L33.7587 39.1037ZM12.2613 38.4437C6.01622 32.1986 5.94204 22.6056 11.6013 16.9463L7.35868 12.7037C-0.842044 20.9044 -0.366221 34.3014 8.01868 42.6863L12.2613 38.4437ZM11.6013 16.9463C17.2648 11.2828 26.9073 11.3681 33.0907 17.5983L37.3493 13.3717C29.0127 4.97189 15.5552 4.50716 7.35868 12.7037L11.6013 16.9463ZM33.1067 17.6143C39.3369 23.7977 39.4222 33.4402 33.7587 39.1037L38.0013 43.3463C46.1978 35.1498 45.7331 21.6923 37.3333 13.3557L33.1067 17.6143ZM56.5548 23.735H53.5548V26.9954L56.804 26.7246L56.5548 23.735ZM56.5548 9.765V6.765H53.5548V9.765H56.5548ZM65.0798 9.765V12.765H66.1322L66.9539 12.1076L65.0798 9.765ZM65.9048 8.995L68.0262 11.1163L73.1475 5.995H65.9048V8.995ZM54.7398 8.995V5.995H51.7398V8.995H54.7398ZM54.7398 47.055H51.7398V49.2173L53.7912 49.901L54.7398 47.055ZM56.5548 46.505H53.5548V49.0087L56.0182 49.4566L56.5548 46.505ZM56.5548 24.725L56.0182 21.7734L53.5548 22.2213V24.725H56.5548ZM58.4248 20.625C57.6667 20.625 56.9189 20.6943 56.3057 20.7454L56.804 26.7246C57.5108 26.6657 57.973 26.625 58.4248 26.625V20.625ZM59.5548 23.735V9.765H53.5548V23.735H59.5548ZM56.5548 12.765H65.0798V6.765H56.5548V12.765ZM66.9539 12.1076C67.3833 11.7641 67.7795 11.3629 68.0262 11.1163L63.7835 6.87368C63.4801 7.17706 63.3264 7.32592 63.2058 7.42239L66.9539 12.1076ZM65.9048 5.995H54.7398V11.995H65.9048V5.995ZM51.7398 8.995V47.055H57.7398V8.995H51.7398ZM53.7912 49.901C55.3154 50.4091 56.9118 50.605 58.4248 50.605V44.605C57.4079 44.605 56.4742 44.4709 55.6885 44.209L53.7912 49.901ZM58.4248 50.605C66.7188 50.605 73.4698 43.9447 73.4698 35.615H67.4698C67.4698 40.5953 63.4409 44.605 58.4248 44.605V50.605ZM73.4698 35.615C73.4698 27.2853 66.7188 20.625 58.4248 20.625V26.625C63.4409 26.625 67.4698 30.6347 67.4698 35.615H73.4698ZM58.4248 43.725C58.1243 43.725 57.7112 43.6661 57.0915 43.5534L56.0182 49.4566C56.6085 49.5639 57.5154 49.725 58.4248 49.725V43.725ZM59.5548 46.505V24.725H53.5548V46.505H59.5548ZM57.0915 27.6766C57.7112 27.5639 58.1243 27.505 58.4248 27.505V21.505C57.5154 21.505 56.6085 21.6661 56.0182 21.7734L57.0915 27.6766ZM58.4248 27.505C62.1318 27.505 65.5998 30.9094 65.5998 35.615H71.5998C71.5998 28.1106 65.9379 21.505 58.4248 21.505V27.505ZM65.5998 35.615C65.5998 40.3206 62.1318 43.725 58.4248 43.725V49.725C65.9379 49.725 71.5998 43.1194 71.5998 35.615H65.5998ZM102.928 46.12H99.928V49.12H102.928V46.12ZM102.928 8.995H105.928V5.995H102.928V8.995ZM101.058 8.995V5.995H98.058V8.995H101.058ZM101.058 46.12V49.12H104.058V46.12H101.058ZM93.853 46.12H90.853V49.12H93.853V46.12ZM93.853 8.995H96.853V5.995H93.853V8.995ZM91.983 8.995V5.995H88.983V8.995H91.983ZM91.983 46.12V49.12H94.983V46.12H91.983ZM84.723 46.12H81.723V49.12H84.723V46.12ZM84.723 8.995H87.723V5.995H84.723V8.995ZM82.908 8.995V5.995H79.908V8.995H82.908ZM82.908 47.055H79.908V50.055H82.908V47.055ZM105.128 47.055V50.055H106.533L107.433 48.9756L105.128 47.055ZM105.898 46.12L108.203 48.0406L112.303 43.12H105.898V46.12ZM105.928 46.12V8.995H99.928V46.12H105.928ZM102.928 5.995H101.058V11.995H102.928V5.995ZM98.058 8.995V46.12H104.058V8.995H98.058ZM101.058 43.12H93.853V49.12H101.058V43.12ZM96.853 46.12V8.995H90.853V46.12H96.853ZM93.853 5.995H91.983V11.995H93.853V5.995ZM88.983 8.995V46.12H94.983V8.995H88.983ZM91.983 43.12H84.723V49.12H91.983V43.12ZM87.723 46.12V8.995H81.723V46.12H87.723ZM84.723 5.995H82.908V11.995H84.723V5.995ZM79.908 8.995V47.055H85.908V8.995H79.908ZM82.908 50.055H105.128V44.055H82.908V50.055ZM107.433 48.9756C107.58 48.7987 107.712 48.6375 107.835 48.4872C107.959 48.335 108.075 48.1937 108.203 48.0406L103.593 44.1994C103.446 44.3763 103.314 44.5375 103.191 44.6878C103.067 44.84 102.951 44.9813 102.823 45.1344L107.433 48.9756ZM105.898 43.12H102.928V49.12H105.898V43.12ZM132.475 8.995V5.995H130.425L129.68 7.90437L132.475 8.995ZM131.595 11.25L128.8 10.1594L128.795 10.1723L131.595 11.25ZM126.535 24.395L129.331 25.4823L129.335 25.4727L126.535 24.395ZM119.605 42.215H116.605L122.401 43.3023L119.605 42.215ZM119.605 8.995H122.605V5.995H119.605V8.995ZM117.79 8.995V5.995H114.79V8.995H117.79ZM117.79 47.055H114.79V50.055H117.79V47.055ZM118.78 47.055V50.055H120.877L121.597 48.0857L118.78 47.055ZM119.605 44.8L116.807 43.7167L116.797 43.7429L116.788 43.7693L119.605 44.8ZM131.595 13.835H134.595L128.797 12.7517L131.595 13.835ZM131.595 47.055H128.595V50.055H131.595V47.055ZM133.465 47.055V50.055H136.465V47.055H133.465ZM133.465 8.995H136.465V5.995H133.465V8.995ZM129.68 7.90437L128.8 10.1594L134.39 12.3406L135.27 10.0856L129.68 7.90437ZM128.795 10.1723L123.735 23.3173L129.335 25.4727L134.395 12.3277L128.795 10.1723ZM123.739 23.3077L116.809 41.1277L122.401 43.3023L129.331 25.4823L123.739 23.3077ZM122.605 42.215V8.995H116.605V42.215H122.605ZM119.605 5.995H117.79V11.995H119.605V5.995ZM114.79 8.995V47.055H120.79V8.995H114.79ZM117.79 50.055H118.78V44.055H117.79V50.055ZM121.597 48.0857L122.422 45.8307L116.788 43.7693L115.963 46.0243L121.597 48.0857ZM122.403 45.8833L134.393 14.9183L128.797 12.7517L116.807 43.7167L122.403 45.8833ZM128.595 13.835V47.055H134.595V13.835H128.595ZM131.595 50.055H133.465V44.055H131.595V50.055ZM136.465 47.055V8.995H130.465V47.055H136.465ZM133.465 5.995H132.475V11.995H133.465V5.995ZM147.719 46.12H144.719V49.12H147.719V46.12ZM147.719 24.01V21.01H144.719V24.01H147.719ZM154.539 24.01V27.01H156.145L157.036 25.6741L154.539 24.01ZM155.199 23.075L157.542 24.9491L161.441 20.075H155.199V23.075ZM147.719 23.075H144.719V26.075H147.719V23.075ZM147.719 9.93V6.93H144.719V9.93H147.719ZM156.244 9.93V12.93H157.65L158.549 11.8506L156.244 9.93ZM157.069 8.995L159.374 10.9156L163.475 5.995H157.069V8.995ZM145.904 8.995V5.995H142.904V8.995H145.904ZM145.904 47.055H142.904V50.055H145.904V47.055ZM157.069 47.055V50.055H163.475L159.374 45.1344L157.069 47.055ZM156.244 46.12L158.366 43.9987L157.487 43.12H156.244V46.12ZM150.719 46.12V24.01H144.719V46.12H150.719ZM147.719 27.01H154.539V21.01H147.719V27.01ZM157.036 25.6741C157.274 25.3165 157.419 25.1027 157.542 24.9491L152.857 21.2009C152.54 21.5973 152.245 22.0435 152.043 22.3459L157.036 25.6741ZM155.199 20.075H147.719V26.075H155.199V20.075ZM150.719 23.075V9.93H144.719V23.075H150.719ZM147.719 12.93H156.244V6.93H147.719V12.93ZM158.549 11.8506C158.639 11.7428 158.734 11.638 158.877 11.4805C159.009 11.3355 159.189 11.1378 159.374 10.9156L154.765 7.07444C154.675 7.18216 154.58 7.28704 154.437 7.44448C154.305 7.58954 154.125 7.78716 153.94 8.00944L158.549 11.8506ZM157.069 5.995H145.904V11.995H157.069V5.995ZM142.904 8.995V47.055H148.904V8.995H142.904ZM145.904 50.055H157.069V44.055H145.904V50.055ZM159.374 45.1344C159.12 44.8297 158.755 44.3882 158.366 43.9987L154.123 48.2413C154.284 48.4018 154.469 48.6203 154.765 48.9756L159.374 45.1344ZM156.244 43.12H147.719V49.12H156.244V43.12ZM220.683 44.415L219.433 41.6878L219.391 41.7069L219.35 41.7274L220.683 44.415ZM199.398 40.565L197.277 42.6863L197.277 42.6863L199.398 40.565ZM198.738 14.825L196.617 12.7037L196.617 12.7037L198.738 14.825ZM223.378 14.44L221.426 16.7178L223.535 18.5257L225.499 16.5613L223.378 14.44ZM224.588 13.065L226.846 15.0405L228.844 12.7566L226.537 10.7846L224.588 13.065ZM219.858 45.955L218.623 43.2209L218.617 43.2239L219.858 45.955ZM224.588 42.985L226.526 45.2752L227.993 44.0338L227.479 42.1821L224.588 42.985ZM224.313 41.995L227.204 41.1921L225.907 36.5243L222.306 39.7651L224.313 41.995ZM219.35 41.7274C213.776 44.4915 206.524 43.4483 201.519 38.4437L197.277 42.6863C204.042 49.4517 214.06 51.0485 222.016 47.1026L219.35 41.7274ZM201.519 38.4437C195.274 32.1986 195.2 22.6056 200.859 16.9463L196.617 12.7037C188.416 20.9044 188.892 34.3014 197.277 42.6863L201.519 38.4437ZM200.859 16.9463C206.252 11.5534 215.192 11.3746 221.426 16.7178L225.33 12.1622C216.934 4.96537 204.424 4.89661 196.617 12.7037L200.859 16.9463ZM225.499 16.5613C226.027 16.0339 226.621 15.297 226.846 15.0405L222.33 11.0895C221.785 11.713 221.609 11.9661 221.257 12.3187L225.499 16.5613ZM226.537 10.7846C222.608 7.42546 217.523 5.39 211.938 5.39V11.39C216.033 11.39 219.748 12.8745 222.639 15.3454L226.537 10.7846ZM211.938 5.39C199.435 5.39 189.358 15.5441 189.358 28.025H195.358C195.358 18.8359 202.771 11.39 211.938 11.39V5.39ZM189.358 28.025C189.358 40.5169 199.446 50.605 211.938 50.605V44.605C202.76 44.605 195.358 37.2031 195.358 28.025H189.358ZM211.938 50.605C215.134 50.605 218.257 49.9782 221.099 48.6861L218.617 43.2239C216.619 44.1318 214.352 44.605 211.938 44.605V50.605ZM221.093 48.6891C223.037 47.811 224.872 46.675 226.526 45.2752L222.65 40.6948C221.444 41.715 220.089 42.559 218.623 43.2209L221.093 48.6891ZM227.479 42.1821L227.204 41.1921L221.422 42.7979L221.697 43.7879L227.479 42.1821ZM222.306 39.7651C221.403 40.578 220.444 41.2246 219.433 41.6878L221.933 47.1422C223.562 46.3954 225.023 45.392 226.32 44.2249L222.306 39.7651ZM245.375 24.505L246.544 21.7421L246.517 21.7306L246.49 21.7196L245.375 24.505ZM243.67 23.955L242.556 21.1696L234.245 24.494L242.881 26.8493L243.67 23.955ZM244.495 23.625L245.61 26.4104L245.773 26.345L245.928 26.2609L244.495 23.625ZM237.73 8.995L238.845 11.7804L238.859 11.7748L238.873 11.769L237.73 8.995ZM237.015 9.325L235.674 6.64171L234.015 7.47088V9.325H237.015ZM237.015 47.055H234.015V49.2173L236.067 49.901L237.015 47.055ZM238.83 9.655L237.805 6.83562L235.83 7.55372V9.655H238.83ZM238.83 23.625H235.83V26.625H238.83V23.625ZM238.83 46.505H235.83V49.0464L238.337 49.4642L238.83 46.505ZM238.83 24.505V21.505H235.83V24.505H238.83ZM246.49 21.7196C245.781 21.4363 245.103 21.2361 244.46 21.0607L242.881 26.8493C243.448 27.0039 243.869 27.1337 244.261 27.2904L246.49 21.7196ZM244.785 26.7404C245.06 26.6304 245.335 26.5204 245.61 26.4104L243.381 20.8396C243.106 20.9496 242.831 21.0596 242.556 21.1696L244.785 26.7404ZM245.928 26.2609C249.364 24.3936 251.785 20.7213 251.785 16.475H245.785C245.785 18.3887 244.687 20.1064 243.063 20.9891L245.928 26.2609ZM251.785 16.475C251.785 10.3631 246.812 5.39 240.7 5.39V11.39C243.499 11.39 245.785 13.6769 245.785 16.475H251.785ZM240.7 5.39C239.223 5.39 237.847 5.70283 236.588 6.22096L238.873 11.769C239.484 11.5172 240.087 11.39 240.7 11.39V5.39ZM236.616 6.20957C236.212 6.37122 235.891 6.53312 235.674 6.64171L238.357 12.0083C238.58 11.8969 238.699 11.8388 238.845 11.7804L236.616 6.20957ZM234.015 9.325V47.055H240.015V9.325H234.015ZM236.067 49.901C237.591 50.4091 239.187 50.605 240.7 50.605V44.605C239.683 44.605 238.75 44.4709 237.964 44.209L236.067 49.901ZM240.7 50.605C248.994 50.605 255.745 43.9447 255.745 35.615H249.745C249.745 40.5953 245.717 44.605 240.7 44.605V50.605ZM255.745 35.615C255.745 29.3529 251.896 24.0061 246.544 21.7421L244.207 27.2679C247.435 28.6339 249.745 31.8671 249.745 35.615H255.745ZM239.856 12.4744C240.124 12.3769 240.436 12.325 240.7 12.325V6.325C239.755 6.325 238.747 6.4931 237.805 6.83562L239.856 12.4744ZM240.7 12.325C242.121 12.325 243.915 13.7557 243.915 16.475H249.915C249.915 11.2743 246.21 6.325 240.7 6.325V12.325ZM243.915 16.475C243.915 19.1552 242.107 20.625 240.7 20.625V26.625C246.224 26.625 249.915 21.6048 249.915 16.475H243.915ZM240.7 20.625H238.83V26.625H240.7V20.625ZM241.83 23.625V9.655H235.83V23.625H241.83ZM240.7 43.725C240.401 43.725 240.078 43.6716 239.324 43.5458L238.337 49.4642C238.903 49.5584 239.79 49.725 240.7 49.725V43.725ZM241.83 46.505V24.505H235.83V46.505H241.83ZM238.83 27.505H240.7V21.505H238.83V27.505ZM240.7 27.505C244.407 27.505 247.875 30.9094 247.875 35.615H253.875C253.875 28.1106 248.214 21.505 240.7 21.505V27.505ZM247.875 35.615C247.875 40.3206 244.407 43.725 240.7 43.725V49.725C248.214 49.725 253.875 43.1194 253.875 35.615H247.875ZM266.999 46.12H263.999V49.12H266.999V46.12ZM266.999 24.01V21.01H263.999V24.01H266.999ZM273.819 24.01V27.01H275.424L276.315 25.6741L273.819 24.01ZM274.479 23.075L276.821 24.9491L280.72 20.075H274.479V23.075ZM266.999 23.075H263.999V26.075H266.999V23.075ZM266.999 9.93V6.93H263.999V9.93H266.999ZM275.524 9.93V12.93H276.929L277.828 11.8506L275.524 9.93ZM276.349 8.995L278.653 10.9156L282.754 5.995H276.349V8.995ZM265.184 8.995V5.995H262.184V8.995H265.184ZM265.184 47.055H262.184V50.055H265.184V47.055ZM276.349 47.055V50.055H282.754L278.653 45.1344L276.349 47.055ZM275.524 46.12L277.645 43.9987L276.766 43.12H275.524V46.12ZM269.999 46.12V24.01H263.999V46.12H269.999ZM266.999 27.01H273.819V21.01H266.999V27.01ZM276.315 25.6741C276.553 25.3165 276.698 25.1027 276.821 24.9491L272.136 21.2009C271.819 21.5973 271.524 22.0435 271.322 22.3459L276.315 25.6741ZM274.479 20.075H266.999V26.075H274.479V20.075ZM269.999 23.075V9.93H263.999V23.075H269.999ZM266.999 12.93H275.524V6.93H266.999V12.93ZM277.828 11.8506C277.918 11.7428 278.013 11.638 278.156 11.4805C278.288 11.3355 278.468 11.1378 278.653 10.9156L274.044 7.07444C273.954 7.18216 273.859 7.28704 273.716 7.44448C273.584 7.58954 273.404 7.78716 273.219 8.00944L277.828 11.8506ZM276.349 5.995H265.184V11.995H276.349V5.995ZM262.184 8.995V47.055H268.184V8.995H262.184ZM265.184 50.055H276.349V44.055H265.184V50.055ZM278.653 45.1344C278.399 44.8297 278.034 44.3882 277.645 43.9987L273.402 48.2413C273.563 48.4018 273.748 48.6203 274.044 48.9756L278.653 45.1344ZM275.524 43.12H266.999V49.12H275.524V43.12ZM312.821 46.12L309.922 46.8922L310.516 49.12H312.821V46.12ZM302.701 8.39L305.6 7.6178L304.091 1.95347L300.379 6.49028L302.701 8.39ZM301.271 10.205L298.949 8.30528L298.54 8.8057L298.373 9.43035L301.271 10.205ZM291.646 46.12V49.12H293.953L294.545 46.8913L291.646 46.12ZM289.556 46.12V43.12H288.151L287.252 44.1994L289.556 46.12ZM288.786 47.055L286.29 45.3909L283.181 50.055H288.786V47.055ZM314.691 47.055V50.055H316.096L316.996 48.9756L314.691 47.055ZM315.516 46.12L317.821 48.0406L321.921 43.12H315.516V46.12ZM292.581 46.12L289.685 45.3366L288.662 49.12H292.581V46.12ZM301.766 12.02L304.665 11.2461L301.792 0.487786L298.871 11.233L301.766 12.02ZM310.896 46.12V49.12H314.816L313.792 45.3366L310.896 46.12ZM315.72 45.3478C314.042 39.0459 312.349 32.7584 310.658 26.4753C308.967 20.1909 307.277 13.9109 305.6 7.6178L299.802 9.1622C301.481 15.4641 303.173 21.7516 304.864 28.0347C306.556 34.3191 308.246 40.5991 309.922 46.8922L315.72 45.3478ZM300.379 6.49028C300.101 6.83031 299.842 7.16562 299.612 7.46316C299.375 7.77062 299.166 8.04031 298.949 8.30528L303.593 12.1047C303.871 11.7647 304.13 11.4294 304.36 11.1318C304.598 10.8244 304.806 10.5547 305.023 10.2897L300.379 6.49028ZM298.373 9.43035C295.188 21.3477 291.936 33.362 288.747 45.3487L294.545 46.8913C297.736 34.898 300.975 22.9323 304.17 10.9796L298.373 9.43035ZM291.646 43.12H289.556V49.12H291.646V43.12ZM287.252 44.1994C287.211 44.2481 286.622 44.8928 286.29 45.3909L291.282 48.7191C291.29 48.7084 291.319 48.667 291.421 48.5484C291.476 48.4848 291.525 48.43 291.606 48.338C291.678 48.255 291.767 48.153 291.861 48.0406L287.252 44.1994ZM288.786 50.055H314.691V44.055H288.786V50.055ZM316.996 48.9756C317.086 48.8678 317.181 48.763 317.324 48.6055C317.456 48.4605 317.636 48.2628 317.821 48.0406L313.212 44.1994C313.122 44.3072 313.027 44.412 312.884 44.5695C312.752 44.7145 312.572 44.9122 312.387 45.1344L316.996 48.9756ZM315.516 43.12H312.821V49.12H315.516V43.12ZM295.477 46.9034C298.565 35.489 301.579 24.1466 304.661 12.807L298.871 11.233C295.794 22.5534 292.757 33.981 289.685 45.3366L295.477 46.9034ZM298.868 12.7939C301.892 24.1192 304.919 35.5121 308 46.9034L313.792 45.3366C310.714 33.9579 307.691 22.5808 304.665 11.2461L298.868 12.7939ZM310.896 43.12H292.581V49.12H310.896V43.12ZM329.78 46.12H326.78V49.12H329.78V46.12ZM329.78 24.01V21.01H326.78V24.01H329.78ZM336.6 24.01V27.01H338.206L339.096 25.6741L336.6 24.01ZM337.26 23.075L339.603 24.9491L343.502 20.075H337.26V23.075ZM329.78 23.075H326.78V26.075H329.78V23.075ZM329.78 9.93V6.93H326.78V9.93H329.78ZM338.305 9.93V12.93H339.71L340.61 11.8506L338.305 9.93ZM339.13 8.995L341.435 10.9156L345.535 5.995H339.13V8.995ZM327.965 8.995V5.995H324.965V8.995H327.965ZM327.965 47.055H324.965V50.055H327.965V47.055ZM339.13 47.055V50.055H345.535L341.435 45.1344L339.13 47.055ZM338.305 46.12L340.427 43.9987L339.548 43.12H338.305V46.12ZM332.78 46.12V24.01H326.78V46.12H332.78ZM329.78 27.01H336.6V21.01H329.78V27.01ZM339.096 25.6741C339.335 25.3165 339.48 25.1027 339.603 24.9491L334.918 21.2009C334.6 21.5973 334.306 22.0435 334.104 22.3459L339.096 25.6741ZM337.26 20.075H329.78V26.075H337.26V20.075ZM332.78 23.075V9.93H326.78V23.075H332.78ZM329.78 12.93H338.305V6.93H329.78V12.93ZM340.61 11.8506C340.7 11.7428 340.794 11.638 340.938 11.4805C341.069 11.3355 341.25 11.1378 341.435 10.9156L336.826 7.07444C336.736 7.18216 336.641 7.28704 336.498 7.44448C336.366 7.58954 336.186 7.78716 336.001 8.00944L340.61 11.8506ZM339.13 5.995H327.965V11.995H339.13V5.995ZM324.965 8.995V47.055H330.965V8.995H324.965ZM327.965 50.055H339.13V44.055H327.965V50.055ZM341.435 45.1344C341.181 44.8297 340.816 44.3882 340.427 43.9987L336.184 48.2413C336.344 48.4018 336.53 48.6203 336.826 48.9756L341.435 45.1344ZM338.305 43.12H329.78V49.12H338.305V43.12ZM353.383 47.055V50.055H356.383V47.055H353.383ZM353.383 32.37V29.37H350.383V32.37H353.383ZM365.373 32.37H368.373V29.37H365.373V32.37ZM365.373 47.055H362.373V50.055H365.373V47.055ZM367.243 47.055V50.055H370.243V47.055H367.243ZM367.243 8.995H370.243V5.995H367.243V8.995ZM365.373 8.995V5.995H362.373V8.995H365.373ZM365.373 31.435V34.435H368.373V31.435H365.373ZM353.383 31.435H350.383V34.435H353.383V31.435ZM353.383 8.995H356.383V5.995H353.383V8.995ZM351.568 8.995V5.995H348.568V8.995H351.568ZM351.568 47.055H348.568V50.055H351.568V47.055ZM356.383 47.055V32.37H350.383V47.055H356.383ZM353.383 35.37H365.373V29.37H353.383V35.37ZM362.373 32.37V47.055H368.373V32.37H362.373ZM365.373 50.055H367.243V44.055H365.373V50.055ZM370.243 47.055V8.995H364.243V47.055H370.243ZM367.243 5.995H365.373V11.995H367.243V5.995ZM362.373 8.995V31.435H368.373V8.995H362.373ZM365.373 28.435H353.383V34.435H365.373V28.435ZM356.383 31.435V8.995H350.383V31.435H356.383ZM353.383 5.995H351.568V11.995H353.383V5.995ZM348.568 8.995V47.055H354.568V8.995H348.568ZM351.568 50.055H353.383V44.055H351.568V50.055ZM394.367 8.995V5.995H392.318L391.573 7.90437L394.367 8.995ZM393.487 11.25L390.693 10.1594L390.688 10.1723L393.487 11.25ZM388.427 24.395L391.223 25.4823L391.227 25.4727L388.427 24.395ZM381.497 42.215H378.497L384.293 43.3023L381.497 42.215ZM381.497 8.995H384.497V5.995H381.497V8.995ZM379.682 8.995V5.995H376.682V8.995H379.682ZM379.682 47.055H376.682V50.055H379.682V47.055ZM380.672 47.055V50.055H382.769L383.49 48.0857L380.672 47.055ZM381.497 44.8L378.7 43.7167L378.69 43.7429L378.68 43.7693L381.497 44.8ZM393.487 13.835H396.487L390.69 12.7517L393.487 13.835ZM393.487 47.055H390.487V50.055H393.487V47.055ZM395.357 47.055V50.055H398.357V47.055H395.357ZM395.357 8.995H398.357V5.995H395.357V8.995ZM391.573 7.90437L390.693 10.1594L396.282 12.3406L397.162 10.0856L391.573 7.90437ZM390.688 10.1723L385.628 23.3173L391.227 25.4727L396.287 12.3277L390.688 10.1723ZM385.631 23.3077L378.701 41.1277L384.293 43.3023L391.223 25.4823L385.631 23.3077ZM384.497 42.215V8.995H378.497V42.215H384.497ZM381.497 5.995H379.682V11.995H381.497V5.995ZM376.682 8.995V47.055H382.682V8.995H376.682ZM379.682 50.055H380.672V44.055H379.682V50.055ZM383.49 48.0857L384.315 45.8307L378.68 43.7693L377.855 46.0243L383.49 48.0857ZM384.295 45.8833L396.285 14.9183L390.69 12.7517L378.7 43.7167L384.295 45.8833ZM390.487 13.835V47.055H396.487V13.835H390.487ZM393.487 50.055H395.357V44.055H393.487V50.055ZM398.357 47.055V8.995H392.357V47.055H398.357ZM395.357 5.995H394.367V11.995H395.357V5.995ZM418.742 31.545L421.193 33.2747L423.393 30.1569L419.844 28.7548L418.742 31.545ZM407.797 47.055L405.346 45.3253L402.008 50.055H407.797V47.055ZM409.612 47.055V50.055H411.165L412.062 48.7868L409.612 47.055ZM420.227 32.04L421.073 29.1619L419.015 28.5566L417.777 30.3082L420.227 32.04ZM425.067 32.26H428.067V28.6654L424.53 29.3084L425.067 32.26ZM425.067 47.055H422.067V50.055H425.067V47.055ZM426.937 47.055V50.055H429.937V47.055H426.937ZM426.937 8.995H429.937V6.83272L427.886 6.14895L426.937 8.995ZM425.067 9.545H428.067V7.2536L425.856 6.6507L425.067 9.545ZM425.067 31.325L425.604 34.2766L428.067 33.8287V31.325H425.067ZM423.252 5.39C414.94 5.39 408.207 12.1231 408.207 20.435H414.207C414.207 15.4369 418.254 11.39 423.252 11.39V5.39ZM408.207 20.435C408.207 26.6934 412.06 32.1308 417.64 34.3352L419.844 28.7548C416.514 27.4392 414.207 24.1866 414.207 20.435H408.207ZM416.291 29.8153L405.346 45.3253L410.248 48.7847L421.193 33.2747L416.291 29.8153ZM407.797 50.055H409.612V44.055H407.797V50.055ZM412.062 48.7868L422.677 33.7718L417.777 30.3082L407.162 45.3232L412.062 48.7868ZM419.38 34.9181C420.669 35.2971 422.016 35.425 423.252 35.425V29.425C422.398 29.425 421.655 29.3329 421.073 29.1619L419.38 34.9181ZM423.252 35.425C424.04 35.425 424.824 35.3533 425.604 35.2116L424.53 29.3084C424.099 29.3867 423.674 29.425 423.252 29.425V35.425ZM422.067 32.26V47.055H428.067V32.26H422.067ZM425.067 50.055H426.937V44.055H425.067V50.055ZM429.937 47.055V8.995H423.937V47.055H429.937ZM427.886 6.14895C426.441 5.66753 424.856 5.39 423.252 5.39V11.39C424.177 11.39 425.122 11.5525 425.988 11.841L427.886 6.14895ZM423.252 28.49C419.526 28.49 416.077 25.1205 416.077 20.435H410.077C410.077 27.9595 415.757 34.49 423.252 34.49V28.49ZM416.077 20.435C416.077 15.7294 419.545 12.325 423.252 12.325V6.325C415.739 6.325 410.077 12.9306 410.077 20.435H416.077ZM423.252 12.325C423.677 12.325 424.002 12.3641 424.278 12.4393L425.856 6.6507C424.922 6.39592 424.037 6.325 423.252 6.325V12.325ZM422.067 9.545V31.325H428.067V9.545H422.067ZM424.53 28.3734C424.099 28.4517 423.674 28.49 423.252 28.49V34.49C424.04 34.49 424.824 34.4183 425.604 34.2766L424.53 28.3734Z" fill="white"/>
</svg>
