<svg width="421" height="388" viewBox="0 0 421 388" fill="none" xmlns="http://www.w3.org/2000/svg">
<ellipse cx="6.79032" cy="6.06452" rx="6.79032" ry="6.06452" fill="#DF4141"/>
<ellipse cx="74.6935" cy="6.06452" rx="6.79032" ry="6.06452" fill="#DF4141"/>
<ellipse cx="210.5" cy="6.06452" rx="6.79032" ry="6.06452" fill="#DF4141"/>
<ellipse cx="278.403" cy="6.06452" rx="6.79032" ry="6.06452" fill="#DF4141"/>
<ellipse cx="346.306" cy="6.06452" rx="6.79032" ry="6.06452" fill="#DF4141"/>
<ellipse cx="414.21" cy="6.06452" rx="6.79032" ry="6.06452" fill="#DF4141"/>
<ellipse cx="414.21" cy="81.1935" rx="6.79032" ry="6.06452" fill="#DF4141"/>
<ellipse cx="414.21" cy="156.323" rx="6.79032" ry="6.06452" fill="#DF4141"/>
<ellipse cx="414.21" cy="231.452" rx="6.79032" ry="6.06452" fill="#DF4141"/>
<ellipse cx="414.21" cy="306.581" rx="6.79032" ry="6.06452" fill="#DF4141"/>
<ellipse cx="414.21" cy="381.71" rx="6.79032" ry="6.06452" fill="#DF4141"/>
<ellipse cx="346.306" cy="306.581" rx="6.79032" ry="6.06452" fill="#DF4141"/>
<ellipse cx="278.403" cy="306.581" rx="6.79032" ry="6.06452" fill="#DF4141"/>
<ellipse cx="210.5" cy="306.581" rx="6.79032" ry="6.06452" fill="#DF4141"/>
<ellipse cx="6.79032" cy="381.71" rx="6.79032" ry="6.06452" fill="#DF4141"/>
<ellipse cx="74.6935" cy="381.71" rx="6.79032" ry="6.06452" fill="#DF4141"/>
<ellipse cx="74.6935" cy="306.581" rx="6.79032" ry="6.06452" fill="#DF4141"/>
<ellipse cx="74.6935" cy="231.452" rx="6.79032" ry="6.06452" fill="#DF4141"/>
<ellipse cx="142.597" cy="231.452" rx="6.79032" ry="6.06452" fill="#DF4141"/>
<ellipse cx="142.597" cy="306.581" rx="6.79032" ry="6.06452" fill="#DF4141"/>
<ellipse cx="142.597" cy="381.71" rx="6.79032" ry="6.06452" fill="#DF4141"/>
<ellipse cx="210.5" cy="381.71" rx="6.79032" ry="6.06452" fill="#DF4141"/>
<ellipse cx="278.403" cy="381.71" rx="6.79032" ry="6.06452" fill="#DF4141"/>
<ellipse cx="346.306" cy="381.71" rx="6.79032" ry="6.06452" fill="#DF4141"/>
<ellipse cx="6.79032" cy="306.581" rx="6.79032" ry="6.06452" fill="#DF4141"/>
<ellipse cx="6.79032" cy="231.452" rx="6.79032" ry="6.06452" fill="#DF4141"/>
<ellipse cx="6.79032" cy="81.1935" rx="6.79032" ry="6.06452" fill="#DF4141"/>
<ellipse cx="74.6935" cy="81.1935" rx="6.79032" ry="6.06452" fill="#DF4141"/>
<ellipse cx="210.5" cy="81.1935" rx="6.79032" ry="6.06452" fill="#DF4141"/>
<ellipse cx="278.403" cy="81.1935" rx="6.79032" ry="6.06452" fill="#DF4141"/>
<ellipse cx="346.306" cy="81.1935" rx="6.79032" ry="6.06452" fill="#DF4141"/>
<ellipse cx="346.306" cy="156.323" rx="6.79032" ry="6.06452" fill="#DF4141"/>
<ellipse cx="346.306" cy="231.452" rx="6.79032" ry="6.06452" fill="#DF4141"/>
<ellipse cx="278.403" cy="231.452" rx="6.79032" ry="6.06452" fill="#DF4141"/>
<ellipse cx="278.403" cy="156.323" rx="6.79032" ry="6.06452" fill="#DF4141"/>
<ellipse cx="210.5" cy="231.452" rx="6.79032" ry="6.06452" fill="#DF4141"/>
<ellipse cx="142.597" cy="81.1935" rx="6.79032" ry="6.06452" fill="#DF4141"/>
<ellipse cx="142.597" cy="6.06452" rx="6.79032" ry="6.06452" fill="#DF4141"/>
</svg>
