<svg width="1374" height="3448" viewBox="0 0 1374 3448" fill="none" xmlns="http://www.w3.org/2000/svg">
<path d="M1115.69 1328.07L1117.71 1328.63L1115.69 1328.07ZM238.759 1758.4L240.853 1758.54L238.759 1758.4ZM379.929 2171.94L381.692 2170.8L379.929 2171.94ZM1104.15 2583.38L1102.06 2583.56L1104.15 2583.38ZM240.858 2985.37L238.762 2985.49L240.858 2985.37ZM953.186 3429.84C954.33 3430.03 955.411 3429.26 955.601 3428.12C955.791 3426.97 955.018 3425.89 953.875 3425.7L953.186 3429.84ZM41.4358 114.74C41.8753 116.793 41.8753 116.793 41.8754 116.793C41.8755 116.793 41.8756 116.793 41.8758 116.793C41.8762 116.793 41.8768 116.792 41.8776 116.792C41.8792 116.792 41.8817 116.791 41.8851 116.791C41.8918 116.789 41.902 116.787 41.9156 116.784C41.9429 116.778 41.984 116.77 42.0387 116.758C42.1483 116.735 42.3126 116.7 42.531 116.653C42.9679 116.561 43.6212 116.423 44.4851 116.243C46.2131 115.881 48.7838 115.348 52.1518 114.662C58.8878 113.289 68.8129 111.304 81.563 108.853L80.7704 104.73C68.0042 107.184 58.0639 109.173 51.3135 110.548C47.9384 111.236 45.3606 111.77 43.6259 112.133C42.7586 112.314 42.102 112.453 41.6618 112.546C41.4417 112.593 41.2757 112.628 41.1646 112.652C41.109 112.663 41.0671 112.672 41.0391 112.678C41.025 112.681 41.0144 112.684 41.0073 112.685C41.0037 112.686 41.001 112.686 40.9992 112.687C40.9983 112.687 40.9976 112.687 40.9971 112.687C40.9969 112.687 40.9967 112.687 40.9965 112.687C40.9964 112.687 40.9963 112.687 41.4358 114.74ZM121.978 101.322C144.953 97.1671 172.248 92.4353 203.036 87.4616L202.366 83.317C171.55 88.2952 144.229 93.0315 121.231 97.1904L121.978 101.322ZM243.637 81.0885C269.041 77.2168 296.244 73.2873 324.89 69.4452L324.332 65.2841C295.66 69.1298 268.431 73.0629 243.005 76.9381L243.637 81.0885ZM365.633 64.1717C391.985 60.8851 419.328 57.7188 447.417 54.7718L446.979 50.5964C418.861 53.5464 391.491 56.7159 365.113 60.0056L365.633 64.1717ZM488.204 50.705C514.995 48.1753 542.332 45.8775 570.017 43.8918L569.717 39.7042C541.998 41.6923 514.63 43.9928 487.81 46.5253L488.204 50.705ZM611.045 41.2011C638.201 39.5903 665.592 38.3108 693.037 37.4361L692.904 33.2398C665.417 34.1159 637.987 35.3972 610.796 37.0101L611.045 41.2011ZM734.094 36.4388C761.556 35.9855 788.982 35.9738 816.19 36.4771L816.267 32.2794C789.006 31.7752 761.532 31.787 734.024 32.241L734.094 36.4388ZM857.247 37.644C884.905 38.7141 912.235 40.366 939.042 42.6788L939.403 38.496C912.524 36.1769 885.127 34.5212 857.409 33.4488L857.247 37.644ZM979.961 46.7827C1007.8 49.9825 1034.93 53.9731 1061.11 58.8486L1061.88 54.7212C1035.59 49.8258 1008.36 45.8214 980.441 42.6118L979.961 46.7827ZM1101.17 67.1841C1128.76 73.5725 1155.07 81.0843 1179.79 89.8427L1181.19 85.8854C1156.31 77.0669 1129.84 69.5127 1102.11 63.0939L1101.17 67.1841ZM1217.88 104.916C1244.05 116.462 1267.91 129.708 1289.02 144.835L1291.47 141.422C1270.08 126.101 1245.96 112.717 1219.58 101.075L1217.88 104.916ZM1320.45 170.716C1330.42 180.205 1339.47 190.296 1347.55 201.02L1350.9 198.494C1342.68 187.576 1333.47 177.314 1323.34 167.675L1320.45 170.716ZM1347.55 201.02C1357.43 214.143 1364.06 226.425 1367.76 237.926L1371.76 236.639C1367.88 224.585 1360.99 211.89 1350.9 198.494L1347.55 201.02ZM1368.5 277.866C1361.46 299.582 1341.62 318.582 1311.11 335.382L1313.13 339.06C1343.99 322.07 1364.96 302.39 1372.49 279.161L1368.5 277.866ZM1273.2 353.055C1249.72 362.457 1222.66 371.028 1192.67 378.928L1193.74 382.988C1223.84 375.058 1251.08 366.437 1274.76 356.953L1273.2 353.055ZM1151.82 388.894C1125.8 394.791 1098.1 400.297 1069.07 405.498L1069.81 409.631C1098.88 404.421 1126.65 398.903 1152.74 392.989L1151.82 388.894ZM1027.12 412.667C1000.14 417.071 972.243 421.264 943.673 425.305L944.261 429.462C972.854 425.418 1000.78 421.221 1027.79 416.81L1027.12 412.667ZM901.572 431.098C874.043 434.788 846.027 438.37 817.734 441.895L818.253 446.061C846.554 442.535 874.585 438.951 902.13 435.259L901.572 431.098ZM775.67 447.079C747.757 450.487 719.683 453.865 691.641 457.262L692.146 461.43C720.184 458.034 748.263 454.655 776.179 451.246L775.67 447.079ZM649.635 462.376C621.439 465.832 593.379 469.331 565.659 472.923L566.199 477.087C593.906 473.497 621.955 469.999 650.146 466.543L649.635 462.376ZM523.589 478.492C495.157 482.342 467.205 486.32 439.963 490.481L440.597 494.632C467.81 490.474 495.738 486.5 524.152 482.652L523.589 478.492ZM397.866 497.165C369.054 501.927 341.225 506.943 314.679 512.285L315.508 516.401C341.997 511.07 369.776 506.063 398.551 501.307L397.866 497.165ZM273.193 521.156C243.614 527.891 216.029 535.136 190.932 543.011L192.188 547.017C217.153 539.183 244.626 531.966 274.125 525.249L273.193 521.156ZM150.816 557.004C120.302 568.902 94.9548 582.165 76.1473 597.142L78.7627 600.426C97.1145 585.812 122.035 572.732 152.341 560.915L150.816 557.004ZM47.8175 629.178C40.6898 642.12 37.684 656.122 39.3492 671.253L43.5224 670.794C41.9549 656.551 44.7704 643.414 51.495 631.203L47.8175 629.178ZM39.3492 671.253C40.925 685.571 45.506 698.91 52.7448 711.38L56.3758 709.272C49.4114 697.275 45.0302 684.494 43.5224 670.794L39.3492 671.253ZM79.6028 744.053C97.8792 760.897 121.68 775.964 149.759 789.728L151.607 785.958C123.746 772.301 100.327 757.444 82.448 740.966L79.6028 744.053ZM188.135 806.749C212.389 816.547 238.909 825.711 267.155 834.446L268.396 830.435C240.228 821.725 213.824 812.599 189.707 802.856L188.135 806.749ZM307.297 846.28C333.278 853.606 360.4 860.678 388.304 867.633L389.319 863.559C361.442 856.611 334.364 849.55 308.437 842.239L307.297 846.28ZM429.013 877.586C455.655 883.994 482.836 890.357 510.261 896.783L511.218 892.695C483.79 886.268 456.622 879.908 429.995 873.504L429.013 877.586ZM550.973 906.348C578.039 912.738 605.207 919.241 632.207 925.962L633.221 921.887C606.197 915.161 579.011 908.654 551.938 902.262L550.973 906.348ZM672.723 936.263C699.972 943.354 726.903 950.722 753.234 958.478L754.42 954.451C728.037 946.68 701.062 939.299 673.78 932.2L672.723 936.263ZM793.042 970.67C820.302 979.365 846.714 988.558 871.937 998.381L873.46 994.468C848.141 984.608 821.645 975.386 794.318 966.67L793.042 970.67ZM910.505 1014.33C937.084 1026.04 961.959 1038.6 984.664 1052.19L986.821 1048.59C963.938 1034.89 938.902 1022.25 912.197 1010.49L910.505 1014.33ZM1019.37 1075.08C1043.03 1092.34 1063.35 1111.13 1079.62 1131.72L1082.91 1129.12C1066.36 1108.17 1045.74 1089.12 1021.85 1071.69L1019.37 1075.08ZM1102.1 1166.3C1114.58 1190.33 1122.06 1216.62 1123.64 1245.51L1127.83 1245.28C1126.22 1215.78 1118.58 1188.92 1105.83 1164.36L1102.1 1166.3ZM1122.03 1286.79C1120.36 1299.86 1117.6 1313.42 1113.67 1327.5L1117.71 1328.63C1121.7 1314.37 1124.5 1300.61 1126.2 1287.32L1122.03 1286.79ZM1113.67 1327.5C1109.51 1342.39 1104.29 1356.14 1098.1 1368.84L1101.87 1370.68C1108.18 1357.74 1113.49 1343.76 1117.71 1328.63L1113.67 1327.5ZM1075.01 1406.1C1057 1429.43 1034.71 1448.21 1009.1 1463.44L1011.24 1467.05C1037.24 1451.59 1059.95 1432.47 1078.33 1408.67L1075.01 1406.1ZM969.602 1483.22C943.603 1494.14 915.258 1502.53 885.3 1509.12L886.202 1513.22C916.34 1506.59 944.939 1498.14 971.229 1487.09L969.602 1483.22ZM841.733 1517.36C813.237 1521.97 783.718 1525.38 753.733 1528.16L754.121 1532.34C784.163 1529.55 813.783 1526.13 842.403 1521.51L841.733 1517.36ZM709.509 1531.86C679.954 1534.11 650.275 1536.02 620.898 1538.15L621.2 1542.33C650.523 1540.21 680.273 1538.29 709.828 1536.04L709.509 1531.86ZM576.618 1541.59C546.25 1544.18 516.556 1547.29 488.16 1551.54L488.781 1555.7C517.057 1551.46 546.654 1548.36 576.975 1545.78L576.618 1541.59ZM444.313 1559.33C413.513 1565.79 384.806 1574.2 359.143 1585.49L360.834 1589.33C386.155 1578.19 414.565 1569.86 445.175 1563.44L444.313 1559.33ZM319.956 1606.75C294.749 1623.6 274.189 1644.91 259.72 1672.09L263.425 1674.06C277.53 1647.57 297.583 1626.76 322.289 1610.24L319.956 1606.75ZM243.675 1713.76C240.132 1727.45 237.764 1742.25 236.665 1758.26L240.853 1758.54C241.936 1742.77 244.266 1728.23 247.739 1714.82L243.675 1713.76ZM236.665 1758.26C235.783 1771.09 235.309 1783.52 235.226 1795.62L239.424 1795.64C239.507 1783.64 239.978 1771.29 240.853 1758.54L236.665 1758.26ZM236.255 1832.92C237.909 1858.93 241.501 1883.39 246.833 1906.88L250.927 1905.95C245.645 1882.68 242.085 1858.44 240.445 1832.66L236.255 1832.92ZM256.582 1942.95C264.012 1966.64 273.233 1989.57 284.009 2012.39L287.805 2010.6C277.099 1987.92 267.952 1965.17 260.588 1941.69L256.582 1942.95ZM300.811 2045.71C312.112 2066.85 324.646 2088.17 338.225 2110.19L341.798 2107.99C328.247 2086.01 315.761 2064.77 304.513 2043.73L300.811 2045.71ZM358.021 2141.73C364.546 2151.97 371.267 2162.4 378.166 2173.08L381.692 2170.8C374.795 2160.13 368.08 2149.7 361.562 2139.47L358.021 2141.73ZM378.166 2173.08C386.067 2185.3 394.65 2196.62 403.841 2207.1L406.998 2204.33C397.941 2194 389.481 2182.85 381.692 2170.8L378.166 2173.08ZM434.068 2236.95C455.64 2255.42 479.499 2270.68 504.967 2283.49L506.854 2279.74C481.641 2267.06 458.075 2251.98 436.799 2233.76L434.068 2236.95ZM543.718 2300.76C569.65 2310.98 596.779 2319.3 624.502 2326.4L625.544 2322.33C597.941 2315.26 570.986 2307 545.258 2296.85L543.718 2300.76ZM665.724 2336.07C693.308 2342.02 721.202 2347.13 748.829 2352.06L749.566 2347.92C721.946 2343 694.115 2337.89 666.609 2331.96L665.724 2336.07ZM790.438 2359.46C818.846 2364.57 846.655 2369.83 873.259 2375.97L874.204 2371.88C847.496 2365.72 819.605 2360.44 791.182 2355.33L790.438 2359.46ZM914.068 2386.48C942.447 2394.68 968.828 2404.48 992.34 2416.91L994.302 2413.19C970.459 2400.59 943.79 2390.7 915.233 2382.45L914.068 2386.48ZM1027.6 2439.37C1049.61 2456.34 1067.64 2477.1 1080.58 2503.03L1084.34 2501.16C1071.09 2474.61 1052.62 2453.36 1030.17 2436.05L1027.6 2439.37ZM1095.04 2542.02C1098.36 2554.83 1100.73 2568.64 1102.06 2583.56L1106.24 2583.19C1104.9 2568.06 1102.49 2554.02 1099.1 2540.97L1095.04 2542.02ZM1102.06 2583.56C1103.32 2597.83 1103.16 2611 1101.7 2623.17L1105.87 2623.67C1107.37 2611.18 1107.53 2597.71 1106.24 2583.19L1102.06 2583.56ZM1091.84 2660.94C1081.52 2685.13 1064.32 2704.24 1041.67 2719.42L1044.01 2722.91C1067.22 2707.36 1085.01 2687.65 1095.7 2662.58L1091.84 2660.94ZM1006.86 2738.08C984.547 2747.68 959.088 2754.99 931.3 2760.63L932.135 2764.75C960.113 2759.07 985.866 2751.68 1008.52 2741.94L1006.86 2738.08ZM892.162 2767.34C867.002 2770.94 840.471 2773.55 813.076 2775.54L813.38 2779.73C840.84 2777.73 867.473 2775.11 892.757 2771.49L892.162 2767.34ZM773.365 2778.01C747.238 2779.4 720.586 2780.41 693.811 2781.36L693.96 2785.56C720.738 2784.61 747.421 2783.59 773.588 2782.2L773.365 2778.01ZM653.999 2782.76C627.23 2783.72 600.544 2784.78 574.361 2786.23L574.594 2790.42C600.735 2788.97 627.388 2787.92 654.15 2786.96L653.999 2782.76ZM534.568 2788.82C507.144 2790.9 480.527 2793.63 455.233 2797.39L455.85 2801.54C481.017 2797.81 507.53 2795.09 534.887 2793.01L534.568 2788.82ZM415.915 2804.35C388.048 2810.18 362.342 2817.73 339.646 2827.61L341.323 2831.46C363.683 2821.72 389.098 2814.25 416.775 2808.46L415.915 2804.35ZM304.202 2846.74C281.052 2862.25 263.042 2881.78 251.759 2906.47L255.577 2908.22C266.486 2884.35 283.924 2865.38 306.539 2850.23L304.202 2846.74ZM240.44 2945.06C238.531 2957.54 237.938 2970.99 238.762 2985.49L242.954 2985.25C242.145 2971.01 242.73 2957.86 244.59 2945.7L240.44 2945.06ZM238.762 2985.49C239.587 3000.01 241.731 3014.11 245.076 3027.81L249.155 3026.81C245.869 3013.36 243.764 2999.51 242.954 2985.25L238.762 2985.49ZM258.829 3068.22C270.047 3093.76 285.505 3117.71 304.266 3140.13L307.486 3137.44C288.94 3115.27 273.708 3091.65 262.673 3066.53L258.829 3068.22ZM333.402 3171.33C353.191 3190.46 375.362 3208.36 399.218 3225.09L401.628 3221.65C377.922 3205.03 355.926 3187.26 336.32 3168.31L333.402 3171.33ZM434.782 3248.45C458.587 3263.13 483.594 3276.8 509.228 3289.5L511.092 3285.73C485.556 3273.08 460.665 3259.48 436.985 3244.88L434.782 3248.45ZM547.653 3307.63C573.68 3319.35 600.054 3330.12 626.206 3340L627.69 3336.07C601.607 3326.22 575.315 3315.48 549.376 3303.81L547.653 3307.63ZM666.095 3354.45C693.907 3364.13 721.129 3372.78 747.047 3380.47L748.241 3376.44C722.377 3368.77 695.218 3360.14 667.474 3350.49L666.095 3354.45ZM787.787 3392.07C818.371 3400.44 846.289 3407.32 870.123 3412.8L871.064 3408.71C847.279 3403.24 819.417 3396.37 788.895 3388.02L787.787 3392.07ZM911.747 3421.9C924.803 3424.6 935.157 3426.58 942.25 3427.9C945.797 3428.55 948.528 3429.04 950.374 3429.36C951.297 3429.52 951.998 3429.64 952.47 3429.72C952.706 3429.76 952.884 3429.79 953.004 3429.81C953.064 3429.82 953.109 3429.83 953.139 3429.84C953.155 3429.84 953.166 3429.84 953.174 3429.84C953.178 3429.84 953.181 3429.84 953.183 3429.84C953.184 3429.84 953.185 3429.84 953.185 3429.84C953.186 3429.84 953.186 3429.84 953.186 3429.84C953.186 3429.84 953.186 3429.84 953.53 3427.77C953.875 3425.7 953.875 3425.7 953.874 3425.7C953.874 3425.7 953.874 3425.7 953.874 3425.7C953.874 3425.7 953.873 3425.7 953.872 3425.7C953.871 3425.7 953.868 3425.7 953.864 3425.7C953.857 3425.7 953.847 3425.7 953.832 3425.7C953.803 3425.69 953.759 3425.68 953.701 3425.67C953.584 3425.65 953.409 3425.62 953.176 3425.59C952.71 3425.51 952.015 3425.39 951.098 3425.23C949.265 3424.9 946.546 3424.42 943.013 3423.77C935.947 3422.46 925.622 3420.48 912.597 3417.79L911.747 3421.9Z" fill="#FEFEFE" fill-opacity="0.78"/>
<path d="M688.11 460.227C687.715 457.372 689.743 454.75 692.605 454.413L708.274 452.572L717.327 425.992L725.166 424.907L722.666 450.881L738.793 448.986L742.2 442.523L749.286 441.542L745.849 452.235L752.061 461.592L744.976 462.573L739.941 457.278L723.905 459.835L733.367 484.153L725.528 485.238L709.595 462.117L694.016 464.601C691.169 465.055 688.506 463.082 688.11 460.227Z" fill="white"/>
<path d="M509.408 893.731C510.056 890.923 508.269 888.13 505.448 887.541L490.005 884.316L483.349 857.036L475.637 855.259L475.82 881.353L459.925 878.033L457.105 871.292L450.135 869.686L452.608 880.641L445.589 889.41L452.56 891.016L458.045 886.189L473.79 890.161L462.206 913.543L469.918 915.32L487.841 893.705L503.138 897.563C505.933 898.268 508.761 896.54 509.408 893.731Z" fill="white"/>
<path d="M330.589 2093.99C333.067 2092.52 333.851 2089.3 332.327 2086.85L323.988 2073.46L339.109 2049.8L335.065 2042.99L316.329 2061.16L307.746 2047.37L310.67 2040.68L307.015 2034.53L300.804 2043.89L289.616 2044.87L293.271 2051.02L300.55 2051.65L308.559 2065.78L283.652 2073.56L287.696 2080.36L315.706 2078.38L323.486 2092.11C324.908 2094.61 328.112 2095.46 330.589 2093.99Z" fill="white"/>
<path d="M659.28 37.7053C659.28 34.8232 656.912 32.5035 654.031 32.5628L638.257 32.8876L625.646 7.79972L617.732 7.79979L623.77 33.1858L607.535 33.52L603.274 27.5846L596.121 27.5846L600.991 37.7053L596.121 47.826L603.274 47.826L607.535 41.8906L623.77 42.2249L617.732 67.6109L625.646 67.6109L638.258 42.5231L654.031 42.8478C656.912 42.9072 659.28 40.5875 659.28 37.7053Z" fill="white"/>
<path d="M995.794 3410.71C993.063 3405.99 988.212 3403.11 982.818 3403C982.588 3403 982.356 3403 982.125 3403C976.731 3403.11 971.88 3405.99 969.149 3410.71C966.358 3415.52 966.281 3421.31 968.945 3426.19L980.104 3446.61C980.109 3446.62 980.114 3446.63 980.119 3446.64C980.61 3447.49 981.489 3448 982.472 3448C983.454 3448 984.334 3447.49 984.824 3446.64C984.83 3446.63 984.835 3446.62 984.84 3446.61L995.998 3426.19C998.662 3421.31 998.586 3415.52 995.794 3410.71ZM982.472 3423.39C978.982 3423.39 976.143 3420.55 976.143 3417.06C976.143 3413.57 978.982 3410.73 982.472 3410.73C985.961 3410.73 988.8 3413.57 988.8 3417.06C988.8 3420.55 985.961 3423.39 982.472 3423.39Z" fill="white"/>
<path d="M302.816 2847.91C304.166 2850.46 307.344 2851.4 309.863 2849.99L323.646 2842.32L346.54 2858.58L353.532 2854.87L336.306 2835.27L350.493 2827.37L357.038 2830.62L363.358 2827.27L354.314 2820.61L353.876 2809.38L347.557 2812.73L346.572 2819.97L332.072 2827.28L325.515 2802.03L318.523 2805.73L319.132 2833.81L305.045 2840.91C302.471 2842.21 301.466 2845.36 302.816 2847.91Z" fill="white"/>
<path d="M824.326 3399.18C825.136 3396.42 823.516 3393.53 820.733 3392.77L805.505 3388.65L800.453 3361.03L792.858 3358.81L791.517 3384.87L775.843 3380.62L773.422 3373.73L766.557 3371.72L768.386 3382.8L760.868 3391.14L767.733 3393.16L773.49 3388.66L788.977 3393.54L776.047 3416.21L783.642 3418.43L802.797 3397.9L817.842 3402.64C820.591 3403.51 823.516 3401.95 824.326 3399.18Z" fill="white"/>
<path d="M28.7939 95.706C26.0629 90.993 21.2121 88.1136 15.8178 88.0036C15.5875 87.9988 15.3557 87.9988 15.1254 88.0036C9.73119 88.1136 4.88033 90.993 2.14922 95.706C-0.642356 100.523 -0.718733 106.31 1.94488 111.186L13.1037 131.61C13.1087 131.619 13.1137 131.628 13.1189 131.637C13.6099 132.491 14.4894 133 15.4718 133C16.454 133 17.3335 132.49 17.8244 131.637C17.8296 131.628 17.8346 131.619 17.8396 131.61L28.9985 111.186C31.6619 106.31 31.5855 100.523 28.7939 95.706ZM15.4716 108.391C11.9822 108.391 9.14347 105.552 9.14347 102.063C9.14347 98.5732 11.9822 95.7344 15.4716 95.7344C18.9609 95.7344 21.7997 98.5732 21.7997 102.063C21.7997 105.552 18.961 108.391 15.4716 108.391Z" fill="white"/>
</svg>
