<svg width="60" height="60" viewBox="0 0 60 60" fill="none" xmlns="http://www.w3.org/2000/svg">
<circle cx="30" cy="30" r="30" fill="#D40000" fill-opacity="0.44"/>
<path d="M42.806 21.2276C43.8263 21.696 44.9077 22.2066 44.9249 22.2149C45.0886 22.2922 45.2612 22.3287 45.4309 22.3287C45.875 22.3287 46.3008 22.0777 46.5031 21.6494C46.7831 21.0575 46.5303 20.3509 45.938 20.0709C45.8936 20.0505 45.4649 19.8475 44.902 19.585C44.4401 20.3681 43.6952 20.964 42.806 21.2276Z" fill="white"/>
<path d="M26.2001 21.1294L25.6859 21.5989L25.008 20.9604C24.8676 20.9371 24.7298 20.907 24.5951 20.868C24.3151 20.9948 23.9813 21.1685 23.6365 21.3719C23.6616 21.2236 23.6605 21.0732 23.6311 20.9275C23.7844 20.8379 23.9351 20.7559 24.0834 20.6779C23.2924 20.3162 22.6517 19.6859 22.275 18.9035C22.0666 19.0302 21.8621 19.1599 21.6669 19.2916C21.3815 19.128 21.1069 18.9722 20.8902 18.8501C20.5257 19.6397 19.8932 20.2786 19.1086 20.6524C19.7507 20.9862 21.3124 21.8517 21.7461 22.1575C21.841 22.2245 21.9434 22.27 22.0483 22.3065V28.632C22.0483 29.1756 22.1357 29.6931 22.2986 30.1647C22.294 30.2152 22.2911 30.266 22.2911 30.3173V31.7379H22.3004C22.2997 31.7583 22.2943 31.7776 22.2943 31.7984L22.2947 44.2911C22.2947 45.1423 22.9851 45.8328 23.8367 45.8328C24.6882 45.8328 25.3783 45.1423 25.3783 44.2911L25.3779 31.7984C25.3779 31.7776 25.3726 31.7583 25.3719 31.7379H25.6035C25.6028 31.7583 25.5975 31.7776 25.5975 31.798L25.5967 44.2911C25.5967 45.1423 26.2868 45.8328 27.1384 45.8328C27.9896 45.8328 28.6804 45.1423 28.6804 44.2911L28.6811 31.798C28.6811 31.7769 28.6757 31.7583 28.675 31.7375H28.6929L28.694 30.1228C28.694 30.1228 28.9668 29.7575 28.9668 28.4333C28.9668 27.7217 29.0392 25.0689 29.0392 25.0689L29.0467 22.1679C29.0306 22.1604 26.8401 20.9597 26.8401 20.9597L26.2001 21.1294Z" fill="white"/>
<path d="M18.2227 21.0545L17.5448 21.5741L17.0306 21.1042C15.9083 21.616 14.5582 22.2537 14.54 22.2623C14.3437 22.3551 14.1346 22.4024 13.9187 22.4024C13.6794 22.4024 13.4492 22.3393 13.244 22.2315L13.2393 22.2362C11.9409 21.1945 10.858 19.3907 10.4784 18.6144C10.1636 17.9662 9.38293 17.6962 8.73476 18.0106C8.08695 18.3254 7.81659 19.1064 8.13136 19.7542C8.36162 20.228 10.4708 24.4102 13.6533 25.4065C13.837 25.4638 14.0207 25.5064 14.2051 25.5404C14.2259 26.3426 14.2642 27.8899 14.2642 28.4088C14.2642 29.7334 14.5367 30.0987 14.5367 30.0987L14.5378 31.713H14.5614C14.5607 31.7342 14.555 31.7538 14.555 31.7753L14.5557 44.2677C14.5557 45.119 15.2458 45.8097 16.0977 45.8097C16.9489 45.8097 17.6393 45.119 17.6393 44.2677L17.639 31.7746C17.639 31.7535 17.6336 31.7342 17.6325 31.713H17.8646C17.8639 31.7342 17.8581 31.7538 17.8581 31.7746L17.8574 44.2677C17.8574 45.119 18.5475 45.8097 19.3991 45.8097C20.2506 45.8097 20.9407 45.1197 20.941 44.2677L20.9418 31.7753C20.9418 31.7538 20.9364 31.7342 20.9353 31.713H20.9393V30.2924C20.9393 30.2405 20.936 30.1904 20.9317 30.1399C21.0947 29.6679 21.1817 29.1504 21.1817 28.6068V22.1631C20.6273 22.2076 18.9579 20.9957 18.753 20.9026C18.6191 20.9417 18.3631 21.0308 18.2227 21.0545Z" fill="white"/>
<path d="M13.8767 21.9869C14.0504 21.9869 14.227 21.9497 14.3942 21.8702C14.4114 21.862 15.4932 21.351 16.526 20.8765C15.6031 20.6204 14.8257 20.0177 14.3401 19.2163C13.8037 19.467 13.4005 19.6568 13.3578 19.6775C12.7523 19.9633 12.4934 20.6867 12.7791 21.2919C12.9868 21.7305 13.4227 21.9869 13.8767 21.9869Z" fill="white"/>
<path d="M25.6869 20.7209C27.5428 20.7209 29.0473 19.2164 29.0473 17.3604C29.0473 15.5045 27.5428 14 25.6869 14C23.8309 14 22.3264 15.5045 22.3264 17.3604C22.3264 19.2164 23.8309 20.7209 25.6869 20.7209Z" fill="white"/>
<path d="M17.5827 20.7209C19.4386 20.7209 20.9432 19.2164 20.9432 17.3604C20.9432 15.5045 19.4386 14 17.5827 14C15.7268 14 14.2223 15.5045 14.2223 17.3604C14.2223 19.2164 15.7268 20.7209 17.5827 20.7209Z" fill="white"/>
<path d="M34.4429 21.2481L33.9283 21.7175L33.2508 21.079C33.1101 21.0558 32.9726 21.0257 32.8376 20.9867C32.5579 21.1138 32.2241 21.2871 31.8789 21.4905C31.904 21.3423 31.9026 21.1922 31.8732 21.0461C32.0268 20.9569 32.1776 20.8746 32.3255 20.7965C31.5344 20.4348 30.8938 19.8046 30.5171 19.0221C30.3086 19.1489 30.1042 19.2785 29.909 19.4106C29.6236 19.247 29.3486 19.0912 29.1323 18.9688C28.7677 19.7584 28.1353 20.3972 27.3507 20.7711C27.9928 21.1048 29.5545 21.9704 29.9881 22.2762C30.083 22.3432 30.1854 22.3886 30.2904 22.4255V28.7507C30.2904 29.2943 30.3777 29.8117 30.5403 30.2837C30.5357 30.3339 30.5328 30.3843 30.5328 30.4363V31.8569H30.5425C30.5418 31.8773 30.5364 31.8966 30.5364 31.9177L30.5367 44.4101C30.5367 45.2621 31.2272 45.9518 32.0787 45.9518C32.9299 45.9518 33.6207 45.2621 33.6207 44.4101L33.6204 31.917C33.6204 31.8959 33.6146 31.8773 33.6139 31.8565H33.8456C33.8449 31.8773 33.8392 31.8959 33.8392 31.9167L33.8385 44.4094C33.8385 45.2614 34.5285 45.9511 35.3804 45.9518C36.2317 45.9518 36.9224 45.2614 36.9224 44.4101L36.9231 31.9174C36.9231 31.8966 36.9178 31.8773 36.9171 31.8565H36.935L36.936 30.2418C36.936 30.2418 37.2089 29.8766 37.2089 28.5523C37.2089 27.8407 37.2812 25.1876 37.2812 25.1876L37.2888 22.2869C37.2727 22.279 35.0821 21.0783 35.0821 21.0783L34.4429 21.2481Z" fill="white"/>
<path d="M33.9293 20.839C35.7852 20.839 37.2897 19.3345 37.2897 17.4786C37.2897 15.6227 35.7852 14.1182 33.9293 14.1182C32.0734 14.1182 30.5688 15.6227 30.5688 17.4786C30.5688 19.3345 32.0734 20.839 33.9293 20.839Z" fill="white"/>
<path d="M42.1088 20.8869C43.9648 20.8869 45.4693 19.3824 45.4693 17.5265C45.4693 15.6705 43.9648 14.166 42.1088 14.166C40.2529 14.166 38.7484 15.6705 38.7484 17.5265C38.7484 19.3824 40.2529 20.8869 42.1088 20.8869Z" fill="white"/>
<path d="M51.3064 17.9138C50.6586 17.5983 49.8786 17.8676 49.5621 18.5143C49.1442 19.3695 47.8761 21.4665 46.4054 22.4244C46.2013 22.5315 45.9721 22.5935 45.7339 22.5935C45.5184 22.5935 45.3089 22.5466 45.1134 22.4538C45.0951 22.4452 43.7454 21.8074 42.6227 21.2961L42.1082 21.7655L41.4306 21.127C41.2899 21.1038 41.152 21.0737 41.0174 21.0347C40.7377 21.1618 40.4039 21.3347 40.0587 21.5385C40.0838 21.3902 40.0827 21.2398 40.0534 21.0937C40.2066 21.0046 40.3574 20.9222 40.5056 20.8445C39.7146 20.4828 39.074 19.8526 38.6972 19.0697C38.4885 19.1965 38.2843 19.3261 38.0892 19.4583C37.8038 19.2946 37.5287 19.1389 37.3124 19.0164C36.9479 19.8064 36.3155 20.4452 35.5309 20.8191C36.173 21.1532 37.7343 22.0184 38.168 22.3242C38.2632 22.3908 38.3656 22.4366 38.4705 22.4735V28.799C38.4705 29.3423 38.5576 29.8597 38.7205 30.3314C38.7159 30.3822 38.713 30.4327 38.713 30.4843V31.9049H38.7219C38.7212 31.9256 38.7158 31.9446 38.7158 31.9654L38.7166 44.4585C38.7166 45.3097 39.407 46.0001 40.2586 46.0001C41.1105 46.0001 41.8005 45.3097 41.8005 44.4578L41.8002 31.965C41.8002 31.9442 41.7945 31.9249 41.7937 31.9049H42.0254C42.0254 31.9256 42.0197 31.9446 42.0197 31.965L42.019 44.4578C42.019 45.3097 42.7094 45.9998 43.561 46.0001C44.4122 46.0001 45.103 45.3097 45.103 44.4585L45.1037 31.9654C45.1037 31.9446 45.0983 31.9256 45.0976 31.9049H45.1155L45.1166 30.2902C45.1166 30.2902 45.3895 29.9249 45.3895 28.6006C45.3895 28.0252 45.4367 26.1824 45.4553 25.497C45.6108 25.4819 45.7662 25.4579 45.9216 25.4257L45.9334 25.4307C45.9348 25.4279 45.937 25.4253 45.9384 25.4225C46.0885 25.3913 46.2382 25.3552 46.3878 25.3082C49.5703 24.312 51.6799 20.1297 51.9098 19.656C52.2228 19.0081 51.9531 18.2289 51.3064 17.9138Z" fill="white"/>
</svg>
