<svg width="60" height="60" viewBox="0 0 60 60" fill="none" xmlns="http://www.w3.org/2000/svg">
<circle cx="30" cy="30" r="30" fill="#D40000" fill-opacity="0.44"/>
<path d="M30.5 8C18.6451 8 9 17.6451 9 29.5C9 41.3549 18.6451 51 30.5 51C42.3549 51 52 41.3549 52 29.5C52 17.6451 42.3549 8 30.5 8ZM30.5 48.3125C20.1266 48.3125 11.6875 39.8734 11.6875 29.5C11.6875 19.1266 20.1266 10.6875 30.5 10.6875C40.8734 10.6875 49.3125 19.1266 49.3125 29.5C49.3125 39.8734 40.8734 48.3125 30.5 48.3125Z" fill="white"/>
<path d="M31.8438 16.0625H29.1562V30.0564L37.6124 38.5125L39.5126 36.6124L31.8438 28.9436V16.0625Z" fill="white"/>
</svg>
