<svg width="60" height="60" viewBox="0 0 60 60" fill="none" xmlns="http://www.w3.org/2000/svg">
<circle cx="30" cy="30" r="30" fill="#D40000" fill-opacity="0.44"/>
<mask id="path-2-inside-1" fill="white">
<path d="M19.8686 16.741L21.9176 17.7803L22.9551 19.8296C23.0219 19.9613 23.2251 20.3621 23.6663 20.3621C24.1078 20.3621 24.3119 19.9596 24.379 19.8274L25.4163 17.7805L27.4632 16.7431C27.5954 16.6761 27.9978 16.472 27.9978 16.0305C27.9978 15.5893 27.597 15.3861 27.465 15.319L25.4162 14.2818L24.3769 12.2328C24.3099 12.1008 24.1063 11.6992 23.666 11.6992C23.2257 11.6992 23.022 12.1009 22.955 12.2331L21.9176 14.2819L19.8686 15.3193C19.7366 15.3863 19.335 15.59 19.3351 16.0303C19.3351 16.4705 19.7367 16.6741 19.8686 16.741ZM22.5931 15.2062C22.7004 15.1518 22.7875 15.0647 22.8419 14.9574L23.6662 13.3292L24.4921 14.9577C24.5465 15.0648 24.6336 15.1518 24.7407 15.2061L26.3696 16.0308L24.7406 16.8563C24.6334 16.9107 24.5464 16.9977 24.4921 17.1049L23.6665 18.7339L22.8419 17.1051C22.7876 16.9979 22.7006 16.9109 22.5935 16.8565L20.9651 16.0304L22.5931 15.2062Z"/>
</mask>
<path d="M19.8686 16.741L21.9176 17.7803L22.9551 19.8296C23.0219 19.9613 23.2251 20.3621 23.6663 20.3621C24.1078 20.3621 24.3119 19.9596 24.379 19.8274L25.4163 17.7805L27.4632 16.7431C27.5954 16.6761 27.9978 16.472 27.9978 16.0305C27.9978 15.5893 27.597 15.3861 27.465 15.319L25.4162 14.2818L24.3769 12.2328C24.3099 12.1008 24.1063 11.6992 23.666 11.6992C23.2257 11.6992 23.022 12.1009 22.955 12.2331L21.9176 14.2819L19.8686 15.3193C19.7366 15.3863 19.335 15.59 19.3351 16.0303C19.3351 16.4705 19.7367 16.6741 19.8686 16.741ZM22.5931 15.2062C22.7004 15.1518 22.7875 15.0647 22.8419 14.9574L23.6662 13.3292L24.4921 14.9577C24.5465 15.0648 24.6336 15.1518 24.7407 15.2061L26.3696 16.0308L24.7406 16.8563C24.6334 16.9107 24.5464 16.9977 24.4921 17.1049L23.6665 18.7339L22.8419 17.1051C22.7876 16.9979 22.7006 16.9109 22.5935 16.8565L20.9651 16.0304L22.5931 15.2062Z" fill="white"/>
<path d="M19.8686 16.741L20.7733 14.9573L20.7732 14.9572L19.8686 16.741ZM21.9176 17.7803L23.7019 16.8769L23.4062 16.2929L22.8223 15.9967L21.9176 17.7803ZM22.9551 19.8296L21.1707 20.7329L21.1713 20.7342L22.9551 19.8296ZM23.6663 20.3621L23.6659 22.3621H23.6663V20.3621ZM24.379 19.8274L26.1625 20.7324L26.163 20.7314L24.379 19.8274ZM25.4163 17.7805L24.5122 15.9965L23.9282 16.2924L23.6323 16.8764L25.4163 17.7805ZM27.4632 16.7431L28.3673 18.5271L28.3678 18.5269L27.4632 16.7431ZM27.465 15.319L28.3709 13.5359L28.3684 13.5347L27.465 15.319ZM25.4162 14.2818L23.6325 15.1865L23.9287 15.7704L24.5128 16.0661L25.4162 14.2818ZM24.3769 12.2328L26.1606 11.328L26.1604 11.3278L24.3769 12.2328ZM22.955 12.2331L21.171 11.329L21.1707 11.3297L22.955 12.2331ZM21.9176 14.2819L22.821 16.0663L23.4058 15.7702L23.702 15.1854L21.9176 14.2819ZM19.8686 15.3193L18.9652 13.535L18.9636 13.5358L19.8686 15.3193ZM19.3351 16.0303H21.3351V16.0299L19.3351 16.0303ZM22.5931 15.2062L23.4964 16.9906L23.497 16.9903L22.5931 15.2062ZM22.8419 14.9574L24.626 15.8613L24.6263 15.8607L22.8419 14.9574ZM23.6662 13.3292L25.4499 12.4246L23.6646 8.90455L21.8818 12.4259L23.6662 13.3292ZM24.4921 14.9577L22.7084 15.8623L22.7086 15.8626L24.4921 14.9577ZM24.7407 15.2061L23.8368 16.9902L23.8374 16.9905L24.7407 15.2061ZM26.3696 16.0308L27.2737 17.8148L30.7958 16.0299L27.273 14.2464L26.3696 16.0308ZM24.7406 16.8563L23.8365 15.0723L23.8357 15.0728L24.7406 16.8563ZM24.4921 17.1049L26.276 18.009L26.2761 18.0088L24.4921 17.1049ZM23.6665 18.7339L21.8821 19.6372L23.6656 23.1601L25.4505 19.638L23.6665 18.7339ZM22.8419 17.1051L24.6263 16.2018L24.626 16.2012L22.8419 17.1051ZM22.5935 16.8565L23.499 15.0732L23.4983 15.0729L22.5935 16.8565ZM20.9651 16.0304L20.0617 14.2461L16.5407 16.0286L20.0603 17.814L20.9651 16.0304ZM18.9638 18.5246L21.0128 19.564L22.8223 15.9967L20.7733 14.9573L18.9638 18.5246ZM20.1332 18.6837L21.1707 20.7329L24.7394 18.9262L23.7019 16.8769L20.1332 18.6837ZM21.1713 20.7342C21.2095 20.8095 21.3931 21.1891 21.7417 21.5449C22.1209 21.932 22.7676 22.362 23.6659 22.3621L23.6666 18.3621C24.1238 18.3622 24.4482 18.5917 24.5989 18.7455C24.7188 18.868 24.7674 18.9813 24.7388 18.9249L21.1713 20.7342ZM23.6663 22.3621C24.5671 22.3621 25.2144 21.9297 25.5927 21.5429C25.9408 21.1871 26.1244 20.8075 26.1625 20.7324L22.5955 18.9224C22.5665 18.9795 22.6145 18.8673 22.7333 18.7458C22.8825 18.5933 23.2069 18.3621 23.6663 18.3621V22.3621ZM26.163 20.7314L27.2003 18.6845L23.6323 16.8764L22.595 18.9233L26.163 20.7314ZM26.3203 19.5645L28.3673 18.5271L26.5592 14.9591L24.5122 15.9965L26.3203 19.5645ZM28.3678 18.5269C28.4434 18.4885 28.823 18.305 29.1788 17.9568C29.5656 17.5784 29.9978 16.9312 29.9978 16.0305H25.9978C25.9978 15.5713 26.2289 15.2469 26.3814 15.0977C26.503 14.9787 26.6152 14.9307 26.5587 14.9594L28.3678 18.5269ZM29.9978 16.0305C29.9978 15.1318 29.5677 14.4851 29.1805 14.1058C28.8249 13.7574 28.4451 13.5736 28.3709 13.5359L26.5592 17.1022C26.617 17.1315 26.5036 17.0829 26.3813 16.9631C26.2276 16.8125 25.9978 16.4879 25.9978 16.0305H29.9978ZM28.3684 13.5347L26.3196 12.4974L24.5128 16.0661L26.5617 17.1034L28.3684 13.5347ZM27.1999 13.3771L26.1606 11.328L22.5932 13.1375L23.6325 15.1865L27.1999 13.3771ZM26.1604 11.3278C26.1224 11.2528 25.9389 10.8736 25.5913 10.5181C25.2134 10.1317 24.5665 9.69922 23.666 9.69922V13.6992C23.2057 13.6992 22.8808 13.4675 22.7316 13.3149C22.6126 13.1932 22.5645 13.0808 22.5934 13.1378L26.1604 11.3278ZM23.666 9.69922C22.7653 9.69922 22.1183 10.1319 21.7404 10.5185C21.3927 10.8741 21.2093 11.2534 21.171 11.329L24.7389 13.1373C24.7677 13.0806 24.7196 13.193 24.6006 13.3147C24.4514 13.4674 24.1264 13.6992 23.666 13.6992V9.69922ZM21.1707 11.3297L20.1333 13.3785L23.702 15.1854L24.7393 13.1366L21.1707 11.3297ZM21.0142 12.4976L18.9652 13.535L20.7719 17.1037L22.821 16.0663L21.0142 12.4976ZM18.9636 13.5358C18.8886 13.5739 18.5093 13.7573 18.1538 14.105C17.7674 14.483 17.3349 15.13 17.3351 16.0306L21.3351 16.0299C21.3352 16.4903 21.1034 16.8153 20.9508 16.9646C20.8291 17.0836 20.7166 17.1318 20.7736 17.1029L18.9636 13.5358ZM17.3351 16.0303C17.3351 16.9309 17.7677 17.5778 18.1541 17.9556C18.5097 18.3032 18.8889 18.4866 18.964 18.5247L20.7732 14.9572C20.7164 14.9284 20.8288 14.9765 20.9506 15.0956C21.1033 15.2449 21.3351 15.5698 21.3351 16.0303H17.3351ZM23.497 16.9903C23.9839 16.7436 24.3793 16.3482 24.626 15.8613L21.0579 14.0534C21.1958 13.7812 21.417 13.5601 21.6891 13.4221L23.497 16.9903ZM24.6263 15.8607L25.4506 14.2326L21.8818 12.4259L21.0576 14.054L24.6263 15.8607ZM21.8825 14.2339L22.7084 15.8623L26.2758 14.053L25.4499 12.4246L21.8825 14.2339ZM22.7086 15.8626C22.9554 16.349 23.3506 16.7439 23.8368 16.9902L25.6447 13.4221C25.9166 13.5598 26.1377 13.7807 26.2757 14.0527L22.7086 15.8626ZM23.8374 16.9905L25.4663 17.8151L27.273 14.2464L25.6441 13.4218L23.8374 16.9905ZM25.4656 14.2468L23.8365 15.0723L25.6447 18.6403L27.2737 17.8148L25.4656 14.2468ZM23.8357 15.0728C23.3504 15.319 22.9549 15.7136 22.708 16.2009L26.2761 18.0088C26.1378 18.2818 25.9165 18.5024 25.6455 18.6399L23.8357 15.0728ZM22.7081 16.2008L21.8825 17.8298L25.4505 19.638L26.276 18.009L22.7081 16.2008ZM25.4509 17.8306L24.6263 16.2018L21.0576 18.0084L21.8821 19.6372L25.4509 17.8306ZM24.626 16.2012C24.3797 15.7151 23.985 15.32 23.499 15.0732L21.6881 18.6398C21.4163 18.5018 21.1956 18.2808 21.0579 18.0091L24.626 16.2012ZM23.4983 15.0729L21.8699 14.2468L20.0603 17.814L21.6887 18.6401L23.4983 15.0729ZM21.8685 17.8148L23.4964 16.9906L21.6897 13.4219L20.0617 14.2461L21.8685 17.8148Z" fill="white" mask="url(#path-2-inside-1)"/>
<path d="M6.6211 16.7116L6.73668 16.7703L6.6211 16.7116Z" fill="white" stroke="white" stroke-width="2"/>
<mask id="path-5-inside-2" fill="white">
<path d="M52.3295 41.46C52.1051 40.6967 51.6234 40.0456 50.9924 39.5983C57.06 32.3164 56.6122 21.5495 49.85 14.7871C48.4878 13.4249 46.9339 12.2912 45.2316 11.4175C44.514 11.0492 43.7932 10.7753 43.3821 11.2618C42.9738 11.7447 43.3538 12.3954 43.8253 13.0268C46.4002 16.4714 47.4325 20.8868 46.6574 25.1409C46.6015 25.4477 46.805 25.7419 47.1119 25.7978C47.4187 25.853 47.7129 25.6502 47.7688 25.3433C48.5902 20.8343 47.5177 16.1554 44.8257 12.4796C46.3803 13.2916 47.8014 14.3363 49.0511 15.5859C55.4656 22.0006 55.8283 32.2539 49.9428 39.0906C49.6362 39.0015 49.314 38.9536 48.9829 38.9536C48.8258 38.9536 48.6696 38.9639 48.5157 38.9844C47.7867 37.6444 46.3866 36.8015 44.8306 36.8015C43.4648 36.8015 42.1777 37.4766 41.3971 38.5832C39.6604 38.6598 38.271 40.0966 38.271 41.8519C38.271 42.0225 38.2841 42.1923 38.3099 42.3599C37.5128 43.0634 37.0162 44.0569 36.9302 45.1177C32.3227 45.1467 27.8507 43.317 24.5855 40.0516C23.3346 38.8026 22.2899 37.3823 21.4794 35.8283C24.642 38.1437 28.5393 39.27 32.4733 39.0033C36.4996 38.7298 40.2909 37.0059 43.1489 34.1489C44.8568 32.4388 46.1488 30.4316 46.9888 28.1831C47.0979 27.8909 46.9495 27.5654 46.6573 27.4563C46.3651 27.3471 46.0396 27.4955 45.9304 27.7877C45.1473 29.8839 43.9425 31.7556 42.3498 33.3502C36.9121 38.7861 28.175 39.4214 22.027 34.8283C21.396 34.3558 20.7454 33.9748 20.2621 34.3828C19.7753 34.7935 20.0489 35.5152 20.4172 36.234C21.2896 37.9359 22.4233 39.4892 23.7869 40.8506C25.6321 42.6959 27.7932 44.1014 30.2101 45.0281C32.3256 45.8391 34.5404 46.2489 36.8042 46.2489C36.8673 46.2489 36.9308 46.2477 36.994 46.2471C37.3677 48.1346 39.0362 49.5623 41.0326 49.5623H43.1141C43.426 49.5623 43.679 49.3094 43.679 48.9974C43.679 48.6854 43.426 48.4325 43.1141 48.4325H41.0326C39.3853 48.4325 38.045 47.0932 38.045 45.447C38.045 44.4983 38.502 43.5976 39.2674 43.0379C39.4568 42.8993 39.5408 42.6582 39.4786 42.432C39.4268 42.244 39.4006 42.0488 39.4006 41.8518C39.4006 40.6706 40.3616 39.7095 41.5428 39.7095C41.5887 39.7095 41.6345 39.7115 41.6804 39.7134C41.8865 39.7201 42.0832 39.6154 42.189 39.4366C42.7388 38.508 43.751 37.931 44.8306 37.931C46.0847 37.931 47.2001 38.6796 47.672 39.8382C47.7804 40.104 48.0708 40.2465 48.3473 40.1689C48.5512 40.1119 48.765 40.083 48.9829 40.083C50.1397 40.083 51.1413 40.9428 51.3129 42.0831C51.3545 42.3595 51.5919 42.5639 51.8714 42.5639C53.4894 42.5639 54.8056 43.8802 54.8056 45.4982C54.8056 47.1162 53.4893 48.4325 51.8714 48.4325H45.723C45.411 48.4325 45.1581 48.6854 45.1581 48.9974C45.1581 49.3094 45.411 49.5623 45.723 49.5623H51.8714C54.1123 49.5623 55.9354 47.7392 55.9354 45.4983C55.9356 43.4123 54.3556 41.6882 52.3295 41.46Z"/>
</mask>
<path d="M52.3295 41.46C52.1051 40.6967 51.6234 40.0456 50.9924 39.5983C57.06 32.3164 56.6122 21.5495 49.85 14.7871C48.4878 13.4249 46.9339 12.2912 45.2316 11.4175C44.514 11.0492 43.7932 10.7753 43.3821 11.2618C42.9738 11.7447 43.3538 12.3954 43.8253 13.0268C46.4002 16.4714 47.4325 20.8868 46.6574 25.1409C46.6015 25.4477 46.805 25.7419 47.1119 25.7978C47.4187 25.853 47.7129 25.6502 47.7688 25.3433C48.5902 20.8343 47.5177 16.1554 44.8257 12.4796C46.3803 13.2916 47.8014 14.3363 49.0511 15.5859C55.4656 22.0006 55.8283 32.2539 49.9428 39.0906C49.6362 39.0015 49.314 38.9536 48.9829 38.9536C48.8258 38.9536 48.6696 38.9639 48.5157 38.9844C47.7867 37.6444 46.3866 36.8015 44.8306 36.8015C43.4648 36.8015 42.1777 37.4766 41.3971 38.5832C39.6604 38.6598 38.271 40.0966 38.271 41.8519C38.271 42.0225 38.2841 42.1923 38.3099 42.3599C37.5128 43.0634 37.0162 44.0569 36.9302 45.1177C32.3227 45.1467 27.8507 43.317 24.5855 40.0516C23.3346 38.8026 22.2899 37.3823 21.4794 35.8283C24.642 38.1437 28.5393 39.27 32.4733 39.0033C36.4996 38.7298 40.2909 37.0059 43.1489 34.1489C44.8568 32.4388 46.1488 30.4316 46.9888 28.1831C47.0979 27.8909 46.9495 27.5654 46.6573 27.4563C46.3651 27.3471 46.0396 27.4955 45.9304 27.7877C45.1473 29.8839 43.9425 31.7556 42.3498 33.3502C36.9121 38.7861 28.175 39.4214 22.027 34.8283C21.396 34.3558 20.7454 33.9748 20.2621 34.3828C19.7753 34.7935 20.0489 35.5152 20.4172 36.234C21.2896 37.9359 22.4233 39.4892 23.7869 40.8506C25.6321 42.6959 27.7932 44.1014 30.2101 45.0281C32.3256 45.8391 34.5404 46.2489 36.8042 46.2489C36.8673 46.2489 36.9308 46.2477 36.994 46.2471C37.3677 48.1346 39.0362 49.5623 41.0326 49.5623H43.1141C43.426 49.5623 43.679 49.3094 43.679 48.9974C43.679 48.6854 43.426 48.4325 43.1141 48.4325H41.0326C39.3853 48.4325 38.045 47.0932 38.045 45.447C38.045 44.4983 38.502 43.5976 39.2674 43.0379C39.4568 42.8993 39.5408 42.6582 39.4786 42.432C39.4268 42.244 39.4006 42.0488 39.4006 41.8518C39.4006 40.6706 40.3616 39.7095 41.5428 39.7095C41.5887 39.7095 41.6345 39.7115 41.6804 39.7134C41.8865 39.7201 42.0832 39.6154 42.189 39.4366C42.7388 38.508 43.751 37.931 44.8306 37.931C46.0847 37.931 47.2001 38.6796 47.672 39.8382C47.7804 40.104 48.0708 40.2465 48.3473 40.1689C48.5512 40.1119 48.765 40.083 48.9829 40.083C50.1397 40.083 51.1413 40.9428 51.3129 42.0831C51.3545 42.3595 51.5919 42.5639 51.8714 42.5639C53.4894 42.5639 54.8056 43.8802 54.8056 45.4982C54.8056 47.1162 53.4893 48.4325 51.8714 48.4325H45.723C45.411 48.4325 45.1581 48.6854 45.1581 48.9974C45.1581 49.3094 45.411 49.5623 45.723 49.5623H51.8714C54.1123 49.5623 55.9354 47.7392 55.9354 45.4983C55.9356 43.4123 54.3556 41.6882 52.3295 41.46Z" fill="white"/>
<path d="M50.9924 39.5983L49.4559 38.318L48.0716 39.9793L49.8358 41.2299L50.9924 39.5983ZM49.85 14.7871L51.2642 13.3729L51.2642 13.3728L49.85 14.7871ZM45.2316 11.4175L46.1448 9.63817L46.1448 9.63817L45.2316 11.4175ZM43.3821 11.2618L44.9094 12.553L44.9098 12.5526L43.3821 11.2618ZM43.8253 13.0268L42.2227 14.2234L42.2234 14.2242L43.8253 13.0268ZM46.6574 25.1409L48.625 25.4997L48.6251 25.4994L46.6574 25.1409ZM47.1119 25.7978L46.7532 27.7654L46.7581 27.7663L47.1119 25.7978ZM47.7688 25.3433L45.8012 24.9848L45.8012 24.985L47.7688 25.3433ZM44.8257 12.4796L45.7516 10.7068L43.2121 13.6613L44.8257 12.4796ZM49.0511 15.5859L50.4653 14.1717L50.4653 14.1716L49.0511 15.5859ZM49.9428 39.0906L49.3847 41.0112L50.6195 41.37L51.4585 40.3955L49.9428 39.0906ZM48.5157 38.9844L46.7588 39.9401L47.4161 41.1483L48.7795 40.9669L48.5157 38.9844ZM41.3971 38.5832L41.4852 40.5813L42.4656 40.538L43.0313 39.7361L41.3971 38.5832ZM38.3099 42.3599L39.6333 43.8595L40.4531 43.1359L40.2865 42.0552L38.3099 42.3599ZM36.9302 45.1177L36.9428 47.1177L38.7756 47.1062L38.9237 45.2794L36.9302 45.1177ZM24.5855 40.0516L25.9998 38.6374L25.9986 38.6363L24.5855 40.0516ZM21.4794 35.8283L22.6608 34.2146L19.7061 36.7533L21.4794 35.8283ZM32.4733 39.0033L32.6086 40.9987L32.6089 40.9987L32.4733 39.0033ZM43.1489 34.1489L44.5628 35.5634L44.564 35.5623L43.1489 34.1489ZM46.9888 28.1831L48.8623 28.883L48.8624 28.8828L46.9888 28.1831ZM46.6573 27.4563L45.957 29.3297L45.9576 29.3299L46.6573 27.4563ZM45.9304 27.7877L44.057 27.0876L44.0569 27.0878L45.9304 27.7877ZM42.3498 33.3502L43.7637 34.7646L43.7648 34.7636L42.3498 33.3502ZM22.027 34.8283L20.8283 36.4292L20.83 36.4305L22.027 34.8283ZM20.2621 34.3828L21.5518 35.9114L21.5522 35.911L20.2621 34.3828ZM20.4172 36.234L18.6373 37.1461L18.6374 37.1463L20.4172 36.234ZM23.7869 40.8506L25.2011 39.4364L25.1999 39.4352L23.7869 40.8506ZM30.2101 45.0281L29.4941 46.8955L29.4942 46.8956L30.2101 45.0281ZM36.8042 46.2489V44.2489H36.8041L36.8042 46.2489ZM36.994 46.2471L38.956 45.8587L38.6338 44.2314L36.975 44.2472L36.994 46.2471ZM39.2674 43.0379L38.0869 41.4234L38.0868 41.4235L39.2674 43.0379ZM39.4786 42.432L41.407 41.9016L41.4069 41.9013L39.4786 42.432ZM41.6804 39.7134L41.5984 41.7117L41.6065 41.712L41.6147 41.7123L41.6804 39.7134ZM42.189 39.4366L43.91 40.4556L43.9101 40.4555L42.189 39.4366ZM47.672 39.8382L45.8198 40.5927L45.8198 40.5927L47.672 39.8382ZM48.3473 40.1689L47.8085 38.2429L47.8072 38.2433L48.3473 40.1689ZM51.3129 42.0831L53.2906 41.7856L53.2906 41.7855L51.3129 42.0831ZM55.9354 45.4983L53.9354 45.4982V45.4983H55.9354ZM54.2483 40.896C53.892 39.6838 53.1318 38.6633 52.149 37.9666L49.8358 41.2299C50.1151 41.4279 50.3183 41.7096 50.4107 42.024L54.2483 40.896ZM52.5289 40.8786C59.2571 32.8039 58.7596 20.8684 51.2642 13.3729L48.4358 16.2012C54.4648 22.2305 54.863 31.8288 49.4559 38.318L52.5289 40.8786ZM51.2642 13.3728C49.756 11.8646 48.0334 10.6074 46.1448 9.63817L44.3184 13.1968C45.8345 13.975 47.2196 14.9851 48.4358 16.2013L51.2642 13.3728ZM46.1448 9.63817C45.7749 9.4483 45.1753 9.15573 44.5217 9.04647C43.7889 8.92396 42.6752 8.99971 41.8545 9.97088L44.9098 12.5526C44.7476 12.7445 44.5178 12.8915 44.2662 12.9596C44.0448 13.0195 43.89 12.9964 43.8622 12.9917C43.8336 12.9869 43.8591 12.9881 43.9558 13.0267C44.0482 13.0636 44.1656 13.1184 44.3184 13.1969L46.1448 9.63817ZM41.8548 9.9705C41.0449 10.9284 41.1393 12.0254 41.3807 12.7337C41.5937 13.3589 41.9791 13.897 42.2227 14.2234L45.4279 11.8302C45.3281 11.6967 45.258 11.5947 45.2092 11.5145C45.1582 11.4304 45.1557 11.4107 45.1669 11.4435C45.1781 11.4764 45.226 11.6291 45.2021 11.8593C45.1751 12.1191 45.0675 12.3661 44.9094 12.553L41.8548 9.9705ZM42.2234 14.2242C44.4634 17.2209 45.3658 21.0719 44.6898 24.7824L48.6251 25.4994C49.4991 20.7018 48.337 15.722 45.4272 11.8294L42.2234 14.2242ZM44.6899 24.7821C44.4356 26.1764 45.3603 27.5114 46.7532 27.7654L47.4707 23.8303C48.2497 23.9723 48.7674 24.7191 48.625 25.4997L44.6899 24.7821ZM46.7581 27.7663C48.1438 28.0153 49.4819 27.0999 49.7365 25.7016L45.8012 24.985C45.944 24.2005 46.6936 23.6906 47.4657 23.8294L46.7581 27.7663ZM49.7364 25.7017C50.6558 20.6552 49.4573 15.4189 46.4392 11.2978L43.2121 13.6613C45.5781 16.8919 46.5247 21.0135 45.8012 24.9848L49.7364 25.7017ZM43.8997 14.2523C45.273 14.9696 46.5298 15.893 47.6369 17.0001L50.4653 14.1716C49.0731 12.7795 47.4876 11.6135 45.7516 10.7068L43.8997 14.2523ZM47.6369 17.0001C53.3108 22.6742 53.6301 31.7418 48.4271 37.7858L51.4585 40.3955C58.0265 32.7659 57.6204 21.3269 50.4653 14.1717L47.6369 17.0001ZM50.5009 37.1701C50.018 37.0298 49.508 36.9536 48.9829 36.9536V40.9536C49.1199 40.9536 49.2543 40.9733 49.3847 41.0112L50.5009 37.1701ZM48.9829 36.9536C48.7383 36.9536 48.494 36.9696 48.2519 37.0018L48.7795 40.9669C48.8452 40.9581 48.9132 40.9536 48.9829 40.9536V36.9536ZM50.2725 38.0286C49.1941 36.0463 47.1208 34.8015 44.8306 34.8015V38.8015C45.6525 38.8015 46.3793 39.2425 46.7588 39.9401L50.2725 38.0286ZM44.8306 34.8015C42.8098 34.8015 40.9153 35.7966 39.7628 37.4303L43.0313 39.7361C43.4402 39.1566 44.1198 38.8015 44.8306 38.8015V34.8015ZM41.3089 36.5852C38.5083 36.7087 36.271 39.0211 36.271 41.8519H40.271C40.271 41.1722 40.8125 40.6109 41.4852 40.5813L41.3089 36.5852ZM36.271 41.8519C36.271 42.1243 36.2918 42.396 36.3332 42.6646L40.2865 42.0552C40.2763 41.9886 40.271 41.9207 40.271 41.8519H36.271ZM36.9865 40.8604C35.8002 41.9073 35.0645 43.3809 34.9368 44.9561L38.9237 45.2794C38.968 44.7328 39.2254 44.2194 39.6333 43.8595L36.9865 40.8604ZM36.9176 43.1178C32.8437 43.1434 28.8859 41.5238 25.9998 38.6374L23.1713 41.4658C26.8154 45.1102 31.8017 47.1501 36.9428 47.1177L36.9176 43.1178ZM25.9986 38.6363C24.8908 37.5302 23.968 36.2749 23.2526 34.9034L19.7061 36.7533C20.6118 38.4897 21.7784 40.0751 23.1724 41.4669L25.9986 38.6363ZM20.2979 37.4421C23.8429 40.0373 28.2071 41.2972 32.6086 40.9987L32.338 37.0078C28.8715 37.2429 25.4411 36.25 22.6608 34.2146L20.2979 37.4421ZM32.6089 40.9987C37.1182 40.6924 41.3634 38.7617 44.5628 35.5634L41.7349 32.7345C39.2183 35.2502 35.8811 36.7672 32.3378 37.0079L32.6089 40.9987ZM44.564 35.5623C46.4725 33.6513 47.9215 31.4013 48.8623 28.883L45.1152 27.4832C44.376 29.462 43.2411 31.2264 41.7338 32.7356L44.564 35.5623ZM48.8624 28.8828C49.3578 27.5563 48.6845 26.0785 47.357 25.5827L45.9576 29.3299C45.2146 29.0524 44.838 28.2255 45.1152 27.4834L48.8624 28.8828ZM47.3576 25.5829C46.0307 25.0869 44.5528 25.7607 44.057 27.0876L47.8039 28.4878C47.5264 29.2303 46.6996 29.6073 45.957 29.3297L47.3576 25.5829ZM44.0569 27.0878C43.3745 28.9142 42.3269 30.543 40.9347 31.9368L43.7648 34.7636C45.5581 32.9681 46.92 30.8537 47.8039 28.4876L44.0569 27.0878ZM40.9358 31.9357C36.1989 36.6711 28.5736 37.2227 23.224 33.226L20.83 36.4305C27.7763 41.62 37.6252 40.9012 43.7637 34.7646L40.9358 31.9357ZM23.2257 33.2273C22.8995 32.9831 22.3618 32.597 21.7367 32.3831C21.0286 32.1408 19.9311 32.0448 18.972 32.8545L21.5522 35.911C21.3649 36.0691 21.1176 36.1766 20.8575 36.2033C20.6271 36.227 20.4744 36.1789 20.4417 36.1676C20.4088 36.1564 20.4287 36.159 20.5127 36.2101C20.5929 36.259 20.6949 36.3293 20.8283 36.4292L23.2257 33.2273ZM18.9724 32.8542C17.9999 33.6747 17.9242 34.7892 18.0462 35.5216C18.1552 36.1754 18.4474 36.7754 18.6373 37.1461L22.1972 35.3219C22.1187 35.1689 22.0639 35.0513 22.0269 34.9585C21.9883 34.8616 21.9871 34.8358 21.9918 34.8641C21.9964 34.8916 22.0195 35.0462 21.9595 35.2675C21.8913 35.5191 21.7442 35.7491 21.5518 35.9114L18.9724 32.8542ZM18.6374 37.1463C19.6057 39.0353 20.8636 40.7581 22.3738 42.2659L25.1999 39.4352C23.983 38.2203 22.9734 36.8364 22.1971 35.3217L18.6374 37.1463ZM22.3726 42.2647C24.4145 44.3068 26.8131 45.8676 29.4941 46.8955L30.9261 43.1607C28.7733 42.3352 26.8496 41.085 25.2011 39.4364L22.3726 42.2647ZM29.4942 46.8956C31.8382 47.7942 34.2957 48.2489 36.8042 48.2489L36.8041 44.2489C34.7851 44.2489 32.813 43.884 30.9261 43.1606L29.4942 46.8956ZM36.8042 48.2489C36.8792 48.2489 36.9729 48.2474 37.0131 48.247L36.975 44.2472C36.8886 44.248 36.8555 44.2489 36.8042 44.2489V48.2489ZM35.0321 46.6355C35.5873 49.4402 38.0617 51.5623 41.0326 51.5623V47.5623C40.0106 47.5623 39.148 46.8289 38.956 45.8587L35.0321 46.6355ZM41.0326 51.5623H43.1141V47.5623H41.0326V51.5623ZM43.1141 51.5623C44.5304 51.5623 45.679 50.4142 45.679 48.9974H41.679C41.679 48.2047 42.3216 47.5623 43.1141 47.5623V51.5623ZM45.679 48.9974C45.679 47.5806 44.5304 46.4325 43.1141 46.4325V50.4325C42.3216 50.4325 41.679 49.7901 41.679 48.9974H45.679ZM43.1141 46.4325H41.0326V50.4325H43.1141V46.4325ZM41.0326 46.4325C40.4885 46.4325 40.045 45.9873 40.045 45.447H36.045C36.045 48.1992 38.282 50.4325 41.0326 50.4325V46.4325ZM40.045 45.447C40.045 45.1359 40.1979 44.8351 40.448 44.6522L38.0868 41.4235C36.8061 42.3601 36.045 43.8606 36.045 45.447H40.045ZM40.4479 44.6523C41.3083 44.0232 41.6893 42.9281 41.407 41.9016L37.5502 42.9624C37.3923 42.3883 37.6053 41.7755 38.0869 41.4234L40.4479 44.6523ZM41.4069 41.9013C41.4033 41.8882 41.4006 41.8715 41.4006 41.8518H37.4006C37.4006 42.226 37.4504 42.5999 37.5503 42.9627L41.4069 41.9013ZM41.4006 41.8518C41.4006 41.775 41.4663 41.7095 41.5428 41.7095V37.7095C39.257 37.7095 37.4006 39.5661 37.4006 41.8518H41.4006ZM41.5428 41.7095C41.5379 41.7095 41.5385 41.7094 41.5484 41.7097C41.5599 41.7101 41.5722 41.7106 41.5984 41.7117L41.7624 37.715C41.7268 37.7136 41.6376 37.7095 41.5428 37.7095V41.7095ZM41.6147 41.7123C42.5322 41.7425 43.4229 41.2783 43.91 40.4556L40.4681 38.4177C40.7435 37.9525 41.2407 37.6978 41.7462 37.7144L41.6147 41.7123ZM43.9101 40.4555C44.0996 40.1352 44.4574 39.931 44.8306 39.931V35.931C43.0445 35.931 41.3779 36.8807 40.468 38.4178L43.9101 40.4555ZM44.8306 39.931C45.2744 39.931 45.6557 40.1898 45.8198 40.5927L49.5243 39.0836C48.7445 37.1694 46.8951 35.931 44.8306 35.931V39.931ZM45.8198 40.5927C46.3112 41.7989 47.6301 42.4473 48.8875 42.0946L47.8072 38.2433C48.5114 38.0457 49.2495 38.4091 49.5243 39.0836L45.8198 40.5927ZM48.8862 42.095C48.9095 42.0885 48.9417 42.083 48.9829 42.083V38.083C48.5882 38.083 48.1928 38.1354 47.8085 38.2429L48.8862 42.095ZM48.9829 42.083C49.0604 42.083 49.143 42.1115 49.2147 42.173C49.2862 42.2345 49.3244 42.3094 49.3351 42.3807L53.2906 41.7855C52.9711 39.6619 51.1245 38.083 48.9829 38.083V42.083ZM49.3351 42.3805C49.5239 43.6357 50.6023 44.5639 51.8714 44.5639V40.5639C52.5816 40.5639 53.185 41.0833 53.2906 41.7856L49.3351 42.3805ZM51.8714 44.5639C52.3847 44.5639 52.8056 44.9847 52.8056 45.4982H56.8056C56.8056 42.7757 54.5941 40.5639 51.8714 40.5639V44.5639ZM52.8056 45.4982C52.8056 46.0117 52.3847 46.4325 51.8714 46.4325V50.4325C54.5939 50.4325 56.8056 48.2207 56.8056 45.4982H52.8056ZM51.8714 46.4325H45.723V50.4325H51.8714V46.4325ZM45.723 46.4325C44.3066 46.4325 43.1581 47.5806 43.1581 48.9974H47.1581C47.1581 49.7901 46.5154 50.4325 45.723 50.4325V46.4325ZM43.1581 48.9974C43.1581 50.4142 44.3066 51.5623 45.723 51.5623V47.5623C46.5154 47.5623 47.1581 48.2047 47.1581 48.9974H43.1581ZM45.723 51.5623H51.8714V47.5623H45.723V51.5623ZM51.8714 51.5623C55.2169 51.5623 57.9354 48.8438 57.9354 45.4983H53.9354C53.9354 46.6347 53.0078 47.5623 51.8714 47.5623V51.5623ZM57.9354 45.4985C57.9356 42.382 55.5786 39.8134 52.5534 39.4726L52.1057 43.4475C53.1326 43.5631 53.9355 44.4427 53.9354 45.4982L57.9354 45.4985Z" fill="white" mask="url(#path-5-inside-2)"/>
<mask id="path-7-inside-3" fill="white">
<path d="M11.2075 29.1538C11.2075 30.7155 12.477 31.986 14.0375 31.986H21.4007C23.5863 31.986 25.3643 30.2078 25.3643 28.0223C25.3643 25.8367 23.5862 24.0586 21.4007 24.0586C21.387 24.0586 21.3735 24.0587 21.36 24.0588C20.5569 22.6711 19.0566 21.7935 17.4363 21.7935C14.9387 21.7935 12.9069 23.8254 12.9069 26.323C12.9069 26.4005 12.9089 26.4783 12.9129 26.5562C11.8883 26.9967 11.2075 28.0042 11.2075 29.1538ZM13.6498 27.4984C13.9378 27.4309 14.1249 27.1525 14.0788 26.8603C14.0508 26.6831 14.0367 26.5023 14.0367 26.3229C14.0367 24.4482 15.5617 22.9231 17.4363 22.9231C18.7511 22.9231 19.9606 23.6928 20.5176 24.884C20.6211 25.1055 20.8551 25.2348 21.098 25.2054C21.1919 25.1939 21.2909 25.1882 21.4006 25.1882C22.9633 25.1882 24.2345 26.4595 24.2345 28.0222C24.2345 29.5849 22.9633 30.8562 21.4006 30.8562H14.0374C13.0999 30.8562 12.3371 30.0925 12.3371 29.1538C12.3373 28.3604 12.877 27.6796 13.6498 27.4984Z"/>
</mask>
<path d="M11.2075 29.1538C11.2075 30.7155 12.477 31.986 14.0375 31.986H21.4007C23.5863 31.986 25.3643 30.2078 25.3643 28.0223C25.3643 25.8367 23.5862 24.0586 21.4007 24.0586C21.387 24.0586 21.3735 24.0587 21.36 24.0588C20.5569 22.6711 19.0566 21.7935 17.4363 21.7935C14.9387 21.7935 12.9069 23.8254 12.9069 26.323C12.9069 26.4005 12.9089 26.4783 12.9129 26.5562C11.8883 26.9967 11.2075 28.0042 11.2075 29.1538ZM13.6498 27.4984C13.9378 27.4309 14.1249 27.1525 14.0788 26.8603C14.0508 26.6831 14.0367 26.5023 14.0367 26.3229C14.0367 24.4482 15.5617 22.9231 17.4363 22.9231C18.7511 22.9231 19.9606 23.6928 20.5176 24.884C20.6211 25.1055 20.8551 25.2348 21.098 25.2054C21.1919 25.1939 21.2909 25.1882 21.4006 25.1882C22.9633 25.1882 24.2345 26.4595 24.2345 28.0222C24.2345 29.5849 22.9633 30.8562 21.4006 30.8562H14.0374C13.0999 30.8562 12.3371 30.0925 12.3371 29.1538C12.3373 28.3604 12.877 27.6796 13.6498 27.4984Z" fill="white"/>
<path d="M21.36 24.0588L19.6289 25.0606L20.2141 26.0718L21.3823 26.0587L21.36 24.0588ZM12.9129 26.5562L13.7029 28.3936L14.9829 27.8433L14.9102 26.4519L12.9129 26.5562ZM14.0788 26.8603L16.0544 26.5487L16.0543 26.548L14.0788 26.8603ZM20.5176 24.884L18.7058 25.7311L18.7059 25.7313L20.5176 24.884ZM21.098 25.2054L21.3381 27.1909L21.3416 27.1905L21.098 25.2054ZM12.3371 29.1538L10.3371 29.1534V29.1538H12.3371ZM9.20752 29.1538C9.20752 31.8186 11.371 33.986 14.0375 33.986V29.986C13.583 29.986 13.2075 29.6124 13.2075 29.1538H9.20752ZM14.0375 33.986H21.4007V29.986H14.0375V33.986ZM21.4007 33.986C24.6909 33.986 27.3643 31.3123 27.3643 28.0223H23.3643C23.3643 29.1033 22.4816 29.986 21.4007 29.986V33.986ZM27.3643 28.0223C27.3643 24.7322 24.6908 22.0586 21.4007 22.0586V26.0586C22.4816 26.0586 23.3643 26.9413 23.3643 28.0223H27.3643ZM21.4007 22.0586C21.3796 22.0586 21.3586 22.0587 21.3376 22.059L21.3823 26.0587C21.3883 26.0587 21.3944 26.0586 21.4007 26.0586V22.0586ZM23.091 23.0571C21.9336 21.057 19.7768 19.7935 17.4363 19.7935V23.7935C18.3363 23.7935 19.1801 24.2851 19.6289 25.0606L23.091 23.0571ZM17.4363 19.7935C13.8341 19.7935 10.9069 22.7209 10.9069 26.323H14.9069C14.9069 24.9299 16.0434 23.7935 17.4363 23.7935V19.7935ZM10.9069 26.323C10.9069 26.4342 10.9097 26.5468 10.9156 26.6605L14.9102 26.4519C14.908 26.4099 14.9069 26.3669 14.9069 26.323H10.9069ZM12.123 24.7188C10.3709 25.4721 9.20752 27.1976 9.20752 29.1538H13.2075C13.2075 28.8108 13.4057 28.5214 13.7029 28.3936L12.123 24.7188ZM14.1061 29.4456C15.4146 29.139 16.2636 27.8748 16.0544 26.5487L12.1033 27.172C11.9862 26.4302 12.4611 25.7227 13.1936 25.5511L14.1061 29.4456ZM16.0543 26.548C16.0427 26.4745 16.0367 26.398 16.0367 26.3229H12.0367C12.0367 26.6065 12.059 26.8918 12.1034 27.1727L16.0543 26.548ZM16.0367 26.3229C16.0367 25.5527 16.6663 24.9231 17.4363 24.9231V20.9231C14.457 20.9231 12.0367 23.3438 12.0367 26.3229H16.0367ZM17.4363 24.9231C17.9745 24.9231 18.4777 25.2433 18.7058 25.7311L22.3293 24.0369C21.4435 22.1423 19.5276 20.9231 17.4363 20.9231V24.9231ZM18.7059 25.7313C19.1771 26.7387 20.2405 27.3236 21.3381 27.1909L20.858 23.2199C21.4696 23.1459 22.0652 23.4722 22.3292 24.0367L18.7059 25.7313ZM21.3416 27.1905C21.3438 27.1902 21.3605 27.1882 21.4006 27.1882V23.1882C21.2213 23.1882 21.0401 23.1975 20.8545 23.2203L21.3416 27.1905ZM21.4006 27.1882C21.8587 27.1882 22.2345 27.564 22.2345 28.0222H26.2345C26.2345 25.355 24.0679 23.1882 21.4006 23.1882V27.1882ZM22.2345 28.0222C22.2345 28.4804 21.8586 28.8562 21.4006 28.8562V32.8562C24.0679 32.8562 26.2345 30.6893 26.2345 28.0222H22.2345ZM21.4006 28.8562H14.0374V32.8562H21.4006V28.8562ZM14.0374 28.8562C14.2069 28.8562 14.3371 28.9904 14.3371 29.1538H10.3371C10.3371 31.1947 11.9929 32.8562 14.0374 32.8562V28.8562ZM14.3371 29.1541C14.3371 29.2897 14.2372 29.4149 14.1066 29.4455L13.1931 25.5512C11.5168 25.9444 10.3375 27.431 10.3371 29.1534L14.3371 29.1541Z" fill="white" mask="url(#path-7-inside-3)"/>
</svg>
