<svg width="60" height="60" viewBox="0 0 60 60" fill="none" xmlns="http://www.w3.org/2000/svg">
<circle cx="30" cy="30" r="30" fill="#D40000" fill-opacity="0.44"/>
<path d="M53.5197 20.3732C53.9586 18.8431 53.5246 17.8535 53.0833 17.2926C52.4095 16.4369 51.2088 15.96 49.874 16.0159L43.7923 16.2737C42.5481 16.3263 41.1126 16.4577 39.8142 17.3571L35.7815 20.1699L34.0849 17.9281L31.0379 19.6166L24.148 15.2446L18.6697 16.2656L26.1848 26.8656L19.4644 31.5535L17.6143 27.3581L14.5948 27.4861L14.1724 31.1647L10.8619 30.2149L8.27544 32.4088L13.9397 37.6128L15.1573 45.8226L18.4699 44.7664L19.1419 40.22L29.9347 36.1069L32.3346 51.6679L37.5883 48.0995L38.61 34.5706L43.307 31.9678C44.1533 31.4994 44.3768 30.2327 43.8994 28.9817C45.9083 27.6116 52.8381 22.7489 53.5197 20.3732ZM33.7333 19.5943L34.727 20.9071L33.9383 21.457L32.2759 20.402L33.7333 19.5943ZM20.8827 17.1622L23.887 16.6022L32.7943 22.2542L27.2392 26.129L20.8827 17.1622ZM24.7734 36.697L23.0207 37.3651C23.976 35.1013 24.239 31.8848 23.7305 30.1452L25.1089 29.1837C26.0136 30.5921 25.8986 34.7269 24.7734 36.697ZM15.7468 28.7252L16.7912 28.6809L18.3889 32.3034L18.3169 32.3537L15.4255 31.5242L15.7468 28.7252ZM10.2182 32.447L11.1687 31.6411L18.0005 33.6011L18.4413 34.3967L14.6362 36.5052L10.2182 32.447ZM16.2075 44.1374L15.2436 37.639L18.4887 35.8408L17.3138 43.7843L16.2075 44.1374ZM19.9833 34.5259L19.2771 33.2514L22.6104 30.9265C22.7121 31.5304 22.7583 32.4329 22.63 33.6219C22.4243 35.5353 21.8515 37.2217 21.1272 38.0858L19.3565 38.7607L19.9833 34.5259ZM26.4253 36.0676C27.1875 33.7023 27.2836 30.1723 26.1612 28.4499L40.548 18.4141C41.4633 17.7801 42.4888 17.6173 43.8462 17.5598L45.9452 17.4708C46.058 17.9314 45.9158 18.8842 45.7455 19.4823C45.649 19.8233 45.8461 20.1789 46.1873 20.2768L46.1879 20.277C46.5292 20.3749 46.885 20.1772 46.9829 19.836C47.0625 19.5584 47.3677 18.3827 47.2323 17.4158L49.9287 17.3015C50.8522 17.2614 51.6533 17.5568 52.0728 18.0886C52.4446 18.5606 52.5152 19.2098 52.2832 20.0184C51.837 21.5738 46.7184 25.5016 43.2546 27.864C42.4501 26.857 41.3084 26.4057 40.5228 26.842L29.2975 31.9798L29.7337 34.8068L26.4253 36.0676ZM36.3519 47.3834L33.2952 49.4599L30.7174 32.7445L37.6984 29.5478L36.3519 47.3834ZM38.7253 33.0353L39.0348 28.9363L39.6486 28.6554C39.6622 29.2073 39.8169 29.811 40.1368 30.3892C40.4317 30.9214 40.8227 31.338 41.2424 31.6404L38.7253 33.0353ZM42.16 30.7207C41.8198 30.5281 41.492 30.1805 41.2619 29.7652C41.0317 29.3499 40.9102 28.8875 40.9278 28.4971C40.9416 28.188 41.0401 28.0242 41.1023 27.9892C41.2948 27.8825 42.0316 28.1782 42.5236 29.066C42.7537 29.4813 42.8753 29.9437 42.8577 30.3341C42.8439 30.6433 42.7454 30.8071 42.6832 30.8421C42.6205 30.8763 42.4296 30.8724 42.16 30.7207Z" fill="white"/>
<path d="M43.4459 22.8361C43.7873 22.9341 44.1435 22.7367 44.2414 22.3953C44.3394 22.0539 44.142 21.6977 43.8006 21.5997C43.4592 21.5018 43.103 21.6991 43.005 22.0406C42.9071 22.382 43.1044 22.7382 43.4459 22.8361Z" fill="white"/>
<path d="M41.0591 24.1589C41.4006 24.2568 41.7568 24.0595 41.8547 23.718C41.9527 23.3766 41.7553 23.0204 41.4139 22.9225C41.0724 22.8245 40.7162 23.0219 40.6183 23.3633C40.5203 23.7047 40.7177 24.0609 41.0591 24.1589Z" fill="white"/>
<path d="M38.6724 25.4812C39.0139 25.5791 39.37 25.3817 39.468 25.0403C39.5659 24.6989 39.3686 24.3427 39.0271 24.2447C38.6857 24.1468 38.3295 24.3442 38.2316 24.6856C38.1336 25.027 38.331 25.3832 38.6724 25.4812Z" fill="white"/>
</svg>
