<svg width="639" height="112" viewBox="0 0 639 112" fill="none" xmlns="http://www.w3.org/2000/svg">
<path d="M49.0739 12.0885V104.802H31.0805V12.0885H26.4105V104.802H8.27975V12.0885H3.74708V107.137H53.7439V12.0885H49.0739ZM105.701 50.8223C104.328 50.2729 102.954 49.8608 101.443 49.4487C102.13 49.174 102.817 48.8993 103.504 48.6246C109.822 45.1908 114.217 38.4604 114.217 30.7686C114.217 19.6429 105.152 10.5776 94.0261 10.5776C91.4164 10.5776 88.944 11.127 86.609 12.0885C85.9222 12.3632 85.3728 12.6379 84.8234 12.9126V107.137C87.7078 108.099 90.867 108.511 94.0261 108.511C110.646 108.511 124.107 95.1876 124.107 78.5678C124.107 66.0686 116.415 55.3549 105.701 50.8223ZM89.3561 13.7367C90.867 13.1873 92.5152 12.9126 94.0261 12.9126C102.679 12.9126 109.547 20.8791 109.547 30.7686C109.547 40.5207 102.679 48.6246 94.0261 48.6246H89.3561V13.7367ZM94.0261 106.313C92.5152 106.313 91.0043 106.039 89.3561 105.764V50.8223H94.0261C108.036 50.8223 119.437 63.3215 119.437 78.5678C119.437 93.814 108.036 106.313 94.0261 106.313ZM159.702 104.802V49.5861H176.734C177.283 48.762 177.832 47.9378 178.382 47.2511H159.702V14.4235H180.991C181.678 13.5994 182.365 12.9126 183.052 12.0885H155.169V107.137H183.052C182.365 106.313 181.678 105.489 180.991 104.802H159.702ZM250.787 12.0885L248.589 17.72L235.952 50.5476L218.646 95.0502V12.0885H214.113V107.137H216.585L218.646 101.506L248.589 24.1756V107.137H253.259V12.0885H250.787ZM224.277 6.18227H241.034C241.721 5.35815 242.408 4.67137 243.095 3.84725H226.338C225.651 4.67137 224.964 5.35815 224.277 6.18227ZM323.47 104.802V12.0885H318.8V104.802H288.857V12.0885H284.325V107.137H328.965C329.651 106.313 330.338 105.626 331.025 104.802H323.47ZM390.205 10.5776C388.969 12.0885 387.87 13.5994 386.634 15.1103C378.393 45.7402 370.151 76.3701 362.047 107.137H364.383C367.542 95.3249 370.701 83.6498 373.86 71.9748H401.88C405.039 83.6498 408.198 95.3249 411.22 107.137H416.028C407.512 74.9966 398.858 42.7184 390.205 10.5776ZM374.409 69.6398L387.87 19.6429L401.193 69.6398H374.409ZM486.297 40.6581C486.297 24.0383 472.836 10.5776 456.216 10.5776C453.057 10.5776 449.898 11.127 447.014 12.0885V107.137H451.546V70.1892C453.195 70.4639 454.706 70.6012 456.216 70.6012C472.836 70.6012 486.297 57.1406 486.297 40.6581ZM481.627 40.6581C481.627 55.9044 470.227 68.2662 456.216 68.2662C454.706 68.2662 453.057 68.1289 451.546 67.8541V13.462C453.057 13.05 454.706 12.9126 456.216 12.9126C470.227 12.9126 481.627 25.4118 481.627 40.6581ZM554.033 12.0885L551.835 17.72L539.199 50.5476L521.892 95.0502V12.0885H517.359V107.137H519.832L521.892 101.506L551.835 24.1756V107.137H556.505V12.0885H554.033ZM626.167 10.5776C609.547 10.5776 596.087 24.0383 596.087 40.6581C596.087 53.1573 603.778 64.0082 614.904 68.4036L587.571 107.137H592.103L618.613 69.6398C620.948 70.3265 623.557 70.6012 626.167 70.6012C627.678 70.6012 629.189 70.4639 630.7 70.1892V107.137H635.37V12.0885C632.485 11.127 629.326 10.5776 626.167 10.5776ZM626.167 68.2662C612.157 68.2662 600.757 55.9044 600.757 40.6581C600.757 25.4118 612.157 12.9126 626.167 12.9126C627.678 12.9126 629.189 13.05 630.7 13.462V67.8541C629.189 68.1289 627.678 68.2662 626.167 68.2662Z" fill="white"/>
<path d="M49.0739 12.0885V9.08848H46.0739V12.0885H49.0739ZM49.0739 104.802V107.802H52.0739V104.802H49.0739ZM31.0805 104.802H28.0805V107.802H31.0805V104.802ZM31.0805 12.0885H34.0805V9.08848H31.0805V12.0885ZM26.4105 12.0885V9.08848H23.4105V12.0885H26.4105ZM26.4105 104.802V107.802H29.4105V104.802H26.4105ZM8.27975 104.802H5.27975V107.802H8.27975V104.802ZM8.27975 12.0885H11.2798V9.08848H8.27975V12.0885ZM3.74708 12.0885V9.08848H0.747077V12.0885H3.74708ZM3.74708 107.137H0.747077V110.137H3.74708V107.137ZM53.7439 107.137V110.137H56.7439V107.137H53.7439ZM53.7439 12.0885H56.7439V9.08848H53.7439V12.0885ZM46.0739 12.0885V104.802H52.0739V12.0885H46.0739ZM49.0739 101.802H31.0805V107.802H49.0739V101.802ZM34.0805 104.802V12.0885H28.0805V104.802H34.0805ZM31.0805 9.08848H26.4105V15.0885H31.0805V9.08848ZM23.4105 12.0885V104.802H29.4105V12.0885H23.4105ZM26.4105 101.802H8.27975V107.802H26.4105V101.802ZM11.2798 104.802V12.0885H5.27975V104.802H11.2798ZM8.27975 9.08848H3.74708V15.0885H8.27975V9.08848ZM0.747077 12.0885V107.137H6.74708V12.0885H0.747077ZM3.74708 110.137H53.7439V104.137H3.74708V110.137ZM56.7439 107.137V12.0885H50.7439V107.137H56.7439ZM53.7439 9.08848H49.0739V15.0885H53.7439V9.08848ZM105.701 50.8223L106.87 48.0594L106.843 48.0478L106.815 48.0368L105.701 50.8223ZM101.443 49.4487L100.329 46.6633L92.0179 49.9878L100.654 52.343L101.443 49.4487ZM103.504 48.6246L104.618 51.41L104.781 51.3446L104.936 51.2605L103.504 48.6246ZM86.609 12.0885L87.7232 14.8739L87.7373 14.8683L87.7513 14.8625L86.609 12.0885ZM84.8234 12.9126L83.4818 10.2293L81.8234 11.0585V12.9126H84.8234ZM84.8234 107.137H81.8234V109.3L83.8747 109.983L84.8234 107.137ZM89.3561 13.7367L88.3309 10.9174L86.3561 11.6355V13.7367H89.3561ZM89.3561 48.6246H86.3561V51.6246H89.3561V48.6246ZM89.3561 105.764H86.3561V108.305L88.8629 108.723L89.3561 105.764ZM89.3561 50.8223V47.8223H86.3561V50.8223H89.3561ZM106.815 48.0368C105.284 47.4242 103.782 46.9769 102.233 46.5544L100.654 52.343C102.127 52.7447 103.372 53.1216 104.587 53.6077L106.815 48.0368ZM102.557 52.2342C103.244 51.9595 103.931 51.6847 104.618 51.41L102.389 45.8392C101.703 46.1139 101.016 46.3886 100.329 46.6633L102.557 52.2342ZM104.936 51.2605C112.16 47.3343 117.217 39.6268 117.217 30.7686H111.217C111.217 37.2941 107.483 43.0472 102.071 45.9887L104.936 51.2605ZM117.217 30.7686C117.217 17.9861 106.809 7.57759 94.0261 7.57759V13.5776C103.495 13.5776 111.217 21.2998 111.217 30.7686H117.217ZM94.0261 7.57759C90.9844 7.57759 88.1251 8.21984 85.4668 9.31445L87.7513 14.8625C89.763 14.0342 91.8483 13.5776 94.0261 13.5776V7.57759ZM85.4948 9.30306C84.6789 9.62942 84.0284 9.95602 83.4818 10.2293L86.165 15.5959C86.7173 15.3198 87.1655 15.097 87.7232 14.8739L85.4948 9.30306ZM81.8234 12.9126V107.137H87.8234V12.9126H81.8234ZM83.8747 109.983C87.1284 111.068 90.6189 111.511 94.0261 111.511V105.511C91.115 105.511 88.2872 105.13 85.7721 104.291L83.8747 109.983ZM94.0261 111.511C112.285 111.511 127.107 96.8623 127.107 78.5678H121.107C121.107 93.5128 109.007 105.511 94.0261 105.511V111.511ZM127.107 78.5678C127.107 64.8114 118.645 53.041 106.87 48.0594L104.532 53.5852C114.185 57.6689 121.107 67.3257 121.107 78.5678H127.107ZM90.3813 16.5561C91.5553 16.1292 92.8559 15.9126 94.0261 15.9126V9.9126C92.1745 9.9126 90.1787 10.2454 88.3309 10.9174L90.3813 16.5561ZM94.0261 15.9126C100.635 15.9126 106.547 22.1198 106.547 30.7686H112.547C112.547 19.6385 104.724 9.9126 94.0261 9.9126V15.9126ZM106.547 30.7686C106.547 39.2959 100.621 45.6246 94.0261 45.6246V51.6246C104.738 51.6246 112.547 41.7455 112.547 30.7686H106.547ZM94.0261 45.6246H89.3561V51.6246H94.0261V45.6246ZM92.3561 48.6246V13.7367H86.3561V48.6246H92.3561ZM94.0261 103.313C92.8204 103.313 91.592 103.095 89.8493 102.805L88.8629 108.723C90.4166 108.982 92.21 109.313 94.0261 109.313V103.313ZM92.3561 105.764V50.8223H86.3561V105.764H92.3561ZM89.3561 53.8223H94.0261V47.8223H89.3561V53.8223ZM94.0261 53.8223C106.133 53.8223 116.437 64.7209 116.437 78.5678H122.437C122.437 61.9221 109.939 47.8223 94.0261 47.8223V53.8223ZM116.437 78.5678C116.437 92.4146 106.133 103.313 94.0261 103.313V109.313C109.939 109.313 122.437 95.2134 122.437 78.5678H116.437ZM159.702 104.802H156.702V107.802H159.702V104.802ZM159.702 49.5861V46.5861H156.702V49.5861H159.702ZM176.734 49.5861V52.5861H178.339L179.23 51.2502L176.734 49.5861ZM178.382 47.2511L180.724 49.1252L184.624 44.2511H178.382V47.2511ZM159.702 47.2511H156.702V50.2511H159.702V47.2511ZM159.702 14.4235V11.4235H156.702V14.4235H159.702ZM180.991 14.4235V17.4235H182.397L183.296 16.3441L180.991 14.4235ZM183.052 12.0885L185.356 14.009L189.457 9.08848H183.052V12.0885ZM155.169 12.0885V9.08848H152.169V12.0885H155.169ZM155.169 107.137H152.169V110.137H155.169V107.137ZM183.052 107.137V110.137H189.457L185.356 105.217L183.052 107.137ZM180.991 104.802L183.113 102.681L182.234 101.802H180.991V104.802ZM162.702 104.802V49.5861H156.702V104.802H162.702ZM159.702 52.5861H176.734V46.5861H159.702V52.5861ZM179.23 51.2502C179.798 50.3984 180.272 49.6905 180.724 49.1252L176.039 45.377C175.393 46.1852 174.768 47.1255 174.237 47.922L179.23 51.2502ZM178.382 44.2511H159.702V50.2511H178.382V44.2511ZM162.702 47.2511V14.4235H156.702V47.2511H162.702ZM159.702 17.4235H180.991V11.4235H159.702V17.4235ZM183.296 16.3441C183.592 15.9893 183.892 15.6579 184.241 15.274C184.579 14.9025 184.965 14.4784 185.356 14.009L180.747 10.1679C180.451 10.5227 180.151 10.8541 179.802 11.238C179.464 11.6095 179.078 12.0336 178.687 12.5029L183.296 16.3441ZM183.052 9.08848H155.169V15.0885H183.052V9.08848ZM152.169 12.0885V107.137H158.169V12.0885H152.169ZM155.169 110.137H183.052V104.137H155.169V110.137ZM185.356 105.217C184.691 104.418 183.914 103.482 183.113 102.681L178.87 106.924C179.442 107.496 180.039 108.209 180.747 109.058L185.356 105.217ZM180.991 101.802H159.702V107.802H180.991V101.802ZM250.787 12.0885V9.08848H248.737L247.992 10.9979L250.787 12.0885ZM248.589 17.72L245.794 16.6294L245.789 16.6423L248.589 17.72ZM235.952 50.5476L238.748 51.6349L238.752 51.6253L235.952 50.5476ZM218.646 95.0502H215.646L221.442 96.1376L218.646 95.0502ZM218.646 12.0885H221.646V9.08848H218.646V12.0885ZM214.113 12.0885V9.08848H211.113V12.0885H214.113ZM214.113 107.137H211.113V110.137H214.113V107.137ZM216.585 107.137V110.137H218.682L219.403 108.168L216.585 107.137ZM218.646 101.506L215.848 100.423L215.838 100.449L215.828 100.475L218.646 101.506ZM248.589 24.1756H251.589L245.791 23.0924L248.589 24.1756ZM248.589 107.137H245.589V110.137H248.589V107.137ZM253.259 107.137V110.137H256.259V107.137H253.259ZM253.259 12.0885H256.259V9.08848H253.259V12.0885ZM224.277 6.18227L221.973 4.26171L217.872 9.18227H224.277V6.18227ZM241.034 6.18227V9.18227H242.44L243.339 8.10283L241.034 6.18227ZM243.095 3.84725L245.399 5.76781L249.5 0.847251H243.095V3.84725ZM226.338 3.84725V0.847251H224.932L224.033 1.92669L226.338 3.84725ZM247.992 10.9979L245.794 16.6294L251.384 18.8106L253.581 13.1791L247.992 10.9979ZM245.789 16.6423L233.153 49.4698L238.752 51.6253L251.389 18.7977L245.789 16.6423ZM233.156 49.4602L215.85 93.9629L221.442 96.1376L238.748 51.6349L233.156 49.4602ZM221.646 95.0502V12.0885H215.646V95.0502H221.646ZM218.646 9.08848H214.113V15.0885H218.646V9.08848ZM211.113 12.0885V107.137H217.113V12.0885H211.113ZM214.113 110.137H216.585V104.137H214.113V110.137ZM219.403 108.168L221.463 102.537L215.828 100.475L213.768 106.107L219.403 108.168ZM221.443 102.589L251.387 25.2589L245.791 23.0924L215.848 100.423L221.443 102.589ZM245.589 24.1756V107.137H251.589V24.1756H245.589ZM248.589 110.137H253.259V104.137H248.589V110.137ZM256.259 107.137V12.0885H250.259V107.137H256.259ZM253.259 9.08848H250.787V15.0885H253.259V9.08848ZM224.277 9.18227H241.034V3.18227H224.277V9.18227ZM243.339 8.10283C243.635 7.74805 243.935 7.41669 244.284 7.03277C244.622 6.66124 245.008 6.23715 245.399 5.76781L240.79 1.9267C240.494 2.28147 240.194 2.61283 239.845 2.99675C239.507 3.36828 239.121 3.79237 238.73 4.26171L243.339 8.10283ZM243.095 0.847251H226.338V6.84725H243.095V0.847251ZM224.033 1.92669C223.737 2.28147 223.437 2.61283 223.088 2.99675C222.75 3.36828 222.364 3.79237 221.973 4.26171L226.582 8.10283C226.878 7.74805 227.178 7.41669 227.527 7.03277C227.865 6.66124 228.251 6.23715 228.642 5.76781L224.033 1.92669ZM323.47 104.802H320.47V107.802H323.47V104.802ZM323.47 12.0885H326.47V9.08848H323.47V12.0885ZM318.8 12.0885V9.08848H315.8V12.0885H318.8ZM318.8 104.802V107.802H321.8V104.802H318.8ZM288.857 104.802H285.857V107.802H288.857V104.802ZM288.857 12.0885H291.857V9.08848H288.857V12.0885ZM284.325 12.0885V9.08848H281.325V12.0885H284.325ZM284.325 107.137H281.325V110.137H284.325V107.137ZM328.965 107.137V110.137H330.37L331.269 109.058L328.965 107.137ZM331.025 104.802L333.329 106.723L337.43 101.802H331.025V104.802ZM326.47 104.802V12.0885H320.47V104.802H326.47ZM323.47 9.08848H318.8V15.0885H323.47V9.08848ZM315.8 12.0885V104.802H321.8V12.0885H315.8ZM318.8 101.802H288.857V107.802H318.8V101.802ZM291.857 104.802V12.0885H285.857V104.802H291.857ZM288.857 9.08848H284.325V15.0885H288.857V9.08848ZM281.325 12.0885V107.137H287.325V12.0885H281.325ZM284.325 110.137H328.965V104.137H284.325V110.137ZM331.269 109.058C331.565 108.703 331.865 108.372 332.214 107.988C332.552 107.616 332.938 107.192 333.329 106.723L328.72 102.882C328.425 103.237 328.124 103.568 327.775 103.952C327.437 104.323 327.051 104.747 326.66 105.217L331.269 109.058ZM331.025 101.802H323.47V107.802H331.025V101.802ZM390.205 10.5776L393.102 9.79767L391.583 4.15593L387.883 8.67788L390.205 10.5776ZM386.634 15.1103L384.312 13.2106L383.904 13.709L383.737 14.3308L386.634 15.1103ZM362.047 107.137L359.146 106.373L358.155 110.137H362.047V107.137ZM364.383 107.137V110.137H366.686L367.281 107.912L364.383 107.137ZM373.86 71.9748V68.9748H371.564L370.964 71.1912L373.86 71.9748ZM401.88 71.9748L404.776 71.1912L404.176 68.9748H401.88V71.9748ZM411.22 107.137L408.314 107.881L408.891 110.137H411.22V107.137ZM416.028 107.137V110.137H419.926L418.927 106.369L416.028 107.137ZM374.409 69.6398L371.512 68.8598L370.495 72.6398H374.409V69.6398ZM387.87 19.6429L390.769 18.8705L387.885 8.04811L384.973 18.863L387.87 19.6429ZM401.193 69.6398V72.6398H405.097L404.092 68.8673L401.193 69.6398ZM387.883 8.67788C387.234 9.47085 386.625 10.2591 386.046 11.0096C385.458 11.77 384.899 12.4926 384.312 13.2106L388.956 17.01C389.605 16.217 390.213 15.4288 390.793 14.6783C391.381 13.9179 391.94 13.1952 392.527 12.4773L387.883 8.67788ZM383.737 14.3308C375.496 44.9595 367.253 75.597 359.146 106.373L364.949 107.901C373.05 77.1432 381.289 46.5209 389.531 15.8897L383.737 14.3308ZM362.047 110.137H364.383V104.137H362.047V110.137ZM367.281 107.912C370.438 96.105 373.596 84.4341 376.756 72.7583L370.964 71.1912C367.805 82.8656 364.645 94.5449 361.484 106.362L367.281 107.912ZM373.86 74.9748H401.88V68.9748H373.86V74.9748ZM398.984 72.7583C402.144 84.4366 405.298 96.0918 408.314 107.881L414.127 106.394C411.099 94.558 407.934 82.863 404.776 71.1912L398.984 72.7583ZM411.22 110.137H416.028V104.137H411.22V110.137ZM418.927 106.369C410.41 74.2227 401.756 41.9403 393.102 9.79767L387.308 11.3575C395.961 43.4965 404.613 75.7704 413.128 107.906L418.927 106.369ZM377.306 70.4197L390.767 20.4229L384.973 18.863L371.512 68.8598L377.306 70.4197ZM384.971 20.4154L398.295 70.4122L404.092 68.8673L390.769 18.8705L384.971 20.4154ZM401.193 66.6398H374.409V72.6398H401.193V66.6398ZM447.014 12.0885L446.065 9.24243L444.014 9.9262V12.0885H447.014ZM447.014 107.137H444.014V110.137H447.014V107.137ZM451.546 107.137V110.137H454.546V107.137H451.546ZM451.546 70.1892L452.04 67.23L448.546 66.6478V70.1892H451.546ZM451.546 67.8541H448.546V70.3579L451.01 70.8058L451.546 67.8541ZM451.546 13.462L450.757 10.5677L448.546 11.1706V13.462H451.546ZM489.297 40.6581C489.297 22.3814 474.493 7.57759 456.216 7.57759V13.5776C471.179 13.5776 483.297 25.6951 483.297 40.6581H489.297ZM456.216 7.57759C452.718 7.57759 449.239 8.18454 446.065 9.24243L447.962 14.9345C450.558 14.0695 453.397 13.5776 456.216 13.5776V7.57759ZM444.014 12.0885V107.137H450.014V12.0885H444.014ZM447.014 110.137H451.546V104.137H447.014V110.137ZM454.546 107.137V70.1892H448.546V107.137H454.546ZM451.053 73.1483C452.839 73.4461 454.517 73.6012 456.216 73.6012V67.6012C454.894 67.6012 453.55 67.4817 452.04 67.23L451.053 73.1483ZM456.216 73.6012C474.484 73.6012 489.297 58.8063 489.297 40.6581H483.297C483.297 55.4748 471.188 67.6012 456.216 67.6012V73.6012ZM478.627 40.6581C478.627 54.4848 468.342 65.2662 456.216 65.2662V71.2662C472.111 71.2662 484.627 57.3239 484.627 40.6581H478.627ZM456.216 65.2662C454.872 65.2662 453.404 65.1428 452.083 64.9025L451.01 70.8058C452.71 71.1149 454.539 71.2662 456.216 71.2662V65.2662ZM454.546 67.8541V13.462H448.546V67.8541H454.546ZM452.336 16.3563C453.502 16.0384 454.863 15.9126 456.216 15.9126V9.9126C454.548 9.9126 452.613 10.0616 450.757 10.5677L452.336 16.3563ZM456.216 15.9126C468.323 15.9126 478.627 26.8112 478.627 40.6581H484.627C484.627 24.0124 472.13 9.9126 456.216 9.9126V15.9126ZM554.033 12.0885V9.08848H551.983L551.238 10.9979L554.033 12.0885ZM551.835 17.72L549.04 16.6294L549.035 16.6423L551.835 17.72ZM539.199 50.5476L541.995 51.6349L541.998 51.6253L539.199 50.5476ZM521.892 95.0502H518.892L524.688 96.1376L521.892 95.0502ZM521.892 12.0885H524.892V9.08848H521.892V12.0885ZM517.359 12.0885V9.08848H514.359V12.0885H517.359ZM517.359 107.137H514.359V110.137H517.359V107.137ZM519.832 107.137V110.137H521.929L522.649 108.168L519.832 107.137ZM521.892 101.506L519.094 100.423L519.084 100.449L519.075 100.475L521.892 101.506ZM551.835 24.1756H554.835L549.037 23.0924L551.835 24.1756ZM551.835 107.137H548.835V110.137H551.835V107.137ZM556.505 107.137V110.137H559.505V107.137H556.505ZM556.505 12.0885H559.505V9.08848H556.505V12.0885ZM551.238 10.9979L549.04 16.6294L554.63 18.8106L556.827 13.1791L551.238 10.9979ZM549.035 16.6423L536.399 49.4698L541.998 51.6253L554.635 18.7977L549.035 16.6423ZM536.403 49.4602L519.096 93.9629L524.688 96.1376L541.995 51.6349L536.403 49.4602ZM524.892 95.0502V12.0885H518.892V95.0502H524.892ZM521.892 9.08848H517.359V15.0885H521.892V9.08848ZM514.359 12.0885V107.137H520.359V12.0885H514.359ZM517.359 110.137H519.832V104.137H517.359V110.137ZM522.649 108.168L524.709 102.537L519.075 100.475L517.014 106.107L522.649 108.168ZM524.69 102.589L554.633 25.2589L549.037 23.0924L519.094 100.423L524.69 102.589ZM548.835 24.1756V107.137H554.835V24.1756H548.835ZM551.835 110.137H556.505V104.137H551.835V110.137ZM559.505 107.137V12.0885H553.505V107.137H559.505ZM556.505 9.08848H554.033V15.0885H556.505V9.08848ZM614.904 68.4036L617.355 70.1333L619.555 67.0155L616.006 65.6134L614.904 68.4036ZM587.571 107.137L585.12 105.408L581.782 110.137H587.571V107.137ZM592.103 107.137V110.137H593.656L594.553 108.869L592.103 107.137ZM618.613 69.6398L619.459 66.7617L617.401 66.1564L616.163 67.9079L618.613 69.6398ZM630.7 70.1892H633.7V66.5945L630.163 67.2376L630.7 70.1892ZM630.7 107.137H627.7V110.137H630.7V107.137ZM635.37 107.137V110.137H638.37V107.137H635.37ZM635.37 12.0885H638.37V9.9262L636.319 9.24243L635.37 12.0885ZM630.7 13.462H633.7V11.1706L631.489 10.5677L630.7 13.462ZM630.7 67.8541L631.236 70.8058L633.7 70.3579V67.8541H630.7ZM626.167 7.57759C607.89 7.57759 593.087 22.3814 593.087 40.6581H599.087C599.087 25.6951 611.204 13.5776 626.167 13.5776V7.57759ZM593.087 40.6581C593.087 54.4106 601.551 66.3541 613.802 71.1937L616.006 65.6134C606.005 61.6624 599.087 51.9039 599.087 40.6581H593.087ZM612.453 66.6739L585.12 105.408L590.022 108.867L617.355 70.1333L612.453 66.6739ZM587.571 110.137H592.103V104.137H587.571V110.137ZM594.553 108.869L621.062 71.3716L616.163 67.9079L589.654 105.406L594.553 108.869ZM617.766 72.5178C620.455 73.3086 623.367 73.6012 626.167 73.6012V67.6012C623.748 67.6012 621.441 67.3444 619.459 66.7617L617.766 72.5178ZM626.167 73.6012C627.861 73.6012 629.551 73.4472 631.236 73.1408L630.163 67.2376C628.826 67.4806 627.495 67.6012 626.167 67.6012V73.6012ZM627.7 70.1892V107.137H633.7V70.1892H627.7ZM630.7 110.137H635.37V104.137H630.7V110.137ZM638.37 107.137V12.0885H632.37V107.137H638.37ZM636.319 9.24243C633.145 8.18454 629.666 7.57759 626.167 7.57759V13.5776C628.987 13.5776 631.826 14.0695 634.421 14.9345L636.319 9.24243ZM626.167 65.2662C614.042 65.2662 603.757 54.4848 603.757 40.6581H597.757C597.757 57.3239 610.272 71.2662 626.167 71.2662V65.2662ZM603.757 40.6581C603.757 26.8112 614.06 15.9126 626.167 15.9126V9.9126C610.254 9.9126 597.757 24.0124 597.757 40.6581H603.757ZM626.167 15.9126C627.498 15.9126 628.729 16.034 629.91 16.3563L631.489 10.5677C629.649 10.0659 627.858 9.9126 626.167 9.9126V15.9126ZM627.7 13.462V67.8541H633.7V13.462H627.7ZM630.163 64.9025C628.826 65.1456 627.495 65.2662 626.167 65.2662V71.2662C627.861 71.2662 629.551 71.1121 631.236 70.8058L630.163 64.9025Z" fill="white"/>
</svg>
