<svg width="504" height="51" viewBox="0 0 504 51" fill="none" xmlns="http://www.w3.org/2000/svg">
<path d="M22.68 8.39C11.845 8.39 3.1 17.19 3.1 28.025C3.1 38.86 11.845 47.605 22.68 47.605C33.515 47.605 42.315 38.86 42.315 28.025C42.315 17.19 33.515 8.39 22.68 8.39ZM35.88 41.225C28.95 48.155 17.455 47.88 10.14 40.565C2.825 33.25 2.55 21.755 9.48 14.825C16.41 7.895 27.96 8.17 35.22 15.485C42.535 22.745 42.81 34.295 35.88 41.225ZM58.4248 23.625C57.8198 23.625 57.2148 23.68 56.5548 23.735V9.765H65.0798C65.3548 9.545 65.6298 9.27 65.9048 8.995H54.7398V47.055C55.8948 47.44 57.1598 47.605 58.4248 47.605C65.0798 47.605 70.4698 42.27 70.4698 35.615C70.4698 28.96 65.0798 23.625 58.4248 23.625ZM58.4248 46.725C57.8198 46.725 57.1598 46.615 56.5548 46.505V24.725C57.1598 24.615 57.8198 24.505 58.4248 24.505C64.0348 24.505 68.5998 29.51 68.5998 35.615C68.5998 41.72 64.0348 46.725 58.4248 46.725ZM103.478 8.995H101.608V47.055H103.478V8.995ZM86.593 23.625C85.988 23.625 85.383 23.625 84.723 23.735V8.995H82.908V47.055C84.063 47.44 85.328 47.605 86.593 47.605C93.248 47.605 98.638 42.27 98.638 35.615C98.638 28.96 93.248 23.625 86.593 23.625ZM86.593 46.725C85.988 46.725 85.328 46.615 84.723 46.505V24.725C85.328 24.615 85.988 24.505 86.593 24.505C92.203 24.505 96.768 29.51 96.768 35.615C96.768 41.72 92.203 46.725 86.593 46.725ZM129.715 8.995V28.41C128.615 30.39 126.58 31.71 124.215 31.71C120.64 31.71 117.725 28.63 117.725 24.78V8.995H115.91V24.78C115.91 29.125 119.43 32.645 123.775 32.645C126.14 32.645 128.285 31.6 129.715 29.895V47.055H131.585V8.995H129.715ZM155.3 8.39C154.805 8.995 154.365 9.6 153.87 10.205C150.57 22.47 147.27 34.735 144.025 47.055H144.96C146.225 42.325 147.49 37.65 148.755 32.975H159.975C161.24 37.65 162.505 42.325 163.715 47.055H165.64C162.23 34.185 158.765 21.26 155.3 8.39ZM148.975 32.04L154.365 12.02L159.7 32.04H148.975ZM192.732 8.995L191.852 11.25L186.792 24.395L179.862 42.215V8.995H178.047V47.055H179.037L179.862 44.8L191.852 13.835V47.055H193.722V8.995H192.732ZM243.698 8.995L242.818 11.25L237.758 24.395L230.828 42.215V8.995H229.013V47.055H230.003L230.828 44.8L242.818 13.835V47.055H244.688V8.995H243.698ZM281.793 47.055V9.93H293.783V47.055H295.653V8.995C290.428 8.995 285.203 8.995 279.978 8.995V47.055H281.793ZM327.672 8.39C316.837 8.39 308.092 17.19 308.092 28.025C308.092 38.86 316.837 47.605 327.672 47.605C338.507 47.605 347.307 38.86 347.307 28.025C347.307 17.19 338.507 8.39 327.672 8.39ZM340.872 41.225C333.942 48.155 322.447 47.88 315.132 40.565C307.817 33.25 307.542 21.755 314.472 14.825C321.402 7.895 332.952 8.17 340.212 15.485C347.527 22.745 347.802 34.295 340.872 41.225ZM375.462 20.435C375.462 13.78 370.072 8.39 363.417 8.39C362.152 8.39 360.887 8.61 359.732 8.995V47.055H361.547V32.26C362.207 32.37 362.812 32.425 363.417 32.425C370.072 32.425 375.462 27.035 375.462 20.435ZM373.592 20.435C373.592 26.54 369.027 31.49 363.417 31.49C362.812 31.49 362.152 31.435 361.547 31.325V9.545C362.152 9.38 362.812 9.325 363.417 9.325C369.027 9.325 373.592 14.33 373.592 20.435ZM401.153 8.39C394.498 8.39 389.108 13.78 389.108 20.435C389.108 25.44 392.188 29.785 396.643 31.545L385.698 47.055H387.513L398.128 32.04C399.063 32.315 400.108 32.425 401.153 32.425C401.758 32.425 402.363 32.37 402.968 32.26V47.055H404.838V8.995C403.683 8.61 402.418 8.39 401.153 8.39ZM401.153 31.49C395.543 31.49 390.978 26.54 390.978 20.435C390.978 14.33 395.543 9.325 401.153 9.325C401.758 9.325 402.363 9.38 402.968 9.545V31.325C402.363 31.435 401.758 31.49 401.153 31.49ZM441.285 46.12C437.93 33.525 434.52 20.985 431.165 8.39C430.67 8.995 430.23 9.6 429.735 10.205C426.545 22.14 423.3 34.13 420.11 46.12H418.02C417.745 46.45 417.47 46.725 417.25 47.055H443.155C443.43 46.725 443.705 46.45 443.98 46.12H441.285ZM421.045 46.12C424.125 34.735 427.15 23.35 430.23 12.02C433.255 23.35 436.28 34.735 439.36 46.12H421.045ZM458.739 24.01L470.454 8.995H469.244L458.244 23.075V8.995H456.429V47.055H458.244V26.87L469.959 47.055H472.104L458.739 24.01ZM499.228 8.995L498.348 11.25L493.288 24.395L486.358 42.215V8.995H484.543V47.055H485.533L486.358 44.8L498.348 13.835V47.055H500.218V8.995H499.228Z" fill="white"/>
<path d="M35.88 41.225L38.0013 43.3463L35.88 41.225ZM10.14 40.565L8.01868 42.6863L10.14 40.565ZM9.48 14.825L7.35868 12.7037L7.35868 12.7037L9.48 14.825ZM35.22 15.485L33.0907 17.5983L33.0987 17.6063L33.1067 17.6143L35.22 15.485ZM22.68 5.39C10.1772 5.39 0.1 15.5441 0.1 28.025H6.1C6.1 18.8359 13.5128 11.39 22.68 11.39V5.39ZM0.1 28.025C0.1 40.5169 10.1881 50.605 22.68 50.605V44.605C13.5019 44.605 6.1 37.2031 6.1 28.025H0.1ZM22.68 50.605C35.1609 50.605 45.315 40.5278 45.315 28.025H39.315C39.315 37.1922 31.8691 44.605 22.68 44.605V50.605ZM45.315 28.025C45.315 15.5331 35.1719 5.39 22.68 5.39V11.39C31.8581 11.39 39.315 18.8469 39.315 28.025H45.315ZM33.7587 39.1037C28.0994 44.763 18.5064 44.6888 12.2613 38.4437L8.01868 42.6863C16.4036 51.0712 29.8006 51.547 38.0013 43.3463L33.7587 39.1037ZM12.2613 38.4437C6.01622 32.1986 5.94204 22.6056 11.6013 16.9463L7.35868 12.7037C-0.842044 20.9044 -0.366221 34.3014 8.01868 42.6863L12.2613 38.4437ZM11.6013 16.9463C17.2648 11.2828 26.9073 11.3681 33.0907 17.5983L37.3493 13.3717C29.0127 4.97189 15.5552 4.50716 7.35868 12.7037L11.6013 16.9463ZM33.1067 17.6143C39.3369 23.7977 39.4222 33.4402 33.7587 39.1037L38.0013 43.3463C46.1978 35.1498 45.7331 21.6923 37.3333 13.3557L33.1067 17.6143ZM56.5548 23.735H53.5548V26.9954L56.804 26.7246L56.5548 23.735ZM56.5548 9.765V6.765H53.5548V9.765H56.5548ZM65.0798 9.765V12.765H66.1322L66.9539 12.1076L65.0798 9.765ZM65.9048 8.995L68.0262 11.1163L73.1475 5.995H65.9048V8.995ZM54.7398 8.995V5.995H51.7398V8.995H54.7398ZM54.7398 47.055H51.7398V49.2173L53.7912 49.9011L54.7398 47.055ZM56.5548 46.505H53.5548V49.0087L56.0182 49.4566L56.5548 46.505ZM56.5548 24.725L56.0182 21.7734L53.5548 22.2213V24.725H56.5548ZM58.4248 20.625C57.6667 20.625 56.9189 20.6943 56.3057 20.7454L56.804 26.7246C57.5108 26.6657 57.973 26.625 58.4248 26.625V20.625ZM59.5548 23.735V9.765H53.5548V23.735H59.5548ZM56.5548 12.765H65.0798V6.765H56.5548V12.765ZM66.9539 12.1076C67.3833 11.7641 67.7795 11.3629 68.0262 11.1163L63.7835 6.87368C63.4801 7.17706 63.3264 7.32592 63.2058 7.42239L66.9539 12.1076ZM65.9048 5.995H54.7398V11.995H65.9048V5.995ZM51.7398 8.995V47.055H57.7398V8.995H51.7398ZM53.7912 49.9011C55.3154 50.4091 56.9118 50.605 58.4248 50.605V44.605C57.4079 44.605 56.4742 44.4709 55.6885 44.209L53.7912 49.9011ZM58.4248 50.605C66.7188 50.605 73.4698 43.9447 73.4698 35.615H67.4698C67.4698 40.5953 63.4409 44.605 58.4248 44.605V50.605ZM73.4698 35.615C73.4698 27.2853 66.7188 20.625 58.4248 20.625V26.625C63.4409 26.625 67.4698 30.6347 67.4698 35.615H73.4698ZM58.4248 43.725C58.1243 43.725 57.7112 43.6661 57.0915 43.5534L56.0182 49.4566C56.6085 49.5639 57.5154 49.725 58.4248 49.725V43.725ZM59.5548 46.505V24.725H53.5548V46.505H59.5548ZM57.0915 27.6766C57.7112 27.5639 58.1243 27.505 58.4248 27.505V21.505C57.5154 21.505 56.6085 21.6661 56.0182 21.7734L57.0915 27.6766ZM58.4248 27.505C62.1318 27.505 65.5998 30.9094 65.5998 35.615H71.5998C71.5998 28.1106 65.9379 21.505 58.4248 21.505V27.505ZM65.5998 35.615C65.5998 40.3206 62.1318 43.725 58.4248 43.725V49.725C65.9379 49.725 71.5998 43.1194 71.5998 35.615H65.5998ZM103.478 8.995H106.478V5.995H103.478V8.995ZM101.608 8.995V5.995H98.608V8.995H101.608ZM101.608 47.055H98.608V50.055H101.608V47.055ZM103.478 47.055V50.055H106.478V47.055H103.478ZM84.723 23.735H81.723V27.2764L85.2162 26.6942L84.723 23.735ZM84.723 8.995H87.723V5.995H84.723V8.995ZM82.908 8.995V5.995H79.908V8.995H82.908ZM82.908 47.055H79.908V49.2173L81.9593 49.9011L82.908 47.055ZM84.723 46.505H81.723V49.0087L84.1863 49.4566L84.723 46.505ZM84.723 24.725L84.1864 21.7734L81.723 22.2213V24.725H84.723ZM103.478 5.995H101.608V11.995H103.478V5.995ZM98.608 8.995V47.055H104.608V8.995H98.608ZM101.608 50.055H103.478V44.055H101.608V50.055ZM106.478 47.055V8.995H100.478V47.055H106.478ZM86.593 20.625C86.0112 20.625 85.169 20.6193 84.2298 20.7758L85.2162 26.6942C85.597 26.6307 85.9648 26.625 86.593 26.625V20.625ZM87.723 23.735V8.995H81.723V23.735H87.723ZM84.723 5.995H82.908V11.995H84.723V5.995ZM79.908 8.995V47.055H85.908V8.995H79.908ZM81.9593 49.9011C83.4836 50.4091 85.0799 50.605 86.593 50.605V44.605C85.5761 44.605 84.6424 44.4709 83.8567 44.209L81.9593 49.9011ZM86.593 50.605C94.8869 50.605 101.638 43.9447 101.638 35.615H95.638C95.638 40.5953 91.6091 44.605 86.593 44.605V50.605ZM101.638 35.615C101.638 27.2853 94.8869 20.625 86.593 20.625V26.625C91.6091 26.625 95.638 30.6347 95.638 35.615H101.638ZM86.593 43.725C86.2925 43.725 85.8794 43.6661 85.2597 43.5534L84.1863 49.4566C84.7766 49.5639 85.6836 49.725 86.593 49.725V43.725ZM87.723 46.505V24.725H81.723V46.505H87.723ZM85.2597 27.6766C85.8794 27.5639 86.2925 27.505 86.593 27.505V21.505C85.6836 21.505 84.7766 21.6661 84.1864 21.7734L85.2597 27.6766ZM86.593 27.505C90.2999 27.505 93.768 30.9094 93.768 35.615H99.768C99.768 28.1106 94.1061 21.505 86.593 21.505V27.505ZM93.768 35.615C93.768 40.3206 90.2999 43.725 86.593 43.725V49.725C94.1061 49.725 99.768 43.1194 99.768 35.615H93.768ZM129.715 8.995V5.995H126.715V8.995H129.715ZM129.715 28.41L132.338 29.8669L132.715 29.1874V28.41H129.715ZM117.725 8.995H120.725V5.995H117.725V8.995ZM115.91 8.995V5.995H112.91V8.995H115.91ZM129.715 29.895H132.715V21.6496L127.417 27.9672L129.715 29.895ZM129.715 47.055H126.715V50.055H129.715V47.055ZM131.585 47.055V50.055H134.585V47.055H131.585ZM131.585 8.995H134.585V5.995H131.585V8.995ZM126.715 8.995V28.41H132.715V8.995H126.715ZM127.093 26.9531C126.48 28.0555 125.408 28.71 124.215 28.71V34.71C127.753 34.71 130.75 32.7245 132.338 29.8669L127.093 26.9531ZM124.215 28.71C122.47 28.71 120.725 27.1521 120.725 24.78H114.725C114.725 30.1079 118.81 34.71 124.215 34.71V28.71ZM120.725 24.78V8.995H114.725V24.78H120.725ZM117.725 5.995H115.91V11.995H117.725V5.995ZM112.91 8.995V24.78H118.91V8.995H112.91ZM112.91 24.78C112.91 30.7819 117.773 35.645 123.775 35.645V29.645C121.087 29.645 118.91 27.4681 118.91 24.78H112.91ZM123.775 35.645C127.038 35.645 130.021 34.1993 132.014 31.8228L127.417 27.9672C126.55 29.0007 125.243 29.645 123.775 29.645V35.645ZM126.715 29.895V47.055H132.715V29.895H126.715ZM129.715 50.055H131.585V44.055H129.715V50.055ZM134.585 47.055V8.995H128.585V47.055H134.585ZM131.585 5.995H129.715V11.995H131.585V5.995ZM155.3 8.39L158.196 7.61008L156.678 1.96833L152.978 6.49028L155.3 8.39ZM153.87 10.205L151.548 8.30528L151.14 8.80369L150.973 9.42554L153.87 10.205ZM144.025 47.055L141.124 46.2909L140.132 50.055H144.025V47.055ZM144.96 47.055V50.055H147.263L147.858 47.8301L144.96 47.055ZM148.755 32.975V29.975H146.458L145.859 32.1914L148.755 32.975ZM159.975 32.975L162.87 32.1914L162.271 29.975H159.975V32.975ZM163.715 47.055L160.808 47.7985L161.385 50.055H163.715V47.055ZM165.64 47.055V50.055H169.538L168.54 46.2866L165.64 47.055ZM148.975 32.04L146.078 31.2601L145.06 35.04H148.975V32.04ZM154.365 12.02L157.263 11.2475L154.379 0.425161L151.468 11.2401L154.365 12.02ZM159.7 32.04V35.04H163.604L162.598 31.2675L159.7 32.04ZM152.978 6.49028C152.7 6.83031 152.441 7.16562 152.211 7.46316C151.973 7.77062 151.765 8.04032 151.548 8.30528L156.191 12.1047C156.47 11.7647 156.729 11.4294 156.958 11.1318C157.196 10.8244 157.405 10.5547 157.621 10.2897L152.978 6.49028ZM150.973 9.42554C147.673 21.6893 144.371 33.9619 141.124 46.2909L146.926 47.8191C150.168 35.5081 153.466 23.2507 156.767 10.9845L150.973 9.42554ZM144.025 50.055H144.96V44.055H144.025V50.055ZM147.858 47.8301C149.121 43.105 150.385 38.4343 151.65 33.7586L145.859 32.1914C144.594 36.8657 143.328 41.545 142.061 46.2799L147.858 47.8301ZM148.755 35.975H159.975V29.975H148.755V35.975ZM157.079 33.7586C158.345 38.4368 159.604 43.0919 160.808 47.7985L166.621 46.3115C165.405 41.5581 164.135 36.8632 162.87 32.1914L157.079 33.7586ZM163.715 50.055H165.64V44.055H163.715V50.055ZM168.54 46.2866C165.128 33.4112 161.662 20.4819 158.196 7.61008L152.403 9.16992C155.867 22.0381 159.331 34.9588 162.74 47.8234L168.54 46.2866ZM151.871 32.8199L157.261 12.7999L151.468 11.2401L146.078 31.2601L151.871 32.8199ZM151.466 12.7925L156.801 32.8125L162.598 31.2675L157.263 11.2475L151.466 12.7925ZM159.7 29.04H148.975V35.04H159.7V29.04ZM192.732 8.995V5.995H190.683L189.938 7.90437L192.732 8.995ZM191.852 11.25L189.058 10.1594L189.053 10.1723L191.852 11.25ZM186.792 24.395L189.588 25.4823L189.592 25.4727L186.792 24.395ZM179.862 42.215H176.862L182.658 43.3023L179.862 42.215ZM179.862 8.995H182.862V5.995H179.862V8.995ZM178.047 8.995V5.995H175.047V8.995H178.047ZM178.047 47.055H175.047V50.055H178.047V47.055ZM179.037 47.055V50.055H181.134L181.855 48.0857L179.037 47.055ZM179.862 44.8L177.065 43.7167L177.055 43.7429L177.045 43.7693L179.862 44.8ZM191.852 13.835H194.852L189.055 12.7517L191.852 13.835ZM191.852 47.055H188.852V50.055H191.852V47.055ZM193.722 47.055V50.055H196.722V47.055H193.722ZM193.722 8.995H196.722V5.995H193.722V8.995ZM189.938 7.90437L189.058 10.1594L194.647 12.3406L195.527 10.0856L189.938 7.90437ZM189.053 10.1723L183.993 23.3173L189.592 25.4727L194.652 12.3277L189.053 10.1723ZM183.996 23.3077L177.066 41.1277L182.658 43.3023L189.588 25.4823L183.996 23.3077ZM182.862 42.215V8.995H176.862V42.215H182.862ZM179.862 5.995H178.047V11.995H179.862V5.995ZM175.047 8.995V47.055H181.047V8.995H175.047ZM178.047 50.055H179.037V44.055H178.047V50.055ZM181.855 48.0857L182.68 45.8307L177.045 43.7693L176.22 46.0243L181.855 48.0857ZM182.66 45.8833L194.65 14.9183L189.055 12.7517L177.065 43.7167L182.66 45.8833ZM188.852 13.835V47.055H194.852V13.835H188.852ZM191.852 50.055H193.722V44.055H191.852V50.055ZM196.722 47.055V8.995H190.722V47.055H196.722ZM193.722 5.995H192.732V11.995H193.722V5.995ZM243.698 8.995V5.995H241.648L240.903 7.90437L243.698 8.995ZM242.818 11.25L240.023 10.1594L240.018 10.1723L242.818 11.25ZM237.758 24.395L240.554 25.4823L240.557 25.4727L237.758 24.395ZM230.827 42.215H227.827L233.624 43.3023L230.827 42.215ZM230.827 8.995H233.827V5.995H230.827V8.995ZM229.013 8.995V5.995H226.013V8.995H229.013ZM229.013 47.055H226.013V50.055H229.013V47.055ZM230.003 47.055V50.055H232.099L232.82 48.0857L230.003 47.055ZM230.827 44.8L228.03 43.7167L228.02 43.7429L228.01 43.7693L230.827 44.8ZM242.818 13.835H245.818L240.02 12.7517L242.818 13.835ZM242.818 47.055H239.818V50.055H242.818V47.055ZM244.688 47.055V50.055H247.688V47.055H244.688ZM244.688 8.995H247.688V5.995H244.688V8.995ZM240.903 7.90437L240.023 10.1594L245.612 12.3406L246.492 10.0856L240.903 7.90437ZM240.018 10.1723L234.958 23.3173L240.557 25.4727L245.617 12.3277L240.018 10.1723ZM234.961 23.3077L228.031 41.1277L233.624 43.3023L240.554 25.4823L234.961 23.3077ZM233.827 42.215V8.995H227.827V42.215H233.827ZM230.827 5.995H229.013V11.995H230.827V5.995ZM226.013 8.995V47.055H232.013V8.995H226.013ZM229.013 50.055H230.003V44.055H229.013V50.055ZM232.82 48.0857L233.645 45.8307L228.01 43.7693L227.185 46.0243L232.82 48.0857ZM233.625 45.8833L245.615 14.9183L240.02 12.7517L228.03 43.7167L233.625 45.8833ZM239.818 13.835V47.055H245.818V13.835H239.818ZM242.818 50.055H244.688V44.055H242.818V50.055ZM247.688 47.055V8.995H241.688V47.055H247.688ZM244.688 5.995H243.698V11.995H244.688V5.995ZM281.793 47.055V50.055H284.793V47.055H281.793ZM281.793 9.93V6.93H278.793V9.93H281.793ZM293.783 9.93H296.783V6.93H293.783V9.93ZM293.783 47.055H290.783V50.055H293.783V47.055ZM295.653 47.055V50.055H298.653V47.055H295.653ZM295.653 8.995H298.653V5.995H295.653V8.995ZM279.978 8.995V5.995H276.978V8.995H279.978ZM279.978 47.055H276.978V50.055H279.978V47.055ZM284.793 47.055V9.93H278.793V47.055H284.793ZM281.793 12.93H293.783V6.93H281.793V12.93ZM290.783 9.93V47.055H296.783V9.93H290.783ZM293.783 50.055H295.653V44.055H293.783V50.055ZM298.653 47.055V8.995H292.653V47.055H298.653ZM295.653 5.995C295.643 5.995 295.632 5.995 295.622 5.995C295.612 5.995 295.602 5.995 295.592 5.995C295.581 5.995 295.571 5.995 295.561 5.995C295.551 5.995 295.54 5.995 295.53 5.995C295.52 5.995 295.51 5.995 295.5 5.995C295.489 5.995 295.479 5.995 295.469 5.995C295.459 5.995 295.449 5.995 295.438 5.995C295.428 5.995 295.418 5.995 295.408 5.995C295.398 5.995 295.387 5.995 295.377 5.995C295.367 5.995 295.357 5.995 295.347 5.995C295.336 5.995 295.326 5.995 295.316 5.995C295.306 5.995 295.296 5.995 295.285 5.995C295.275 5.995 295.265 5.995 295.255 5.995C295.245 5.995 295.234 5.995 295.224 5.995C295.214 5.995 295.204 5.995 295.194 5.995C295.183 5.995 295.173 5.995 295.163 5.995C295.153 5.995 295.142 5.995 295.132 5.995C295.122 5.995 295.112 5.995 295.102 5.995C295.091 5.995 295.081 5.995 295.071 5.995C295.061 5.995 295.051 5.995 295.04 5.995C295.03 5.995 295.02 5.995 295.01 5.995C295 5.995 294.989 5.995 294.979 5.995C294.969 5.995 294.959 5.995 294.949 5.995C294.938 5.995 294.928 5.995 294.918 5.995C294.908 5.995 294.898 5.995 294.887 5.995C294.877 5.995 294.867 5.995 294.857 5.995C294.847 5.995 294.836 5.995 294.826 5.995C294.816 5.995 294.806 5.995 294.796 5.995C294.785 5.995 294.775 5.995 294.765 5.995C294.755 5.995 294.745 5.995 294.734 5.995C294.724 5.995 294.714 5.995 294.704 5.995C294.693 5.995 294.683 5.995 294.673 5.995C294.663 5.995 294.653 5.995 294.642 5.995C294.632 5.995 294.622 5.995 294.612 5.995C294.602 5.995 294.591 5.995 294.581 5.995C294.571 5.995 294.561 5.995 294.551 5.995C294.54 5.995 294.53 5.995 294.52 5.995C294.51 5.995 294.5 5.995 294.489 5.995C294.479 5.995 294.469 5.995 294.459 5.995C294.449 5.995 294.438 5.995 294.428 5.995C294.418 5.995 294.408 5.995 294.398 5.995C294.387 5.995 294.377 5.995 294.367 5.995C294.357 5.995 294.346 5.995 294.336 5.995C294.326 5.995 294.316 5.995 294.306 5.995C294.295 5.995 294.285 5.995 294.275 5.995C294.265 5.995 294.255 5.995 294.244 5.995C294.234 5.995 294.224 5.995 294.214 5.995C294.204 5.995 294.193 5.995 294.183 5.995C294.173 5.995 294.163 5.995 294.153 5.995C294.142 5.995 294.132 5.995 294.122 5.995C294.112 5.995 294.102 5.995 294.091 5.995C294.081 5.995 294.071 5.995 294.061 5.995C294.051 5.995 294.04 5.995 294.03 5.995C294.02 5.995 294.01 5.995 294 5.995C293.989 5.995 293.979 5.995 293.969 5.995C293.959 5.995 293.948 5.995 293.938 5.995C293.928 5.995 293.918 5.995 293.908 5.995C293.897 5.995 293.887 5.995 293.877 5.995C293.867 5.995 293.857 5.995 293.846 5.995C293.836 5.995 293.826 5.995 293.816 5.995C293.806 5.995 293.795 5.995 293.785 5.995C293.775 5.995 293.765 5.995 293.755 5.995C293.744 5.995 293.734 5.995 293.724 5.995C293.714 5.995 293.704 5.995 293.693 5.995C293.683 5.995 293.673 5.995 293.663 5.995C293.653 5.995 293.642 5.995 293.632 5.995C293.622 5.995 293.612 5.995 293.602 5.995C293.591 5.995 293.581 5.995 293.571 5.995C293.561 5.995 293.551 5.995 293.54 5.995C293.53 5.995 293.52 5.995 293.51 5.995C293.499 5.995 293.489 5.995 293.479 5.995C293.469 5.995 293.459 5.995 293.448 5.995C293.438 5.995 293.428 5.995 293.418 5.995C293.408 5.995 293.397 5.995 293.387 5.995C293.377 5.995 293.367 5.995 293.357 5.995C293.346 5.995 293.336 5.995 293.326 5.995C293.316 5.995 293.306 5.995 293.295 5.995C293.285 5.995 293.275 5.995 293.265 5.995C293.255 5.995 293.244 5.995 293.234 5.995C293.224 5.995 293.214 5.995 293.204 5.995C293.193 5.995 293.183 5.995 293.173 5.995C293.163 5.995 293.152 5.995 293.142 5.995C293.132 5.995 293.122 5.995 293.112 5.995C293.101 5.995 293.091 5.995 293.081 5.995C293.071 5.995 293.061 5.995 293.05 5.995C293.04 5.995 293.03 5.995 293.02 5.995C293.01 5.995 292.999 5.995 292.989 5.995C292.979 5.995 292.969 5.995 292.959 5.995C292.948 5.995 292.938 5.995 292.928 5.995C292.918 5.995 292.908 5.995 292.897 5.995C292.887 5.995 292.877 5.995 292.867 5.995C292.857 5.995 292.846 5.995 292.836 5.995C292.826 5.995 292.816 5.995 292.806 5.995C292.795 5.995 292.785 5.995 292.775 5.995C292.765 5.995 292.755 5.995 292.744 5.995C292.734 5.995 292.724 5.995 292.714 5.995C292.703 5.995 292.693 5.995 292.683 5.995C292.673 5.995 292.663 5.995 292.652 5.995C292.642 5.995 292.632 5.995 292.622 5.995C292.612 5.995 292.601 5.995 292.591 5.995C292.581 5.995 292.571 5.995 292.561 5.995C292.55 5.995 292.54 5.995 292.53 5.995C292.52 5.995 292.51 5.995 292.499 5.995C292.489 5.995 292.479 5.995 292.469 5.995C292.459 5.995 292.448 5.995 292.438 5.995C292.428 5.995 292.418 5.995 292.408 5.995C292.397 5.995 292.387 5.995 292.377 5.995C292.367 5.995 292.357 5.995 292.346 5.995C292.336 5.995 292.326 5.995 292.316 5.995C292.305 5.995 292.295 5.995 292.285 5.995C292.275 5.995 292.265 5.995 292.254 5.995C292.244 5.995 292.234 5.995 292.224 5.995C292.214 5.995 292.203 5.995 292.193 5.995C292.183 5.995 292.173 5.995 292.163 5.995C292.152 5.995 292.142 5.995 292.132 5.995C292.122 5.995 292.112 5.995 292.101 5.995C292.091 5.995 292.081 5.995 292.071 5.995C292.061 5.995 292.05 5.995 292.04 5.995C292.03 5.995 292.02 5.995 292.01 5.995C291.999 5.995 291.989 5.995 291.979 5.995C291.969 5.995 291.958 5.995 291.948 5.995C291.938 5.995 291.928 5.995 291.918 5.995C291.907 5.995 291.897 5.995 291.887 5.995C291.877 5.995 291.867 5.995 291.856 5.995C291.846 5.995 291.836 5.995 291.826 5.995C291.816 5.995 291.805 5.995 291.795 5.995C291.785 5.995 291.775 5.995 291.765 5.995C291.754 5.995 291.744 5.995 291.734 5.995C291.724 5.995 291.714 5.995 291.703 5.995C291.693 5.995 291.683 5.995 291.673 5.995C291.663 5.995 291.652 5.995 291.642 5.995C291.632 5.995 291.622 5.995 291.612 5.995C291.601 5.995 291.591 5.995 291.581 5.995C291.571 5.995 291.561 5.995 291.55 5.995C291.54 5.995 291.53 5.995 291.52 5.995C291.509 5.995 291.499 5.995 291.489 5.995C291.479 5.995 291.469 5.995 291.458 5.995C291.448 5.995 291.438 5.995 291.428 5.995C291.418 5.995 291.407 5.995 291.397 5.995C291.387 5.995 291.377 5.995 291.367 5.995C291.356 5.995 291.346 5.995 291.336 5.995C291.326 5.995 291.316 5.995 291.305 5.995C291.295 5.995 291.285 5.995 291.275 5.995C291.265 5.995 291.254 5.995 291.244 5.995C291.234 5.995 291.224 5.995 291.214 5.995C291.203 5.995 291.193 5.995 291.183 5.995C291.173 5.995 291.163 5.995 291.152 5.995C291.142 5.995 291.132 5.995 291.122 5.995C291.111 5.995 291.101 5.995 291.091 5.995C291.081 5.995 291.071 5.995 291.06 5.995C291.05 5.995 291.04 5.995 291.03 5.995C291.02 5.995 291.009 5.995 290.999 5.995C290.989 5.995 290.979 5.995 290.969 5.995C290.958 5.995 290.948 5.995 290.938 5.995C290.928 5.995 290.918 5.995 290.907 5.995C290.897 5.995 290.887 5.995 290.877 5.995C290.867 5.995 290.856 5.995 290.846 5.995C290.836 5.995 290.826 5.995 290.816 5.995C290.805 5.995 290.795 5.995 290.785 5.995C290.775 5.995 290.765 5.995 290.754 5.995C290.744 5.995 290.734 5.995 290.724 5.995C290.714 5.995 290.703 5.995 290.693 5.995C290.683 5.995 290.673 5.995 290.662 5.995C290.652 5.995 290.642 5.995 290.632 5.995C290.622 5.995 290.611 5.995 290.601 5.995C290.591 5.995 290.581 5.995 290.571 5.995C290.56 5.995 290.55 5.995 290.54 5.995C290.53 5.995 290.52 5.995 290.509 5.995C290.499 5.995 290.489 5.995 290.479 5.995C290.469 5.995 290.458 5.995 290.448 5.995C290.438 5.995 290.428 5.995 290.418 5.995C290.407 5.995 290.397 5.995 290.387 5.995C290.377 5.995 290.367 5.995 290.356 5.995C290.346 5.995 290.336 5.995 290.326 5.995C290.315 5.995 290.305 5.995 290.295 5.995C290.285 5.995 290.275 5.995 290.264 5.995C290.254 5.995 290.244 5.995 290.234 5.995C290.224 5.995 290.213 5.995 290.203 5.995C290.193 5.995 290.183 5.995 290.173 5.995C290.162 5.995 290.152 5.995 290.142 5.995C290.132 5.995 290.122 5.995 290.111 5.995C290.101 5.995 290.091 5.995 290.081 5.995C290.071 5.995 290.06 5.995 290.05 5.995C290.04 5.995 290.03 5.995 290.02 5.995C290.009 5.995 289.999 5.995 289.989 5.995C289.979 5.995 289.969 5.995 289.958 5.995C289.948 5.995 289.938 5.995 289.928 5.995C289.917 5.995 289.907 5.995 289.897 5.995C289.887 5.995 289.877 5.995 289.866 5.995C289.856 5.995 289.846 5.995 289.836 5.995C289.826 5.995 289.815 5.995 289.805 5.995C289.795 5.995 289.785 5.995 289.775 5.995C289.764 5.995 289.754 5.995 289.744 5.995C289.734 5.995 289.724 5.995 289.713 5.995C289.703 5.995 289.693 5.995 289.683 5.995C289.673 5.995 289.662 5.995 289.652 5.995C289.642 5.995 289.632 5.995 289.622 5.995C289.611 5.995 289.601 5.995 289.591 5.995C289.581 5.995 289.571 5.995 289.56 5.995C289.55 5.995 289.54 5.995 289.53 5.995C289.52 5.995 289.509 5.995 289.499 5.995C289.489 5.995 289.479 5.995 289.468 5.995C289.458 5.995 289.448 5.995 289.438 5.995C289.428 5.995 289.417 5.995 289.407 5.995C289.397 5.995 289.387 5.995 289.377 5.995C289.366 5.995 289.356 5.995 289.346 5.995C289.336 5.995 289.326 5.995 289.315 5.995C289.305 5.995 289.295 5.995 289.285 5.995C289.275 5.995 289.264 5.995 289.254 5.995C289.244 5.995 289.234 5.995 289.224 5.995C289.213 5.995 289.203 5.995 289.193 5.995C289.183 5.995 289.173 5.995 289.162 5.995C289.152 5.995 289.142 5.995 289.132 5.995C289.121 5.995 289.111 5.995 289.101 5.995C289.091 5.995 289.081 5.995 289.07 5.995C289.06 5.995 289.05 5.995 289.04 5.995C289.03 5.995 289.019 5.995 289.009 5.995C288.999 5.995 288.989 5.995 288.979 5.995C288.968 5.995 288.958 5.995 288.948 5.995C288.938 5.995 288.928 5.995 288.917 5.995C288.907 5.995 288.897 5.995 288.887 5.995C288.877 5.995 288.866 5.995 288.856 5.995C288.846 5.995 288.836 5.995 288.826 5.995C288.815 5.995 288.805 5.995 288.795 5.995C288.785 5.995 288.775 5.995 288.764 5.995C288.754 5.995 288.744 5.995 288.734 5.995C288.724 5.995 288.713 5.995 288.703 5.995C288.693 5.995 288.683 5.995 288.672 5.995C288.662 5.995 288.652 5.995 288.642 5.995C288.632 5.995 288.621 5.995 288.611 5.995C288.601 5.995 288.591 5.995 288.581 5.995C288.57 5.995 288.56 5.995 288.55 5.995C288.54 5.995 288.53 5.995 288.519 5.995C288.509 5.995 288.499 5.995 288.489 5.995C288.479 5.995 288.468 5.995 288.458 5.995C288.448 5.995 288.438 5.995 288.428 5.995C288.417 5.995 288.407 5.995 288.397 5.995C288.387 5.995 288.377 5.995 288.366 5.995C288.356 5.995 288.346 5.995 288.336 5.995C288.326 5.995 288.315 5.995 288.305 5.995C288.295 5.995 288.285 5.995 288.274 5.995C288.264 5.995 288.254 5.995 288.244 5.995C288.234 5.995 288.223 5.995 288.213 5.995C288.203 5.995 288.193 5.995 288.183 5.995C288.172 5.995 288.162 5.995 288.152 5.995C288.142 5.995 288.132 5.995 288.121 5.995C288.111 5.995 288.101 5.995 288.091 5.995C288.081 5.995 288.07 5.995 288.06 5.995C288.05 5.995 288.04 5.995 288.03 5.995C288.019 5.995 288.009 5.995 287.999 5.995C287.989 5.995 287.979 5.995 287.968 5.995C287.958 5.995 287.948 5.995 287.938 5.995C287.927 5.995 287.917 5.995 287.907 5.995C287.897 5.995 287.887 5.995 287.876 5.995C287.866 5.995 287.856 5.995 287.846 5.995C287.836 5.995 287.825 5.995 287.815 5.995C287.805 5.995 287.795 5.995 287.785 5.995C287.774 5.995 287.764 5.995 287.754 5.995C287.744 5.995 287.734 5.995 287.723 5.995C287.713 5.995 287.703 5.995 287.693 5.995C287.683 5.995 287.672 5.995 287.662 5.995C287.652 5.995 287.642 5.995 287.632 5.995C287.621 5.995 287.611 5.995 287.601 5.995C287.591 5.995 287.581 5.995 287.57 5.995C287.56 5.995 287.55 5.995 287.54 5.995C287.53 5.995 287.519 5.995 287.509 5.995C287.499 5.995 287.489 5.995 287.478 5.995C287.468 5.995 287.458 5.995 287.448 5.995C287.438 5.995 287.427 5.995 287.417 5.995C287.407 5.995 287.397 5.995 287.387 5.995C287.376 5.995 287.366 5.995 287.356 5.995C287.346 5.995 287.336 5.995 287.325 5.995C287.315 5.995 287.305 5.995 287.295 5.995C287.285 5.995 287.274 5.995 287.264 5.995C287.254 5.995 287.244 5.995 287.234 5.995C287.223 5.995 287.213 5.995 287.203 5.995C287.193 5.995 287.183 5.995 287.172 5.995C287.162 5.995 287.152 5.995 287.142 5.995C287.132 5.995 287.121 5.995 287.111 5.995C287.101 5.995 287.091 5.995 287.08 5.995C287.07 5.995 287.06 5.995 287.05 5.995C287.04 5.995 287.029 5.995 287.019 5.995C287.009 5.995 286.999 5.995 286.989 5.995C286.978 5.995 286.968 5.995 286.958 5.995C286.948 5.995 286.938 5.995 286.927 5.995C286.917 5.995 286.907 5.995 286.897 5.995C286.887 5.995 286.876 5.995 286.866 5.995C286.856 5.995 286.846 5.995 286.836 5.995C286.825 5.995 286.815 5.995 286.805 5.995C286.795 5.995 286.785 5.995 286.774 5.995C286.764 5.995 286.754 5.995 286.744 5.995C286.734 5.995 286.723 5.995 286.713 5.995C286.703 5.995 286.693 5.995 286.682 5.995C286.672 5.995 286.662 5.995 286.652 5.995C286.642 5.995 286.631 5.995 286.621 5.995C286.611 5.995 286.601 5.995 286.591 5.995C286.58 5.995 286.57 5.995 286.56 5.995C286.55 5.995 286.54 5.995 286.529 5.995C286.519 5.995 286.509 5.995 286.499 5.995C286.489 5.995 286.478 5.995 286.468 5.995C286.458 5.995 286.448 5.995 286.438 5.995C286.427 5.995 286.417 5.995 286.407 5.995C286.397 5.995 286.387 5.995 286.376 5.995C286.366 5.995 286.356 5.995 286.346 5.995C286.336 5.995 286.325 5.995 286.315 5.995C286.305 5.995 286.295 5.995 286.284 5.995C286.274 5.995 286.264 5.995 286.254 5.995C286.244 5.995 286.233 5.995 286.223 5.995C286.213 5.995 286.203 5.995 286.193 5.995C286.182 5.995 286.172 5.995 286.162 5.995C286.152 5.995 286.142 5.995 286.131 5.995C286.121 5.995 286.111 5.995 286.101 5.995C286.091 5.995 286.08 5.995 286.07 5.995C286.06 5.995 286.05 5.995 286.04 5.995C286.029 5.995 286.019 5.995 286.009 5.995C285.999 5.995 285.989 5.995 285.978 5.995C285.968 5.995 285.958 5.995 285.948 5.995C285.938 5.995 285.927 5.995 285.917 5.995C285.907 5.995 285.897 5.995 285.886 5.995C285.876 5.995 285.866 5.995 285.856 5.995C285.846 5.995 285.835 5.995 285.825 5.995C285.815 5.995 285.805 5.995 285.795 5.995C285.784 5.995 285.774 5.995 285.764 5.995C285.754 5.995 285.744 5.995 285.733 5.995C285.723 5.995 285.713 5.995 285.703 5.995C285.693 5.995 285.682 5.995 285.672 5.995C285.662 5.995 285.652 5.995 285.642 5.995C285.631 5.995 285.621 5.995 285.611 5.995C285.601 5.995 285.591 5.995 285.58 5.995C285.57 5.995 285.56 5.995 285.55 5.995C285.54 5.995 285.529 5.995 285.519 5.995C285.509 5.995 285.499 5.995 285.488 5.995C285.478 5.995 285.468 5.995 285.458 5.995C285.448 5.995 285.437 5.995 285.427 5.995C285.417 5.995 285.407 5.995 285.397 5.995C285.386 5.995 285.376 5.995 285.366 5.995C285.356 5.995 285.346 5.995 285.335 5.995C285.325 5.995 285.315 5.995 285.305 5.995C285.295 5.995 285.284 5.995 285.274 5.995C285.264 5.995 285.254 5.995 285.244 5.995C285.233 5.995 285.223 5.995 285.213 5.995C285.203 5.995 285.193 5.995 285.182 5.995C285.172 5.995 285.162 5.995 285.152 5.995C285.142 5.995 285.131 5.995 285.121 5.995C285.111 5.995 285.101 5.995 285.09 5.995C285.08 5.995 285.07 5.995 285.06 5.995C285.05 5.995 285.039 5.995 285.029 5.995C285.019 5.995 285.009 5.995 284.999 5.995C284.988 5.995 284.978 5.995 284.968 5.995C284.958 5.995 284.948 5.995 284.937 5.995C284.927 5.995 284.917 5.995 284.907 5.995C284.897 5.995 284.886 5.995 284.876 5.995C284.866 5.995 284.856 5.995 284.846 5.995C284.835 5.995 284.825 5.995 284.815 5.995C284.805 5.995 284.795 5.995 284.784 5.995C284.774 5.995 284.764 5.995 284.754 5.995C284.744 5.995 284.733 5.995 284.723 5.995C284.713 5.995 284.703 5.995 284.693 5.995C284.682 5.995 284.672 5.995 284.662 5.995C284.652 5.995 284.641 5.995 284.631 5.995C284.621 5.995 284.611 5.995 284.601 5.995C284.59 5.995 284.58 5.995 284.57 5.995C284.56 5.995 284.55 5.995 284.539 5.995C284.529 5.995 284.519 5.995 284.509 5.995C284.499 5.995 284.488 5.995 284.478 5.995C284.468 5.995 284.458 5.995 284.448 5.995C284.437 5.995 284.427 5.995 284.417 5.995C284.407 5.995 284.397 5.995 284.386 5.995C284.376 5.995 284.366 5.995 284.356 5.995C284.346 5.995 284.335 5.995 284.325 5.995C284.315 5.995 284.305 5.995 284.294 5.995C284.284 5.995 284.274 5.995 284.264 5.995C284.254 5.995 284.243 5.995 284.233 5.995C284.223 5.995 284.213 5.995 284.203 5.995C284.192 5.995 284.182 5.995 284.172 5.995C284.162 5.995 284.152 5.995 284.141 5.995C284.131 5.995 284.121 5.995 284.111 5.995C284.101 5.995 284.09 5.995 284.08 5.995C284.07 5.995 284.06 5.995 284.05 5.995C284.039 5.995 284.029 5.995 284.019 5.995C284.009 5.995 283.999 5.995 283.988 5.995C283.978 5.995 283.968 5.995 283.958 5.995C283.948 5.995 283.937 5.995 283.927 5.995C283.917 5.995 283.907 5.995 283.896 5.995C283.886 5.995 283.876 5.995 283.866 5.995C283.856 5.995 283.845 5.995 283.835 5.995C283.825 5.995 283.815 5.995 283.805 5.995C283.794 5.995 283.784 5.995 283.774 5.995C283.764 5.995 283.754 5.995 283.743 5.995C283.733 5.995 283.723 5.995 283.713 5.995C283.703 5.995 283.692 5.995 283.682 5.995C283.672 5.995 283.662 5.995 283.652 5.995C283.641 5.995 283.631 5.995 283.621 5.995C283.611 5.995 283.601 5.995 283.59 5.995C283.58 5.995 283.57 5.995 283.56 5.995C283.55 5.995 283.539 5.995 283.529 5.995C283.519 5.995 283.509 5.995 283.499 5.995C283.488 5.995 283.478 5.995 283.468 5.995C283.458 5.995 283.447 5.995 283.437 5.995C283.427 5.995 283.417 5.995 283.407 5.995C283.396 5.995 283.386 5.995 283.376 5.995C283.366 5.995 283.356 5.995 283.345 5.995C283.335 5.995 283.325 5.995 283.315 5.995C283.305 5.995 283.294 5.995 283.284 5.995C283.274 5.995 283.264 5.995 283.254 5.995C283.243 5.995 283.233 5.995 283.223 5.995C283.213 5.995 283.203 5.995 283.192 5.995C283.182 5.995 283.172 5.995 283.162 5.995C283.152 5.995 283.141 5.995 283.131 5.995C283.121 5.995 283.111 5.995 283.1 5.995C283.09 5.995 283.08 5.995 283.07 5.995C283.06 5.995 283.049 5.995 283.039 5.995C283.029 5.995 283.019 5.995 283.009 5.995C282.998 5.995 282.988 5.995 282.978 5.995C282.968 5.995 282.958 5.995 282.947 5.995C282.937 5.995 282.927 5.995 282.917 5.995C282.907 5.995 282.896 5.995 282.886 5.995C282.876 5.995 282.866 5.995 282.856 5.995C282.845 5.995 282.835 5.995 282.825 5.995C282.815 5.995 282.805 5.995 282.794 5.995C282.784 5.995 282.774 5.995 282.764 5.995C282.754 5.995 282.743 5.995 282.733 5.995C282.723 5.995 282.713 5.995 282.703 5.995C282.692 5.995 282.682 5.995 282.672 5.995C282.662 5.995 282.651 5.995 282.641 5.995C282.631 5.995 282.621 5.995 282.611 5.995C282.6 5.995 282.59 5.995 282.58 5.995C282.57 5.995 282.56 5.995 282.549 5.995C282.539 5.995 282.529 5.995 282.519 5.995C282.509 5.995 282.498 5.995 282.488 5.995C282.478 5.995 282.468 5.995 282.458 5.995C282.447 5.995 282.437 5.995 282.427 5.995C282.417 5.995 282.407 5.995 282.396 5.995C282.386 5.995 282.376 5.995 282.366 5.995C282.356 5.995 282.345 5.995 282.335 5.995C282.325 5.995 282.315 5.995 282.305 5.995C282.294 5.995 282.284 5.995 282.274 5.995C282.264 5.995 282.253 5.995 282.243 5.995C282.233 5.995 282.223 5.995 282.213 5.995C282.202 5.995 282.192 5.995 282.182 5.995C282.172 5.995 282.162 5.995 282.151 5.995C282.141 5.995 282.131 5.995 282.121 5.995C282.111 5.995 282.1 5.995 282.09 5.995C282.08 5.995 282.07 5.995 282.06 5.995C282.049 5.995 282.039 5.995 282.029 5.995C282.019 5.995 282.009 5.995 281.998 5.995C281.988 5.995 281.978 5.995 281.968 5.995C281.958 5.995 281.947 5.995 281.937 5.995C281.927 5.995 281.917 5.995 281.906 5.995C281.896 5.995 281.886 5.995 281.876 5.995C281.866 5.995 281.855 5.995 281.845 5.995C281.835 5.995 281.825 5.995 281.815 5.995C281.804 5.995 281.794 5.995 281.784 5.995C281.774 5.995 281.764 5.995 281.753 5.995C281.743 5.995 281.733 5.995 281.723 5.995C281.713 5.995 281.702 5.995 281.692 5.995C281.682 5.995 281.672 5.995 281.662 5.995C281.651 5.995 281.641 5.995 281.631 5.995C281.621 5.995 281.611 5.995 281.6 5.995C281.59 5.995 281.58 5.995 281.57 5.995C281.56 5.995 281.549 5.995 281.539 5.995C281.529 5.995 281.519 5.995 281.509 5.995C281.498 5.995 281.488 5.995 281.478 5.995C281.468 5.995 281.457 5.995 281.447 5.995C281.437 5.995 281.427 5.995 281.417 5.995C281.406 5.995 281.396 5.995 281.386 5.995C281.376 5.995 281.366 5.995 281.355 5.995C281.345 5.995 281.335 5.995 281.325 5.995C281.315 5.995 281.304 5.995 281.294 5.995C281.284 5.995 281.274 5.995 281.264 5.995C281.253 5.995 281.243 5.995 281.233 5.995C281.223 5.995 281.213 5.995 281.202 5.995C281.192 5.995 281.182 5.995 281.172 5.995C281.162 5.995 281.151 5.995 281.141 5.995C281.131 5.995 281.121 5.995 281.111 5.995C281.1 5.995 281.09 5.995 281.08 5.995C281.07 5.995 281.059 5.995 281.049 5.995C281.039 5.995 281.029 5.995 281.019 5.995C281.008 5.995 280.998 5.995 280.988 5.995C280.978 5.995 280.968 5.995 280.957 5.995C280.947 5.995 280.937 5.995 280.927 5.995C280.917 5.995 280.906 5.995 280.896 5.995C280.886 5.995 280.876 5.995 280.866 5.995C280.855 5.995 280.845 5.995 280.835 5.995C280.825 5.995 280.815 5.995 280.804 5.995C280.794 5.995 280.784 5.995 280.774 5.995C280.764 5.995 280.753 5.995 280.743 5.995C280.733 5.995 280.723 5.995 280.713 5.995C280.702 5.995 280.692 5.995 280.682 5.995C280.672 5.995 280.661 5.995 280.651 5.995C280.641 5.995 280.631 5.995 280.621 5.995C280.61 5.995 280.6 5.995 280.59 5.995C280.58 5.995 280.57 5.995 280.559 5.995C280.549 5.995 280.539 5.995 280.529 5.995C280.519 5.995 280.508 5.995 280.498 5.995C280.488 5.995 280.478 5.995 280.468 5.995C280.457 5.995 280.447 5.995 280.437 5.995C280.427 5.995 280.417 5.995 280.406 5.995C280.396 5.995 280.386 5.995 280.376 5.995C280.366 5.995 280.355 5.995 280.345 5.995C280.335 5.995 280.325 5.995 280.315 5.995C280.304 5.995 280.294 5.995 280.284 5.995C280.274 5.995 280.263 5.995 280.253 5.995C280.243 5.995 280.233 5.995 280.223 5.995C280.212 5.995 280.202 5.995 280.192 5.995C280.182 5.995 280.172 5.995 280.161 5.995C280.151 5.995 280.141 5.995 280.131 5.995C280.121 5.995 280.11 5.995 280.1 5.995C280.09 5.995 280.08 5.995 280.07 5.995C280.059 5.995 280.049 5.995 280.039 5.995C280.029 5.995 280.019 5.995 280.008 5.995C279.998 5.995 279.988 5.995 279.978 5.995V11.995C279.988 11.995 279.998 11.995 280.008 11.995C280.019 11.995 280.029 11.995 280.039 11.995C280.049 11.995 280.059 11.995 280.07 11.995C280.08 11.995 280.09 11.995 280.1 11.995C280.11 11.995 280.121 11.995 280.131 11.995C280.141 11.995 280.151 11.995 280.161 11.995C280.172 11.995 280.182 11.995 280.192 11.995C280.202 11.995 280.212 11.995 280.223 11.995C280.233 11.995 280.243 11.995 280.253 11.995C280.263 11.995 280.274 11.995 280.284 11.995C280.294 11.995 280.304 11.995 280.315 11.995C280.325 11.995 280.335 11.995 280.345 11.995C280.355 11.995 280.366 11.995 280.376 11.995C280.386 11.995 280.396 11.995 280.406 11.995C280.417 11.995 280.427 11.995 280.437 11.995C280.447 11.995 280.457 11.995 280.468 11.995C280.478 11.995 280.488 11.995 280.498 11.995C280.508 11.995 280.519 11.995 280.529 11.995C280.539 11.995 280.549 11.995 280.559 11.995C280.57 11.995 280.58 11.995 280.59 11.995C280.6 11.995 280.61 11.995 280.621 11.995C280.631 11.995 280.641 11.995 280.651 11.995C280.661 11.995 280.672 11.995 280.682 11.995C280.692 11.995 280.702 11.995 280.713 11.995C280.723 11.995 280.733 11.995 280.743 11.995C280.753 11.995 280.764 11.995 280.774 11.995C280.784 11.995 280.794 11.995 280.804 11.995C280.815 11.995 280.825 11.995 280.835 11.995C280.845 11.995 280.855 11.995 280.866 11.995C280.876 11.995 280.886 11.995 280.896 11.995C280.906 11.995 280.917 11.995 280.927 11.995C280.937 11.995 280.947 11.995 280.957 11.995C280.968 11.995 280.978 11.995 280.988 11.995C280.998 11.995 281.008 11.995 281.019 11.995C281.029 11.995 281.039 11.995 281.049 11.995C281.059 11.995 281.07 11.995 281.08 11.995C281.09 11.995 281.1 11.995 281.111 11.995C281.121 11.995 281.131 11.995 281.141 11.995C281.151 11.995 281.162 11.995 281.172 11.995C281.182 11.995 281.192 11.995 281.202 11.995C281.213 11.995 281.223 11.995 281.233 11.995C281.243 11.995 281.253 11.995 281.264 11.995C281.274 11.995 281.284 11.995 281.294 11.995C281.304 11.995 281.315 11.995 281.325 11.995C281.335 11.995 281.345 11.995 281.355 11.995C281.366 11.995 281.376 11.995 281.386 11.995C281.396 11.995 281.406 11.995 281.417 11.995C281.427 11.995 281.437 11.995 281.447 11.995C281.457 11.995 281.468 11.995 281.478 11.995C281.488 11.995 281.498 11.995 281.509 11.995C281.519 11.995 281.529 11.995 281.539 11.995C281.549 11.995 281.56 11.995 281.57 11.995C281.58 11.995 281.59 11.995 281.6 11.995C281.611 11.995 281.621 11.995 281.631 11.995C281.641 11.995 281.651 11.995 281.662 11.995C281.672 11.995 281.682 11.995 281.692 11.995C281.702 11.995 281.713 11.995 281.723 11.995C281.733 11.995 281.743 11.995 281.753 11.995C281.764 11.995 281.774 11.995 281.784 11.995C281.794 11.995 281.804 11.995 281.815 11.995C281.825 11.995 281.835 11.995 281.845 11.995C281.855 11.995 281.866 11.995 281.876 11.995C281.886 11.995 281.896 11.995 281.906 11.995C281.917 11.995 281.927 11.995 281.937 11.995C281.947 11.995 281.958 11.995 281.968 11.995C281.978 11.995 281.988 11.995 281.998 11.995C282.009 11.995 282.019 11.995 282.029 11.995C282.039 11.995 282.049 11.995 282.06 11.995C282.07 11.995 282.08 11.995 282.09 11.995C282.1 11.995 282.111 11.995 282.121 11.995C282.131 11.995 282.141 11.995 282.151 11.995C282.162 11.995 282.172 11.995 282.182 11.995C282.192 11.995 282.202 11.995 282.213 11.995C282.223 11.995 282.233 11.995 282.243 11.995C282.253 11.995 282.264 11.995 282.274 11.995C282.284 11.995 282.294 11.995 282.305 11.995C282.315 11.995 282.325 11.995 282.335 11.995C282.345 11.995 282.356 11.995 282.366 11.995C282.376 11.995 282.386 11.995 282.396 11.995C282.407 11.995 282.417 11.995 282.427 11.995C282.437 11.995 282.447 11.995 282.458 11.995C282.468 11.995 282.478 11.995 282.488 11.995C282.498 11.995 282.509 11.995 282.519 11.995C282.529 11.995 282.539 11.995 282.549 11.995C282.56 11.995 282.57 11.995 282.58 11.995C282.59 11.995 282.6 11.995 282.611 11.995C282.621 11.995 282.631 11.995 282.641 11.995C282.651 11.995 282.662 11.995 282.672 11.995C282.682 11.995 282.692 11.995 282.703 11.995C282.713 11.995 282.723 11.995 282.733 11.995C282.743 11.995 282.754 11.995 282.764 11.995C282.774 11.995 282.784 11.995 282.794 11.995C282.805 11.995 282.815 11.995 282.825 11.995C282.835 11.995 282.845 11.995 282.856 11.995C282.866 11.995 282.876 11.995 282.886 11.995C282.896 11.995 282.907 11.995 282.917 11.995C282.927 11.995 282.937 11.995 282.947 11.995C282.958 11.995 282.968 11.995 282.978 11.995C282.988 11.995 282.998 11.995 283.009 11.995C283.019 11.995 283.029 11.995 283.039 11.995C283.049 11.995 283.06 11.995 283.07 11.995C283.08 11.995 283.09 11.995 283.1 11.995C283.111 11.995 283.121 11.995 283.131 11.995C283.141 11.995 283.152 11.995 283.162 11.995C283.172 11.995 283.182 11.995 283.192 11.995C283.203 11.995 283.213 11.995 283.223 11.995C283.233 11.995 283.243 11.995 283.254 11.995C283.264 11.995 283.274 11.995 283.284 11.995C283.294 11.995 283.305 11.995 283.315 11.995C283.325 11.995 283.335 11.995 283.345 11.995C283.356 11.995 283.366 11.995 283.376 11.995C283.386 11.995 283.396 11.995 283.407 11.995C283.417 11.995 283.427 11.995 283.437 11.995C283.447 11.995 283.458 11.995 283.468 11.995C283.478 11.995 283.488 11.995 283.499 11.995C283.509 11.995 283.519 11.995 283.529 11.995C283.539 11.995 283.55 11.995 283.56 11.995C283.57 11.995 283.58 11.995 283.59 11.995C283.601 11.995 283.611 11.995 283.621 11.995C283.631 11.995 283.641 11.995 283.652 11.995C283.662 11.995 283.672 11.995 283.682 11.995C283.692 11.995 283.703 11.995 283.713 11.995C283.723 11.995 283.733 11.995 283.743 11.995C283.754 11.995 283.764 11.995 283.774 11.995C283.784 11.995 283.794 11.995 283.805 11.995C283.815 11.995 283.825 11.995 283.835 11.995C283.845 11.995 283.856 11.995 283.866 11.995C283.876 11.995 283.886 11.995 283.896 11.995C283.907 11.995 283.917 11.995 283.927 11.995C283.937 11.995 283.948 11.995 283.958 11.995C283.968 11.995 283.978 11.995 283.988 11.995C283.999 11.995 284.009 11.995 284.019 11.995C284.029 11.995 284.039 11.995 284.05 11.995C284.06 11.995 284.07 11.995 284.08 11.995C284.09 11.995 284.101 11.995 284.111 11.995C284.121 11.995 284.131 11.995 284.141 11.995C284.152 11.995 284.162 11.995 284.172 11.995C284.182 11.995 284.192 11.995 284.203 11.995C284.213 11.995 284.223 11.995 284.233 11.995C284.243 11.995 284.254 11.995 284.264 11.995C284.274 11.995 284.284 11.995 284.294 11.995C284.305 11.995 284.315 11.995 284.325 11.995C284.335 11.995 284.346 11.995 284.356 11.995C284.366 11.995 284.376 11.995 284.386 11.995C284.397 11.995 284.407 11.995 284.417 11.995C284.427 11.995 284.437 11.995 284.448 11.995C284.458 11.995 284.468 11.995 284.478 11.995C284.488 11.995 284.499 11.995 284.509 11.995C284.519 11.995 284.529 11.995 284.539 11.995C284.55 11.995 284.56 11.995 284.57 11.995C284.58 11.995 284.59 11.995 284.601 11.995C284.611 11.995 284.621 11.995 284.631 11.995C284.641 11.995 284.652 11.995 284.662 11.995C284.672 11.995 284.682 11.995 284.693 11.995C284.703 11.995 284.713 11.995 284.723 11.995C284.733 11.995 284.744 11.995 284.754 11.995C284.764 11.995 284.774 11.995 284.784 11.995C284.795 11.995 284.805 11.995 284.815 11.995C284.825 11.995 284.835 11.995 284.846 11.995C284.856 11.995 284.866 11.995 284.876 11.995C284.886 11.995 284.897 11.995 284.907 11.995C284.917 11.995 284.927 11.995 284.937 11.995C284.948 11.995 284.958 11.995 284.968 11.995C284.978 11.995 284.988 11.995 284.999 11.995C285.009 11.995 285.019 11.995 285.029 11.995C285.039 11.995 285.05 11.995 285.06 11.995C285.07 11.995 285.08 11.995 285.09 11.995C285.101 11.995 285.111 11.995 285.121 11.995C285.131 11.995 285.142 11.995 285.152 11.995C285.162 11.995 285.172 11.995 285.182 11.995C285.193 11.995 285.203 11.995 285.213 11.995C285.223 11.995 285.233 11.995 285.244 11.995C285.254 11.995 285.264 11.995 285.274 11.995C285.284 11.995 285.295 11.995 285.305 11.995C285.315 11.995 285.325 11.995 285.335 11.995C285.346 11.995 285.356 11.995 285.366 11.995C285.376 11.995 285.386 11.995 285.397 11.995C285.407 11.995 285.417 11.995 285.427 11.995C285.437 11.995 285.448 11.995 285.458 11.995C285.468 11.995 285.478 11.995 285.488 11.995C285.499 11.995 285.509 11.995 285.519 11.995C285.529 11.995 285.54 11.995 285.55 11.995C285.56 11.995 285.57 11.995 285.58 11.995C285.591 11.995 285.601 11.995 285.611 11.995C285.621 11.995 285.631 11.995 285.642 11.995C285.652 11.995 285.662 11.995 285.672 11.995C285.682 11.995 285.693 11.995 285.703 11.995C285.713 11.995 285.723 11.995 285.733 11.995C285.744 11.995 285.754 11.995 285.764 11.995C285.774 11.995 285.784 11.995 285.795 11.995C285.805 11.995 285.815 11.995 285.825 11.995C285.835 11.995 285.846 11.995 285.856 11.995C285.866 11.995 285.876 11.995 285.886 11.995C285.897 11.995 285.907 11.995 285.917 11.995C285.927 11.995 285.938 11.995 285.948 11.995C285.958 11.995 285.968 11.995 285.978 11.995C285.989 11.995 285.999 11.995 286.009 11.995C286.019 11.995 286.029 11.995 286.04 11.995C286.05 11.995 286.06 11.995 286.07 11.995C286.08 11.995 286.091 11.995 286.101 11.995C286.111 11.995 286.121 11.995 286.131 11.995C286.142 11.995 286.152 11.995 286.162 11.995C286.172 11.995 286.182 11.995 286.193 11.995C286.203 11.995 286.213 11.995 286.223 11.995C286.233 11.995 286.244 11.995 286.254 11.995C286.264 11.995 286.274 11.995 286.284 11.995C286.295 11.995 286.305 11.995 286.315 11.995C286.325 11.995 286.336 11.995 286.346 11.995C286.356 11.995 286.366 11.995 286.376 11.995C286.387 11.995 286.397 11.995 286.407 11.995C286.417 11.995 286.427 11.995 286.438 11.995C286.448 11.995 286.458 11.995 286.468 11.995C286.478 11.995 286.489 11.995 286.499 11.995C286.509 11.995 286.519 11.995 286.529 11.995C286.54 11.995 286.55 11.995 286.56 11.995C286.57 11.995 286.58 11.995 286.591 11.995C286.601 11.995 286.611 11.995 286.621 11.995C286.631 11.995 286.642 11.995 286.652 11.995C286.662 11.995 286.672 11.995 286.682 11.995C286.693 11.995 286.703 11.995 286.713 11.995C286.723 11.995 286.734 11.995 286.744 11.995C286.754 11.995 286.764 11.995 286.774 11.995C286.785 11.995 286.795 11.995 286.805 11.995C286.815 11.995 286.825 11.995 286.836 11.995C286.846 11.995 286.856 11.995 286.866 11.995C286.876 11.995 286.887 11.995 286.897 11.995C286.907 11.995 286.917 11.995 286.927 11.995C286.938 11.995 286.948 11.995 286.958 11.995C286.968 11.995 286.978 11.995 286.989 11.995C286.999 11.995 287.009 11.995 287.019 11.995C287.029 11.995 287.04 11.995 287.05 11.995C287.06 11.995 287.07 11.995 287.08 11.995C287.091 11.995 287.101 11.995 287.111 11.995C287.121 11.995 287.132 11.995 287.142 11.995C287.152 11.995 287.162 11.995 287.172 11.995C287.183 11.995 287.193 11.995 287.203 11.995C287.213 11.995 287.223 11.995 287.234 11.995C287.244 11.995 287.254 11.995 287.264 11.995C287.274 11.995 287.285 11.995 287.295 11.995C287.305 11.995 287.315 11.995 287.325 11.995C287.336 11.995 287.346 11.995 287.356 11.995C287.366 11.995 287.376 11.995 287.387 11.995C287.397 11.995 287.407 11.995 287.417 11.995C287.427 11.995 287.438 11.995 287.448 11.995C287.458 11.995 287.468 11.995 287.478 11.995C287.489 11.995 287.499 11.995 287.509 11.995C287.519 11.995 287.53 11.995 287.54 11.995C287.55 11.995 287.56 11.995 287.57 11.995C287.581 11.995 287.591 11.995 287.601 11.995C287.611 11.995 287.621 11.995 287.632 11.995C287.642 11.995 287.652 11.995 287.662 11.995C287.672 11.995 287.683 11.995 287.693 11.995C287.703 11.995 287.713 11.995 287.723 11.995C287.734 11.995 287.744 11.995 287.754 11.995C287.764 11.995 287.774 11.995 287.785 11.995C287.795 11.995 287.805 11.995 287.815 11.995C287.825 11.995 287.836 11.995 287.846 11.995C287.856 11.995 287.866 11.995 287.876 11.995C287.887 11.995 287.897 11.995 287.907 11.995C287.917 11.995 287.927 11.995 287.938 11.995C287.948 11.995 287.958 11.995 287.968 11.995C287.979 11.995 287.989 11.995 287.999 11.995C288.009 11.995 288.019 11.995 288.03 11.995C288.04 11.995 288.05 11.995 288.06 11.995C288.07 11.995 288.081 11.995 288.091 11.995C288.101 11.995 288.111 11.995 288.121 11.995C288.132 11.995 288.142 11.995 288.152 11.995C288.162 11.995 288.172 11.995 288.183 11.995C288.193 11.995 288.203 11.995 288.213 11.995C288.223 11.995 288.234 11.995 288.244 11.995C288.254 11.995 288.264 11.995 288.274 11.995C288.285 11.995 288.295 11.995 288.305 11.995C288.315 11.995 288.326 11.995 288.336 11.995C288.346 11.995 288.356 11.995 288.366 11.995C288.377 11.995 288.387 11.995 288.397 11.995C288.407 11.995 288.417 11.995 288.428 11.995C288.438 11.995 288.448 11.995 288.458 11.995C288.468 11.995 288.479 11.995 288.489 11.995C288.499 11.995 288.509 11.995 288.519 11.995C288.53 11.995 288.54 11.995 288.55 11.995C288.56 11.995 288.57 11.995 288.581 11.995C288.591 11.995 288.601 11.995 288.611 11.995C288.621 11.995 288.632 11.995 288.642 11.995C288.652 11.995 288.662 11.995 288.672 11.995C288.683 11.995 288.693 11.995 288.703 11.995C288.713 11.995 288.724 11.995 288.734 11.995C288.744 11.995 288.754 11.995 288.764 11.995C288.775 11.995 288.785 11.995 288.795 11.995C288.805 11.995 288.815 11.995 288.826 11.995C288.836 11.995 288.846 11.995 288.856 11.995C288.866 11.995 288.877 11.995 288.887 11.995C288.897 11.995 288.907 11.995 288.917 11.995C288.928 11.995 288.938 11.995 288.948 11.995C288.958 11.995 288.968 11.995 288.979 11.995C288.989 11.995 288.999 11.995 289.009 11.995C289.019 11.995 289.03 11.995 289.04 11.995C289.05 11.995 289.06 11.995 289.07 11.995C289.081 11.995 289.091 11.995 289.101 11.995C289.111 11.995 289.121 11.995 289.132 11.995C289.142 11.995 289.152 11.995 289.162 11.995C289.173 11.995 289.183 11.995 289.193 11.995C289.203 11.995 289.213 11.995 289.224 11.995C289.234 11.995 289.244 11.995 289.254 11.995C289.264 11.995 289.275 11.995 289.285 11.995C289.295 11.995 289.305 11.995 289.315 11.995C289.326 11.995 289.336 11.995 289.346 11.995C289.356 11.995 289.366 11.995 289.377 11.995C289.387 11.995 289.397 11.995 289.407 11.995C289.417 11.995 289.428 11.995 289.438 11.995C289.448 11.995 289.458 11.995 289.468 11.995C289.479 11.995 289.489 11.995 289.499 11.995C289.509 11.995 289.52 11.995 289.53 11.995C289.54 11.995 289.55 11.995 289.56 11.995C289.571 11.995 289.581 11.995 289.591 11.995C289.601 11.995 289.611 11.995 289.622 11.995C289.632 11.995 289.642 11.995 289.652 11.995C289.662 11.995 289.673 11.995 289.683 11.995C289.693 11.995 289.703 11.995 289.713 11.995C289.724 11.995 289.734 11.995 289.744 11.995C289.754 11.995 289.764 11.995 289.775 11.995C289.785 11.995 289.795 11.995 289.805 11.995C289.815 11.995 289.826 11.995 289.836 11.995C289.846 11.995 289.856 11.995 289.866 11.995C289.877 11.995 289.887 11.995 289.897 11.995C289.907 11.995 289.917 11.995 289.928 11.995C289.938 11.995 289.948 11.995 289.958 11.995C289.969 11.995 289.979 11.995 289.989 11.995C289.999 11.995 290.009 11.995 290.02 11.995C290.03 11.995 290.04 11.995 290.05 11.995C290.06 11.995 290.071 11.995 290.081 11.995C290.091 11.995 290.101 11.995 290.111 11.995C290.122 11.995 290.132 11.995 290.142 11.995C290.152 11.995 290.162 11.995 290.173 11.995C290.183 11.995 290.193 11.995 290.203 11.995C290.213 11.995 290.224 11.995 290.234 11.995C290.244 11.995 290.254 11.995 290.264 11.995C290.275 11.995 290.285 11.995 290.295 11.995C290.305 11.995 290.315 11.995 290.326 11.995C290.336 11.995 290.346 11.995 290.356 11.995C290.367 11.995 290.377 11.995 290.387 11.995C290.397 11.995 290.407 11.995 290.418 11.995C290.428 11.995 290.438 11.995 290.448 11.995C290.458 11.995 290.469 11.995 290.479 11.995C290.489 11.995 290.499 11.995 290.509 11.995C290.52 11.995 290.53 11.995 290.54 11.995C290.55 11.995 290.56 11.995 290.571 11.995C290.581 11.995 290.591 11.995 290.601 11.995C290.611 11.995 290.622 11.995 290.632 11.995C290.642 11.995 290.652 11.995 290.662 11.995C290.673 11.995 290.683 11.995 290.693 11.995C290.703 11.995 290.714 11.995 290.724 11.995C290.734 11.995 290.744 11.995 290.754 11.995C290.765 11.995 290.775 11.995 290.785 11.995C290.795 11.995 290.805 11.995 290.816 11.995C290.826 11.995 290.836 11.995 290.846 11.995C290.856 11.995 290.867 11.995 290.877 11.995C290.887 11.995 290.897 11.995 290.907 11.995C290.918 11.995 290.928 11.995 290.938 11.995C290.948 11.995 290.958 11.995 290.969 11.995C290.979 11.995 290.989 11.995 290.999 11.995C291.009 11.995 291.02 11.995 291.03 11.995C291.04 11.995 291.05 11.995 291.06 11.995C291.071 11.995 291.081 11.995 291.091 11.995C291.101 11.995 291.111 11.995 291.122 11.995C291.132 11.995 291.142 11.995 291.152 11.995C291.163 11.995 291.173 11.995 291.183 11.995C291.193 11.995 291.203 11.995 291.214 11.995C291.224 11.995 291.234 11.995 291.244 11.995C291.254 11.995 291.265 11.995 291.275 11.995C291.285 11.995 291.295 11.995 291.305 11.995C291.316 11.995 291.326 11.995 291.336 11.995C291.346 11.995 291.356 11.995 291.367 11.995C291.377 11.995 291.387 11.995 291.397 11.995C291.407 11.995 291.418 11.995 291.428 11.995C291.438 11.995 291.448 11.995 291.458 11.995C291.469 11.995 291.479 11.995 291.489 11.995C291.499 11.995 291.509 11.995 291.52 11.995C291.53 11.995 291.54 11.995 291.55 11.995C291.561 11.995 291.571 11.995 291.581 11.995C291.591 11.995 291.601 11.995 291.612 11.995C291.622 11.995 291.632 11.995 291.642 11.995C291.652 11.995 291.663 11.995 291.673 11.995C291.683 11.995 291.693 11.995 291.703 11.995C291.714 11.995 291.724 11.995 291.734 11.995C291.744 11.995 291.754 11.995 291.765 11.995C291.775 11.995 291.785 11.995 291.795 11.995C291.805 11.995 291.816 11.995 291.826 11.995C291.836 11.995 291.846 11.995 291.856 11.995C291.867 11.995 291.877 11.995 291.887 11.995C291.897 11.995 291.907 11.995 291.918 11.995C291.928 11.995 291.938 11.995 291.948 11.995C291.958 11.995 291.969 11.995 291.979 11.995C291.989 11.995 291.999 11.995 292.01 11.995C292.02 11.995 292.03 11.995 292.04 11.995C292.05 11.995 292.061 11.995 292.071 11.995C292.081 11.995 292.091 11.995 292.101 11.995C292.112 11.995 292.122 11.995 292.132 11.995C292.142 11.995 292.152 11.995 292.163 11.995C292.173 11.995 292.183 11.995 292.193 11.995C292.203 11.995 292.214 11.995 292.224 11.995C292.234 11.995 292.244 11.995 292.254 11.995C292.265 11.995 292.275 11.995 292.285 11.995C292.295 11.995 292.305 11.995 292.316 11.995C292.326 11.995 292.336 11.995 292.346 11.995C292.357 11.995 292.367 11.995 292.377 11.995C292.387 11.995 292.397 11.995 292.408 11.995C292.418 11.995 292.428 11.995 292.438 11.995C292.448 11.995 292.459 11.995 292.469 11.995C292.479 11.995 292.489 11.995 292.499 11.995C292.51 11.995 292.52 11.995 292.53 11.995C292.54 11.995 292.55 11.995 292.561 11.995C292.571 11.995 292.581 11.995 292.591 11.995C292.601 11.995 292.612 11.995 292.622 11.995C292.632 11.995 292.642 11.995 292.652 11.995C292.663 11.995 292.673 11.995 292.683 11.995C292.693 11.995 292.703 11.995 292.714 11.995C292.724 11.995 292.734 11.995 292.744 11.995C292.755 11.995 292.765 11.995 292.775 11.995C292.785 11.995 292.795 11.995 292.806 11.995C292.816 11.995 292.826 11.995 292.836 11.995C292.846 11.995 292.857 11.995 292.867 11.995C292.877 11.995 292.887 11.995 292.897 11.995C292.908 11.995 292.918 11.995 292.928 11.995C292.938 11.995 292.948 11.995 292.959 11.995C292.969 11.995 292.979 11.995 292.989 11.995C292.999 11.995 293.01 11.995 293.02 11.995C293.03 11.995 293.04 11.995 293.05 11.995C293.061 11.995 293.071 11.995 293.081 11.995C293.091 11.995 293.101 11.995 293.112 11.995C293.122 11.995 293.132 11.995 293.142 11.995C293.152 11.995 293.163 11.995 293.173 11.995C293.183 11.995 293.193 11.995 293.204 11.995C293.214 11.995 293.224 11.995 293.234 11.995C293.244 11.995 293.255 11.995 293.265 11.995C293.275 11.995 293.285 11.995 293.295 11.995C293.306 11.995 293.316 11.995 293.326 11.995C293.336 11.995 293.346 11.995 293.357 11.995C293.367 11.995 293.377 11.995 293.387 11.995C293.397 11.995 293.408 11.995 293.418 11.995C293.428 11.995 293.438 11.995 293.448 11.995C293.459 11.995 293.469 11.995 293.479 11.995C293.489 11.995 293.499 11.995 293.51 11.995C293.52 11.995 293.53 11.995 293.54 11.995C293.551 11.995 293.561 11.995 293.571 11.995C293.581 11.995 293.591 11.995 293.602 11.995C293.612 11.995 293.622 11.995 293.632 11.995C293.642 11.995 293.653 11.995 293.663 11.995C293.673 11.995 293.683 11.995 293.693 11.995C293.704 11.995 293.714 11.995 293.724 11.995C293.734 11.995 293.744 11.995 293.755 11.995C293.765 11.995 293.775 11.995 293.785 11.995C293.795 11.995 293.806 11.995 293.816 11.995C293.826 11.995 293.836 11.995 293.846 11.995C293.857 11.995 293.867 11.995 293.877 11.995C293.887 11.995 293.897 11.995 293.908 11.995C293.918 11.995 293.928 11.995 293.938 11.995C293.948 11.995 293.959 11.995 293.969 11.995C293.979 11.995 293.989 11.995 294 11.995C294.01 11.995 294.02 11.995 294.03 11.995C294.04 11.995 294.051 11.995 294.061 11.995C294.071 11.995 294.081 11.995 294.091 11.995C294.102 11.995 294.112 11.995 294.122 11.995C294.132 11.995 294.142 11.995 294.153 11.995C294.163 11.995 294.173 11.995 294.183 11.995C294.193 11.995 294.204 11.995 294.214 11.995C294.224 11.995 294.234 11.995 294.244 11.995C294.255 11.995 294.265 11.995 294.275 11.995C294.285 11.995 294.295 11.995 294.306 11.995C294.316 11.995 294.326 11.995 294.336 11.995C294.346 11.995 294.357 11.995 294.367 11.995C294.377 11.995 294.387 11.995 294.398 11.995C294.408 11.995 294.418 11.995 294.428 11.995C294.438 11.995 294.449 11.995 294.459 11.995C294.469 11.995 294.479 11.995 294.489 11.995C294.5 11.995 294.51 11.995 294.52 11.995C294.53 11.995 294.54 11.995 294.551 11.995C294.561 11.995 294.571 11.995 294.581 11.995C294.591 11.995 294.602 11.995 294.612 11.995C294.622 11.995 294.632 11.995 294.642 11.995C294.653 11.995 294.663 11.995 294.673 11.995C294.683 11.995 294.693 11.995 294.704 11.995C294.714 11.995 294.724 11.995 294.734 11.995C294.745 11.995 294.755 11.995 294.765 11.995C294.775 11.995 294.785 11.995 294.796 11.995C294.806 11.995 294.816 11.995 294.826 11.995C294.836 11.995 294.847 11.995 294.857 11.995C294.867 11.995 294.877 11.995 294.887 11.995C294.898 11.995 294.908 11.995 294.918 11.995C294.928 11.995 294.938 11.995 294.949 11.995C294.959 11.995 294.969 11.995 294.979 11.995C294.989 11.995 295 11.995 295.01 11.995C295.02 11.995 295.03 11.995 295.04 11.995C295.051 11.995 295.061 11.995 295.071 11.995C295.081 11.995 295.091 11.995 295.102 11.995C295.112 11.995 295.122 11.995 295.132 11.995C295.142 11.995 295.153 11.995 295.163 11.995C295.173 11.995 295.183 11.995 295.194 11.995C295.204 11.995 295.214 11.995 295.224 11.995C295.234 11.995 295.245 11.995 295.255 11.995C295.265 11.995 295.275 11.995 295.285 11.995C295.296 11.995 295.306 11.995 295.316 11.995C295.326 11.995 295.336 11.995 295.347 11.995C295.357 11.995 295.367 11.995 295.377 11.995C295.387 11.995 295.398 11.995 295.408 11.995C295.418 11.995 295.428 11.995 295.438 11.995C295.449 11.995 295.459 11.995 295.469 11.995C295.479 11.995 295.489 11.995 295.5 11.995C295.51 11.995 295.52 11.995 295.53 11.995C295.54 11.995 295.551 11.995 295.561 11.995C295.571 11.995 295.581 11.995 295.592 11.995C295.602 11.995 295.612 11.995 295.622 11.995C295.632 11.995 295.643 11.995 295.653 11.995V5.995ZM276.978 8.995V47.055H282.978V8.995H276.978ZM279.978 50.055H281.793V44.055H279.978V50.055ZM340.872 41.225L342.993 43.3463L340.872 41.225ZM315.132 40.565L313.011 42.6863L315.132 40.565ZM314.472 14.825L312.351 12.7037V12.7037L314.472 14.825ZM340.212 15.485L338.083 17.5983L338.091 17.6063L338.099 17.6143L340.212 15.485ZM327.672 5.39C315.169 5.39 305.092 15.5441 305.092 28.025H311.092C311.092 18.8359 318.505 11.39 327.672 11.39V5.39ZM305.092 28.025C305.092 40.5169 315.18 50.605 327.672 50.605V44.605C318.494 44.605 311.092 37.2031 311.092 28.025H305.092ZM327.672 50.605C340.153 50.605 350.307 40.5278 350.307 28.025H344.307C344.307 37.1922 336.861 44.605 327.672 44.605V50.605ZM350.307 28.025C350.307 15.5331 340.164 5.39 327.672 5.39V11.39C336.85 11.39 344.307 18.8469 344.307 28.025H350.307ZM338.751 39.1037C333.092 44.763 323.499 44.6888 317.254 38.4437L313.011 42.6863C321.396 51.0712 334.793 51.547 342.993 43.3463L338.751 39.1037ZM317.254 38.4437C311.008 32.1986 310.934 22.6056 316.594 16.9463L312.351 12.7037C304.15 20.9044 304.626 34.3014 313.011 42.6863L317.254 38.4437ZM316.594 16.9463C322.257 11.2828 331.9 11.3681 338.083 17.5983L342.341 13.3717C334.005 4.97189 320.547 4.50716 312.351 12.7037L316.594 16.9463ZM338.099 17.6143C344.329 23.7977 344.414 33.4402 338.751 39.1037L342.993 43.3463C351.19 35.1498 350.725 21.6923 342.326 13.3557L338.099 17.6143ZM359.732 8.995L358.783 6.14895L356.732 6.83272V8.995H359.732ZM359.732 47.055H356.732V50.055H359.732V47.055ZM361.547 47.055V50.055H364.547V47.055H361.547ZM361.547 32.26L362.04 29.3008L358.547 28.7186V32.26H361.547ZM361.547 31.325H358.547V33.8287L361.01 34.2766L361.547 31.325ZM361.547 9.545L360.758 6.6507L358.547 7.2536V9.545H361.547ZM378.462 20.435C378.462 12.1231 371.729 5.39 363.417 5.39V11.39C368.415 11.39 372.462 15.4369 372.462 20.435H378.462ZM363.417 5.39C361.812 5.39 360.228 5.66753 358.783 6.14895L360.681 11.841C361.546 11.5525 362.492 11.39 363.417 11.39V5.39ZM356.732 8.995V47.055H362.732V8.995H356.732ZM359.732 50.055H361.547V44.055H359.732V50.055ZM364.547 47.055V32.26H358.547V47.055H364.547ZM361.054 35.2192C361.852 35.3522 362.623 35.425 363.417 35.425V29.425C363.001 29.425 362.562 29.3878 362.04 29.3008L361.054 35.2192ZM363.417 35.425C371.72 35.425 378.462 28.7008 378.462 20.435H372.462C372.462 25.3692 368.424 29.425 363.417 29.425V35.425ZM370.592 20.435C370.592 25.1205 367.142 28.49 363.417 28.49V34.49C370.912 34.49 376.592 27.9595 376.592 20.435H370.592ZM363.417 28.49C362.979 28.49 362.499 28.4489 362.084 28.3734L361.01 34.2766C361.805 34.4211 362.645 34.49 363.417 34.49V28.49ZM364.547 31.325V9.545H358.547V31.325H364.547ZM362.336 12.4393C362.596 12.3684 362.969 12.325 363.417 12.325V6.325C362.655 6.325 361.708 6.39161 360.758 6.6507L362.336 12.4393ZM363.417 12.325C367.124 12.325 370.592 15.7294 370.592 20.435H376.592C376.592 12.9306 370.93 6.325 363.417 6.325V12.325ZM396.643 31.545L399.094 33.2747L401.294 30.1569L397.745 28.7548L396.643 31.545ZM385.698 47.055L383.247 45.3253L379.909 50.055H385.698V47.055ZM387.513 47.055V50.055H389.066L389.963 48.7868L387.513 47.055ZM398.128 32.04L398.975 29.1619L396.917 28.5566L395.678 30.3082L398.128 32.04ZM402.968 32.26H405.968V28.6654L402.431 29.3084L402.968 32.26ZM402.968 47.055H399.968V50.055H402.968V47.055ZM404.838 47.055V50.055H407.838V47.055H404.838ZM404.838 8.995H407.838V6.83272L405.787 6.14895L404.838 8.995ZM402.968 9.545H405.968V7.2536L403.757 6.6507L402.968 9.545ZM402.968 31.325L403.505 34.2766L405.968 33.8287V31.325H402.968ZM401.153 5.39C392.841 5.39 386.108 12.1231 386.108 20.435H392.108C392.108 15.4369 396.155 11.39 401.153 11.39V5.39ZM386.108 20.435C386.108 26.6933 389.961 32.1308 395.541 34.3352L397.745 28.7548C394.415 27.4392 392.108 24.1866 392.108 20.435H386.108ZM394.192 29.8153L383.247 45.3253L388.149 48.7847L399.094 33.2747L394.192 29.8153ZM385.698 50.055H387.513V44.055H385.698V50.055ZM389.963 48.7868L400.578 33.7718L395.678 30.3082L385.063 45.3232L389.963 48.7868ZM397.282 34.9181C398.57 35.2971 399.917 35.425 401.153 35.425V29.425C400.299 29.425 399.556 29.3329 398.975 29.1619L397.282 34.9181ZM401.153 35.425C401.941 35.425 402.726 35.3533 403.505 35.2116L402.431 29.3084C402.001 29.3867 401.575 29.425 401.153 29.425V35.425ZM399.968 32.26V47.055H405.968V32.26H399.968ZM402.968 50.055H404.838V44.055H402.968V50.055ZM407.838 47.055V8.995H401.838V47.055H407.838ZM405.787 6.14895C404.342 5.66753 402.758 5.39 401.153 5.39V11.39C402.079 11.39 403.024 11.5525 403.889 11.841L405.787 6.14895ZM401.153 28.49C397.428 28.49 393.978 25.1205 393.978 20.435H387.978C387.978 27.9595 393.658 34.49 401.153 34.49V28.49ZM393.978 20.435C393.978 15.7294 397.446 12.325 401.153 12.325V6.325C393.64 6.325 387.978 12.9306 387.978 20.435H393.978ZM401.153 12.325C401.578 12.325 401.903 12.3641 402.179 12.4393L403.757 6.6507C402.823 6.39592 401.938 6.325 401.153 6.325V12.325ZM399.968 9.545V31.325H405.968V9.545H399.968ZM402.431 28.3734C402.001 28.4517 401.575 28.49 401.153 28.49V34.49C401.941 34.49 402.726 34.4183 403.505 34.2766L402.431 28.3734ZM441.285 46.12L438.386 46.8922L438.98 49.12H441.285V46.12ZM431.165 8.39L434.064 7.6178L432.555 1.95347L428.843 6.49028L431.165 8.39ZM429.735 10.205L427.413 8.30528L427.004 8.8057L426.837 9.43035L429.735 10.205ZM420.11 46.12V49.12H422.416L423.009 46.8913L420.11 46.12ZM418.02 46.12V43.12H416.615L415.715 44.1994L418.02 46.12ZM417.25 47.055L414.754 45.3909L411.644 50.055H417.25V47.055ZM443.155 47.055V50.055H444.56L445.46 48.9756L443.155 47.055ZM443.98 46.12L446.285 48.0406L450.385 43.12H443.98V46.12ZM421.045 46.12L418.149 45.3366L417.126 49.12H421.045V46.12ZM430.23 12.02L433.128 11.2461L430.256 0.487786L427.335 11.233L430.23 12.02ZM439.36 46.12V49.12H443.279L442.256 45.3366L439.36 46.12ZM444.184 45.3478C442.505 39.0459 440.813 32.7584 439.122 26.4753C437.43 20.1909 435.74 13.9109 434.064 7.6178L428.266 9.1622C429.945 15.4641 431.637 21.7516 433.328 28.0347C435.02 34.3191 436.71 40.5991 438.386 46.8922L444.184 45.3478ZM428.843 6.49028C428.565 6.83031 428.306 7.16562 428.076 7.46316C427.839 7.77062 427.63 8.04031 427.413 8.30528L432.057 12.1047C432.335 11.7647 432.594 11.4294 432.824 11.1318C433.061 10.8244 433.27 10.5547 433.487 10.2897L428.843 6.49028ZM426.837 9.43035C423.651 21.3477 420.4 33.362 417.211 45.3487L423.009 46.8913C426.2 34.898 429.439 22.9323 432.633 10.9796L426.837 9.43035ZM420.11 43.12H418.02V49.12H420.11V43.12ZM415.715 44.1994C415.675 44.2481 415.086 44.8928 414.754 45.3909L419.746 48.7191C419.753 48.7084 419.782 48.667 419.885 48.5484C419.94 48.4848 419.988 48.43 420.069 48.338C420.142 48.255 420.231 48.153 420.325 48.0406L415.715 44.1994ZM417.25 50.055H443.155V44.055H417.25V50.055ZM445.46 48.9756C445.549 48.8678 445.644 48.763 445.787 48.6055C445.919 48.4605 446.099 48.2628 446.285 48.0406L441.675 44.1994C441.586 44.3072 441.491 44.412 441.348 44.5695C441.216 44.7145 441.036 44.9122 440.85 45.1344L445.46 48.9756ZM443.98 43.12H441.285V49.12H443.98V43.12ZM423.941 46.9034C427.029 35.489 430.042 24.1466 433.125 12.807L427.335 11.233C424.258 22.5534 421.221 33.981 418.149 45.3366L423.941 46.9034ZM427.332 12.7939C430.355 24.1192 433.382 35.5121 436.464 46.9034L442.256 45.3366C439.178 33.9579 436.155 22.5808 433.128 11.2461L427.332 12.7939ZM439.36 43.12H421.045V49.12H439.36V43.12ZM458.739 24.01L456.374 22.1646L455.127 23.7622L456.144 25.5151L458.739 24.01ZM470.454 8.995L472.819 10.8404L476.6 5.995H470.454V8.995ZM469.244 8.995V5.995H467.781L466.88 7.14807L469.244 8.995ZM458.244 23.075H455.244V31.7879L460.608 24.9219L458.244 23.075ZM458.244 8.995H461.244V5.995H458.244V8.995ZM456.429 8.995V5.995H453.429V8.995H456.429ZM456.429 47.055H453.429V50.055H456.429V47.055ZM458.244 47.055V50.055H461.244V47.055H458.244ZM458.244 26.87L460.839 25.3641L455.244 15.7245V26.87H458.244ZM469.959 47.055L467.364 48.5609L468.231 50.055H469.959V47.055ZM472.104 47.055V50.055H477.312L474.699 45.5499L472.104 47.055ZM461.104 25.8554L472.819 10.8404L468.089 7.14958L456.374 22.1646L461.104 25.8554ZM470.454 5.995H469.244V11.995H470.454V5.995ZM466.88 7.14807L455.88 21.2281L460.608 24.9219L471.608 10.8419L466.88 7.14807ZM461.244 23.075V8.995H455.244V23.075H461.244ZM458.244 5.995H456.429V11.995H458.244V5.995ZM453.429 8.995V47.055H459.429V8.995H453.429ZM456.429 50.055H458.244V44.055H456.429V50.055ZM461.244 47.055V26.87H455.244V47.055H461.244ZM455.649 28.3759L467.364 48.5609L472.554 45.5491L460.839 25.3641L455.649 28.3759ZM469.959 50.055H472.104V44.055H469.959V50.055ZM474.699 45.5499L461.334 22.5049L456.144 25.5151L469.509 48.5601L474.699 45.5499ZM499.228 8.995V5.995H497.179L496.434 7.90437L499.228 8.995ZM498.348 11.25L495.554 10.1594L495.549 10.1723L498.348 11.25ZM493.288 24.395L496.084 25.4823L496.088 25.4727L493.288 24.395ZM486.358 42.215H483.358L489.154 43.3023L486.358 42.215ZM486.358 8.995H489.358V5.995H486.358V8.995ZM484.543 8.995V5.995H481.543V8.995H484.543ZM484.543 47.055H481.543V50.055H484.543V47.055ZM485.533 47.055V50.055H487.63L488.351 48.0857L485.533 47.055ZM486.358 44.8L483.561 43.7167L483.551 43.7429L483.541 43.7693L486.358 44.8ZM498.348 13.835H501.348L495.551 12.7517L498.348 13.835ZM498.348 47.055H495.348V50.055H498.348V47.055ZM500.218 47.055V50.055H503.218V47.055H500.218ZM500.218 8.995H503.218V5.995H500.218V8.995ZM496.434 7.90437L495.554 10.1594L501.143 12.3406L502.023 10.0856L496.434 7.90437ZM495.549 10.1723L490.489 23.3173L496.088 25.4727L501.148 12.3277L495.549 10.1723ZM490.492 23.3077L483.562 41.1277L489.154 43.3023L496.084 25.4823L490.492 23.3077ZM489.358 42.215V8.995H483.358V42.215H489.358ZM486.358 5.995H484.543V11.995H486.358V5.995ZM481.543 8.995V47.055H487.543V8.995H481.543ZM484.543 50.055H485.533V44.055H484.543V50.055ZM488.351 48.0857L489.176 45.8307L483.541 43.7693L482.716 46.0243L488.351 48.0857ZM489.156 45.8833L501.146 14.9183L495.551 12.7517L483.561 43.7167L489.156 45.8833ZM495.348 13.835V47.055H501.348V13.835H495.348ZM498.348 50.055H500.218V44.055H498.348V50.055ZM503.218 47.055V8.995H497.218V47.055H503.218ZM500.218 5.995H499.228V11.995H500.218V5.995Z" fill="white"/>
</svg>
