<svg width="473" height="47" viewBox="0 0 473 47" fill="none" xmlns="http://www.w3.org/2000/svg">
<path d="M30.425 41.415C23.66 44.77 15.025 43.45 9.14 37.565C1.825 30.25 1.55 18.755 8.48 11.825C15.08 5.225 25.805 5.17 33.12 11.44C33.56 11 33.945 10.505 34.33 10.065C30.92 7.15 26.52 5.39 21.68 5.39C10.845 5.39 2.1 14.19 2.1 25.025C2.1 35.86 10.845 44.605 21.68 44.605C24.485 44.605 27.18 44.055 29.6 42.955C31.305 42.185 32.9 41.195 34.33 39.985L34.055 38.995C32.955 39.985 31.745 40.81 30.425 41.415ZM47.5274 5.995C47.2524 6.325 46.9774 6.6 46.7574 6.93H53.6874V44.055H55.5574V6.93H61.6624C61.8824 6.6 62.1574 6.325 62.4324 5.995H47.5274ZM90.0476 5.39C79.2126 5.39 70.4676 14.19 70.4676 25.025C70.4676 35.86 79.2126 44.605 90.0476 44.605C100.883 44.605 109.683 35.86 109.683 25.025C109.683 14.19 100.883 5.39 90.0476 5.39ZM103.248 38.225C96.3176 45.155 84.8226 44.88 77.5076 37.565C70.1926 30.25 69.9176 18.755 76.8476 11.825C83.7776 4.895 95.3276 5.17 102.588 12.485C109.903 19.745 110.178 31.295 103.248 38.225ZM136.792 5.995L135.912 8.25L130.852 21.395L123.922 39.215V5.995H122.107V44.055H123.097L123.922 41.8L135.912 10.835V44.055H137.782V5.995H136.792ZM171.012 5.39C170.517 5.995 170.022 6.6 169.527 7.205C168.317 11.88 167.052 16.61 165.787 21.285C164.357 16.005 162.927 10.725 161.497 5.39C161.057 5.995 160.562 6.6 160.067 7.205C156.767 19.47 153.467 31.735 150.222 44.055H151.157C154.292 32.34 157.427 20.68 160.562 9.02C161.992 14.3 163.367 19.58 164.797 24.915C165.292 24.31 165.787 23.705 166.282 23.1C167.492 18.425 168.757 13.695 170.022 9.02C173.157 20.68 176.292 32.34 179.427 44.055H181.352C177.887 31.185 174.422 18.26 171.012 5.39ZM210.646 5.39C199.811 5.39 191.066 14.19 191.066 25.025C191.066 35.86 199.811 44.605 210.646 44.605C221.481 44.605 230.281 35.86 230.281 25.025C230.281 14.19 221.481 5.39 210.646 5.39ZM223.846 38.225C216.916 45.155 205.421 44.88 198.106 37.565C190.791 30.25 190.516 18.755 197.446 11.825C204.376 4.895 215.926 5.17 223.186 12.485C230.501 19.745 230.776 31.295 223.846 38.225ZM271.031 41.415C264.266 44.77 255.631 43.45 249.746 37.565C242.431 30.25 242.156 18.755 249.086 11.825C255.686 5.225 266.411 5.17 273.726 11.44C274.166 11 274.551 10.505 274.936 10.065C271.526 7.15 267.126 5.39 262.286 5.39C251.451 5.39 242.706 14.19 242.706 25.025C242.706 35.86 251.451 44.605 262.286 44.605C265.091 44.605 267.786 44.055 270.206 42.955C271.911 42.185 273.506 41.195 274.936 39.985L274.661 38.995C273.561 39.985 272.351 40.81 271.031 41.415ZM288.133 5.995C287.858 6.325 287.583 6.6 287.363 6.93H294.293V44.055H296.163V6.93H302.268C302.488 6.6 302.763 6.325 303.038 5.995H288.133ZM319.163 20.625C318.558 20.625 317.953 20.625 317.293 20.735V5.995H315.478V44.055C316.633 44.44 317.898 44.605 319.163 44.605C325.818 44.605 331.208 39.27 331.208 32.615C331.208 25.96 325.818 20.625 319.163 20.625ZM319.163 43.725C318.558 43.725 317.898 43.615 317.293 43.505V21.725C317.898 21.615 318.558 21.505 319.163 21.505C324.773 21.505 329.338 26.51 329.338 32.615C329.338 38.72 324.773 43.725 319.163 43.725ZM367.266 5.995C366.991 6.325 366.716 6.6 366.496 6.93H373.426V44.055H375.296V6.93H381.401C381.621 6.6 381.896 6.325 382.171 5.995H367.266ZM412.486 5.995L404.181 27.28L396.426 5.995H394.611L403.246 29.755L397.691 44.055H398.626L403.686 31.02L404.676 28.545L413.421 5.995H412.486ZM441.571 17.435C441.571 10.78 436.181 5.39 429.526 5.39C428.261 5.39 426.996 5.61 425.841 5.995V44.055H427.656V29.26C428.316 29.37 428.921 29.425 429.526 29.425C436.181 29.425 441.571 24.035 441.571 17.435ZM439.701 17.435C439.701 23.54 435.136 28.49 429.526 28.49C428.921 28.49 428.261 28.435 427.656 28.325V6.545C428.261 6.38 428.921 6.325 429.526 6.325C435.136 6.325 439.701 11.33 439.701 17.435ZM459.805 5.39C459.31 5.995 458.87 6.6 458.375 7.205C455.075 19.47 451.775 31.735 448.53 44.055H449.465C450.73 39.325 451.995 34.65 453.26 29.975H464.48C465.745 34.65 467.01 39.325 468.22 44.055H470.145C466.735 31.185 463.27 18.26 459.805 5.39ZM453.48 29.04L458.87 9.02L464.205 29.04H453.48Z" fill="white"/>
<path d="M30.425 41.415L29.5917 39.5969L29.5638 39.6096L29.5364 39.6232L30.425 41.415ZM9.14 37.565L7.72579 38.9792L7.72579 38.9792L9.14 37.565ZM8.48 11.825L7.06579 10.4108L7.06579 10.4108L8.48 11.825ZM33.12 11.44L31.8184 12.9585L33.2246 14.1638L34.5342 12.8542L33.12 11.44ZM34.33 10.065L35.8352 11.382L37.1674 9.85939L35.6296 8.54475L34.33 10.065ZM29.6 42.955L28.7768 41.1323L28.7724 41.1343L29.6 42.955ZM34.33 39.985L35.6219 41.5118L36.5999 40.6842L36.257 39.4497L34.33 39.985ZM34.055 38.995L35.982 38.4597L35.1176 35.3479L32.7171 37.5084L34.055 38.995ZM29.5364 39.6232C23.5656 42.5844 15.8523 41.4488 10.5542 36.1508L7.72579 38.9792C14.1977 45.4512 23.7544 46.9556 31.3136 43.2068L29.5364 39.6232ZM10.5542 36.1508C3.95248 29.5491 3.81136 19.3221 9.89421 13.2392L7.06579 10.4108C-0.711363 18.1879 -0.302481 30.9509 7.72579 38.9792L10.5542 36.1508ZM9.89421 13.2392C15.6895 7.44392 25.2243 7.30642 31.8184 12.9585L34.4216 9.92149C26.3857 3.03358 14.4705 3.00607 7.06579 10.4108L9.89421 13.2392ZM34.5342 12.8542C35.0325 12.3559 35.5572 11.6997 35.8352 11.382L32.8248 8.74799C32.3328 9.3103 32.0875 9.64405 31.7058 10.0258L34.5342 12.8542ZM35.6296 8.54475C31.8732 5.33364 27.0169 3.39 21.68 3.39V7.39C26.0231 7.39 29.9668 8.96636 33.0304 11.5852L35.6296 8.54475ZM21.68 3.39C9.73313 3.39 0.1 13.0927 0.1 25.025H4.1C4.1 15.2873 11.9569 7.39 21.68 7.39V3.39ZM0.1 25.025C0.1 36.9646 9.74043 46.605 21.68 46.605V42.605C11.9496 42.605 4.1 34.7554 4.1 25.025H0.1ZM21.68 46.605C24.7456 46.605 27.7259 46.0038 30.4276 44.7757L28.7724 41.1343C26.6341 42.1062 24.2244 42.605 21.68 42.605V46.605ZM30.4232 44.7777C32.2878 43.9356 34.0424 42.8483 35.6219 41.5118L33.0381 38.4582C31.7577 39.5417 30.3222 40.4344 28.7768 41.1323L30.4232 44.7777ZM36.257 39.4497L35.982 38.4597L32.128 39.5303L32.403 40.5203L36.257 39.4497ZM32.7171 37.5084C31.7482 38.3804 30.7055 39.0864 29.5917 39.5969L31.2583 43.2331C32.7845 42.5336 34.1618 41.5896 35.3929 40.4816L32.7171 37.5084ZM47.5274 5.995V3.995H46.5907L45.991 4.71463L47.5274 5.995ZM46.7574 6.93L45.0933 5.8206L43.0204 8.93H46.7574V6.93ZM53.6874 6.93H55.6874V4.93H53.6874V6.93ZM53.6874 44.055H51.6874V46.055H53.6874V44.055ZM55.5574 44.055V46.055H57.5574V44.055H55.5574ZM55.5574 6.93V4.93H53.5574V6.93H55.5574ZM61.6624 6.93V8.93H62.7328L63.3265 8.0394L61.6624 6.93ZM62.4324 5.995L63.9689 7.27537L66.7025 3.995H62.4324V5.995ZM45.991 4.71463C45.8723 4.85709 45.388 5.37853 45.0933 5.8206L48.4215 8.0394C48.5668 7.82146 48.6326 7.79291 49.0639 7.27537L45.991 4.71463ZM46.7574 8.93H53.6874V4.93H46.7574V8.93ZM51.6874 6.93V44.055H55.6874V6.93H51.6874ZM53.6874 46.055H55.5574V42.055H53.6874V46.055ZM57.5574 44.055V6.93H53.5574V44.055H57.5574ZM55.5574 8.93H61.6624V4.93H55.5574V8.93ZM63.3265 8.0394C63.4718 7.82146 63.5376 7.79291 63.9689 7.27537L60.896 4.71463C60.7773 4.85709 60.293 5.37854 59.9983 5.82059L63.3265 8.0394ZM62.4324 3.995H47.5274V7.995H62.4324V3.995ZM103.248 38.225L104.662 39.6392L104.662 39.6392L103.248 38.225ZM77.5076 37.565L76.0934 38.9792L77.5076 37.565ZM76.8476 11.825L75.4334 10.4108L75.4334 10.4108L76.8476 11.825ZM102.588 12.485L101.168 13.8939L101.173 13.8992L101.179 13.9045L102.588 12.485ZM90.0476 3.39C78.1007 3.39 68.4676 13.0927 68.4676 25.025H72.4676C72.4676 15.2873 80.3244 7.39 90.0476 7.39V3.39ZM68.4676 25.025C68.4676 36.9646 78.108 46.605 90.0476 46.605V42.605C80.3171 42.605 72.4676 34.7554 72.4676 25.025H68.4676ZM90.0476 46.605C101.98 46.605 111.683 36.9719 111.683 25.025H107.683C107.683 34.7481 99.7853 42.605 90.0476 42.605V46.605ZM111.683 25.025C111.683 13.0854 101.987 3.39 90.0476 3.39V7.39C99.778 7.39 107.683 15.2946 107.683 25.025H111.683ZM101.833 36.8108C95.7505 42.8936 85.5235 42.7525 78.9218 36.1508L76.0934 38.9792C84.1216 47.0075 96.8846 47.4164 104.662 39.6392L101.833 36.8108ZM78.9218 36.1508C72.3201 29.5491 72.1789 19.3221 78.2618 13.2392L75.4334 10.4108C67.6562 18.1879 68.0651 30.9509 76.0934 38.9792L78.9218 36.1508ZM78.2618 13.2392C84.3474 7.15356 94.6258 7.30207 101.168 13.8939L104.007 11.0761C96.0294 3.03793 83.2077 2.63644 75.4334 10.4108L78.2618 13.2392ZM101.179 13.9045C107.771 20.4468 107.919 30.7251 101.833 36.8108L104.662 39.6392C112.436 31.8649 112.035 19.0432 103.996 11.0655L101.179 13.9045ZM136.792 5.995V3.995H135.426L134.929 5.26791L136.792 5.995ZM135.912 8.25L134.049 7.52291L134.046 7.53152L135.912 8.25ZM130.852 21.395L132.716 22.1199L132.719 22.1135L130.852 21.395ZM123.922 39.215H121.922L125.786 39.9399L123.922 39.215ZM123.922 5.995H125.922V3.995H123.922V5.995ZM122.107 5.995V3.995H120.107V5.995H122.107ZM122.107 44.055H120.107V46.055H122.107V44.055ZM123.097 44.055V46.055H124.495L124.976 44.7422L123.097 44.055ZM123.922 41.8L122.057 41.0778L122.051 41.0953L122.044 41.1128L123.922 41.8ZM135.912 10.835H137.912L134.047 10.1128L135.912 10.835ZM135.912 44.055H133.912V46.055H135.912V44.055ZM137.782 44.055V46.055H139.782V44.055H137.782ZM137.782 5.995H139.782V3.995H137.782V5.995ZM134.929 5.26791L134.049 7.52291L137.776 8.97708L138.656 6.72208L134.929 5.26791ZM134.046 7.53152L128.986 20.6765L132.719 22.1135L137.779 8.96848L134.046 7.53152ZM128.988 20.6701L122.058 38.4901L125.786 39.9399L132.716 22.1199L128.988 20.6701ZM125.922 39.215V5.995H121.922V39.215H125.922ZM123.922 3.995H122.107V7.995H123.922V3.995ZM120.107 5.995V44.055H124.107V5.995H120.107ZM122.107 46.055H123.097V42.055H122.107V46.055ZM124.976 44.7422L125.801 42.4872L122.044 41.1128L121.219 43.3678L124.976 44.7422ZM125.787 42.5222L137.777 11.5572L134.047 10.1128L122.057 41.0778L125.787 42.5222ZM133.912 10.835V44.055H137.912V10.835H133.912ZM135.912 46.055H137.782V42.055H135.912V46.055ZM139.782 44.055V5.995H135.782V44.055H139.782ZM137.782 3.995H136.792V7.995H137.782V3.995ZM171.012 5.39L172.945 4.87776L171.943 1.09403L169.464 4.12352L171.012 5.39ZM169.527 7.205L167.979 5.93852L167.701 6.27855L167.591 6.70386L169.527 7.205ZM165.787 21.285L163.856 21.8078L165.788 28.9389L167.717 21.8074L165.787 21.285ZM161.497 5.39L163.429 4.87219L162.344 0.825018L159.879 4.21365L161.497 5.39ZM160.067 7.205L158.519 5.93852L158.247 6.27079L158.136 6.68536L160.067 7.205ZM150.222 44.055L148.288 43.5456L147.627 46.055H150.222V44.055ZM151.157 44.055V46.055H152.692L153.089 44.572L151.157 44.055ZM160.562 9.02L162.492 8.49717L160.555 1.34338L158.63 8.5007L160.562 9.02ZM164.797 24.915L162.865 25.4328L163.875 29.2002L166.345 26.1815L164.797 24.915ZM166.282 23.1L167.83 24.3665L168.108 24.0264L168.218 23.6011L166.282 23.1ZM170.022 9.02L171.953 8.5007L170.028 1.34012L168.091 8.49761L170.022 9.02ZM179.427 44.055L177.495 44.572L177.892 46.055H179.427V44.055ZM181.352 44.055V46.055H183.962L183.283 43.5351L181.352 44.055ZM169.464 4.12352C169.216 4.42602 168.969 4.72852 168.721 5.03102C168.474 5.33352 168.226 5.63602 167.979 5.93852L171.075 8.47148C171.322 8.16898 171.57 7.86647 171.817 7.56397C172.065 7.26147 172.312 6.95897 172.56 6.65648L169.464 4.12352ZM167.591 6.70386C166.383 11.3688 165.12 16.091 163.856 20.7626L167.717 21.8074C168.983 17.129 170.25 12.3912 171.463 7.70613L167.591 6.70386ZM167.717 20.7622C166.287 15.4818 164.858 10.2043 163.429 4.87219L159.565 5.9078C160.996 11.2457 162.427 16.5282 163.856 21.8078L167.717 20.7622ZM159.879 4.21365C159.479 4.76443 159.021 5.32472 158.519 5.93852L161.615 8.47147C162.103 7.87528 162.635 7.22557 163.114 6.56634L159.879 4.21365ZM158.136 6.68536C154.836 18.9495 151.534 31.2196 148.288 43.5456L152.156 44.5644C155.399 32.2504 158.698 19.9905 161.998 7.72463L158.136 6.68536ZM150.222 46.055H151.157V42.055H150.222V46.055ZM153.089 44.572C156.224 32.8583 159.358 21.1995 162.493 9.53929L158.63 8.5007C155.496 20.1605 152.36 31.8217 149.225 43.538L153.089 44.572ZM158.631 9.54283C160.063 14.8278 161.428 20.0712 162.865 25.4328L166.729 24.3972C165.306 19.0888 163.921 13.7722 162.492 8.49717L158.631 9.54283ZM166.345 26.1815C166.84 25.5765 167.335 24.9715 167.83 24.3665L164.734 21.8335C164.239 22.4385 163.744 23.0435 163.249 23.6485L166.345 26.1815ZM168.218 23.6011C169.425 18.9362 170.688 14.214 171.952 9.54239L168.091 8.49761C166.825 13.176 165.558 17.9138 164.346 22.5989L168.218 23.6011ZM168.09 9.53929C171.226 21.1995 174.36 32.8583 177.495 44.572L181.359 43.538C178.224 31.8217 175.088 20.1605 171.953 8.5007L168.09 9.53929ZM179.427 46.055H181.352V42.055H179.427V46.055ZM183.283 43.5351C179.818 30.6663 176.354 17.7441 172.945 4.87776L169.079 5.90224C172.49 18.7759 175.955 31.7037 179.421 44.5749L183.283 43.5351ZM223.846 38.225L225.26 39.6392L225.26 39.6392L223.846 38.225ZM198.106 37.565L196.692 38.9792L198.106 37.565ZM197.446 11.825L196.032 10.4108L196.032 10.4108L197.446 11.825ZM223.186 12.485L221.766 13.8939L221.772 13.8992L221.777 13.9045L223.186 12.485ZM210.646 3.39C198.699 3.39 189.066 13.0927 189.066 25.025H193.066C193.066 15.2873 200.923 7.39 210.646 7.39V3.39ZM189.066 25.025C189.066 36.9646 198.706 46.605 210.646 46.605V42.605C200.915 42.605 193.066 34.7554 193.066 25.025H189.066ZM210.646 46.605C222.578 46.605 232.281 36.9719 232.281 25.025H228.281C228.281 34.7481 220.384 42.605 210.646 42.605V46.605ZM232.281 25.025C232.281 13.0854 222.585 3.39 210.646 3.39V7.39C220.376 7.39 228.281 15.2946 228.281 25.025H232.281ZM222.432 36.8108C216.349 42.8936 206.122 42.7525 199.52 36.1508L196.692 38.9792C204.72 47.0075 217.483 47.4164 225.26 39.6392L222.432 36.8108ZM199.52 36.1508C192.918 29.5491 192.777 19.3221 198.86 13.2392L196.032 10.4108C188.254 18.1879 188.663 30.9509 196.692 38.9792L199.52 36.1508ZM198.86 13.2392C204.946 7.15356 215.224 7.30207 221.766 13.8939L224.605 11.0761C216.628 3.03793 203.806 2.63644 196.032 10.4108L198.86 13.2392ZM221.777 13.9045C228.369 20.4468 228.517 30.7251 222.432 36.8108L225.26 39.6392C233.034 31.8649 232.633 19.0432 224.595 11.0655L221.777 13.9045ZM271.031 41.415L270.197 39.5969L270.17 39.6096L270.142 39.6232L271.031 41.415ZM249.746 37.565L248.331 38.9792L248.331 38.9792L249.746 37.565ZM249.086 11.825L247.671 10.4108L247.671 10.4108L249.086 11.825ZM273.726 11.44L272.424 12.9585L273.83 14.1638L275.14 12.8542L273.726 11.44ZM274.936 10.065L276.441 11.382L277.773 9.85939L276.235 8.54475L274.936 10.065ZM270.206 42.955L269.382 41.1323L269.378 41.1343L270.206 42.955ZM274.936 39.985L276.228 41.5118L277.206 40.6842L276.863 39.4497L274.936 39.985ZM274.661 38.995L276.588 38.4597L275.723 35.3479L273.323 37.5084L274.661 38.995ZM270.142 39.6232C264.171 42.5844 256.458 41.4488 251.16 36.1508L248.331 38.9792C254.803 45.4512 264.36 46.9556 271.919 43.2068L270.142 39.6232ZM251.16 36.1508C244.558 29.5491 244.417 19.3221 250.5 13.2392L247.671 10.4108C239.894 18.1879 240.303 30.9509 248.331 38.9792L251.16 36.1508ZM250.5 13.2392C256.295 7.44392 265.83 7.30642 272.424 12.9585L275.027 9.92149C266.991 3.03358 255.076 3.00607 247.671 10.4108L250.5 13.2392ZM275.14 12.8542C275.638 12.3559 276.163 11.6997 276.441 11.382L273.431 8.74799C272.938 9.3103 272.693 9.64405 272.311 10.0258L275.14 12.8542ZM276.235 8.54475C272.479 5.33364 267.623 3.39 262.286 3.39V7.39C266.629 7.39 270.573 8.96636 273.636 11.5852L276.235 8.54475ZM262.286 3.39C250.339 3.39 240.706 13.0927 240.706 25.025H244.706C244.706 15.2873 252.563 7.39 262.286 7.39V3.39ZM240.706 25.025C240.706 36.9646 250.346 46.605 262.286 46.605V42.605C252.555 42.605 244.706 34.7554 244.706 25.025H240.706ZM262.286 46.605C265.351 46.605 268.332 46.0038 271.033 44.7757L269.378 41.1343C267.24 42.1062 264.83 42.605 262.286 42.605V46.605ZM271.029 44.7777C272.893 43.9356 274.648 42.8483 276.228 41.5118L273.644 38.4582C272.363 39.5417 270.928 40.4344 269.382 41.1323L271.029 44.7777ZM276.863 39.4497L276.588 38.4597L272.734 39.5303L273.009 40.5203L276.863 39.4497ZM273.323 37.5084C272.354 38.3804 271.311 39.0864 270.197 39.5969L271.864 43.2331C273.39 42.5336 274.767 41.5896 275.999 40.4816L273.323 37.5084ZM288.133 5.995V3.995H287.196L286.597 4.71463L288.133 5.995ZM287.363 6.93L285.699 5.8206L283.626 8.93H287.363V6.93ZM294.293 6.93H296.293V4.93H294.293V6.93ZM294.293 44.055H292.293V46.055H294.293V44.055ZM296.163 44.055V46.055H298.163V44.055H296.163ZM296.163 6.93V4.93H294.163V6.93H296.163ZM302.268 6.93V8.93H303.338L303.932 8.0394L302.268 6.93ZM303.038 5.995L304.575 7.27537L307.308 3.995H303.038V5.995ZM286.597 4.71463C286.478 4.85709 285.994 5.37853 285.699 5.8206L289.027 8.0394C289.172 7.82146 289.238 7.79291 289.67 7.27537L286.597 4.71463ZM287.363 8.93H294.293V4.93H287.363V8.93ZM292.293 6.93V44.055H296.293V6.93H292.293ZM294.293 46.055H296.163V42.055H294.293V46.055ZM298.163 44.055V6.93H294.163V44.055H298.163ZM296.163 8.93H302.268V4.93H296.163V8.93ZM303.932 8.0394C304.077 7.82146 304.143 7.79291 304.575 7.27537L301.502 4.71463C301.383 4.85709 300.899 5.37854 300.604 5.82059L303.932 8.0394ZM303.038 3.995H288.133V7.995H303.038V3.995ZM317.293 20.735H315.293V23.0959L317.621 22.7078L317.293 20.735ZM317.293 5.995H319.293V3.995H317.293V5.995ZM315.478 5.995V3.995H313.478V5.995H315.478ZM315.478 44.055H313.478V45.4965L314.845 45.9524L315.478 44.055ZM317.293 43.505H315.293V45.1742L316.935 45.4727L317.293 43.505ZM317.293 21.725L316.935 19.7573L315.293 20.0558V21.725H317.293ZM319.163 18.625C318.573 18.625 317.81 18.6212 316.964 18.7622L317.621 22.7078C318.095 22.6288 318.542 22.625 319.163 22.625V18.625ZM319.293 20.735V5.995H315.293V20.735H319.293ZM317.293 3.995H315.478V7.995H317.293V3.995ZM313.478 5.995V44.055H317.478V5.995H313.478ZM314.845 45.9524C316.246 46.4194 317.732 46.605 319.163 46.605V42.605C318.063 42.605 317.019 42.4606 316.11 42.1576L314.845 45.9524ZM319.163 46.605C326.91 46.605 333.208 40.3865 333.208 32.615H329.208C329.208 38.1535 324.725 42.605 319.163 42.605V46.605ZM333.208 32.615C333.208 24.8435 326.91 18.625 319.163 18.625V22.625C324.725 22.625 329.208 27.0765 329.208 32.615H333.208ZM319.163 41.725C318.761 41.725 318.265 41.649 317.65 41.5373L316.935 45.4727C317.53 45.581 318.355 45.725 319.163 45.725V41.725ZM319.293 43.505V21.725H315.293V43.505H319.293ZM317.65 23.6927C318.265 23.581 318.761 23.505 319.163 23.505V19.505C318.355 19.505 317.53 19.649 316.935 19.7573L317.65 23.6927ZM319.163 23.505C323.504 23.505 327.338 27.4429 327.338 32.615H331.338C331.338 25.5771 326.041 19.505 319.163 19.505V23.505ZM327.338 32.615C327.338 37.7871 323.504 41.725 319.163 41.725V45.725C326.041 45.725 331.338 39.6529 331.338 32.615H327.338ZM367.266 5.995V3.995H366.33L365.73 4.71463L367.266 5.995ZM366.496 6.93L364.832 5.8206L362.759 8.93H366.496V6.93ZM373.426 6.93H375.426V4.93H373.426V6.93ZM373.426 44.055H371.426V46.055H373.426V44.055ZM375.296 44.055V46.055H377.296V44.055H375.296ZM375.296 6.93V4.93H373.296V6.93H375.296ZM381.401 6.93V8.93H382.472L383.066 8.0394L381.401 6.93ZM382.171 5.995L383.708 7.27537L386.442 3.995H382.171V5.995ZM365.73 4.71463C365.611 4.85709 365.127 5.37853 364.832 5.8206L368.161 8.0394C368.306 7.82146 368.372 7.79291 368.803 7.27537L365.73 4.71463ZM366.496 8.93H373.426V4.93H366.496V8.93ZM371.426 6.93V44.055H375.426V6.93H371.426ZM373.426 46.055H375.296V42.055H373.426V46.055ZM377.296 44.055V6.93H373.296V44.055H377.296ZM375.296 8.93H381.401V4.93H375.296V8.93ZM383.066 8.0394C383.211 7.82146 383.277 7.79291 383.708 7.27537L380.635 4.71463C380.516 4.85709 380.032 5.37854 379.737 5.82059L383.066 8.0394ZM382.171 3.995H367.266V7.995H382.171V3.995ZM412.486 5.995V3.995H411.119L410.623 5.26801L412.486 5.995ZM404.181 27.28L402.302 27.9647L404.117 32.9464L406.044 28.007L404.181 27.28ZM396.426 5.995L398.305 5.31034L397.826 3.995H396.426V5.995ZM394.611 5.995V3.995H391.756L392.731 6.67813L394.611 5.995ZM403.246 29.755L405.11 30.4792L405.382 29.7784L405.126 29.0719L403.246 29.755ZM397.691 44.055L395.827 43.3308L394.768 46.055H397.691V44.055ZM398.626 44.055V46.055H399.995L400.49 44.7788L398.626 44.055ZM403.686 31.02L401.829 30.2772L401.825 30.2867L401.821 30.2962L403.686 31.02ZM404.676 28.545L406.533 29.2878L406.537 29.278L406.541 29.2681L404.676 28.545ZM413.421 5.995L415.286 6.71813L416.342 3.995H413.421V5.995ZM410.623 5.26801L402.318 26.553L406.044 28.007L414.349 6.72198L410.623 5.26801ZM406.06 26.5953L398.305 5.31034L394.547 6.67965L402.302 27.9647L406.06 26.5953ZM396.426 3.995H394.611V7.995H396.426V3.995ZM392.731 6.67813L401.366 30.4381L405.126 29.0719L396.491 5.31186L392.731 6.67813ZM401.382 29.0308L395.827 43.3308L399.555 44.7792L405.11 30.4792L401.382 29.0308ZM397.691 46.055H398.626V42.055H397.691V46.055ZM400.49 44.7788L405.55 31.7438L401.821 30.2962L396.761 43.3312L400.49 44.7788ZM405.543 31.7628L406.533 29.2878L402.819 27.8022L401.829 30.2772L405.543 31.7628ZM406.541 29.2681L415.286 6.71813L411.556 5.27186L402.811 27.8219L406.541 29.2681ZM413.421 3.995H412.486V7.995H413.421V3.995ZM425.841 5.995L425.208 4.09763L423.841 4.55348V5.995H425.841ZM425.841 44.055H423.841V46.055H425.841V44.055ZM427.656 44.055V46.055H429.656V44.055H427.656ZM427.656 29.26L427.984 27.2872L425.656 26.8991V29.26H427.656ZM427.656 28.325H425.656V29.9942L427.298 30.2927L427.656 28.325ZM427.656 6.545L427.129 4.61547L425.656 5.0174V6.545H427.656ZM443.571 17.435C443.571 9.67543 437.285 3.39 429.526 3.39V7.39C435.076 7.39 439.571 11.8846 439.571 17.435H443.571ZM429.526 3.39C428.034 3.39 426.556 3.64835 425.208 4.09763L426.473 7.89236C427.435 7.57164 428.487 7.39 429.526 7.39V3.39ZM423.841 5.995V44.055H427.841V5.995H423.841ZM425.841 46.055H427.656V42.055H425.841V46.055ZM429.656 44.055V29.26H425.656V44.055H429.656ZM427.327 31.2328C428.079 31.3581 428.795 31.425 429.526 31.425V27.425C429.046 27.425 428.552 27.3819 427.984 27.2872L427.327 31.2328ZM429.526 31.425C437.279 31.425 443.571 25.1455 443.571 17.435H439.571C439.571 22.9245 435.082 27.425 429.526 27.425V31.425ZM437.701 17.435C437.701 22.5937 433.879 26.49 429.526 26.49V30.49C436.392 30.49 441.701 24.4863 441.701 17.435H437.701ZM429.526 26.49C429.032 26.49 428.492 26.4443 428.013 26.3573L427.298 30.2927C428.029 30.4257 428.809 30.49 429.526 30.49V26.49ZM429.656 28.325V6.545H425.656V28.325H429.656ZM428.182 8.47453C428.557 8.37226 429.025 8.325 429.526 8.325V4.325C428.816 4.325 427.964 4.38774 427.129 4.61547L428.182 8.47453ZM429.526 8.325C433.867 8.325 437.701 12.2629 437.701 17.435H441.701C441.701 10.3971 436.404 4.325 429.526 4.325V8.325ZM459.805 5.39L461.736 4.87005L460.724 1.10889L458.257 4.12352L459.805 5.39ZM458.375 7.205L456.827 5.93852L456.555 6.27079L456.444 6.68536L458.375 7.205ZM448.53 44.055L446.596 43.5456L445.935 46.055H448.53V44.055ZM449.465 44.055V46.055H451.001L451.397 44.5717L449.465 44.055ZM453.26 29.975V27.975H451.73L451.33 29.4526L453.26 29.975ZM464.48 29.975L466.411 29.4526L466.011 27.975H464.48V29.975ZM468.22 44.055L466.283 44.5507L466.667 46.055H468.22V44.055ZM470.145 44.055V46.055H472.744L472.079 43.5428L470.145 44.055ZM453.48 29.04L451.549 28.5201L450.871 31.04H453.48V29.04ZM458.87 9.02L460.803 8.505L458.88 1.29011L456.939 8.50005L458.87 9.02ZM464.205 29.04V31.04H466.808L466.138 28.525L464.205 29.04ZM458.257 4.12352C457.989 4.45104 457.739 4.77541 457.508 5.0746C457.271 5.38041 457.054 5.66104 456.827 5.93852L459.923 8.47147C460.191 8.14395 460.442 7.81959 460.673 7.52039C460.909 7.21459 461.126 6.93395 461.353 6.65648L458.257 4.12352ZM456.444 6.68536C453.144 18.9495 449.843 31.2196 446.596 43.5456L450.464 44.5644C453.708 32.2504 457.006 19.9905 460.307 7.72463L456.444 6.68536ZM448.53 46.055H449.465V42.055H448.53V46.055ZM451.397 44.5717C452.661 39.845 453.926 35.1728 455.191 30.4974L451.33 29.4526C450.065 34.1272 448.799 38.805 447.533 43.5383L451.397 44.5717ZM453.26 31.975H464.48V27.975H453.26V31.975ZM462.55 30.4974C463.815 35.1745 465.077 39.8363 466.283 44.5507L470.158 43.5593C468.944 38.8137 467.675 34.1255 466.411 29.4526L462.55 30.4974ZM468.22 46.055H470.145V42.055H468.22V46.055ZM472.079 43.5428C468.668 30.6691 465.202 17.7413 461.736 4.87005L457.874 5.90995C461.339 18.7787 464.803 31.7009 468.212 44.5672L472.079 43.5428ZM455.411 29.5599L460.801 9.53994L456.939 8.50005L451.549 28.5201L455.411 29.5599ZM456.938 9.53499L462.273 29.555L466.138 28.525L460.803 8.505L456.938 9.53499ZM464.205 27.04H453.48V31.04H464.205V27.04Z" fill="white"/>
</svg>
