<svg width="471" height="51" viewBox="0 0 471 51" fill="none" xmlns="http://www.w3.org/2000/svg">
<path d="M17.785 8.995L16.905 11.25L11.845 24.395L4.915 42.215V8.995H3.1V47.055H4.09L4.915 44.8L16.905 13.835V47.055H18.775V8.995H17.785ZM33.0295 47.055V32.37H45.0195V47.055H46.8895V8.995H45.0195V31.435H33.0295V8.995H31.2145V47.055H33.0295ZM60.0989 8.995C59.8239 9.325 59.5489 9.6 59.3289 9.93H66.2589V47.055H68.1289V9.93H74.2339C74.4539 9.6 74.7289 9.325 75.0039 8.995H60.0989ZM89.2584 46.12V24.01H96.0784C96.2984 23.68 96.5184 23.35 96.7384 23.075H89.2584V9.93H97.7834C98.0584 9.6 98.3334 9.325 98.6084 8.995H87.4434V47.055H98.6084C98.3334 46.725 98.0584 46.395 97.7834 46.12H89.2584ZM126.776 20.435C126.776 13.78 121.386 8.39 114.731 8.39C113.466 8.39 112.201 8.61 111.046 8.995V47.055H112.861V32.26C113.521 32.37 114.126 32.425 114.731 32.425C121.386 32.425 126.776 27.035 126.776 20.435ZM124.906 20.435C124.906 26.54 120.341 31.49 114.731 31.49C114.126 31.49 113.466 31.435 112.861 31.325V9.545C113.466 9.38 114.126 9.325 114.731 9.325C120.341 9.325 124.906 14.33 124.906 20.435ZM141.029 46.12V24.01H147.849C148.069 23.68 148.289 23.35 148.509 23.075H141.029V9.93H149.554C149.829 9.6 150.104 9.325 150.379 8.995H139.214V47.055H150.379C150.104 46.725 149.829 46.395 149.554 46.12H141.029ZM189.477 44.415C182.712 47.77 174.077 46.45 168.192 40.565C160.877 33.25 160.602 21.755 167.532 14.825C174.132 8.225 184.857 8.17 192.172 14.44C192.612 14 192.997 13.505 193.382 13.065C189.972 10.15 185.572 8.39 180.732 8.39C169.897 8.39 161.152 17.19 161.152 28.025C161.152 38.86 169.897 47.605 180.732 47.605C183.537 47.605 186.232 47.055 188.652 45.955C190.357 45.185 191.952 44.195 193.382 42.985L193.107 41.995C192.007 42.985 190.797 43.81 189.477 44.415ZM207.624 47.055V32.37H219.614V47.055H221.484V8.995H219.614V31.435H207.624V8.995H205.809V47.055H207.624ZM254.494 8.995H252.624V47.055H254.494V8.995ZM237.609 23.625C237.004 23.625 236.399 23.625 235.739 23.735V8.995H233.924V47.055C235.079 47.44 236.344 47.605 237.609 47.605C244.264 47.605 249.654 42.27 249.654 35.615C249.654 28.96 244.264 23.625 237.609 23.625ZM237.609 46.725C237.004 46.725 236.344 46.615 235.739 46.505V24.725C236.344 24.615 237.004 24.505 237.609 24.505C243.219 24.505 247.784 29.51 247.784 35.615C247.784 41.72 243.219 46.725 237.609 46.725ZM268.741 46.12V24.01H275.561C275.781 23.68 276.001 23.35 276.221 23.075H268.741V9.93H277.266C277.541 9.6 277.816 9.325 278.091 8.995H266.926V47.055H278.091C277.816 46.725 277.541 46.395 277.266 46.12H268.741ZM338.404 10.535C336.369 10.535 334.499 11.03 332.794 11.91V8.995H330.979V11.91C329.274 11.03 327.404 10.535 325.369 10.535C318.714 10.535 313.379 15.87 313.379 22.525C313.379 29.18 318.714 34.515 325.369 34.515C327.404 34.515 329.274 34.02 330.979 33.14V47.055H332.794V33.14C334.499 34.02 336.369 34.515 338.404 34.515C345.059 34.515 350.449 29.18 350.449 22.525C350.449 15.87 345.059 10.535 338.404 10.535ZM325.369 33.635C319.759 33.635 315.194 28.63 315.194 22.525C315.194 16.42 319.759 11.415 325.369 11.415C327.404 11.415 329.274 12.075 330.869 13.175C330.869 13.23 330.924 13.23 330.979 13.285V31.765C330.924 31.82 330.869 31.82 330.869 31.875C329.274 32.975 327.404 33.635 325.369 33.635ZM338.404 33.635C336.369 33.635 334.499 32.975 332.959 31.875C332.904 31.82 332.849 31.82 332.794 31.765V13.285C332.849 13.23 332.904 13.23 332.959 13.175C334.499 12.075 336.369 11.415 338.404 11.415C344.014 11.415 348.579 16.42 348.579 22.525C348.579 28.63 344.014 33.635 338.404 33.635ZM368.667 8.39C368.172 8.995 367.732 9.6 367.237 10.205C363.937 22.47 360.637 34.735 357.392 47.055H358.327C359.592 42.325 360.857 37.65 362.122 32.975H373.342C374.607 37.65 375.872 42.325 377.082 47.055H379.007C375.597 34.185 372.132 21.26 368.667 8.39ZM362.342 32.04L367.732 12.02L373.067 32.04H362.342ZM393.725 24.01L405.44 8.995H404.23L393.23 23.075V8.995H391.415V47.055H393.23V26.87L404.945 47.055H407.09L393.725 24.01ZM419.225 8.995C418.95 9.325 418.675 9.6 418.455 9.93H425.385V47.055H427.255V9.93H433.36C433.58 9.6 433.855 9.325 434.13 8.995H419.225ZM467.14 8.995H465.27V47.055H467.14V8.995ZM450.255 23.625C449.65 23.625 449.045 23.625 448.385 23.735V8.995H446.57V47.055C447.725 47.44 448.99 47.605 450.255 47.605C456.91 47.605 462.3 42.27 462.3 35.615C462.3 28.96 456.91 23.625 450.255 23.625ZM450.255 46.725C449.65 46.725 448.99 46.615 448.385 46.505V24.725C448.99 24.615 449.65 24.505 450.255 24.505C455.865 24.505 460.43 29.51 460.43 35.615C460.43 41.72 455.865 46.725 450.255 46.725Z" fill="white"/>
<path d="M17.785 8.995V5.995H15.7354L14.9903 7.90437L17.785 8.995ZM16.905 11.25L14.1102 10.1594L14.1053 10.1723L16.905 11.25ZM11.845 24.395L14.641 25.4823L14.6447 25.4727L11.845 24.395ZM4.915 42.215H1.915L7.71101 43.3023L4.915 42.215ZM4.915 8.995H7.915V5.995H4.915V8.995ZM3.1 8.995V5.995H0.1V8.995H3.1ZM3.1 47.055H0.1V50.055H3.1V47.055ZM4.09 47.055V50.055H6.18691L6.90737 48.0857L4.09 47.055ZM4.915 44.8L2.1174 43.7167L2.10727 43.7429L2.09763 43.7693L4.915 44.8ZM16.905 13.835H19.905L14.1074 12.7517L16.905 13.835ZM16.905 47.055H13.905V50.055H16.905V47.055ZM18.775 47.055V50.055H21.775V47.055H18.775ZM18.775 8.995H21.775V5.995H18.775V8.995ZM14.9903 7.90437L14.1103 10.1594L19.6997 12.3406L20.5797 10.0856L14.9903 7.90437ZM14.1053 10.1723L9.04527 23.3173L14.6447 25.4727L19.7047 12.3277L14.1053 10.1723ZM9.04899 23.3077L2.11899 41.1277L7.71101 43.3023L14.641 25.4823L9.04899 23.3077ZM7.915 42.215V8.995H1.915V42.215H7.915ZM4.915 5.995H3.1V11.995H4.915V5.995ZM0.1 8.995V47.055H6.1V8.995H0.1ZM3.1 50.055H4.09V44.055H3.1V50.055ZM6.90737 48.0857L7.73237 45.8307L2.09763 43.7693L1.27263 46.0243L6.90737 48.0857ZM7.7126 45.8833L19.7026 14.9183L14.1074 12.7517L2.1174 43.7167L7.7126 45.8833ZM13.905 13.835V47.055H19.905V13.835H13.905ZM16.905 50.055H18.775V44.055H16.905V50.055ZM21.775 47.055V8.995H15.775V47.055H21.775ZM18.775 5.995H17.785V11.995H18.775V5.995ZM33.0295 47.055V50.055H36.0295V47.055H33.0295ZM33.0295 32.37V29.37H30.0295V32.37H33.0295ZM45.0195 32.37H48.0195V29.37H45.0195V32.37ZM45.0195 47.055H42.0195V50.055H45.0195V47.055ZM46.8895 47.055V50.055H49.8895V47.055H46.8895ZM46.8895 8.995H49.8895V5.995H46.8895V8.995ZM45.0195 8.995V5.995H42.0195V8.995H45.0195ZM45.0195 31.435V34.435H48.0195V31.435H45.0195ZM33.0295 31.435H30.0295V34.435H33.0295V31.435ZM33.0295 8.995H36.0295V5.995H33.0295V8.995ZM31.2145 8.995V5.995H28.2145V8.995H31.2145ZM31.2145 47.055H28.2145V50.055H31.2145V47.055ZM36.0295 47.055V32.37H30.0295V47.055H36.0295ZM33.0295 35.37H45.0195V29.37H33.0295V35.37ZM42.0195 32.37V47.055H48.0195V32.37H42.0195ZM45.0195 50.055H46.8895V44.055H45.0195V50.055ZM49.8895 47.055V8.995H43.8895V47.055H49.8895ZM46.8895 5.995H45.0195V11.995H46.8895V5.995ZM42.0195 8.995V31.435H48.0195V8.995H42.0195ZM45.0195 28.435H33.0295V34.435H45.0195V28.435ZM36.0295 31.435V8.995H30.0295V31.435H36.0295ZM33.0295 5.995H31.2145V11.995H33.0295V5.995ZM28.2145 8.995V47.055H34.2145V8.995H28.2145ZM31.2145 50.055H33.0295V44.055H31.2145V50.055ZM60.0989 8.995V5.995H58.6938L57.7942 7.07444L60.0989 8.995ZM59.3289 9.93L56.8328 8.2659L53.7233 12.93H59.3289V9.93ZM66.2589 9.93H69.2589V6.93H66.2589V9.93ZM66.2589 47.055H63.2589V50.055H66.2589V47.055ZM68.1289 47.055V50.055H71.1289V47.055H68.1289ZM68.1289 9.93V6.93H65.1289V9.93H68.1289ZM74.2339 9.93V12.93H75.8395L76.73 11.5941L74.2339 9.93ZM75.0039 8.995L77.3086 10.9156L81.409 5.995H75.0039V8.995ZM57.7942 7.07444C57.7537 7.12313 57.1648 7.7678 56.8328 8.2659L61.8251 11.5941C61.8322 11.5833 61.8613 11.542 61.9638 11.4234C62.0186 11.3598 62.0673 11.305 62.1481 11.213C62.221 11.13 62.3098 11.028 62.4036 10.9156L57.7942 7.07444ZM59.3289 12.93H66.2589V6.93H59.3289V12.93ZM63.2589 9.93V47.055H69.2589V9.93H63.2589ZM66.2589 50.055H68.1289V44.055H66.2589V50.055ZM71.1289 47.055V9.93H65.1289V47.055H71.1289ZM68.1289 12.93H74.2339V6.93H68.1289V12.93ZM76.73 11.5941C76.7372 11.5833 76.7663 11.542 76.8688 11.4234C76.9236 11.3598 76.9723 11.305 77.0531 11.213C77.126 11.13 77.2148 11.028 77.3086 10.9156L72.6992 7.07444C72.6587 7.12313 72.0698 7.7678 71.7378 8.26589L76.73 11.5941ZM75.0039 5.995H60.0989V11.995H75.0039V5.995ZM89.2584 46.12H86.2584V49.12H89.2584V46.12ZM89.2584 24.01V21.01H86.2584V24.01H89.2584ZM96.0784 24.01V27.01H97.6839L98.5745 25.6741L96.0784 24.01ZM96.7384 23.075L99.081 24.9491L102.98 20.075H96.7384V23.075ZM89.2584 23.075H86.2584V26.075H89.2584V23.075ZM89.2584 9.93V6.93H86.2584V9.93H89.2584ZM97.7834 9.93V12.93H99.1885L100.088 11.8506L97.7834 9.93ZM98.6084 8.995L100.913 10.9156L105.013 5.995H98.6084V8.995ZM87.4434 8.995V5.995H84.4434V8.995H87.4434ZM87.4434 47.055H84.4434V50.055H87.4434V47.055ZM98.6084 47.055V50.055H105.013L100.913 45.1344L98.6084 47.055ZM97.7834 46.12L99.9047 43.9987L99.026 43.12H97.7834V46.12ZM92.2584 46.12V24.01H86.2584V46.12H92.2584ZM89.2584 27.01H96.0784V21.01H89.2584V27.01ZM98.5745 25.6741C98.8129 25.3165 98.9581 25.1027 99.081 24.9491L94.3958 21.2009C94.0786 21.5973 93.7838 22.0435 93.5822 22.3459L98.5745 25.6741ZM96.7384 20.075H89.2584V26.075H96.7384V20.075ZM92.2584 23.075V9.93H86.2584V23.075H92.2584ZM89.2584 12.93H97.7834V6.93H89.2584V12.93ZM100.088 11.8506C100.178 11.7428 100.273 11.638 100.416 11.4805C100.548 11.3355 100.728 11.1378 100.913 10.9156L96.3037 7.07444C96.2139 7.18216 96.1192 7.28704 95.976 7.44448C95.8442 7.58954 95.6639 7.78716 95.4787 8.00944L100.088 11.8506ZM98.6084 5.995H87.4434V11.995H98.6084V5.995ZM84.4434 8.995V47.055H90.4434V8.995H84.4434ZM87.4434 50.055H98.6084V44.055H87.4434V50.055ZM100.913 45.1344C100.659 44.8297 100.294 44.3882 99.9047 43.9987L95.662 48.2413C95.8225 48.4018 96.0077 48.6203 96.3037 48.9756L100.913 45.1344ZM97.7834 43.12H89.2584V49.12H97.7834V43.12ZM111.046 8.995L110.097 6.14895L108.046 6.83272V8.995H111.046ZM111.046 47.055H108.046V50.055H111.046V47.055ZM112.861 47.055V50.055H115.861V47.055H112.861ZM112.861 32.26L113.354 29.3008L109.861 28.7186V32.26H112.861ZM112.861 31.325H109.861V33.8287L112.324 34.2766L112.861 31.325ZM112.861 9.545L112.072 6.6507L109.861 7.2536V9.545H112.861ZM129.776 20.435C129.776 12.1231 123.043 5.39 114.731 5.39V11.39C119.729 11.39 123.776 15.4369 123.776 20.435H129.776ZM114.731 5.39C113.127 5.39 111.542 5.66753 110.097 6.14895L111.995 11.841C112.861 11.5525 113.806 11.39 114.731 11.39V5.39ZM108.046 8.995V47.055H114.046V8.995H108.046ZM111.046 50.055H112.861V44.055H111.046V50.055ZM115.861 47.055V32.26H109.861V47.055H115.861ZM112.368 35.2192C113.166 35.3522 113.937 35.425 114.731 35.425V29.425C114.315 29.425 113.876 29.3878 113.354 29.3008L112.368 35.2192ZM114.731 35.425C123.034 35.425 129.776 28.7008 129.776 20.435H123.776C123.776 25.3692 119.738 29.425 114.731 29.425V35.425ZM121.906 20.435C121.906 25.1205 118.456 28.49 114.731 28.49V34.49C122.226 34.49 127.906 27.9595 127.906 20.435H121.906ZM114.731 28.49C114.293 28.49 113.813 28.4489 113.398 28.3734L112.324 34.2766C113.119 34.4211 113.959 34.49 114.731 34.49V28.49ZM115.861 31.325V9.545H109.861V31.325H115.861ZM113.65 12.4393C113.91 12.3684 114.283 12.325 114.731 12.325V6.325C113.969 6.325 113.022 6.39161 112.072 6.6507L113.65 12.4393ZM114.731 12.325C118.438 12.325 121.906 15.7294 121.906 20.435H127.906C127.906 12.9306 122.244 6.325 114.731 6.325V12.325ZM141.029 46.12H138.029V49.12H141.029V46.12ZM141.029 24.01V21.01H138.029V24.01H141.029ZM147.849 24.01V27.01H149.455L150.345 25.6741L147.849 24.01ZM148.509 23.075L150.852 24.9491L154.751 20.075H148.509V23.075ZM141.029 23.075H138.029V26.075H141.029V23.075ZM141.029 9.93V6.93H138.029V9.93H141.029ZM149.554 9.93V12.93H150.959L151.859 11.8506L149.554 9.93ZM150.379 8.995L152.684 10.9156L156.784 5.995H150.379V8.995ZM139.214 8.995V5.995H136.214V8.995H139.214ZM139.214 47.055H136.214V50.055H139.214V47.055ZM150.379 47.055V50.055H156.784L152.684 45.1344L150.379 47.055ZM149.554 46.12L151.676 43.9987L150.797 43.12H149.554V46.12ZM144.029 46.12V24.01H138.029V46.12H144.029ZM141.029 27.01H147.849V21.01H141.029V27.01ZM150.345 25.6741C150.584 25.3165 150.729 25.1027 150.852 24.9491L146.167 21.2009C145.85 21.5973 145.555 22.0435 145.353 22.3459L150.345 25.6741ZM148.509 20.075H141.029V26.075H148.509V20.075ZM144.029 23.075V9.93H138.029V23.075H144.029ZM141.029 12.93H149.554V6.93H141.029V12.93ZM151.859 11.8506C151.949 11.7428 152.043 11.638 152.187 11.4805C152.318 11.3355 152.499 11.1378 152.684 10.9156L148.075 7.07444C147.985 7.18216 147.89 7.28704 147.747 7.44448C147.615 7.58954 147.435 7.78716 147.25 8.00944L151.859 11.8506ZM150.379 5.995H139.214V11.995H150.379V5.995ZM136.214 8.995V47.055H142.214V8.995H136.214ZM139.214 50.055H150.379V44.055H139.214V50.055ZM152.684 45.1344C152.43 44.8297 152.065 44.3882 151.676 43.9987L147.433 48.2413C147.593 48.4018 147.779 48.6203 148.075 48.9756L152.684 45.1344ZM149.554 43.12H141.029V49.12H149.554V43.12ZM189.477 44.415L188.227 41.6878L188.185 41.7069L188.144 41.7274L189.477 44.415ZM168.192 40.565L166.071 42.6863L168.192 40.565ZM167.532 14.825L165.411 12.7037L167.532 14.825ZM192.172 14.44L190.22 16.7178L192.329 18.5257L194.293 16.5613L192.172 14.44ZM193.382 13.065L195.64 15.0405L197.638 12.7566L195.331 10.7846L193.382 13.065ZM188.652 45.955L187.417 43.2209L187.411 43.2239L188.652 45.955ZM193.382 42.985L195.32 45.2752L196.787 44.0338L196.273 42.1821L193.382 42.985ZM193.107 41.995L195.998 41.1921L194.701 36.5243L191.1 39.7651L193.107 41.995ZM188.144 41.7274C182.57 44.4915 175.318 43.4483 170.313 38.4437L166.071 42.6863C172.836 49.4517 182.854 51.0485 190.81 47.1026L188.144 41.7274ZM170.313 38.4437C164.068 32.1986 163.994 22.6056 169.653 16.9463L165.411 12.7037C157.21 20.9044 157.686 34.3014 166.071 42.6863L170.313 38.4437ZM169.653 16.9463C175.046 11.5534 183.986 11.3746 190.22 16.7178L194.124 12.1622C185.728 4.96537 173.218 4.89661 165.411 12.7037L169.653 16.9463ZM194.293 16.5613C194.821 16.0339 195.415 15.297 195.64 15.0405L191.124 11.0895C190.579 11.713 190.403 11.9661 190.051 12.3187L194.293 16.5613ZM195.331 10.7846C191.402 7.42546 186.317 5.39 180.732 5.39V11.39C184.827 11.39 188.542 12.8745 191.433 15.3454L195.331 10.7846ZM180.732 5.39C168.229 5.39 158.152 15.5441 158.152 28.025H164.152C164.152 18.8359 171.565 11.39 180.732 11.39V5.39ZM158.152 28.025C158.152 40.5169 168.24 50.605 180.732 50.605V44.605C171.554 44.605 164.152 37.2031 164.152 28.025H158.152ZM180.732 50.605C183.928 50.605 187.051 49.9782 189.893 48.6861L187.411 43.2239C185.413 44.1318 183.146 44.605 180.732 44.605V50.605ZM189.887 48.6891C191.831 47.811 193.665 46.675 195.32 45.2752L191.444 40.6948C190.238 41.715 188.883 42.559 187.417 43.2209L189.887 48.6891ZM196.273 42.1821L195.998 41.1921L190.216 42.7979L190.491 43.7879L196.273 42.1821ZM191.1 39.7651C190.197 40.578 189.238 41.2246 188.227 41.6878L190.727 47.1422C192.356 46.3954 193.817 45.392 195.114 44.2249L191.1 39.7651ZM207.624 47.055V50.055H210.624V47.055H207.624ZM207.624 32.37V29.37H204.624V32.37H207.624ZM219.614 32.37H222.614V29.37H219.614V32.37ZM219.614 47.055H216.614V50.055H219.614V47.055ZM221.484 47.055V50.055H224.484V47.055H221.484ZM221.484 8.995H224.484V5.995H221.484V8.995ZM219.614 8.995V5.995H216.614V8.995H219.614ZM219.614 31.435V34.435H222.614V31.435H219.614ZM207.624 31.435H204.624V34.435H207.624V31.435ZM207.624 8.995H210.624V5.995H207.624V8.995ZM205.809 8.995V5.995H202.809V8.995H205.809ZM205.809 47.055H202.809V50.055H205.809V47.055ZM210.624 47.055V32.37H204.624V47.055H210.624ZM207.624 35.37H219.614V29.37H207.624V35.37ZM216.614 32.37V47.055H222.614V32.37H216.614ZM219.614 50.055H221.484V44.055H219.614V50.055ZM224.484 47.055V8.995H218.484V47.055H224.484ZM221.484 5.995H219.614V11.995H221.484V5.995ZM216.614 8.995V31.435H222.614V8.995H216.614ZM219.614 28.435H207.624V34.435H219.614V28.435ZM210.624 31.435V8.995H204.624V31.435H210.624ZM207.624 5.995H205.809V11.995H207.624V5.995ZM202.809 8.995V47.055H208.809V8.995H202.809ZM205.809 50.055H207.624V44.055H205.809V50.055ZM254.494 8.995H257.494V5.995H254.494V8.995ZM252.624 8.995V5.995H249.624V8.995H252.624ZM252.624 47.055H249.624V50.055H252.624V47.055ZM254.494 47.055V50.055H257.494V47.055H254.494ZM235.739 23.735H232.739V27.2764L236.232 26.6942L235.739 23.735ZM235.739 8.995H238.739V5.995H235.739V8.995ZM233.924 8.995V5.995H230.924V8.995H233.924ZM233.924 47.055H230.924V49.2173L232.975 49.9011L233.924 47.055ZM235.739 46.505H232.739V49.0087L235.202 49.4566L235.739 46.505ZM235.739 24.725L235.202 21.7734L232.739 22.2213V24.725H235.739ZM254.494 5.995H252.624V11.995H254.494V5.995ZM249.624 8.995V47.055H255.624V8.995H249.624ZM252.624 50.055H254.494V44.055H252.624V50.055ZM257.494 47.055V8.995H251.494V47.055H257.494ZM237.609 20.625C237.027 20.625 236.185 20.6193 235.246 20.7758L236.232 26.6942C236.613 26.6307 236.981 26.625 237.609 26.625V20.625ZM238.739 23.735V8.995H232.739V23.735H238.739ZM235.739 5.995H233.924V11.995H235.739V5.995ZM230.924 8.995V47.055H236.924V8.995H230.924ZM232.975 49.9011C234.499 50.4091 236.096 50.605 237.609 50.605V44.605C236.592 44.605 235.658 44.4709 234.873 44.209L232.975 49.9011ZM237.609 50.605C245.903 50.605 252.654 43.9447 252.654 35.615H246.654C246.654 40.5953 242.625 44.605 237.609 44.605V50.605ZM252.654 35.615C252.654 27.2853 245.903 20.625 237.609 20.625V26.625C242.625 26.625 246.654 30.6347 246.654 35.615H252.654ZM237.609 43.725C237.308 43.725 236.895 43.6661 236.275 43.5534L235.202 49.4566C235.792 49.5639 236.699 49.725 237.609 49.725V43.725ZM238.739 46.505V24.725H232.739V46.505H238.739ZM236.275 27.6766C236.895 27.5639 237.308 27.505 237.609 27.505V21.505C236.699 21.505 235.792 21.6661 235.202 21.7734L236.275 27.6766ZM237.609 27.505C241.316 27.505 244.784 30.9094 244.784 35.615H250.784C250.784 28.1106 245.122 21.505 237.609 21.505V27.505ZM244.784 35.615C244.784 40.3206 241.316 43.725 237.609 43.725V49.725C245.122 49.725 250.784 43.1194 250.784 35.615H244.784ZM268.741 46.12H265.741V49.12H268.741V46.12ZM268.741 24.01V21.01H265.741V24.01H268.741ZM275.561 24.01V27.01H277.167L278.057 25.6741L275.561 24.01ZM276.221 23.075L278.564 24.9491L282.463 20.075H276.221V23.075ZM268.741 23.075H265.741V26.075H268.741V23.075ZM268.741 9.93V6.93H265.741V9.93H268.741ZM277.266 9.93V12.93H278.671L279.571 11.8506L277.266 9.93ZM278.091 8.995L280.396 10.9156L284.496 5.995H278.091V8.995ZM266.926 8.995V5.995H263.926V8.995H266.926ZM266.926 47.055H263.926V50.055H266.926V47.055ZM278.091 47.055V50.055H284.496L280.396 45.1344L278.091 47.055ZM277.266 46.12L279.387 43.9987L278.509 43.12H277.266V46.12ZM271.741 46.12V24.01H265.741V46.12H271.741ZM268.741 27.01H275.561V21.01H268.741V27.01ZM278.057 25.6741C278.296 25.3165 278.441 25.1027 278.564 24.9491L273.878 21.2009C273.561 21.5973 273.266 22.0435 273.065 22.3459L278.057 25.6741ZM276.221 20.075H268.741V26.075H276.221V20.075ZM271.741 23.075V9.93H265.741V23.075H271.741ZM268.741 12.93H277.266V6.93H268.741V12.93ZM279.571 11.8506C279.66 11.7428 279.755 11.638 279.898 11.4805C280.03 11.3355 280.21 11.1378 280.396 10.9156L275.786 7.07444C275.697 7.18216 275.602 7.28704 275.459 7.44448C275.327 7.58954 275.147 7.78716 274.961 8.00944L279.571 11.8506ZM278.091 5.995H266.926V11.995H278.091V5.995ZM263.926 8.995V47.055H269.926V8.995H263.926ZM266.926 50.055H278.091V44.055H266.926V50.055ZM280.396 45.1344C280.142 44.8297 279.777 44.3882 279.387 43.9987L275.145 48.2413C275.305 48.4018 275.49 48.6203 275.786 48.9756L280.396 45.1344ZM277.266 43.12H268.741V49.12H277.266V43.12ZM332.794 11.91H329.794V16.8344L334.17 14.5759L332.794 11.91ZM332.794 8.995H335.794V5.995H332.794V8.995ZM330.979 8.995V5.995H327.979V8.995H330.979ZM330.979 11.91L329.604 14.5759L333.979 16.8344V11.91H330.979ZM330.979 33.14H333.979V28.2156L329.604 30.4741L330.979 33.14ZM330.979 47.055H327.979V50.055H330.979V47.055ZM332.794 47.055V50.055H335.794V47.055H332.794ZM332.794 33.14L334.17 30.4741L329.794 28.2156V33.14H332.794ZM330.869 13.175H333.869V11.5997L332.573 10.7054L330.869 13.175ZM330.979 13.285H333.979V12.0424L333.101 11.1637L330.979 13.285ZM330.979 31.765L333.101 33.8863L333.979 33.0076V31.765H330.979ZM330.869 31.875L332.573 34.3446L333.869 33.4503V31.875H330.869ZM332.959 31.875L330.838 33.9963L331.014 34.1719L331.216 34.3162L332.959 31.875ZM332.794 31.765H329.794V33.0076L330.673 33.8863L332.794 31.765ZM332.794 13.285L330.673 11.1637L329.794 12.0424V13.285H332.794ZM332.959 13.175L331.216 10.7338L331.014 10.8781L330.838 11.0537L332.959 13.175ZM338.404 7.535C335.863 7.535 333.524 8.15748 331.419 9.24414L334.17 14.5759C335.475 13.9025 336.876 13.535 338.404 13.535V7.535ZM335.794 11.91V8.995H329.794V11.91H335.794ZM332.794 5.995H330.979V11.995H332.794V5.995ZM327.979 8.995V11.91H333.979V8.995H327.979ZM332.355 9.24414C330.25 8.15748 327.911 7.535 325.369 7.535V13.535C326.898 13.535 328.299 13.9025 329.604 14.5759L332.355 9.24414ZM325.369 7.535C317.058 7.535 310.379 14.2131 310.379 22.525H316.379C316.379 17.5269 320.371 13.535 325.369 13.535V7.535ZM310.379 22.525C310.379 30.8369 317.058 37.515 325.369 37.515V31.515C320.371 31.515 316.379 27.5231 316.379 22.525H310.379ZM325.369 37.515C327.911 37.515 330.25 36.8925 332.355 35.8059L329.604 30.4741C328.299 31.1475 326.898 31.515 325.369 31.515V37.515ZM327.979 33.14V47.055H333.979V33.14H327.979ZM330.979 50.055H332.794V44.055H330.979V50.055ZM335.794 47.055V33.14H329.794V47.055H335.794ZM331.419 35.8059C333.524 36.8925 335.863 37.515 338.404 37.515V31.515C336.876 31.515 335.475 31.1475 334.17 30.4741L331.419 35.8059ZM338.404 37.515C346.698 37.515 353.449 30.8547 353.449 22.525H347.449C347.449 27.5053 343.421 31.515 338.404 31.515V37.515ZM353.449 22.525C353.449 14.1953 346.698 7.535 338.404 7.535V13.535C343.421 13.535 347.449 17.5447 347.449 22.525H353.449ZM325.369 30.635C321.663 30.635 318.194 27.2306 318.194 22.525H312.194C312.194 30.0294 317.856 36.635 325.369 36.635V30.635ZM318.194 22.525C318.194 17.8194 321.663 14.415 325.369 14.415V8.415C317.856 8.415 312.194 15.0206 312.194 22.525H318.194ZM325.369 14.415C326.733 14.415 328.018 14.8525 329.166 15.6446L332.573 10.7054C330.531 9.29747 328.076 8.415 325.369 8.415V14.415ZM327.869 13.175C327.869 13.7447 328.03 14.3685 328.421 14.928C328.754 15.4036 329.141 15.6605 329.24 15.7261C329.273 15.7484 329.301 15.7659 329.316 15.7757C329.325 15.7809 329.331 15.7851 329.336 15.7877C329.338 15.789 329.34 15.7901 329.341 15.7909C329.341 15.7912 329.342 15.7916 329.342 15.7918C329.343 15.7921 329.343 15.7922 329.343 15.7923C329.349 15.7962 329.316 15.7759 329.275 15.7485C329.181 15.6857 329.026 15.5737 328.858 15.4063L333.101 11.1637C332.906 10.9688 332.723 10.8362 332.603 10.7562C332.549 10.7202 332.503 10.6921 332.498 10.6887C332.477 10.6757 332.521 10.7025 332.568 10.7338C332.646 10.7858 333.016 11.0289 333.337 11.4873C333.716 12.0296 333.869 12.6328 333.869 13.175H327.869ZM327.979 13.285V31.765H333.979V13.285H327.979ZM328.858 29.6437C329.026 29.4763 329.181 29.3643 329.275 29.3015C329.316 29.2741 329.349 29.2538 329.343 29.2577C329.343 29.2578 329.343 29.2579 329.342 29.2582C329.342 29.2584 329.341 29.2588 329.341 29.2591C329.339 29.2599 329.338 29.261 329.336 29.2623C329.331 29.2649 329.325 29.2691 329.316 29.2743C329.301 29.2841 329.273 29.3016 329.24 29.3239C329.141 29.3895 328.754 29.6464 328.421 30.122C328.03 30.6816 327.869 31.3054 327.869 31.875H333.869C333.869 32.4171 333.716 33.0203 333.337 33.5627C333.016 34.021 332.646 34.2642 332.568 34.3161C332.521 34.3475 332.477 34.3743 332.498 34.3612C332.503 34.3579 332.549 34.3298 332.603 34.2938C332.723 34.2138 332.906 34.0812 333.101 33.8863L328.858 29.6437ZM329.166 29.4054C328.018 30.1975 326.733 30.635 325.369 30.635V36.635C328.076 36.635 330.531 35.7525 332.573 34.3446L329.166 29.4054ZM338.404 30.635C337.034 30.635 335.767 30.1936 334.703 29.4338L331.216 34.3162C333.232 35.7564 335.705 36.635 338.404 36.635V30.635ZM335.081 29.7537C334.985 29.6574 334.886 29.5707 334.786 29.4927C334.686 29.415 334.592 29.3508 334.508 29.2984C334.426 29.2467 334.354 29.2074 334.305 29.1812C334.26 29.1573 334.22 29.1376 334.219 29.1367C334.207 29.1307 334.233 29.1436 334.264 29.1601C334.299 29.179 334.357 29.2106 334.426 29.2537C334.496 29.2975 334.576 29.3522 334.662 29.4192C334.748 29.4864 334.833 29.5611 334.916 29.6437L330.673 33.8863C330.769 33.9826 330.868 34.0694 330.968 34.1473C331.068 34.2251 331.162 34.2892 331.246 34.3417C331.328 34.3933 331.4 34.4326 331.449 34.4588C331.494 34.4827 331.534 34.5024 331.535 34.5033C331.547 34.5093 331.521 34.4964 331.49 34.4799C331.455 34.461 331.397 34.4294 331.328 34.3863C331.258 34.3425 331.178 34.2878 331.092 34.2208C331.006 34.1536 330.921 34.0788 330.838 33.9963L335.081 29.7537ZM335.794 31.765V13.285H329.794V31.765H335.794ZM334.916 15.4063C334.833 15.4889 334.748 15.5636 334.662 15.6308C334.576 15.6978 334.496 15.7525 334.426 15.7963C334.357 15.8394 334.299 15.871 334.264 15.8899C334.233 15.9064 334.207 15.9193 334.219 15.9133C334.22 15.9125 334.26 15.8927 334.305 15.8688C334.354 15.8426 334.426 15.8033 334.508 15.7517C334.592 15.6992 334.686 15.6351 334.786 15.5573C334.886 15.4794 334.984 15.3926 335.081 15.2963L330.838 11.0537C330.921 10.9711 331.006 10.8964 331.092 10.8292C331.178 10.7622 331.258 10.7075 331.328 10.6637C331.397 10.6206 331.455 10.589 331.49 10.5701C331.521 10.5536 331.547 10.5407 331.535 10.5467C331.534 10.5475 331.494 10.5673 331.449 10.5912C331.4 10.6174 331.328 10.6567 331.246 10.7083C331.162 10.7608 331.068 10.8249 330.968 10.9027C330.868 10.9806 330.769 11.0674 330.673 11.1637L334.916 15.4063ZM334.703 15.6162C335.767 14.8564 337.034 14.415 338.404 14.415V8.415C335.705 8.415 333.232 9.29357 331.216 10.7338L334.703 15.6162ZM338.404 14.415C342.111 14.415 345.579 17.8194 345.579 22.525H351.579C351.579 15.0206 345.918 8.415 338.404 8.415V14.415ZM345.579 22.525C345.579 27.2306 342.111 30.635 338.404 30.635V36.635C345.918 36.635 351.579 30.0294 351.579 22.525H345.579ZM368.667 8.39L371.564 7.61008L370.045 1.96833L366.346 6.49028L368.667 8.39ZM367.237 10.205L364.916 8.30528L364.508 8.80369L364.34 9.42554L367.237 10.205ZM357.392 47.055L354.491 46.2909L353.5 50.055H357.392V47.055ZM358.327 47.055V50.055H360.63L361.226 47.8301L358.327 47.055ZM362.122 32.975V29.975H359.826L359.227 32.1914L362.122 32.975ZM373.342 32.975L376.238 32.1914L375.639 29.975H373.342V32.975ZM377.082 47.055L374.176 47.7985L374.753 50.055H377.082V47.055ZM379.007 47.055V50.055H382.906L381.907 46.2866L379.007 47.055ZM362.342 32.04L359.446 31.2601L358.428 35.04H362.342V32.04ZM367.732 12.02L370.631 11.2475L367.747 0.425161L364.836 11.2401L367.732 12.02ZM373.067 32.04V35.04H376.972L375.966 31.2675L373.067 32.04ZM366.346 6.49028C366.067 6.83031 365.808 7.16562 365.579 7.46316C365.341 7.77062 365.132 8.04032 364.916 8.30528L369.559 12.1047C369.837 11.7647 370.096 11.4294 370.326 11.1318C370.564 10.8244 370.772 10.5547 370.989 10.2897L366.346 6.49028ZM364.34 9.42554C361.041 21.6893 357.739 33.9619 354.491 46.2909L360.293 47.8191C363.536 35.5081 366.834 23.2507 370.134 10.9845L364.34 9.42554ZM357.392 50.055H358.327V44.055H357.392V50.055ZM361.226 47.8301C362.489 43.105 363.753 38.4343 365.018 33.7586L359.227 32.1914C357.962 36.8657 356.696 41.545 355.429 46.2799L361.226 47.8301ZM362.122 35.975H373.342V29.975H362.122V35.975ZM370.447 33.7586C371.712 38.4368 372.972 43.0919 374.176 47.7985L379.989 46.3115C378.773 41.5581 377.502 36.8632 376.238 32.1914L370.447 33.7586ZM377.082 50.055H379.007V44.055H377.082V50.055ZM381.907 46.2866C378.496 33.4112 375.03 20.4819 371.564 7.61008L365.771 9.16992C369.235 22.0381 372.699 34.9588 376.107 47.8234L381.907 46.2866ZM365.239 32.8199L370.629 12.7999L364.836 11.2401L359.446 31.2601L365.239 32.8199ZM364.834 12.7925L370.169 32.8125L375.966 31.2675L370.631 11.2475L364.834 12.7925ZM373.067 29.04H362.342V35.04H373.067V29.04ZM393.725 24.01L391.36 22.1646L390.113 23.7622L391.13 25.5151L393.725 24.01ZM405.44 8.995L407.805 10.8404L411.586 5.995H405.44V8.995ZM404.23 8.995V5.995H402.767L401.866 7.14807L404.23 8.995ZM393.23 23.075H390.23V31.7879L395.594 24.9219L393.23 23.075ZM393.23 8.995H396.23V5.995H393.23V8.995ZM391.415 8.995V5.995H388.415V8.995H391.415ZM391.415 47.055H388.415V50.055H391.415V47.055ZM393.23 47.055V50.055H396.23V47.055H393.23ZM393.23 26.87L395.825 25.3641L390.23 15.7245V26.87H393.23ZM404.945 47.055L402.35 48.5609L403.218 50.055H404.945V47.055ZM407.09 47.055V50.055H412.298L409.685 45.5499L407.09 47.055ZM396.09 25.8554L407.805 10.8404L403.075 7.14958L391.36 22.1646L396.09 25.8554ZM405.44 5.995H404.23V11.995H405.44V5.995ZM401.866 7.14807L390.866 21.2281L395.594 24.9219L406.594 10.8419L401.866 7.14807ZM396.23 23.075V8.995H390.23V23.075H396.23ZM393.23 5.995H391.415V11.995H393.23V5.995ZM388.415 8.995V47.055H394.415V8.995H388.415ZM391.415 50.055H393.23V44.055H391.415V50.055ZM396.23 47.055V26.87H390.23V47.055H396.23ZM390.635 28.3759L402.35 48.5609L407.54 45.5491L395.825 25.3641L390.635 28.3759ZM404.945 50.055H407.09V44.055H404.945V50.055ZM409.685 45.5499L396.32 22.5049L391.13 25.5151L404.495 48.5601L409.685 45.5499ZM419.225 8.995V5.995H417.82L416.921 7.07444L419.225 8.995ZM418.455 9.93L415.959 8.2659L412.85 12.93H418.455V9.93ZM425.385 9.93H428.385V6.93H425.385V9.93ZM425.385 47.055H422.385V50.055H425.385V47.055ZM427.255 47.055V50.055H430.255V47.055H427.255ZM427.255 9.93V6.93H424.255V9.93H427.255ZM433.36 9.93V12.93H434.966L435.856 11.5941L433.36 9.93ZM434.13 8.995L436.435 10.9156L440.535 5.995H434.13V8.995ZM416.921 7.07444C416.88 7.12313 416.291 7.7678 415.959 8.2659L420.951 11.5941C420.959 11.5833 420.988 11.542 421.09 11.4234C421.145 11.3598 421.194 11.305 421.275 11.213C421.347 11.13 421.436 11.028 421.53 10.9156L416.921 7.07444ZM418.455 12.93H425.385V6.93H418.455V12.93ZM422.385 9.93V47.055H428.385V9.93H422.385ZM425.385 50.055H427.255V44.055H425.385V50.055ZM430.255 47.055V9.93H424.255V47.055H430.255ZM427.255 12.93H433.36V6.93H427.255V12.93ZM435.856 11.5941C435.864 11.5833 435.893 11.542 435.995 11.4234C436.05 11.3598 436.099 11.305 436.18 11.213C436.252 11.13 436.341 11.028 436.435 10.9156L431.826 7.07444C431.785 7.12313 431.196 7.7678 430.864 8.26589L435.856 11.5941ZM434.13 5.995H419.225V11.995H434.13V5.995ZM467.14 8.995H470.14V5.995H467.14V8.995ZM465.27 8.995V5.995H462.27V8.995H465.27ZM465.27 47.055H462.27V50.055H465.27V47.055ZM467.14 47.055V50.055H470.14V47.055H467.14ZM448.385 23.735H445.385V27.2764L448.878 26.6942L448.385 23.735ZM448.385 8.995H451.385V5.995H448.385V8.995ZM446.57 8.995V5.995H443.57V8.995H446.57ZM446.57 47.055H443.57V49.2173L445.621 49.9011L446.57 47.055ZM448.385 46.505H445.385V49.0087L447.848 49.4566L448.385 46.505ZM448.385 24.725L447.848 21.7734L445.385 22.2213V24.725H448.385ZM467.14 5.995H465.27V11.995H467.14V5.995ZM462.27 8.995V47.055H468.27V8.995H462.27ZM465.27 50.055H467.14V44.055H465.27V50.055ZM470.14 47.055V8.995H464.14V47.055H470.14ZM450.255 20.625C449.673 20.625 448.831 20.6193 447.892 20.7758L448.878 26.6942C449.259 26.6307 449.627 26.625 450.255 26.625V20.625ZM451.385 23.735V8.995H445.385V23.735H451.385ZM448.385 5.995H446.57V11.995H448.385V5.995ZM443.57 8.995V47.055H449.57V8.995H443.57ZM445.621 49.9011C447.145 50.4091 448.742 50.605 450.255 50.605V44.605C449.238 44.605 448.304 44.4709 447.518 44.209L445.621 49.9011ZM450.255 50.605C458.549 50.605 465.3 43.9447 465.3 35.615H459.3C459.3 40.5953 455.271 44.605 450.255 44.605V50.605ZM465.3 35.615C465.3 27.2853 458.549 20.625 450.255 20.625V26.625C455.271 26.625 459.3 30.6347 459.3 35.615H465.3ZM450.255 43.725C449.954 43.725 449.541 43.6661 448.921 43.5534L447.848 49.4566C448.438 49.5639 449.345 49.725 450.255 49.725V43.725ZM451.385 46.505V24.725H445.385V46.505H451.385ZM448.921 27.6766C449.541 27.5639 449.954 27.505 450.255 27.505V21.505C449.345 21.505 448.438 21.6661 447.848 21.7734L448.921 27.6766ZM450.255 27.505C453.962 27.505 457.43 30.9094 457.43 35.615H463.43C463.43 28.1106 457.768 21.505 450.255 21.505V27.505ZM457.43 35.615C457.43 40.3206 453.962 43.725 450.255 43.725V49.725C457.768 49.725 463.43 43.1194 463.43 35.615H457.43Z" fill="white"/>
</svg>
