<svg width="354" height="46" viewBox="0 0 354 46" fill="none" xmlns="http://www.w3.org/2000/svg">
<path d="M27.125 6.535C25.09 6.535 23.22 7.03 21.515 7.91V4.995H19.7V7.91C17.995 7.03 16.125 6.535 14.09 6.535C7.435 6.535 2.1 11.87 2.1 18.525C2.1 25.18 7.435 30.515 14.09 30.515C16.125 30.515 17.995 30.02 19.7 29.14V43.055H21.515V29.14C23.22 30.02 25.09 30.515 27.125 30.515C33.78 30.515 39.17 25.18 39.17 18.525C39.17 11.87 33.78 6.535 27.125 6.535ZM14.09 29.635C8.48 29.635 3.915 24.63 3.915 18.525C3.915 12.42 8.48 7.415 14.09 7.415C16.125 7.415 17.995 8.075 19.59 9.175C19.59 9.23 19.645 9.23 19.7 9.285V27.765C19.645 27.82 19.59 27.82 19.59 27.875C17.995 28.975 16.125 29.635 14.09 29.635ZM27.125 29.635C25.09 29.635 23.22 28.975 21.68 27.875C21.625 27.82 21.57 27.82 21.515 27.765V9.285C21.57 9.23 21.625 9.23 21.68 9.175C23.22 8.075 25.09 7.415 27.125 7.415C32.735 7.415 37.3 12.42 37.3 18.525C37.3 24.63 32.735 29.635 27.125 29.635ZM71.1714 4.39C60.3364 4.39 51.5914 13.19 51.5914 24.025C51.5914 34.86 60.3364 43.605 71.1714 43.605C82.0064 43.605 90.8064 34.86 90.8064 24.025C90.8064 13.19 82.0064 4.39 71.1714 4.39ZM84.3714 37.225C77.4414 44.155 65.9464 43.88 58.6314 36.565C51.3164 29.25 51.0414 17.755 57.9714 10.825C64.9014 3.895 76.4514 4.17 83.7114 11.485C91.0264 18.745 91.3014 30.295 84.3714 37.225ZM98.5227 4.995C98.2477 5.325 97.9727 5.6 97.7527 5.93H104.683V43.055H106.553V5.93H112.658C112.878 5.6 113.153 5.325 113.428 4.995H98.5227ZM141.043 4.39C130.208 4.39 121.463 13.19 121.463 24.025C121.463 34.86 130.208 43.605 141.043 43.605C151.878 43.605 160.678 34.86 160.678 24.025C160.678 13.19 151.878 4.39 141.043 4.39ZM154.243 37.225C147.313 44.155 135.818 43.88 128.503 36.565C121.188 29.25 120.913 17.755 127.843 10.825C134.773 3.895 146.323 4.17 153.583 11.485C160.898 18.745 161.173 30.295 154.243 37.225ZM183.443 5.93C183.718 5.6 183.993 5.325 184.268 4.995H173.103V43.055H174.918C174.918 30.68 174.918 18.305 174.918 5.93H183.443ZM200.3 4.39C199.805 4.995 199.365 5.6 198.87 6.205C195.57 18.47 192.27 30.735 189.025 43.055H189.96C191.225 38.325 192.49 33.65 193.755 28.975H204.975C206.24 33.65 207.505 38.325 208.715 43.055H210.64C207.23 30.185 203.765 17.26 200.3 4.39ZM193.975 28.04L199.365 8.02L204.7 28.04H193.975ZM234.322 4.39C233.827 4.995 233.387 5.6 232.892 6.205C229.592 18.47 226.292 30.735 223.047 43.055H223.982C227.117 31.34 230.252 19.68 233.387 8.02C236.522 19.68 239.657 31.34 242.737 43.055H244.662C241.252 30.185 237.787 17.26 234.322 4.39ZM258.885 42.12V20.01H265.705C265.925 19.68 266.145 19.35 266.365 19.075H258.885V5.93H267.41C267.685 5.6 267.96 5.325 268.235 4.995H257.07V43.055H268.235C267.96 42.725 267.685 42.395 267.41 42.12H258.885ZM296.403 16.435C296.403 9.78 291.013 4.39 284.358 4.39C283.093 4.39 281.828 4.61 280.673 4.995V43.055H282.488V28.26C283.148 28.37 283.753 28.425 284.358 28.425C291.013 28.425 296.403 23.035 296.403 16.435ZM294.533 16.435C294.533 22.54 289.968 27.49 284.358 27.49C283.753 27.49 283.093 27.435 282.488 27.325V5.545C283.093 5.38 283.753 5.325 284.358 5.325C289.968 5.325 294.533 10.33 294.533 16.435ZM310.656 42.12V20.01H317.476C317.696 19.68 317.916 19.35 318.136 19.075H310.656V5.93H319.181C319.456 5.6 319.731 5.325 320.006 4.995H308.841V43.055H320.006C319.731 42.725 319.456 42.395 319.181 42.12H310.656ZM347.899 4.39C341.244 4.39 335.854 9.78 335.854 16.435C335.854 21.44 338.934 25.785 343.389 27.545L332.444 43.055H334.259L344.874 28.04C345.809 28.315 346.854 28.425 347.899 28.425C348.504 28.425 349.109 28.37 349.714 28.26V43.055H351.584V4.995C350.429 4.61 349.164 4.39 347.899 4.39ZM347.899 27.49C342.289 27.49 337.724 22.54 337.724 16.435C337.724 10.33 342.289 5.325 347.899 5.325C348.504 5.325 349.109 5.38 349.714 5.545V27.325C349.109 27.435 348.504 27.49 347.899 27.49Z" fill="white"/>
<path d="M21.515 7.91H19.515V11.1929L22.4323 9.68724L21.515 7.91ZM21.515 4.995H23.515V2.995H21.515V4.995ZM19.7 4.995V2.995H17.7V4.995H19.7ZM19.7 7.91L18.7827 9.68724L21.7 11.1929V7.91H19.7ZM19.7 29.14H21.7V25.8571L18.7827 27.3628L19.7 29.14ZM19.7 43.055H17.7V45.055H19.7V43.055ZM21.515 43.055V45.055H23.515V43.055H21.515ZM21.515 29.14L22.4323 27.3628L19.515 25.8571V29.14H21.515ZM19.59 9.175H21.59V8.12481L20.7255 7.52857L19.59 9.175ZM19.7 9.285H21.7V8.45657L21.1142 7.87078L19.7 9.285ZM19.7 27.765L21.1142 29.1792L21.7 28.5934V27.765H19.7ZM19.59 27.875L20.7255 29.5214L21.59 28.9252V27.875H19.59ZM21.68 27.875L20.2658 29.2892L20.3828 29.4062L20.5175 29.5025L21.68 27.875ZM21.515 27.765H19.515V28.5934L20.1008 29.1792L21.515 27.765ZM21.515 9.285L20.1008 7.87078L19.515 8.45657V9.285H21.515ZM21.68 9.175L20.5175 7.54753L20.3828 7.64374L20.2658 7.76079L21.68 9.175ZM27.125 4.535C24.7526 4.535 22.5696 5.11498 20.5977 6.13276L22.4323 9.68724C23.8704 8.94501 25.4274 8.535 27.125 8.535V4.535ZM23.515 7.91V4.995H19.515V7.91H23.515ZM21.515 2.995H19.7V6.995H21.515V2.995ZM17.7 4.995V7.91H21.7V4.995H17.7ZM20.6173 6.13276C18.6454 5.11498 16.4624 4.535 14.09 4.535V8.535C15.7876 8.535 17.3446 8.94501 18.7827 9.68724L20.6173 6.13276ZM14.09 4.535C6.33043 4.535 0.1 10.7654 0.1 18.525H4.1C4.1 12.9746 8.53957 8.535 14.09 8.535V4.535ZM0.1 18.525C0.1 26.2846 6.33043 32.515 14.09 32.515V28.515C8.53957 28.515 4.1 24.0754 4.1 18.525H0.1ZM14.09 32.515C16.4624 32.515 18.6454 31.935 20.6173 30.9172L18.7827 27.3628C17.3446 28.105 15.7876 28.515 14.09 28.515V32.515ZM17.7 29.14V43.055H21.7V29.14H17.7ZM19.7 45.055H21.515V41.055H19.7V45.055ZM23.515 43.055V29.14H19.515V43.055H23.515ZM20.5977 30.9172C22.5696 31.935 24.7526 32.515 27.125 32.515V28.515C25.4274 28.515 23.8704 28.105 22.4323 27.3628L20.5977 30.9172ZM27.125 32.515C34.8726 32.515 41.17 26.2965 41.17 18.525H37.17C37.17 24.0635 32.6874 28.515 27.125 28.515V32.515ZM41.17 18.525C41.17 10.7535 34.8726 4.535 27.125 4.535V8.535C32.6874 8.535 37.17 12.9865 37.17 18.525H41.17ZM14.09 27.635C9.74872 27.635 5.915 23.6971 5.915 18.525H1.915C1.915 25.5629 7.21128 31.635 14.09 31.635V27.635ZM5.915 18.525C5.915 13.3529 9.74872 9.415 14.09 9.415V5.415C7.21128 5.415 1.915 11.4871 1.915 18.525H5.915ZM14.09 9.415C15.6775 9.415 17.1572 9.92668 18.4545 10.8214L20.7255 7.52857C18.8328 6.22332 16.5725 5.415 14.09 5.415V9.415ZM17.59 9.175C17.59 9.55936 17.6979 9.97867 17.961 10.3546C18.1849 10.6745 18.4459 10.848 18.515 10.8941C18.5381 10.9095 18.5574 10.9217 18.5687 10.9289C18.579 10.9353 18.5894 10.9417 18.5894 10.9417C18.5956 10.9456 18.5754 10.9333 18.5502 10.9164C18.4917 10.8774 18.3928 10.8062 18.2858 10.6992L21.1142 7.87078C20.9797 7.73629 20.8533 7.64446 20.769 7.58824C20.7309 7.56284 20.6983 7.54281 20.6927 7.53934C20.6767 7.52944 20.7041 7.54611 20.7338 7.5659C20.7823 7.59823 21.026 7.75803 21.2379 8.06073C21.489 8.41945 21.59 8.81814 21.59 9.175H17.59ZM17.7 9.285V27.765H21.7V9.285H17.7ZM18.2858 26.3508C18.3928 26.2438 18.4917 26.1726 18.5502 26.1336C18.5754 26.1167 18.5956 26.1044 18.5894 26.1083C18.5894 26.1083 18.579 26.1147 18.5687 26.1211C18.5574 26.1283 18.5381 26.1405 18.515 26.1559C18.4458 26.202 18.1849 26.3755 17.961 26.6954C17.6978 27.0713 17.59 27.4907 17.59 27.875H21.59C21.59 28.2318 21.489 28.6305 21.2379 28.9892C21.026 29.2919 20.7823 29.4518 20.7338 29.4841C20.7041 29.5039 20.6767 29.5206 20.6927 29.5107C20.6983 29.5072 20.7309 29.4872 20.769 29.4618C20.8533 29.4055 20.9797 29.3137 21.1142 29.1792L18.2858 26.3508ZM18.4545 26.2286C17.1572 27.1233 15.6775 27.635 14.09 27.635V31.635C16.5725 31.635 18.8328 30.8267 20.7255 29.5214L18.4545 26.2286ZM27.125 27.635C25.5327 27.635 24.0649 27.1207 22.8425 26.2475L20.5175 29.5025C22.3751 30.8293 24.6473 31.635 27.125 31.635V27.635ZM23.0942 26.4608C22.9574 26.324 22.8201 26.2222 22.6988 26.1464C22.6413 26.1105 22.5916 26.083 22.5564 26.0643C22.5242 26.0472 22.4953 26.0328 22.4919 26.0311C22.4816 26.026 22.4967 26.0334 22.5152 26.0432C22.5366 26.0546 22.5726 26.0744 22.6162 26.1017C22.7101 26.1603 22.8199 26.2415 22.9292 26.3508L20.1008 29.1792C20.2376 29.316 20.3749 29.4178 20.4963 29.4937C20.5537 29.5295 20.6034 29.557 20.6386 29.5757C20.6708 29.5928 20.6997 29.6072 20.7031 29.6089C20.7134 29.614 20.6983 29.6066 20.6798 29.5968C20.6584 29.5854 20.6224 29.5656 20.5787 29.5383C20.4849 29.4797 20.3751 29.3985 20.2658 29.2892L23.0942 26.4608ZM23.515 27.765V9.285H19.515V27.765H23.515ZM22.9292 10.6992C22.8199 10.8085 22.7101 10.8897 22.6162 10.9483C22.5726 10.9756 22.5366 10.9954 22.5152 11.0068C22.4967 11.0166 22.4816 11.024 22.4919 11.0189C22.4953 11.0172 22.5242 11.0028 22.5564 10.9857C22.5916 10.967 22.6413 10.9395 22.6987 10.9037C22.8201 10.8278 22.9574 10.726 23.0942 10.5892L20.2658 7.76079C20.3751 7.65146 20.4849 7.57029 20.5788 7.51165C20.6224 7.48436 20.6584 7.46462 20.6798 7.45323C20.6983 7.44341 20.7134 7.43597 20.7031 7.44114C20.6997 7.44284 20.6708 7.45716 20.6386 7.47429C20.6034 7.49298 20.5537 7.52045 20.4963 7.55634C20.3749 7.63216 20.2376 7.73395 20.1008 7.87078L22.9292 10.6992ZM22.8425 10.8025C24.0649 9.92928 25.5327 9.415 27.125 9.415V5.415C24.6473 5.415 22.3751 6.22071 20.5175 7.54753L22.8425 10.8025ZM27.125 9.415C31.4663 9.415 35.3 13.3529 35.3 18.525H39.3C39.3 11.4871 34.0037 5.415 27.125 5.415V9.415ZM35.3 18.525C35.3 23.6971 31.4663 27.635 27.125 27.635V31.635C34.0037 31.635 39.3 25.5629 39.3 18.525H35.3ZM84.3714 37.225L85.7856 38.6392L85.7856 38.6392L84.3714 37.225ZM58.6314 36.565L57.2172 37.9792L58.6314 36.565ZM57.9714 10.825L56.5572 9.41078L56.5572 9.41078L57.9714 10.825ZM83.7114 11.485L82.2919 12.8939L82.2972 12.8992L82.3025 12.9045L83.7114 11.485ZM71.1714 2.39C59.2245 2.39 49.5914 12.0927 49.5914 24.025H53.5914C53.5914 14.2873 61.4483 6.39 71.1714 6.39V2.39ZM49.5914 24.025C49.5914 35.9646 59.2318 45.605 71.1714 45.605V41.605C61.441 41.605 53.5914 33.7554 53.5914 24.025H49.5914ZM71.1714 45.605C83.1037 45.605 92.8064 35.9719 92.8064 24.025H88.8064C88.8064 33.7481 80.9092 41.605 71.1714 41.605V45.605ZM92.8064 24.025C92.8064 12.0854 83.111 2.39 71.1714 2.39V6.39C80.9018 6.39 88.8064 14.2946 88.8064 24.025H92.8064ZM82.9572 35.8108C76.8743 41.8936 66.6474 41.7525 60.0456 35.1508L57.2172 37.9792C65.2455 46.0075 78.0085 46.4164 85.7856 38.6392L82.9572 35.8108ZM60.0456 35.1508C53.4439 28.5491 53.3028 18.3221 59.3856 12.2392L56.5572 9.41078C48.78 17.1879 49.1889 29.9509 57.2172 37.9792L60.0456 35.1508ZM59.3856 12.2392C65.4713 6.15356 75.7496 6.30207 82.2919 12.8939L85.1309 10.0761C77.1532 2.03793 64.3315 1.63644 56.5572 9.41078L59.3856 12.2392ZM82.3025 12.9045C88.8943 19.4468 89.0428 29.7251 82.9572 35.8108L85.7856 38.6392C93.56 30.8649 93.1585 18.0432 85.1203 10.0655L82.3025 12.9045ZM98.5227 4.995V2.995H97.586L96.9863 3.71463L98.5227 4.995ZM97.7527 5.93L96.0886 4.8206L94.0157 7.93H97.7527V5.93ZM104.683 5.93H106.683V3.93H104.683V5.93ZM104.683 43.055H102.683V45.055H104.683V43.055ZM106.553 43.055V45.055H108.553V43.055H106.553ZM106.553 5.93V3.93H104.553V5.93H106.553ZM112.658 5.93V7.93H113.728L114.322 7.0394L112.658 5.93ZM113.428 4.995L114.964 6.27537L117.698 2.995H113.428V4.995ZM96.9863 3.71463C96.8676 3.85709 96.3833 4.37853 96.0886 4.8206L99.4168 7.0394C99.5621 6.82146 99.6279 6.79291 100.059 6.27537L96.9863 3.71463ZM97.7527 7.93H104.683V3.93H97.7527V7.93ZM102.683 5.93V43.055H106.683V5.93H102.683ZM104.683 45.055H106.553V41.055H104.683V45.055ZM108.553 43.055V5.93H104.553V43.055H108.553ZM106.553 7.93H112.658V3.93H106.553V7.93ZM114.322 7.0394C114.467 6.82146 114.533 6.79291 114.964 6.27537L111.891 3.71463C111.773 3.85709 111.288 4.37854 110.994 4.82059L114.322 7.0394ZM113.428 2.995H98.5227V6.995H113.428V2.995ZM154.243 37.225L155.657 38.6392L155.657 38.6392L154.243 37.225ZM128.503 36.565L127.089 37.9792L128.503 36.565ZM127.843 10.825L126.429 9.41078L126.429 9.41078L127.843 10.825ZM153.583 11.485L152.163 12.8939L152.169 12.8992L152.174 12.9045L153.583 11.485ZM141.043 2.39C129.096 2.39 119.463 12.0927 119.463 24.025H123.463C123.463 14.2873 131.32 6.39 141.043 6.39V2.39ZM119.463 24.025C119.463 35.9646 129.103 45.605 141.043 45.605V41.605C131.312 41.605 123.463 33.7554 123.463 24.025H119.463ZM141.043 45.605C152.975 45.605 162.678 35.9719 162.678 24.025H158.678C158.678 33.7481 150.781 41.605 141.043 41.605V45.605ZM162.678 24.025C162.678 12.0854 152.982 2.39 141.043 2.39V6.39C150.773 6.39 158.678 14.2946 158.678 24.025H162.678ZM152.829 35.8108C146.746 41.8936 136.519 41.7525 129.917 35.1508L127.089 37.9792C135.117 46.0075 147.88 46.4164 155.657 38.6392L152.829 35.8108ZM129.917 35.1508C123.315 28.5491 123.174 18.3221 129.257 12.2392L126.429 9.41078C118.652 17.1879 119.06 29.9509 127.089 37.9792L129.917 35.1508ZM129.257 12.2392C135.343 6.15356 145.621 6.30207 152.163 12.8939L155.002 10.0761C147.025 2.03793 134.203 1.63644 126.429 9.41078L129.257 12.2392ZM152.174 12.9045C158.766 19.4468 158.914 29.7251 152.829 35.8108L155.657 38.6392C163.431 30.8649 163.03 18.0432 154.992 10.0655L152.174 12.9045ZM183.443 5.93V7.93H184.379L184.979 7.21037L183.443 5.93ZM184.268 4.995L185.804 6.27537L188.538 2.995H184.268V4.995ZM173.103 4.995V2.995H171.103V4.995H173.103ZM173.103 43.055H171.103V45.055H173.103V43.055ZM174.918 43.055V45.055H176.918V43.055H174.918ZM174.918 5.93V3.93H172.918V5.93H174.918ZM184.979 7.21037C185.085 7.08356 185.194 6.96322 185.335 6.80784C185.469 6.66072 185.635 6.47856 185.804 6.27537L182.731 3.71463C182.626 3.84144 182.517 3.96178 182.375 4.11716C182.242 4.26428 182.076 4.44644 181.906 4.64963L184.979 7.21037ZM184.268 2.995H173.103V6.995H184.268V2.995ZM171.103 4.995V43.055H175.103V4.995H171.103ZM173.103 45.055H174.918V41.055H173.103V45.055ZM176.918 43.055C176.918 43.0308 176.918 43.0067 176.918 42.9825C176.918 42.9583 176.918 42.9342 176.918 42.91C176.918 42.8858 176.918 42.8616 176.918 42.8375C176.918 42.8133 176.918 42.7891 176.918 42.765C176.918 42.7408 176.918 42.7166 176.918 42.6925C176.918 42.6683 176.918 42.6441 176.918 42.6199C176.918 42.5958 176.918 42.5716 176.918 42.5474C176.918 42.5233 176.918 42.4991 176.918 42.4749C176.918 42.4508 176.918 42.4266 176.918 42.4024C176.918 42.3782 176.918 42.3541 176.918 42.3299C176.918 42.3057 176.918 42.2816 176.918 42.2574C176.918 42.2332 176.918 42.2091 176.918 42.1849C176.918 42.1607 176.918 42.1365 176.918 42.1124C176.918 42.0882 176.918 42.064 176.918 42.0399C176.918 42.0157 176.918 41.9915 176.918 41.9674C176.918 41.9432 176.918 41.919 176.918 41.8948C176.918 41.8707 176.918 41.8465 176.918 41.8223C176.918 41.7982 176.918 41.774 176.918 41.7498C176.918 41.7257 176.918 41.7015 176.918 41.6773C176.918 41.6531 176.918 41.629 176.918 41.6048C176.918 41.5806 176.918 41.5565 176.918 41.5323C176.918 41.5081 176.918 41.484 176.918 41.4598C176.918 41.4356 176.918 41.4114 176.918 41.3873C176.918 41.3631 176.918 41.3389 176.918 41.3148C176.918 41.2906 176.918 41.2664 176.918 41.2423C176.918 41.2181 176.918 41.1939 176.918 41.1697C176.918 41.1456 176.918 41.1214 176.918 41.0972C176.918 41.0731 176.918 41.0489 176.918 41.0247C176.918 41.0006 176.918 40.9764 176.918 40.9522C176.918 40.928 176.918 40.9039 176.918 40.8797C176.918 40.8555 176.918 40.8314 176.918 40.8072C176.918 40.783 176.918 40.7589 176.918 40.7347C176.918 40.7105 176.918 40.6863 176.918 40.6622C176.918 40.638 176.918 40.6138 176.918 40.5897C176.918 40.5655 176.918 40.5413 176.918 40.5172C176.918 40.493 176.918 40.4688 176.918 40.4446C176.918 40.4205 176.918 40.3963 176.918 40.3721C176.918 40.348 176.918 40.3238 176.918 40.2996C176.918 40.2755 176.918 40.2513 176.918 40.2271C176.918 40.2029 176.918 40.1788 176.918 40.1546C176.918 40.1304 176.918 40.1063 176.918 40.0821C176.918 40.0579 176.918 40.0338 176.918 40.0096C176.918 39.9854 176.918 39.9612 176.918 39.9371C176.918 39.9129 176.918 39.8887 176.918 39.8646C176.918 39.8404 176.918 39.8162 176.918 39.7921C176.918 39.7679 176.918 39.7437 176.918 39.7196C176.918 39.6954 176.918 39.6712 176.918 39.647C176.918 39.6229 176.918 39.5987 176.918 39.5745C176.918 39.5504 176.918 39.5262 176.918 39.502C176.918 39.4779 176.918 39.4537 176.918 39.4295C176.918 39.4053 176.918 39.3812 176.918 39.357C176.918 39.3328 176.918 39.3087 176.918 39.2845C176.918 39.2603 176.918 39.2362 176.918 39.212C176.918 39.1878 176.918 39.1636 176.918 39.1395C176.918 39.1153 176.918 39.0911 176.918 39.067C176.918 39.0428 176.918 39.0186 176.918 38.9945C176.918 38.9703 176.918 38.9461 176.918 38.9219C176.918 38.8978 176.918 38.8736 176.918 38.8494C176.918 38.8253 176.918 38.8011 176.918 38.7769C176.918 38.7528 176.918 38.7286 176.918 38.7044C176.918 38.6802 176.918 38.6561 176.918 38.6319C176.918 38.6077 176.918 38.5836 176.918 38.5594C176.918 38.5352 176.918 38.5111 176.918 38.4869C176.918 38.4627 176.918 38.4385 176.918 38.4144C176.918 38.3902 176.918 38.366 176.918 38.3419C176.918 38.3177 176.918 38.2935 176.918 38.2694C176.918 38.2452 176.918 38.221 176.918 38.1968C176.918 38.1727 176.918 38.1485 176.918 38.1243C176.918 38.1002 176.918 38.076 176.918 38.0518C176.918 38.0277 176.918 38.0035 176.918 37.9793C176.918 37.9551 176.918 37.931 176.918 37.9068C176.918 37.8826 176.918 37.8585 176.918 37.8343C176.918 37.8101 176.918 37.786 176.918 37.7618C176.918 37.7376 176.918 37.7134 176.918 37.6893C176.918 37.6651 176.918 37.6409 176.918 37.6168C176.918 37.5926 176.918 37.5684 176.918 37.5443C176.918 37.5201 176.918 37.4959 176.918 37.4717C176.918 37.4476 176.918 37.4234 176.918 37.3992C176.918 37.3751 176.918 37.3509 176.918 37.3267C176.918 37.3026 176.918 37.2784 176.918 37.2542C176.918 37.23 176.918 37.2059 176.918 37.1817C176.918 37.1575 176.918 37.1334 176.918 37.1092C176.918 37.085 176.918 37.0609 176.918 37.0367C176.918 37.0125 176.918 36.9883 176.918 36.9642C176.918 36.94 176.918 36.9158 176.918 36.8917C176.918 36.8675 176.918 36.8433 176.918 36.8192C176.918 36.795 176.918 36.7708 176.918 36.7467C176.918 36.7225 176.918 36.6983 176.918 36.6741C176.918 36.65 176.918 36.6258 176.918 36.6016C176.918 36.5775 176.918 36.5533 176.918 36.5291C176.918 36.505 176.918 36.4808 176.918 36.4566C176.918 36.4324 176.918 36.4083 176.918 36.3841C176.918 36.3599 176.918 36.3358 176.918 36.3116C176.918 36.2874 176.918 36.2633 176.918 36.2391C176.918 36.2149 176.918 36.1907 176.918 36.1666C176.918 36.1424 176.918 36.1182 176.918 36.0941C176.918 36.0699 176.918 36.0457 176.918 36.0216C176.918 35.9974 176.918 35.9732 176.918 35.949C176.918 35.9249 176.918 35.9007 176.918 35.8765C176.918 35.8524 176.918 35.8282 176.918 35.804C176.918 35.7799 176.918 35.7557 176.918 35.7315C176.918 35.7073 176.918 35.6832 176.918 35.659C176.918 35.6348 176.918 35.6107 176.918 35.5865C176.918 35.5623 176.918 35.5382 176.918 35.514C176.918 35.4898 176.918 35.4656 176.918 35.4415C176.918 35.4173 176.918 35.3931 176.918 35.369C176.918 35.3448 176.918 35.3206 176.918 35.2965C176.918 35.2723 176.918 35.2481 176.918 35.2239C176.918 35.1998 176.918 35.1756 176.918 35.1514C176.918 35.1273 176.918 35.1031 176.918 35.0789C176.918 35.0548 176.918 35.0306 176.918 35.0064C176.918 34.9822 176.918 34.9581 176.918 34.9339C176.918 34.9097 176.918 34.8856 176.918 34.8614C176.918 34.8372 176.918 34.8131 176.918 34.7889C176.918 34.7647 176.918 34.7405 176.918 34.7164C176.918 34.6922 176.918 34.668 176.918 34.6439C176.918 34.6197 176.918 34.5955 176.918 34.5714C176.918 34.5472 176.918 34.523 176.918 34.4988C176.918 34.4747 176.918 34.4505 176.918 34.4263C176.918 34.4022 176.918 34.378 176.918 34.3538C176.918 34.3297 176.918 34.3055 176.918 34.2813C176.918 34.2571 176.918 34.233 176.918 34.2088C176.918 34.1846 176.918 34.1605 176.918 34.1363C176.918 34.1121 176.918 34.088 176.918 34.0638C176.918 34.0396 176.918 34.0154 176.918 33.9913C176.918 33.9671 176.918 33.9429 176.918 33.9188C176.918 33.8946 176.918 33.8704 176.918 33.8463C176.918 33.8221 176.918 33.7979 176.918 33.7737C176.918 33.7496 176.918 33.7254 176.918 33.7012C176.918 33.6771 176.918 33.6529 176.918 33.6287C176.918 33.6046 176.918 33.5804 176.918 33.5562C176.918 33.5321 176.918 33.5079 176.918 33.4837C176.918 33.4595 176.918 33.4354 176.918 33.4112C176.918 33.387 176.918 33.3629 176.918 33.3387C176.918 33.3145 176.918 33.2904 176.918 33.2662C176.918 33.242 176.918 33.2178 176.918 33.1937C176.918 33.1695 176.918 33.1453 176.918 33.1212C176.918 33.097 176.918 33.0728 176.918 33.0487C176.918 33.0245 176.918 33.0003 176.918 32.9761C176.918 32.952 176.918 32.9278 176.918 32.9036C176.918 32.8795 176.918 32.8553 176.918 32.8311C176.918 32.807 176.918 32.7828 176.918 32.7586C176.918 32.7344 176.918 32.7103 176.918 32.6861C176.918 32.6619 176.918 32.6378 176.918 32.6136C176.918 32.5894 176.918 32.5653 176.918 32.5411C176.918 32.5169 176.918 32.4927 176.918 32.4686C176.918 32.4444 176.918 32.4202 176.918 32.3961C176.918 32.3719 176.918 32.3477 176.918 32.3236C176.918 32.2994 176.918 32.2752 176.918 32.251C176.918 32.2269 176.918 32.2027 176.918 32.1785C176.918 32.1544 176.918 32.1302 176.918 32.106C176.918 32.0819 176.918 32.0577 176.918 32.0335C176.918 32.0093 176.918 31.9852 176.918 31.961C176.918 31.9368 176.918 31.9127 176.918 31.8885C176.918 31.8643 176.918 31.8402 176.918 31.816C176.918 31.7918 176.918 31.7676 176.918 31.7435C176.918 31.7193 176.918 31.6951 176.918 31.671C176.918 31.6468 176.918 31.6226 176.918 31.5985C176.918 31.5743 176.918 31.5501 176.918 31.5259C176.918 31.5018 176.918 31.4776 176.918 31.4534C176.918 31.4293 176.918 31.4051 176.918 31.3809C176.918 31.3568 176.918 31.3326 176.918 31.3084C176.918 31.2842 176.918 31.2601 176.918 31.2359C176.918 31.2117 176.918 31.1876 176.918 31.1634C176.918 31.1392 176.918 31.1151 176.918 31.0909C176.918 31.0667 176.918 31.0425 176.918 31.0184C176.918 30.9942 176.918 30.97 176.918 30.9459C176.918 30.9217 176.918 30.8975 176.918 30.8734C176.918 30.8492 176.918 30.825 176.918 30.8008C176.918 30.7767 176.918 30.7525 176.918 30.7283C176.918 30.7042 176.918 30.68 176.918 30.6558C176.918 30.6317 176.918 30.6075 176.918 30.5833C176.918 30.5591 176.918 30.535 176.918 30.5108C176.918 30.4866 176.918 30.4625 176.918 30.4383C176.918 30.4141 176.918 30.39 176.918 30.3658C176.918 30.3416 176.918 30.3175 176.918 30.2933C176.918 30.2691 176.918 30.2449 176.918 30.2208C176.918 30.1966 176.918 30.1724 176.918 30.1483C176.918 30.1241 176.918 30.0999 176.918 30.0758C176.918 30.0516 176.918 30.0274 176.918 30.0032C176.918 29.9791 176.918 29.9549 176.918 29.9307C176.918 29.9066 176.918 29.8824 176.918 29.8582C176.918 29.8341 176.918 29.8099 176.918 29.7857C176.918 29.7615 176.918 29.7374 176.918 29.7132C176.918 29.689 176.918 29.6649 176.918 29.6407C176.918 29.6165 176.918 29.5924 176.918 29.5682C176.918 29.544 176.918 29.5198 176.918 29.4957C176.918 29.4715 176.918 29.4473 176.918 29.4232C176.918 29.399 176.918 29.3748 176.918 29.3507C176.918 29.3265 176.918 29.3023 176.918 29.2781C176.918 29.254 176.918 29.2298 176.918 29.2056C176.918 29.1815 176.918 29.1573 176.918 29.1331C176.918 29.109 176.918 29.0848 176.918 29.0606C176.918 29.0364 176.918 29.0123 176.918 28.9881C176.918 28.9639 176.918 28.9398 176.918 28.9156C176.918 28.8914 176.918 28.8673 176.918 28.8431C176.918 28.8189 176.918 28.7947 176.918 28.7706C176.918 28.7464 176.918 28.7222 176.918 28.6981C176.918 28.6739 176.918 28.6497 176.918 28.6256C176.918 28.6014 176.918 28.5772 176.918 28.553C176.918 28.5289 176.918 28.5047 176.918 28.4805C176.918 28.4564 176.918 28.4322 176.918 28.408C176.918 28.3839 176.918 28.3597 176.918 28.3355C176.918 28.3113 176.918 28.2872 176.918 28.263C176.918 28.2388 176.918 28.2147 176.918 28.1905C176.918 28.1663 176.918 28.1422 176.918 28.118C176.918 28.0938 176.918 28.0696 176.918 28.0455C176.918 28.0213 176.918 27.9971 176.918 27.973C176.918 27.9488 176.918 27.9246 176.918 27.9005C176.918 27.8763 176.918 27.8521 176.918 27.8279C176.918 27.8038 176.918 27.7796 176.918 27.7554C176.918 27.7313 176.918 27.7071 176.918 27.6829C176.918 27.6588 176.918 27.6346 176.918 27.6104C176.918 27.5862 176.918 27.5621 176.918 27.5379C176.918 27.5137 176.918 27.4896 176.918 27.4654C176.918 27.4412 176.918 27.4171 176.918 27.3929C176.918 27.3687 176.918 27.3445 176.918 27.3204C176.918 27.2962 176.918 27.272 176.918 27.2479C176.918 27.2237 176.918 27.1995 176.918 27.1754C176.918 27.1512 176.918 27.127 176.918 27.1029C176.918 27.0787 176.918 27.0545 176.918 27.0303C176.918 27.0062 176.918 26.982 176.918 26.9578C176.918 26.9337 176.918 26.9095 176.918 26.8853C176.918 26.8612 176.918 26.837 176.918 26.8128C176.918 26.7886 176.918 26.7645 176.918 26.7403C176.918 26.7161 176.918 26.692 176.918 26.6678C176.918 26.6436 176.918 26.6195 176.918 26.5953C176.918 26.5711 176.918 26.5469 176.918 26.5228C176.918 26.4986 176.918 26.4744 176.918 26.4503C176.918 26.4261 176.918 26.4019 176.918 26.3778C176.918 26.3536 176.918 26.3294 176.918 26.3052C176.918 26.2811 176.918 26.2569 176.918 26.2327C176.918 26.2086 176.918 26.1844 176.918 26.1602C176.918 26.1361 176.918 26.1119 176.918 26.0877C176.918 26.0635 176.918 26.0394 176.918 26.0152C176.918 25.991 176.918 25.9669 176.918 25.9427C176.918 25.9185 176.918 25.8944 176.918 25.8702C176.918 25.846 176.918 25.8218 176.918 25.7977C176.918 25.7735 176.918 25.7493 176.918 25.7252C176.918 25.701 176.918 25.6768 176.918 25.6527C176.918 25.6285 176.918 25.6043 176.918 25.5801C176.918 25.556 176.918 25.5318 176.918 25.5076C176.918 25.4835 176.918 25.4593 176.918 25.4351C176.918 25.411 176.918 25.3868 176.918 25.3626C176.918 25.3384 176.918 25.3143 176.918 25.2901C176.918 25.2659 176.918 25.2418 176.918 25.2176C176.918 25.1934 176.918 25.1693 176.918 25.1451C176.918 25.1209 176.918 25.0967 176.918 25.0726C176.918 25.0484 176.918 25.0242 176.918 25.0001C176.918 24.9759 176.918 24.9517 176.918 24.9276C176.918 24.9034 176.918 24.8792 176.918 24.855C176.918 24.8309 176.918 24.8067 176.918 24.7825C176.918 24.7584 176.918 24.7342 176.918 24.71C176.918 24.6859 176.918 24.6617 176.918 24.6375C176.918 24.6133 176.918 24.5892 176.918 24.565C176.918 24.5408 176.918 24.5167 176.918 24.4925C176.918 24.4683 176.918 24.4442 176.918 24.42C176.918 24.3958 176.918 24.3716 176.918 24.3475C176.918 24.3233 176.918 24.2991 176.918 24.275C176.918 24.2508 176.918 24.2266 176.918 24.2025C176.918 24.1783 176.918 24.1541 176.918 24.13C176.918 24.1058 176.918 24.0816 176.918 24.0574C176.918 24.0333 176.918 24.0091 176.918 23.9849C176.918 23.9608 176.918 23.9366 176.918 23.9124C176.918 23.8883 176.918 23.8641 176.918 23.8399C176.918 23.8157 176.918 23.7916 176.918 23.7674C176.918 23.7432 176.918 23.7191 176.918 23.6949C176.918 23.6707 176.918 23.6466 176.918 23.6224C176.918 23.5982 176.918 23.574 176.918 23.5499C176.918 23.5257 176.918 23.5015 176.918 23.4774C176.918 23.4532 176.918 23.429 176.918 23.4049C176.918 23.3807 176.918 23.3565 176.918 23.3323C176.918 23.3082 176.918 23.284 176.918 23.2598C176.918 23.2357 176.918 23.2115 176.918 23.1873C176.918 23.1632 176.918 23.139 176.918 23.1148C176.918 23.0906 176.918 23.0665 176.918 23.0423C176.918 23.0181 176.918 22.994 176.918 22.9698C176.918 22.9456 176.918 22.9215 176.918 22.8973C176.918 22.8731 176.918 22.8489 176.918 22.8248C176.918 22.8006 176.918 22.7764 176.918 22.7523C176.918 22.7281 176.918 22.7039 176.918 22.6798C176.918 22.6556 176.918 22.6314 176.918 22.6072C176.918 22.5831 176.918 22.5589 176.918 22.5347C176.918 22.5106 176.918 22.4864 176.918 22.4622C176.918 22.4381 176.918 22.4139 176.918 22.3897C176.918 22.3655 176.918 22.3414 176.918 22.3172C176.918 22.293 176.918 22.2689 176.918 22.2447C176.918 22.2205 176.918 22.1964 176.918 22.1722C176.918 22.148 176.918 22.1238 176.918 22.0997C176.918 22.0755 176.918 22.0513 176.918 22.0272C176.918 22.003 176.918 21.9788 176.918 21.9547C176.918 21.9305 176.918 21.9063 176.918 21.8821C176.918 21.858 176.918 21.8338 176.918 21.8096C176.918 21.7855 176.918 21.7613 176.918 21.7371C176.918 21.713 176.918 21.6888 176.918 21.6646C176.918 21.6404 176.918 21.6163 176.918 21.5921C176.918 21.5679 176.918 21.5438 176.918 21.5196C176.918 21.4954 176.918 21.4713 176.918 21.4471C176.918 21.4229 176.918 21.3987 176.918 21.3746C176.918 21.3504 176.918 21.3262 176.918 21.3021C176.918 21.2779 176.918 21.2537 176.918 21.2296C176.918 21.2054 176.918 21.1812 176.918 21.157C176.918 21.1329 176.918 21.1087 176.918 21.0845C176.918 21.0604 176.918 21.0362 176.918 21.012C176.918 20.9879 176.918 20.9637 176.918 20.9395C176.918 20.9154 176.918 20.8912 176.918 20.867C176.918 20.8428 176.918 20.8187 176.918 20.7945C176.918 20.7703 176.918 20.7462 176.918 20.722C176.918 20.6978 176.918 20.6737 176.918 20.6495C176.918 20.6253 176.918 20.6011 176.918 20.577C176.918 20.5528 176.918 20.5286 176.918 20.5045C176.918 20.4803 176.918 20.4561 176.918 20.432C176.918 20.4078 176.918 20.3836 176.918 20.3594C176.918 20.3353 176.918 20.3111 176.918 20.2869C176.918 20.2628 176.918 20.2386 176.918 20.2144C176.918 20.1903 176.918 20.1661 176.918 20.1419C176.918 20.1177 176.918 20.0936 176.918 20.0694C176.918 20.0452 176.918 20.0211 176.918 19.9969C176.918 19.9727 176.918 19.9486 176.918 19.9244C176.918 19.9002 176.918 19.876 176.918 19.8519C176.918 19.8277 176.918 19.8035 176.918 19.7794C176.918 19.7552 176.918 19.731 176.918 19.7069C176.918 19.6827 176.918 19.6585 176.918 19.6343C176.918 19.6102 176.918 19.586 176.918 19.5618C176.918 19.5377 176.918 19.5135 176.918 19.4893C176.918 19.4652 176.918 19.441 176.918 19.4168C176.918 19.3926 176.918 19.3685 176.918 19.3443C176.918 19.3201 176.918 19.296 176.918 19.2718C176.918 19.2476 176.918 19.2235 176.918 19.1993C176.918 19.1751 176.918 19.1509 176.918 19.1268C176.918 19.1026 176.918 19.0784 176.918 19.0543C176.918 19.0301 176.918 19.0059 176.918 18.9818C176.918 18.9576 176.918 18.9334 176.918 18.9092C176.918 18.8851 176.918 18.8609 176.918 18.8367C176.918 18.8126 176.918 18.7884 176.918 18.7642C176.918 18.7401 176.918 18.7159 176.918 18.6917C176.918 18.6675 176.918 18.6434 176.918 18.6192C176.918 18.595 176.918 18.5709 176.918 18.5467C176.918 18.5225 176.918 18.4984 176.918 18.4742C176.918 18.45 176.918 18.4258 176.918 18.4017C176.918 18.3775 176.918 18.3533 176.918 18.3292C176.918 18.305 176.918 18.2808 176.918 18.2567C176.918 18.2325 176.918 18.2083 176.918 18.1841C176.918 18.16 176.918 18.1358 176.918 18.1116C176.918 18.0875 176.918 18.0633 176.918 18.0391C176.918 18.015 176.918 17.9908 176.918 17.9666C176.918 17.9424 176.918 17.9183 176.918 17.8941C176.918 17.8699 176.918 17.8458 176.918 17.8216C176.918 17.7974 176.918 17.7733 176.918 17.7491C176.918 17.7249 176.918 17.7008 176.918 17.6766C176.918 17.6524 176.918 17.6282 176.918 17.6041C176.918 17.5799 176.918 17.5557 176.918 17.5316C176.918 17.5074 176.918 17.4832 176.918 17.4591C176.918 17.4349 176.918 17.4107 176.918 17.3865C176.918 17.3624 176.918 17.3382 176.918 17.314C176.918 17.2899 176.918 17.2657 176.918 17.2415C176.918 17.2174 176.918 17.1932 176.918 17.169C176.918 17.1448 176.918 17.1207 176.918 17.0965C176.918 17.0723 176.918 17.0482 176.918 17.024C176.918 16.9998 176.918 16.9757 176.918 16.9515C176.918 16.9273 176.918 16.9031 176.918 16.879C176.918 16.8548 176.918 16.8306 176.918 16.8065C176.918 16.7823 176.918 16.7581 176.918 16.734C176.918 16.7098 176.918 16.6856 176.918 16.6614C176.918 16.6373 176.918 16.6131 176.918 16.5889C176.918 16.5648 176.918 16.5406 176.918 16.5164C176.918 16.4923 176.918 16.4681 176.918 16.4439C176.918 16.4197 176.918 16.3956 176.918 16.3714C176.918 16.3472 176.918 16.3231 176.918 16.2989C176.918 16.2747 176.918 16.2506 176.918 16.2264C176.918 16.2022 176.918 16.178 176.918 16.1539C176.918 16.1297 176.918 16.1055 176.918 16.0814C176.918 16.0572 176.918 16.033 176.918 16.0089C176.918 15.9847 176.918 15.9605 176.918 15.9363C176.918 15.9122 176.918 15.888 176.918 15.8638C176.918 15.8397 176.918 15.8155 176.918 15.7913C176.918 15.7672 176.918 15.743 176.918 15.7188C176.918 15.6946 176.918 15.6705 176.918 15.6463C176.918 15.6221 176.918 15.598 176.918 15.5738C176.918 15.5496 176.918 15.5255 176.918 15.5013C176.918 15.4771 176.918 15.4529 176.918 15.4288C176.918 15.4046 176.918 15.3804 176.918 15.3563C176.918 15.3321 176.918 15.3079 176.918 15.2838C176.918 15.2596 176.918 15.2354 176.918 15.2112C176.918 15.1871 176.918 15.1629 176.918 15.1387C176.918 15.1146 176.918 15.0904 176.918 15.0662C176.918 15.0421 176.918 15.0179 176.918 14.9937C176.918 14.9695 176.918 14.9454 176.918 14.9212C176.918 14.897 176.918 14.8729 176.918 14.8487C176.918 14.8245 176.918 14.8004 176.918 14.7762C176.918 14.752 176.918 14.7279 176.918 14.7037C176.918 14.6795 176.918 14.6553 176.918 14.6312C176.918 14.607 176.918 14.5828 176.918 14.5587C176.918 14.5345 176.918 14.5103 176.918 14.4862C176.918 14.462 176.918 14.4378 176.918 14.4136C176.918 14.3895 176.918 14.3653 176.918 14.3411C176.918 14.317 176.918 14.2928 176.918 14.2686C176.918 14.2445 176.918 14.2203 176.918 14.1961C176.918 14.1719 176.918 14.1478 176.918 14.1236C176.918 14.0994 176.918 14.0753 176.918 14.0511C176.918 14.0269 176.918 14.0028 176.918 13.9786C176.918 13.9544 176.918 13.9302 176.918 13.9061C176.918 13.8819 176.918 13.8577 176.918 13.8336C176.918 13.8094 176.918 13.7852 176.918 13.7611C176.918 13.7369 176.918 13.7127 176.918 13.6885C176.918 13.6644 176.918 13.6402 176.918 13.616C176.918 13.5919 176.918 13.5677 176.918 13.5435C176.918 13.5194 176.918 13.4952 176.918 13.471C176.918 13.4468 176.918 13.4227 176.918 13.3985C176.918 13.3743 176.918 13.3502 176.918 13.326C176.918 13.3018 176.918 13.2777 176.918 13.2535C176.918 13.2293 176.918 13.2051 176.918 13.181C176.918 13.1568 176.918 13.1326 176.918 13.1085C176.918 13.0843 176.918 13.0601 176.918 13.036C176.918 13.0118 176.918 12.9876 176.918 12.9634C176.918 12.9393 176.918 12.9151 176.918 12.8909C176.918 12.8668 176.918 12.8426 176.918 12.8184C176.918 12.7943 176.918 12.7701 176.918 12.7459C176.918 12.7217 176.918 12.6976 176.918 12.6734C176.918 12.6492 176.918 12.6251 176.918 12.6009C176.918 12.5767 176.918 12.5526 176.918 12.5284C176.918 12.5042 176.918 12.48 176.918 12.4559C176.918 12.4317 176.918 12.4075 176.918 12.3834C176.918 12.3592 176.918 12.335 176.918 12.3109C176.918 12.2867 176.918 12.2625 176.918 12.2383C176.918 12.2142 176.918 12.19 176.918 12.1658C176.918 12.1417 176.918 12.1175 176.918 12.0933C176.918 12.0692 176.918 12.045 176.918 12.0208C176.918 11.9966 176.918 11.9725 176.918 11.9483C176.918 11.9241 176.918 11.9 176.918 11.8758C176.918 11.8516 176.918 11.8275 176.918 11.8033C176.918 11.7791 176.918 11.7549 176.918 11.7308C176.918 11.7066 176.918 11.6824 176.918 11.6583C176.918 11.6341 176.918 11.6099 176.918 11.5858C176.918 11.5616 176.918 11.5374 176.918 11.5133C176.918 11.4891 176.918 11.4649 176.918 11.4407C176.918 11.4166 176.918 11.3924 176.918 11.3682C176.918 11.3441 176.918 11.3199 176.918 11.2957C176.918 11.2716 176.918 11.2474 176.918 11.2232C176.918 11.199 176.918 11.1749 176.918 11.1507C176.918 11.1265 176.918 11.1024 176.918 11.0782C176.918 11.054 176.918 11.0299 176.918 11.0057C176.918 10.9815 176.918 10.9573 176.918 10.9332C176.918 10.909 176.918 10.8848 176.918 10.8607C176.918 10.8365 176.918 10.8123 176.918 10.7882C176.918 10.764 176.918 10.7398 176.918 10.7156C176.918 10.6915 176.918 10.6673 176.918 10.6431C176.918 10.619 176.918 10.5948 176.918 10.5706C176.918 10.5465 176.918 10.5223 176.918 10.4981C176.918 10.4739 176.918 10.4498 176.918 10.4256C176.918 10.4014 176.918 10.3773 176.918 10.3531C176.918 10.3289 176.918 10.3048 176.918 10.2806C176.918 10.2564 176.918 10.2322 176.918 10.2081C176.918 10.1839 176.918 10.1597 176.918 10.1356C176.918 10.1114 176.918 10.0872 176.918 10.0631C176.918 10.0389 176.918 10.0147 176.918 9.99055C176.918 9.96638 176.918 9.94221 176.918 9.91804C176.918 9.89387 176.918 9.8697 176.918 9.84553C176.918 9.82136 176.918 9.79719 176.918 9.77302C176.918 9.74885 176.918 9.72468 176.918 9.70051C176.918 9.67634 176.918 9.65217 176.918 9.628C176.918 9.60383 176.918 9.57966 176.918 9.55549C176.918 9.53132 176.918 9.50715 176.918 9.48298C176.918 9.45881 176.918 9.43464 176.918 9.41047C176.918 9.3863 176.918 9.36213 176.918 9.33796C176.918 9.31379 176.918 9.28962 176.918 9.26545C176.918 9.24128 176.918 9.21711 176.918 9.19294C176.918 9.16877 176.918 9.1446 176.918 9.12043C176.918 9.09626 176.918 9.07209 176.918 9.04792C176.918 9.02375 176.918 8.99958 176.918 8.97541C176.918 8.95124 176.918 8.92707 176.918 8.9029C176.918 8.87873 176.918 8.85456 176.918 8.83039C176.918 8.80622 176.918 8.78205 176.918 8.75788C176.918 8.73371 176.918 8.70954 176.918 8.68537C176.918 8.6612 176.918 8.63703 176.918 8.61286C176.918 8.58869 176.918 8.56452 176.918 8.54035C176.918 8.51618 176.918 8.49201 176.918 8.46784C176.918 8.44367 176.918 8.4195 176.918 8.39533C176.918 8.37116 176.918 8.34699 176.918 8.32282C176.918 8.29865 176.918 8.27448 176.918 8.25031C176.918 8.22614 176.918 8.20197 176.918 8.1778C176.918 8.15363 176.918 8.12946 176.918 8.10529C176.918 8.08112 176.918 8.05695 176.918 8.03278C176.918 8.00861 176.918 7.98444 176.918 7.96027C176.918 7.9361 176.918 7.91193 176.918 7.88776C176.918 7.86359 176.918 7.83942 176.918 7.81525C176.918 7.79108 176.918 7.76691 176.918 7.74274C176.918 7.71857 176.918 7.6944 176.918 7.67023C176.918 7.64606 176.918 7.62189 176.918 7.59772C176.918 7.57355 176.918 7.54938 176.918 7.52521C176.918 7.50104 176.918 7.47687 176.918 7.4527C176.918 7.42853 176.918 7.40436 176.918 7.38019C176.918 7.35602 176.918 7.33185 176.918 7.30768C176.918 7.28351 176.918 7.25934 176.918 7.23517C176.918 7.211 176.918 7.18683 176.918 7.16266C176.918 7.13849 176.918 7.11432 176.918 7.09015C176.918 7.06598 176.918 7.04182 176.918 7.01765C176.918 6.99348 176.918 6.96931 176.918 6.94514C176.918 6.92097 176.918 6.8968 176.918 6.87263C176.918 6.84846 176.918 6.82429 176.918 6.80012C176.918 6.77595 176.918 6.75178 176.918 6.72761C176.918 6.70344 176.918 6.67927 176.918 6.6551C176.918 6.63093 176.918 6.60676 176.918 6.58259C176.918 6.55842 176.918 6.53425 176.918 6.51008C176.918 6.48591 176.918 6.46174 176.918 6.43757C176.918 6.4134 176.918 6.38923 176.918 6.36506C176.918 6.34089 176.918 6.31672 176.918 6.29255C176.918 6.26838 176.918 6.24421 176.918 6.22004C176.918 6.19587 176.918 6.1717 176.918 6.14753C176.918 6.12336 176.918 6.09919 176.918 6.07502C176.918 6.05085 176.918 6.02668 176.918 6.00251C176.918 5.97834 176.918 5.95417 176.918 5.93H172.918C172.918 5.95417 172.918 5.97834 172.918 6.00251C172.918 6.02668 172.918 6.05085 172.918 6.07502C172.918 6.09919 172.918 6.12336 172.918 6.14753C172.918 6.1717 172.918 6.19587 172.918 6.22004C172.918 6.24421 172.918 6.26838 172.918 6.29255C172.918 6.31672 172.918 6.34089 172.918 6.36506C172.918 6.38923 172.918 6.4134 172.918 6.43757C172.918 6.46174 172.918 6.48591 172.918 6.51008C172.918 6.53425 172.918 6.55842 172.918 6.58259C172.918 6.60676 172.918 6.63093 172.918 6.6551C172.918 6.67927 172.918 6.70344 172.918 6.72761C172.918 6.75178 172.918 6.77595 172.918 6.80012C172.918 6.82429 172.918 6.84846 172.918 6.87263C172.918 6.8968 172.918 6.92097 172.918 6.94514C172.918 6.96931 172.918 6.99348 172.918 7.01765C172.918 7.04182 172.918 7.06598 172.918 7.09015C172.918 7.11432 172.918 7.13849 172.918 7.16266C172.918 7.18683 172.918 7.211 172.918 7.23517C172.918 7.25934 172.918 7.28351 172.918 7.30768C172.918 7.33185 172.918 7.35602 172.918 7.38019C172.918 7.40436 172.918 7.42853 172.918 7.4527C172.918 7.47687 172.918 7.50104 172.918 7.52521C172.918 7.54938 172.918 7.57355 172.918 7.59772C172.918 7.62189 172.918 7.64606 172.918 7.67023C172.918 7.6944 172.918 7.71857 172.918 7.74274C172.918 7.76691 172.918 7.79108 172.918 7.81525C172.918 7.83942 172.918 7.86359 172.918 7.88776C172.918 7.91193 172.918 7.9361 172.918 7.96027C172.918 7.98444 172.918 8.00861 172.918 8.03278C172.918 8.05695 172.918 8.08112 172.918 8.10529C172.918 8.12946 172.918 8.15363 172.918 8.1778C172.918 8.20197 172.918 8.22614 172.918 8.25031C172.918 8.27448 172.918 8.29865 172.918 8.32282C172.918 8.34699 172.918 8.37116 172.918 8.39533C172.918 8.4195 172.918 8.44367 172.918 8.46784C172.918 8.49201 172.918 8.51618 172.918 8.54035C172.918 8.56452 172.918 8.58869 172.918 8.61286C172.918 8.63703 172.918 8.6612 172.918 8.68537C172.918 8.70954 172.918 8.73371 172.918 8.75788C172.918 8.78205 172.918 8.80622 172.918 8.83039C172.918 8.85456 172.918 8.87873 172.918 8.9029C172.918 8.92707 172.918 8.95124 172.918 8.97541C172.918 8.99958 172.918 9.02375 172.918 9.04792C172.918 9.07209 172.918 9.09626 172.918 9.12043C172.918 9.1446 172.918 9.16877 172.918 9.19294C172.918 9.21711 172.918 9.24128 172.918 9.26545C172.918 9.28962 172.918 9.31379 172.918 9.33796C172.918 9.36213 172.918 9.3863 172.918 9.41047C172.918 9.43464 172.918 9.45881 172.918 9.48298C172.918 9.50715 172.918 9.53132 172.918 9.55549C172.918 9.57966 172.918 9.60383 172.918 9.628C172.918 9.65217 172.918 9.67634 172.918 9.70051C172.918 9.72468 172.918 9.74885 172.918 9.77302C172.918 9.79719 172.918 9.82136 172.918 9.84553C172.918 9.8697 172.918 9.89387 172.918 9.91804C172.918 9.94221 172.918 9.96638 172.918 9.99055C172.918 10.0147 172.918 10.0389 172.918 10.0631C172.918 10.0872 172.918 10.1114 172.918 10.1356C172.918 10.1597 172.918 10.1839 172.918 10.2081C172.918 10.2322 172.918 10.2564 172.918 10.2806C172.918 10.3048 172.918 10.3289 172.918 10.3531C172.918 10.3773 172.918 10.4014 172.918 10.4256C172.918 10.4498 172.918 10.4739 172.918 10.4981C172.918 10.5223 172.918 10.5465 172.918 10.5706C172.918 10.5948 172.918 10.619 172.918 10.6431C172.918 10.6673 172.918 10.6915 172.918 10.7156C172.918 10.7398 172.918 10.764 172.918 10.7882C172.918 10.8123 172.918 10.8365 172.918 10.8607C172.918 10.8848 172.918 10.909 172.918 10.9332C172.918 10.9573 172.918 10.9815 172.918 11.0057C172.918 11.0299 172.918 11.054 172.918 11.0782C172.918 11.1024 172.918 11.1265 172.918 11.1507C172.918 11.1749 172.918 11.199 172.918 11.2232C172.918 11.2474 172.918 11.2716 172.918 11.2957C172.918 11.3199 172.918 11.3441 172.918 11.3682C172.918 11.3924 172.918 11.4166 172.918 11.4407C172.918 11.4649 172.918 11.4891 172.918 11.5133C172.918 11.5374 172.918 11.5616 172.918 11.5858C172.918 11.6099 172.918 11.6341 172.918 11.6583C172.918 11.6824 172.918 11.7066 172.918 11.7308C172.918 11.7549 172.918 11.7791 172.918 11.8033C172.918 11.8275 172.918 11.8516 172.918 11.8758C172.918 11.9 172.918 11.9241 172.918 11.9483C172.918 11.9725 172.918 11.9966 172.918 12.0208C172.918 12.045 172.918 12.0692 172.918 12.0933C172.918 12.1175 172.918 12.1417 172.918 12.1658C172.918 12.19 172.918 12.2142 172.918 12.2383C172.918 12.2625 172.918 12.2867 172.918 12.3109C172.918 12.335 172.918 12.3592 172.918 12.3834C172.918 12.4075 172.918 12.4317 172.918 12.4559C172.918 12.48 172.918 12.5042 172.918 12.5284C172.918 12.5526 172.918 12.5767 172.918 12.6009C172.918 12.6251 172.918 12.6492 172.918 12.6734C172.918 12.6976 172.918 12.7217 172.918 12.7459C172.918 12.7701 172.918 12.7943 172.918 12.8184C172.918 12.8426 172.918 12.8668 172.918 12.8909C172.918 12.9151 172.918 12.9393 172.918 12.9634C172.918 12.9876 172.918 13.0118 172.918 13.036C172.918 13.0601 172.918 13.0843 172.918 13.1085C172.918 13.1326 172.918 13.1568 172.918 13.181C172.918 13.2051 172.918 13.2293 172.918 13.2535C172.918 13.2777 172.918 13.3018 172.918 13.326C172.918 13.3502 172.918 13.3743 172.918 13.3985C172.918 13.4227 172.918 13.4468 172.918 13.471C172.918 13.4952 172.918 13.5194 172.918 13.5435C172.918 13.5677 172.918 13.5919 172.918 13.616C172.918 13.6402 172.918 13.6644 172.918 13.6885C172.918 13.7127 172.918 13.7369 172.918 13.7611C172.918 13.7852 172.918 13.8094 172.918 13.8336C172.918 13.8577 172.918 13.8819 172.918 13.9061C172.918 13.9302 172.918 13.9544 172.918 13.9786C172.918 14.0028 172.918 14.0269 172.918 14.0511C172.918 14.0753 172.918 14.0994 172.918 14.1236C172.918 14.1478 172.918 14.1719 172.918 14.1961C172.918 14.2203 172.918 14.2445 172.918 14.2686C172.918 14.2928 172.918 14.317 172.918 14.3411C172.918 14.3653 172.918 14.3895 172.918 14.4136C172.918 14.4378 172.918 14.462 172.918 14.4862C172.918 14.5103 172.918 14.5345 172.918 14.5587C172.918 14.5828 172.918 14.607 172.918 14.6312C172.918 14.6553 172.918 14.6795 172.918 14.7037C172.918 14.7279 172.918 14.752 172.918 14.7762C172.918 14.8004 172.918 14.8245 172.918 14.8487C172.918 14.8729 172.918 14.897 172.918 14.9212C172.918 14.9454 172.918 14.9695 172.918 14.9937C172.918 15.0179 172.918 15.0421 172.918 15.0662C172.918 15.0904 172.918 15.1146 172.918 15.1387C172.918 15.1629 172.918 15.1871 172.918 15.2112C172.918 15.2354 172.918 15.2596 172.918 15.2838C172.918 15.3079 172.918 15.3321 172.918 15.3563C172.918 15.3804 172.918 15.4046 172.918 15.4288C172.918 15.4529 172.918 15.4771 172.918 15.5013C172.918 15.5255 172.918 15.5496 172.918 15.5738C172.918 15.598 172.918 15.6221 172.918 15.6463C172.918 15.6705 172.918 15.6946 172.918 15.7188C172.918 15.743 172.918 15.7672 172.918 15.7913C172.918 15.8155 172.918 15.8397 172.918 15.8638C172.918 15.888 172.918 15.9122 172.918 15.9363C172.918 15.9605 172.918 15.9847 172.918 16.0089C172.918 16.033 172.918 16.0572 172.918 16.0814C172.918 16.1055 172.918 16.1297 172.918 16.1539C172.918 16.178 172.918 16.2022 172.918 16.2264C172.918 16.2506 172.918 16.2747 172.918 16.2989C172.918 16.3231 172.918 16.3472 172.918 16.3714C172.918 16.3956 172.918 16.4197 172.918 16.4439C172.918 16.4681 172.918 16.4923 172.918 16.5164C172.918 16.5406 172.918 16.5648 172.918 16.5889C172.918 16.6131 172.918 16.6373 172.918 16.6614C172.918 16.6856 172.918 16.7098 172.918 16.734C172.918 16.7581 172.918 16.7823 172.918 16.8065C172.918 16.8306 172.918 16.8548 172.918 16.879C172.918 16.9031 172.918 16.9273 172.918 16.9515C172.918 16.9757 172.918 16.9998 172.918 17.024C172.918 17.0482 172.918 17.0723 172.918 17.0965C172.918 17.1207 172.918 17.1448 172.918 17.169C172.918 17.1932 172.918 17.2174 172.918 17.2415C172.918 17.2657 172.918 17.2899 172.918 17.314C172.918 17.3382 172.918 17.3624 172.918 17.3865C172.918 17.4107 172.918 17.4349 172.918 17.4591C172.918 17.4832 172.918 17.5074 172.918 17.5316C172.918 17.5557 172.918 17.5799 172.918 17.6041C172.918 17.6282 172.918 17.6524 172.918 17.6766C172.918 17.7008 172.918 17.7249 172.918 17.7491C172.918 17.7733 172.918 17.7974 172.918 17.8216C172.918 17.8458 172.918 17.8699 172.918 17.8941C172.918 17.9183 172.918 17.9424 172.918 17.9666C172.918 17.9908 172.918 18.015 172.918 18.0391C172.918 18.0633 172.918 18.0875 172.918 18.1116C172.918 18.1358 172.918 18.16 172.918 18.1841C172.918 18.2083 172.918 18.2325 172.918 18.2567C172.918 18.2808 172.918 18.305 172.918 18.3292C172.918 18.3533 172.918 18.3775 172.918 18.4017C172.918 18.4258 172.918 18.45 172.918 18.4742C172.918 18.4984 172.918 18.5225 172.918 18.5467C172.918 18.5709 172.918 18.595 172.918 18.6192C172.918 18.6434 172.918 18.6675 172.918 18.6917C172.918 18.7159 172.918 18.7401 172.918 18.7642C172.918 18.7884 172.918 18.8126 172.918 18.8367C172.918 18.8609 172.918 18.8851 172.918 18.9092C172.918 18.9334 172.918 18.9576 172.918 18.9818C172.918 19.0059 172.918 19.0301 172.918 19.0543C172.918 19.0784 172.918 19.1026 172.918 19.1268C172.918 19.1509 172.918 19.1751 172.918 19.1993C172.918 19.2235 172.918 19.2476 172.918 19.2718C172.918 19.296 172.918 19.3201 172.918 19.3443C172.918 19.3685 172.918 19.3926 172.918 19.4168C172.918 19.441 172.918 19.4652 172.918 19.4893C172.918 19.5135 172.918 19.5377 172.918 19.5618C172.918 19.586 172.918 19.6102 172.918 19.6343C172.918 19.6585 172.918 19.6827 172.918 19.7069C172.918 19.731 172.918 19.7552 172.918 19.7794C172.918 19.8035 172.918 19.8277 172.918 19.8519C172.918 19.876 172.918 19.9002 172.918 19.9244C172.918 19.9486 172.918 19.9727 172.918 19.9969C172.918 20.0211 172.918 20.0452 172.918 20.0694C172.918 20.0936 172.918 20.1177 172.918 20.1419C172.918 20.1661 172.918 20.1903 172.918 20.2144C172.918 20.2386 172.918 20.2628 172.918 20.2869C172.918 20.3111 172.918 20.3353 172.918 20.3594C172.918 20.3836 172.918 20.4078 172.918 20.432C172.918 20.4561 172.918 20.4803 172.918 20.5045C172.918 20.5286 172.918 20.5528 172.918 20.577C172.918 20.6011 172.918 20.6253 172.918 20.6495C172.918 20.6737 172.918 20.6978 172.918 20.722C172.918 20.7462 172.918 20.7703 172.918 20.7945C172.918 20.8187 172.918 20.8428 172.918 20.867C172.918 20.8912 172.918 20.9154 172.918 20.9395C172.918 20.9637 172.918 20.9879 172.918 21.012C172.918 21.0362 172.918 21.0604 172.918 21.0845C172.918 21.1087 172.918 21.1329 172.918 21.157C172.918 21.1812 172.918 21.2054 172.918 21.2296C172.918 21.2537 172.918 21.2779 172.918 21.3021C172.918 21.3262 172.918 21.3504 172.918 21.3746C172.918 21.3987 172.918 21.4229 172.918 21.4471C172.918 21.4713 172.918 21.4954 172.918 21.5196C172.918 21.5438 172.918 21.5679 172.918 21.5921C172.918 21.6163 172.918 21.6404 172.918 21.6646C172.918 21.6888 172.918 21.713 172.918 21.7371C172.918 21.7613 172.918 21.7855 172.918 21.8096C172.918 21.8338 172.918 21.858 172.918 21.8821C172.918 21.9063 172.918 21.9305 172.918 21.9547C172.918 21.9788 172.918 22.003 172.918 22.0272C172.918 22.0513 172.918 22.0755 172.918 22.0997C172.918 22.1238 172.918 22.148 172.918 22.1722C172.918 22.1964 172.918 22.2205 172.918 22.2447C172.918 22.2689 172.918 22.293 172.918 22.3172C172.918 22.3414 172.918 22.3655 172.918 22.3897C172.918 22.4139 172.918 22.4381 172.918 22.4622C172.918 22.4864 172.918 22.5106 172.918 22.5347C172.918 22.5589 172.918 22.5831 172.918 22.6072C172.918 22.6314 172.918 22.6556 172.918 22.6798C172.918 22.7039 172.918 22.7281 172.918 22.7523C172.918 22.7764 172.918 22.8006 172.918 22.8248C172.918 22.8489 172.918 22.8731 172.918 22.8973C172.918 22.9215 172.918 22.9456 172.918 22.9698C172.918 22.994 172.918 23.0181 172.918 23.0423C172.918 23.0665 172.918 23.0906 172.918 23.1148C172.918 23.139 172.918 23.1632 172.918 23.1873C172.918 23.2115 172.918 23.2357 172.918 23.2598C172.918 23.284 172.918 23.3082 172.918 23.3323C172.918 23.3565 172.918 23.3807 172.918 23.4049C172.918 23.429 172.918 23.4532 172.918 23.4774C172.918 23.5015 172.918 23.5257 172.918 23.5499C172.918 23.574 172.918 23.5982 172.918 23.6224C172.918 23.6466 172.918 23.6707 172.918 23.6949C172.918 23.7191 172.918 23.7432 172.918 23.7674C172.918 23.7916 172.918 23.8157 172.918 23.8399C172.918 23.8641 172.918 23.8883 172.918 23.9124C172.918 23.9366 172.918 23.9608 172.918 23.9849C172.918 24.0091 172.918 24.0333 172.918 24.0574C172.918 24.0816 172.918 24.1058 172.918 24.13C172.918 24.1541 172.918 24.1783 172.918 24.2025C172.918 24.2266 172.918 24.2508 172.918 24.275C172.918 24.2991 172.918 24.3233 172.918 24.3475C172.918 24.3716 172.918 24.3958 172.918 24.42C172.918 24.4442 172.918 24.4683 172.918 24.4925C172.918 24.5167 172.918 24.5408 172.918 24.565C172.918 24.5892 172.918 24.6133 172.918 24.6375C172.918 24.6617 172.918 24.6859 172.918 24.71C172.918 24.7342 172.918 24.7584 172.918 24.7825C172.918 24.8067 172.918 24.8309 172.918 24.855C172.918 24.8792 172.918 24.9034 172.918 24.9276C172.918 24.9517 172.918 24.9759 172.918 25.0001C172.918 25.0242 172.918 25.0484 172.918 25.0726C172.918 25.0967 172.918 25.1209 172.918 25.1451C172.918 25.1693 172.918 25.1934 172.918 25.2176C172.918 25.2418 172.918 25.2659 172.918 25.2901C172.918 25.3143 172.918 25.3384 172.918 25.3626C172.918 25.3868 172.918 25.411 172.918 25.4351C172.918 25.4593 172.918 25.4835 172.918 25.5076C172.918 25.5318 172.918 25.556 172.918 25.5801C172.918 25.6043 172.918 25.6285 172.918 25.6527C172.918 25.6768 172.918 25.701 172.918 25.7252C172.918 25.7493 172.918 25.7735 172.918 25.7977C172.918 25.8218 172.918 25.846 172.918 25.8702C172.918 25.8944 172.918 25.9185 172.918 25.9427C172.918 25.9669 172.918 25.991 172.918 26.0152C172.918 26.0394 172.918 26.0635 172.918 26.0877C172.918 26.1119 172.918 26.1361 172.918 26.1602C172.918 26.1844 172.918 26.2086 172.918 26.2327C172.918 26.2569 172.918 26.2811 172.918 26.3052C172.918 26.3294 172.918 26.3536 172.918 26.3778C172.918 26.4019 172.918 26.4261 172.918 26.4503C172.918 26.4744 172.918 26.4986 172.918 26.5228C172.918 26.5469 172.918 26.5711 172.918 26.5953C172.918 26.6195 172.918 26.6436 172.918 26.6678C172.918 26.692 172.918 26.7161 172.918 26.7403C172.918 26.7645 172.918 26.7886 172.918 26.8128C172.918 26.837 172.918 26.8612 172.918 26.8853C172.918 26.9095 172.918 26.9337 172.918 26.9578C172.918 26.982 172.918 27.0062 172.918 27.0303C172.918 27.0545 172.918 27.0787 172.918 27.1029C172.918 27.127 172.918 27.1512 172.918 27.1754C172.918 27.1995 172.918 27.2237 172.918 27.2479C172.918 27.272 172.918 27.2962 172.918 27.3204C172.918 27.3445 172.918 27.3687 172.918 27.3929C172.918 27.4171 172.918 27.4412 172.918 27.4654C172.918 27.4896 172.918 27.5137 172.918 27.5379C172.918 27.5621 172.918 27.5862 172.918 27.6104C172.918 27.6346 172.918 27.6588 172.918 27.6829C172.918 27.7071 172.918 27.7313 172.918 27.7554C172.918 27.7796 172.918 27.8038 172.918 27.8279C172.918 27.8521 172.918 27.8763 172.918 27.9005C172.918 27.9246 172.918 27.9488 172.918 27.973C172.918 27.9971 172.918 28.0213 172.918 28.0455C172.918 28.0696 172.918 28.0938 172.918 28.118C172.918 28.1422 172.918 28.1663 172.918 28.1905C172.918 28.2147 172.918 28.2388 172.918 28.263C172.918 28.2872 172.918 28.3113 172.918 28.3355C172.918 28.3597 172.918 28.3839 172.918 28.408C172.918 28.4322 172.918 28.4564 172.918 28.4805C172.918 28.5047 172.918 28.5289 172.918 28.553C172.918 28.5772 172.918 28.6014 172.918 28.6256C172.918 28.6497 172.918 28.6739 172.918 28.6981C172.918 28.7222 172.918 28.7464 172.918 28.7706C172.918 28.7947 172.918 28.8189 172.918 28.8431C172.918 28.8673 172.918 28.8914 172.918 28.9156C172.918 28.9398 172.918 28.9639 172.918 28.9881C172.918 29.0123 172.918 29.0364 172.918 29.0606C172.918 29.0848 172.918 29.109 172.918 29.1331C172.918 29.1573 172.918 29.1815 172.918 29.2056C172.918 29.2298 172.918 29.254 172.918 29.2781C172.918 29.3023 172.918 29.3265 172.918 29.3507C172.918 29.3748 172.918 29.399 172.918 29.4232C172.918 29.4473 172.918 29.4715 172.918 29.4957C172.918 29.5198 172.918 29.544 172.918 29.5682C172.918 29.5924 172.918 29.6165 172.918 29.6407C172.918 29.6649 172.918 29.689 172.918 29.7132C172.918 29.7374 172.918 29.7615 172.918 29.7857C172.918 29.8099 172.918 29.8341 172.918 29.8582C172.918 29.8824 172.918 29.9066 172.918 29.9307C172.918 29.9549 172.918 29.9791 172.918 30.0032C172.918 30.0274 172.918 30.0516 172.918 30.0758C172.918 30.0999 172.918 30.1241 172.918 30.1483C172.918 30.1724 172.918 30.1966 172.918 30.2208C172.918 30.2449 172.918 30.2691 172.918 30.2933C172.918 30.3175 172.918 30.3416 172.918 30.3658C172.918 30.39 172.918 30.4141 172.918 30.4383C172.918 30.4625 172.918 30.4866 172.918 30.5108C172.918 30.535 172.918 30.5591 172.918 30.5833C172.918 30.6075 172.918 30.6317 172.918 30.6558C172.918 30.68 172.918 30.7042 172.918 30.7283C172.918 30.7525 172.918 30.7767 172.918 30.8008C172.918 30.825 172.918 30.8492 172.918 30.8734C172.918 30.8975 172.918 30.9217 172.918 30.9459C172.918 30.97 172.918 30.9942 172.918 31.0184C172.918 31.0425 172.918 31.0667 172.918 31.0909C172.918 31.1151 172.918 31.1392 172.918 31.1634C172.918 31.1876 172.918 31.2117 172.918 31.2359C172.918 31.2601 172.918 31.2842 172.918 31.3084C172.918 31.3326 172.918 31.3568 172.918 31.3809C172.918 31.4051 172.918 31.4293 172.918 31.4534C172.918 31.4776 172.918 31.5018 172.918 31.5259C172.918 31.5501 172.918 31.5743 172.918 31.5985C172.918 31.6226 172.918 31.6468 172.918 31.671C172.918 31.6951 172.918 31.7193 172.918 31.7435C172.918 31.7676 172.918 31.7918 172.918 31.816C172.918 31.8402 172.918 31.8643 172.918 31.8885C172.918 31.9127 172.918 31.9368 172.918 31.961C172.918 31.9852 172.918 32.0093 172.918 32.0335C172.918 32.0577 172.918 32.0819 172.918 32.106C172.918 32.1302 172.918 32.1544 172.918 32.1785C172.918 32.2027 172.918 32.2269 172.918 32.251C172.918 32.2752 172.918 32.2994 172.918 32.3236C172.918 32.3477 172.918 32.3719 172.918 32.3961C172.918 32.4202 172.918 32.4444 172.918 32.4686C172.918 32.4927 172.918 32.5169 172.918 32.5411C172.918 32.5653 172.918 32.5894 172.918 32.6136C172.918 32.6378 172.918 32.6619 172.918 32.6861C172.918 32.7103 172.918 32.7344 172.918 32.7586C172.918 32.7828 172.918 32.807 172.918 32.8311C172.918 32.8553 172.918 32.8795 172.918 32.9036C172.918 32.9278 172.918 32.952 172.918 32.9761C172.918 33.0003 172.918 33.0245 172.918 33.0487C172.918 33.0728 172.918 33.097 172.918 33.1212C172.918 33.1453 172.918 33.1695 172.918 33.1937C172.918 33.2178 172.918 33.242 172.918 33.2662C172.918 33.2904 172.918 33.3145 172.918 33.3387C172.918 33.3629 172.918 33.387 172.918 33.4112C172.918 33.4354 172.918 33.4595 172.918 33.4837C172.918 33.5079 172.918 33.5321 172.918 33.5562C172.918 33.5804 172.918 33.6046 172.918 33.6287C172.918 33.6529 172.918 33.6771 172.918 33.7012C172.918 33.7254 172.918 33.7496 172.918 33.7737C172.918 33.7979 172.918 33.8221 172.918 33.8463C172.918 33.8704 172.918 33.8946 172.918 33.9188C172.918 33.9429 172.918 33.9671 172.918 33.9913C172.918 34.0154 172.918 34.0396 172.918 34.0638C172.918 34.088 172.918 34.1121 172.918 34.1363C172.918 34.1605 172.918 34.1846 172.918 34.2088C172.918 34.233 172.918 34.2571 172.918 34.2813C172.918 34.3055 172.918 34.3297 172.918 34.3538C172.918 34.378 172.918 34.4022 172.918 34.4263C172.918 34.4505 172.918 34.4747 172.918 34.4988C172.918 34.523 172.918 34.5472 172.918 34.5714C172.918 34.5955 172.918 34.6197 172.918 34.6439C172.918 34.668 172.918 34.6922 172.918 34.7164C172.918 34.7405 172.918 34.7647 172.918 34.7889C172.918 34.8131 172.918 34.8372 172.918 34.8614C172.918 34.8856 172.918 34.9097 172.918 34.9339C172.918 34.9581 172.918 34.9822 172.918 35.0064C172.918 35.0306 172.918 35.0548 172.918 35.0789C172.918 35.1031 172.918 35.1273 172.918 35.1514C172.918 35.1756 172.918 35.1998 172.918 35.2239C172.918 35.2481 172.918 35.2723 172.918 35.2965C172.918 35.3206 172.918 35.3448 172.918 35.369C172.918 35.3931 172.918 35.4173 172.918 35.4415C172.918 35.4656 172.918 35.4898 172.918 35.514C172.918 35.5382 172.918 35.5623 172.918 35.5865C172.918 35.6107 172.918 35.6348 172.918 35.659C172.918 35.6832 172.918 35.7073 172.918 35.7315C172.918 35.7557 172.918 35.7799 172.918 35.804C172.918 35.8282 172.918 35.8524 172.918 35.8765C172.918 35.9007 172.918 35.9249 172.918 35.949C172.918 35.9732 172.918 35.9974 172.918 36.0216C172.918 36.0457 172.918 36.0699 172.918 36.0941C172.918 36.1182 172.918 36.1424 172.918 36.1666C172.918 36.1907 172.918 36.2149 172.918 36.2391C172.918 36.2633 172.918 36.2874 172.918 36.3116C172.918 36.3358 172.918 36.3599 172.918 36.3841C172.918 36.4083 172.918 36.4324 172.918 36.4566C172.918 36.4808 172.918 36.505 172.918 36.5291C172.918 36.5533 172.918 36.5775 172.918 36.6016C172.918 36.6258 172.918 36.65 172.918 36.6741C172.918 36.6983 172.918 36.7225 172.918 36.7467C172.918 36.7708 172.918 36.795 172.918 36.8192C172.918 36.8433 172.918 36.8675 172.918 36.8917C172.918 36.9158 172.918 36.94 172.918 36.9642C172.918 36.9883 172.918 37.0125 172.918 37.0367C172.918 37.0609 172.918 37.085 172.918 37.1092C172.918 37.1334 172.918 37.1575 172.918 37.1817C172.918 37.2059 172.918 37.23 172.918 37.2542C172.918 37.2784 172.918 37.3026 172.918 37.3267C172.918 37.3509 172.918 37.3751 172.918 37.3992C172.918 37.4234 172.918 37.4476 172.918 37.4717C172.918 37.4959 172.918 37.5201 172.918 37.5443C172.918 37.5684 172.918 37.5926 172.918 37.6168C172.918 37.6409 172.918 37.6651 172.918 37.6893C172.918 37.7134 172.918 37.7376 172.918 37.7618C172.918 37.786 172.918 37.8101 172.918 37.8343C172.918 37.8585 172.918 37.8826 172.918 37.9068C172.918 37.931 172.918 37.9551 172.918 37.9793C172.918 38.0035 172.918 38.0277 172.918 38.0518C172.918 38.076 172.918 38.1002 172.918 38.1243C172.918 38.1485 172.918 38.1727 172.918 38.1968C172.918 38.221 172.918 38.2452 172.918 38.2694C172.918 38.2935 172.918 38.3177 172.918 38.3419C172.918 38.366 172.918 38.3902 172.918 38.4144C172.918 38.4385 172.918 38.4627 172.918 38.4869C172.918 38.5111 172.918 38.5352 172.918 38.5594C172.918 38.5836 172.918 38.6077 172.918 38.6319C172.918 38.6561 172.918 38.6802 172.918 38.7044C172.918 38.7286 172.918 38.7528 172.918 38.7769C172.918 38.8011 172.918 38.8253 172.918 38.8494C172.918 38.8736 172.918 38.8978 172.918 38.9219C172.918 38.9461 172.918 38.9703 172.918 38.9945C172.918 39.0186 172.918 39.0428 172.918 39.067C172.918 39.0911 172.918 39.1153 172.918 39.1395C172.918 39.1636 172.918 39.1878 172.918 39.212C172.918 39.2362 172.918 39.2603 172.918 39.2845C172.918 39.3087 172.918 39.3328 172.918 39.357C172.918 39.3812 172.918 39.4053 172.918 39.4295C172.918 39.4537 172.918 39.4779 172.918 39.502C172.918 39.5262 172.918 39.5504 172.918 39.5745C172.918 39.5987 172.918 39.6229 172.918 39.647C172.918 39.6712 172.918 39.6954 172.918 39.7196C172.918 39.7437 172.918 39.7679 172.918 39.7921C172.918 39.8162 172.918 39.8404 172.918 39.8646C172.918 39.8887 172.918 39.9129 172.918 39.9371C172.918 39.9612 172.918 39.9854 172.918 40.0096C172.918 40.0338 172.918 40.0579 172.918 40.0821C172.918 40.1063 172.918 40.1304 172.918 40.1546C172.918 40.1788 172.918 40.2029 172.918 40.2271C172.918 40.2513 172.918 40.2755 172.918 40.2996C172.918 40.3238 172.918 40.348 172.918 40.3721C172.918 40.3963 172.918 40.4205 172.918 40.4446C172.918 40.4688 172.918 40.493 172.918 40.5172C172.918 40.5413 172.918 40.5655 172.918 40.5897C172.918 40.6138 172.918 40.638 172.918 40.6622C172.918 40.6863 172.918 40.7105 172.918 40.7347C172.918 40.7589 172.918 40.783 172.918 40.8072C172.918 40.8314 172.918 40.8555 172.918 40.8797C172.918 40.9039 172.918 40.928 172.918 40.9522C172.918 40.9764 172.918 41.0006 172.918 41.0247C172.918 41.0489 172.918 41.0731 172.918 41.0972C172.918 41.1214 172.918 41.1456 172.918 41.1697C172.918 41.1939 172.918 41.2181 172.918 41.2423C172.918 41.2664 172.918 41.2906 172.918 41.3148C172.918 41.3389 172.918 41.3631 172.918 41.3873C172.918 41.4114 172.918 41.4356 172.918 41.4598C172.918 41.484 172.918 41.5081 172.918 41.5323C172.918 41.5565 172.918 41.5806 172.918 41.6048C172.918 41.629 172.918 41.6531 172.918 41.6773C172.918 41.7015 172.918 41.7257 172.918 41.7498C172.918 41.774 172.918 41.7982 172.918 41.8223C172.918 41.8465 172.918 41.8707 172.918 41.8948C172.918 41.919 172.918 41.9432 172.918 41.9674C172.918 41.9915 172.918 42.0157 172.918 42.0399C172.918 42.064 172.918 42.0882 172.918 42.1124C172.918 42.1365 172.918 42.1607 172.918 42.1849C172.918 42.2091 172.918 42.2332 172.918 42.2574C172.918 42.2816 172.918 42.3057 172.918 42.3299C172.918 42.3541 172.918 42.3782 172.918 42.4024C172.918 42.4266 172.918 42.4508 172.918 42.4749C172.918 42.4991 172.918 42.5233 172.918 42.5474C172.918 42.5716 172.918 42.5958 172.918 42.6199C172.918 42.6441 172.918 42.6683 172.918 42.6925C172.918 42.7166 172.918 42.7408 172.918 42.765C172.918 42.7891 172.918 42.8133 172.918 42.8375C172.918 42.8616 172.918 42.8858 172.918 42.91C172.918 42.9342 172.918 42.9583 172.918 42.9825C172.918 43.0067 172.918 43.0308 172.918 43.055H176.918ZM174.918 7.93H183.443V3.93H174.918V7.93ZM200.3 4.39L202.231 3.87005L201.218 0.108889L198.752 3.12352L200.3 4.39ZM198.87 6.205L197.322 4.93852L197.05 5.27079L196.938 5.68536L198.87 6.205ZM189.025 43.055L187.091 42.5456L186.43 45.055H189.025V43.055ZM189.96 43.055V45.055H191.495L191.892 43.5717L189.96 43.055ZM193.755 28.975V26.975H192.224L191.824 28.4526L193.755 28.975ZM204.975 28.975L206.905 28.4526L206.506 26.975H204.975V28.975ZM208.715 43.055L206.777 43.5507L207.162 45.055H208.715V43.055ZM210.64 43.055V45.055H213.239L212.573 42.5428L210.64 43.055ZM193.975 28.04L192.044 27.5201L191.365 30.04H193.975V28.04ZM199.365 8.02L201.297 7.505L199.375 0.290107L197.434 7.50005L199.365 8.02ZM204.7 28.04V30.04H207.303L206.632 27.525L204.7 28.04ZM198.752 3.12352C198.484 3.45104 198.233 3.77541 198.002 4.0746C197.766 4.38041 197.549 4.66104 197.322 4.93852L200.418 7.47147C200.686 7.14395 200.936 6.81959 201.167 6.52039C201.404 6.21459 201.621 5.93395 201.848 5.65648L198.752 3.12352ZM196.938 5.68536C193.639 17.9495 190.337 30.2196 187.091 42.5456L190.959 43.5644C194.202 31.2504 197.501 18.9905 200.801 6.72463L196.938 5.68536ZM189.025 45.055H189.96V41.055H189.025V45.055ZM191.892 43.5717C193.156 38.845 194.42 34.1728 195.685 29.4974L191.824 28.4526C190.559 33.1272 189.294 37.805 188.028 42.5383L191.892 43.5717ZM193.755 30.975H204.975V26.975H193.755V30.975ZM203.044 29.4974C204.31 34.1745 205.571 38.8363 206.777 43.5507L210.652 42.5593C209.438 37.8137 208.17 33.1255 206.905 28.4526L203.044 29.4974ZM208.715 45.055H210.64V41.055H208.715V45.055ZM212.573 42.5428C209.162 29.6691 205.696 16.7413 202.231 3.87005L198.369 4.90995C201.833 17.7787 205.297 30.7009 208.707 43.5672L212.573 42.5428ZM195.906 28.5599L201.296 8.53994L197.434 7.50005L192.044 27.5201L195.906 28.5599ZM197.432 8.53499L202.767 28.555L206.632 27.525L201.297 7.505L197.432 8.53499ZM204.7 26.04H193.975V30.04H204.7V26.04ZM234.322 4.39L236.254 3.87005L235.241 0.108889L232.775 3.12352L234.322 4.39ZM232.892 6.205L231.345 4.93852L231.073 5.27079L230.961 5.68536L232.892 6.205ZM223.047 43.055L221.113 42.5456L220.452 45.055H223.047V43.055ZM223.982 43.055V45.055H225.518L225.914 43.572L223.982 43.055ZM233.387 8.02L235.319 7.5007L233.387 0.317225L231.456 7.5007L233.387 8.02ZM242.737 43.055L240.803 43.5635L241.195 45.055H242.737V43.055ZM244.662 43.055V45.055H247.261L246.596 42.5428L244.662 43.055ZM232.775 3.12352C232.507 3.45104 232.256 3.77541 232.025 4.0746C231.789 4.38041 231.572 4.66104 231.345 4.93852L234.44 7.47147C234.708 7.14395 234.959 6.81959 235.19 6.52039C235.426 6.21459 235.643 5.93395 235.87 5.65648L232.775 3.12352ZM230.961 5.68536C227.661 17.9495 224.36 30.2196 221.113 42.5456L224.982 43.5644C228.225 31.2504 231.524 18.9905 234.824 6.72463L230.961 5.68536ZM223.047 45.055H223.982V41.055H223.047V45.055ZM225.914 43.572C229.049 31.8583 232.184 20.1995 235.319 8.53929L231.456 7.5007C228.321 19.1605 225.186 30.8217 222.05 42.538L225.914 43.572ZM231.456 8.53929C234.591 20.2002 237.725 31.8548 240.803 43.5635L244.672 42.5465C241.59 30.8252 238.454 19.1598 235.319 7.5007L231.456 8.53929ZM242.737 45.055H244.662V41.055H242.737V45.055ZM246.596 42.5428C243.185 29.6691 239.719 16.7413 236.254 3.87005L232.391 4.90995C235.856 17.7787 239.32 30.7009 242.729 43.5672L246.596 42.5428ZM258.885 42.12H256.885V44.12H258.885V42.12ZM258.885 20.01V18.01H256.885V20.01H258.885ZM265.705 20.01V22.01H266.775L267.369 21.1194L265.705 20.01ZM266.365 19.075L267.927 20.3244L270.526 17.075H266.365V19.075ZM258.885 19.075H256.885V21.075H258.885V19.075ZM258.885 5.93V3.93H256.885V5.93H258.885ZM267.41 5.93V7.93H268.347L268.947 7.21037L267.41 5.93ZM268.235 4.995L269.772 6.27537L272.505 2.995H268.235V4.995ZM257.07 4.995V2.995H255.07V4.995H257.07ZM257.07 43.055H255.07V45.055H257.07V43.055ZM268.235 43.055V45.055H272.505L269.772 41.7746L268.235 43.055ZM267.41 42.12L268.824 40.7058L268.239 40.12H267.41V42.12ZM260.885 42.12V20.01H256.885V42.12H260.885ZM258.885 22.01H265.705V18.01H258.885V22.01ZM267.369 21.1194C267.602 20.771 267.772 20.5184 267.927 20.3244L264.803 17.8256C264.519 18.1816 264.249 18.589 264.041 18.9006L267.369 21.1194ZM266.365 17.075H258.885V21.075H266.365V17.075ZM260.885 19.075V5.93H256.885V19.075H260.885ZM258.885 7.93H267.41V3.93H258.885V7.93ZM268.947 7.21037C269.052 7.08356 269.161 6.96322 269.303 6.80784C269.436 6.66072 269.602 6.47856 269.772 6.27537L266.699 3.71463C266.593 3.84144 266.484 3.96178 266.343 4.11716C266.209 4.26428 266.043 4.44644 265.874 4.64963L268.947 7.21037ZM268.235 2.995H257.07V6.995H268.235V2.995ZM255.07 4.995V43.055H259.07V4.995H255.07ZM257.07 45.055H268.235V41.055H257.07V45.055ZM269.772 41.7746C269.511 41.4614 269.176 41.0571 268.824 40.7058L265.996 43.5342C266.195 43.7329 266.41 43.9886 266.699 44.3354L269.772 41.7746ZM267.41 40.12H258.885V44.12H267.41V40.12ZM280.673 4.995L280.04 3.09763L278.673 3.55348V4.995H280.673ZM280.673 43.055H278.673V45.055H280.673V43.055ZM282.488 43.055V45.055H284.488V43.055H282.488ZM282.488 28.26L282.817 26.2872L280.488 25.8991V28.26H282.488ZM282.488 27.325H280.488V28.9942L282.13 29.2927L282.488 27.325ZM282.488 5.545L281.962 3.61547L280.488 4.0174V5.545H282.488ZM298.403 16.435C298.403 8.67543 292.117 2.39 284.358 2.39V6.39C289.908 6.39 294.403 10.8846 294.403 16.435H298.403ZM284.358 2.39C282.866 2.39 281.388 2.64835 280.04 3.09763L281.305 6.89236C282.267 6.57164 283.319 6.39 284.358 6.39V2.39ZM278.673 4.995V43.055H282.673V4.995H278.673ZM280.673 45.055H282.488V41.055H280.673V45.055ZM284.488 43.055V28.26H280.488V43.055H284.488ZM282.159 30.2328C282.911 30.3581 283.627 30.425 284.358 30.425V26.425C283.879 26.425 283.385 26.3819 282.817 26.2872L282.159 30.2328ZM284.358 30.425C292.111 30.425 298.403 24.1455 298.403 16.435H294.403C294.403 21.9245 289.914 26.425 284.358 26.425V30.425ZM292.533 16.435C292.533 21.5937 288.711 25.49 284.358 25.49V29.49C291.224 29.49 296.533 23.4863 296.533 16.435H292.533ZM284.358 25.49C283.864 25.49 283.324 25.4443 282.846 25.3573L282.13 29.2927C282.861 29.4257 283.642 29.49 284.358 29.49V25.49ZM284.488 27.325V5.545H280.488V27.325H284.488ZM283.014 7.47453C283.389 7.37226 283.858 7.325 284.358 7.325V3.325C283.648 3.325 282.797 3.38774 281.962 3.61547L283.014 7.47453ZM284.358 7.325C288.699 7.325 292.533 11.2629 292.533 16.435H296.533C296.533 9.39706 291.237 3.325 284.358 3.325V7.325ZM310.656 42.12H308.656V44.12H310.656V42.12ZM310.656 20.01V18.01H308.656V20.01H310.656ZM317.476 20.01V22.01H318.546L319.14 21.1194L317.476 20.01ZM318.136 19.075L319.698 20.3244L322.297 17.075H318.136V19.075ZM310.656 19.075H308.656V21.075H310.656V19.075ZM310.656 5.93V3.93H308.656V5.93H310.656ZM319.181 5.93V7.93H320.118L320.717 7.21037L319.181 5.93ZM320.006 4.995L321.542 6.27537L324.276 2.995H320.006V4.995ZM308.841 4.995V2.995H306.841V4.995H308.841ZM308.841 43.055H306.841V45.055H308.841V43.055ZM320.006 43.055V45.055H324.276L321.542 41.7746L320.006 43.055ZM319.181 42.12L320.595 40.7058L320.009 40.12H319.181V42.12ZM312.656 42.12V20.01H308.656V42.12H312.656ZM310.656 22.01H317.476V18.01H310.656V22.01ZM319.14 21.1194C319.372 20.771 319.543 20.5184 319.698 20.3244L316.574 17.8256C316.29 18.1816 316.02 18.589 315.812 18.9006L319.14 21.1194ZM318.136 17.075H310.656V21.075H318.136V17.075ZM312.656 19.075V5.93H308.656V19.075H312.656ZM310.656 7.93H319.181V3.93H310.656V7.93ZM320.717 7.21037C320.823 7.08356 320.932 6.96322 321.073 6.80784C321.207 6.66072 321.373 6.47856 321.542 6.27537L318.47 3.71463C318.364 3.84144 318.255 3.96178 318.114 4.11716C317.98 4.26428 317.814 4.44644 317.645 4.64963L320.717 7.21037ZM320.006 2.995H308.841V6.995H320.006V2.995ZM306.841 4.995V43.055H310.841V4.995H306.841ZM308.841 45.055H320.006V41.055H308.841V45.055ZM321.542 41.7746C321.281 41.4614 320.947 41.0571 320.595 40.7058L317.767 43.5342C317.965 43.7329 318.181 43.9886 318.47 44.3354L321.542 41.7746ZM319.181 40.12H310.656V44.12H319.181V40.12ZM343.389 27.545L345.023 28.6981L346.49 26.6196L344.124 25.6849L343.389 27.545ZM332.444 43.055L330.81 41.9019L328.585 45.055H332.444V43.055ZM334.259 43.055V45.055H335.294L335.892 44.2095L334.259 43.055ZM344.874 28.04L345.438 26.1213L344.066 25.7178L343.241 26.8855L344.874 28.04ZM349.714 28.26H351.714V25.8636L349.356 26.2923L349.714 28.26ZM349.714 43.055H347.714V45.055H349.714V43.055ZM351.584 43.055V45.055H353.584V43.055H351.584ZM351.584 4.995H353.584V3.55348L352.216 3.09763L351.584 4.995ZM349.714 5.545H351.714V4.0174L350.24 3.61547L349.714 5.545ZM349.714 27.325L350.072 29.2927L351.714 28.9942V27.325H349.714ZM347.899 2.39C340.139 2.39 333.854 8.67543 333.854 16.435H337.854C337.854 10.8846 342.348 6.39 347.899 6.39V2.39ZM333.854 16.435C333.854 22.2756 337.449 27.3489 342.654 29.4051L344.124 25.6849C340.418 24.2211 337.854 20.6044 337.854 16.435H333.854ZM341.755 26.3919L330.81 41.9019L334.078 44.2081L345.023 28.6981L341.755 26.3919ZM332.444 45.055H334.259V41.055H332.444V45.055ZM335.892 44.2095L346.507 29.1945L343.241 26.8855L332.626 41.9005L335.892 44.2095ZM344.309 29.9587C345.48 30.3031 346.727 30.425 347.899 30.425V26.425C346.981 26.425 346.137 26.3269 345.438 26.1213L344.309 29.9587ZM347.899 30.425C348.626 30.425 349.35 30.3589 350.072 30.2277L349.356 26.2923C348.867 26.3811 348.382 26.425 347.899 26.425V30.425ZM347.714 28.26V43.055H351.714V28.26H347.714ZM349.714 45.055H351.584V41.055H349.714V45.055ZM353.584 43.055V4.995H349.584V43.055H353.584ZM352.216 3.09763C350.868 2.64835 349.39 2.39 347.899 2.39V6.39C348.937 6.39 349.989 6.57164 350.951 6.89237L352.216 3.09763ZM347.899 25.49C343.545 25.49 339.724 21.5937 339.724 16.435H335.724C335.724 23.4863 341.032 29.49 347.899 29.49V25.49ZM339.724 16.435C339.724 11.2629 343.557 7.325 347.899 7.325V3.325C341.02 3.325 335.724 9.39706 335.724 16.435H339.724ZM347.899 7.325C348.384 7.325 348.802 7.36938 349.188 7.47453L350.24 3.61547C349.416 3.39062 348.624 3.325 347.899 3.325V7.325ZM347.714 5.545V27.325H351.714V5.545H347.714ZM349.356 25.3573C348.867 25.4461 348.382 25.49 347.899 25.49V29.49C348.626 29.49 349.35 29.4238 350.072 29.2927L349.356 25.3573Z" fill="white"/>
</svg>
